<svg xmlns="http://www.w3.org/2000/svg" width="11.174" height="15.38" viewBox="0 0 11.174 15.38">
  <g id="number-sign-svgrepo-com" transform="translate(-41.867)">
    <path id="Path_4310" data-name="Path 4310" d="M42.972,9.7a1.15,1.15,0,1,0,.4,2.265l.663-.116V14.23a1.15,1.15,0,0,0,2.3,0V11.44l2.051-.361v2.432a1.15,1.15,0,0,0,2.3,0V10.676l1.406-.248a1.149,1.149,0,1,0-.4-2.264l-1.009.177V5.953l1.253-.22a1.15,1.15,0,0,0-.4-2.265l-.855.15V1.15a1.15,1.15,0,0,0-2.3,0V4.022l-2.051.36V1.868a1.15,1.15,0,1,0-2.3,0V4.787L42.818,5a1.15,1.15,0,0,0,.2,2.283,1.177,1.177,0,0,0,.2-.018l.816-.143V9.51Zm3.36-2.978,2.051-.36V8.745l-2.051.361Z" fill="#fe9805"/>
  </g>
</svg>
