<svg xmlns="http://www.w3.org/2000/svg" width="351.035" height="260.35" viewBox="0 0 351.035 260.35">
  <g id="Group_15283" data-name="Group 15283" transform="translate(-103.621 -93.385)">
    <g id="undraw_toy_car_7umw" transform="translate(103.621 93.385)">
      <g id="Group_15280" data-name="Group 15280" transform="translate(202.676 81.181)" opacity="0.3">
        <rect id="Rectangle_749" data-name="Rectangle 749" width="41.948" height="12.681" rx="6.34" transform="translate(0 63.411)" fill="#f2f2f2"/>
        <rect id="Rectangle_750" data-name="Rectangle 750" width="41.948" height="12.681" rx="6.34" transform="translate(43.899 76.092)" fill="#f2f2f2"/>
        <rect id="Rectangle_751" data-name="Rectangle 751" width="41.948" height="12.681" rx="6.34" transform="translate(87.8 88.776)" fill="#f2f2f2"/>
        <rect id="Rectangle_752" data-name="Rectangle 752" width="41.948" height="12.681" rx="6.34" transform="translate(0 44.386)" fill="#f2f2f2"/>
        <rect id="Rectangle_753" data-name="Rectangle 753" width="41.948" height="12.681" rx="6.34" transform="translate(43.899 57.07)" fill="#f2f2f2"/>
        <rect id="Rectangle_754" data-name="Rectangle 754" width="41.948" height="12.681" rx="6.34" transform="translate(87.8 69.751)" fill="#f2f2f2"/>
        <rect id="Rectangle_755" data-name="Rectangle 755" width="41.948" height="12.681" rx="6.34" transform="translate(0 19.025)" fill="#f2f2f2"/>
        <rect id="Rectangle_756" data-name="Rectangle 756" width="41.948" height="12.681" rx="6.34" transform="translate(43.899 31.705)" fill="#f2f2f2"/>
        <rect id="Rectangle_757" data-name="Rectangle 757" width="41.948" height="12.681" rx="6.34" transform="translate(87.8 44.386)" fill="#f2f2f2"/>
        <rect id="Rectangle_758" data-name="Rectangle 758" width="41.948" height="12.681" rx="6.34" fill="#f2f2f2"/>
        <rect id="Rectangle_759" data-name="Rectangle 759" width="41.948" height="12.681" rx="6.34" transform="translate(43.899 12.681)" fill="#f2f2f2"/>
        <rect id="Rectangle_760" data-name="Rectangle 760" width="41.948" height="12.681" rx="6.34" transform="translate(87.8 25.365)" fill="#f2f2f2"/>
        <rect id="Rectangle_761" data-name="Rectangle 761" width="41.948" height="12.681" rx="6.34" transform="translate(0 63.411)" fill="#fe9805" opacity="0.1"/>
        <rect id="Rectangle_762" data-name="Rectangle 762" width="41.948" height="12.681" rx="6.34" transform="translate(43.899 76.092)" fill="#fe9805" opacity="0.1"/>
        <rect id="Rectangle_763" data-name="Rectangle 763" width="41.948" height="12.681" rx="6.34" transform="translate(87.8 88.776)" fill="#fe9805" opacity="0.1"/>
        <rect id="Rectangle_764" data-name="Rectangle 764" width="41.948" height="12.681" rx="6.34" transform="translate(0 44.386)" fill="#fe9805" opacity="0.1"/>
        <rect id="Rectangle_765" data-name="Rectangle 765" width="41.948" height="12.681" rx="6.34" transform="translate(43.899 57.07)" fill="#fe9805" opacity="0.1"/>
        <rect id="Rectangle_766" data-name="Rectangle 766" width="41.948" height="12.681" rx="6.34" transform="translate(87.8 69.751)" fill="#fe9805" opacity="0.1"/>
        <rect id="Rectangle_767" data-name="Rectangle 767" width="41.948" height="12.681" rx="6.34" transform="translate(0 19.025)" fill="#fe9805" opacity="0.1"/>
        <rect id="Rectangle_768" data-name="Rectangle 768" width="41.948" height="12.681" rx="6.34" transform="translate(43.899 31.705)" fill="#fe9805" opacity="0.1"/>
        <rect id="Rectangle_769" data-name="Rectangle 769" width="41.948" height="12.681" rx="6.34" transform="translate(87.8 44.386)" fill="#fe9805" opacity="0.1"/>
        <rect id="Rectangle_770" data-name="Rectangle 770" width="41.948" height="12.681" rx="6.34" fill="#6c63ff" opacity="0.1"/>
        <rect id="Rectangle_771" data-name="Rectangle 771" width="41.948" height="12.681" rx="6.34" transform="translate(43.899 12.681)" fill="#fe9805" opacity="0.1"/>
        <rect id="Rectangle_772" data-name="Rectangle 772" width="41.948" height="12.681" rx="6.34" transform="translate(87.8 25.365)" fill="#fe9805" opacity="0.1"/>
      </g>
      <g id="Group_15281" data-name="Group 15281" transform="translate(38.389)" opacity="0.3">
        <rect id="Rectangle_773" data-name="Rectangle 773" width="41.948" height="12.681" rx="6.34" transform="translate(0 63.411)" fill="#f2f2f2"/>
        <rect id="Rectangle_774" data-name="Rectangle 774" width="41.948" height="12.681" rx="6.34" transform="translate(43.899 76.092)" fill="#f2f2f2"/>
        <rect id="Rectangle_775" data-name="Rectangle 775" width="41.948" height="12.681" rx="6.34" transform="translate(87.8 88.776)" fill="#f2f2f2"/>
        <rect id="Rectangle_776" data-name="Rectangle 776" width="41.948" height="12.681" rx="6.34" transform="translate(0 44.386)" fill="#f2f2f2"/>
        <rect id="Rectangle_777" data-name="Rectangle 777" width="41.948" height="12.681" rx="6.34" transform="translate(43.899 57.07)" fill="#f2f2f2"/>
        <rect id="Rectangle_778" data-name="Rectangle 778" width="41.948" height="12.681" rx="6.34" transform="translate(87.8 69.751)" fill="#f2f2f2"/>
        <rect id="Rectangle_779" data-name="Rectangle 779" width="41.948" height="12.681" rx="6.34" transform="translate(0 19.025)" fill="#f2f2f2"/>
        <rect id="Rectangle_780" data-name="Rectangle 780" width="41.948" height="12.681" rx="6.34" transform="translate(43.899 31.705)" fill="#f2f2f2"/>
        <rect id="Rectangle_781" data-name="Rectangle 781" width="41.948" height="12.681" rx="6.34" transform="translate(87.8 44.386)" fill="#f2f2f2"/>
        <rect id="Rectangle_782" data-name="Rectangle 782" width="41.948" height="12.681" rx="6.34" fill="#f2f2f2"/>
        <rect id="Rectangle_783" data-name="Rectangle 783" width="41.948" height="12.681" rx="6.34" transform="translate(43.899 12.681)" fill="#f2f2f2"/>
        <rect id="Rectangle_784" data-name="Rectangle 784" width="41.948" height="12.681" rx="6.34" transform="translate(87.8 25.365)" fill="#f2f2f2"/>
        <rect id="Rectangle_785" data-name="Rectangle 785" width="41.948" height="12.681" rx="6.34" transform="translate(0 63.411)" fill="#fe9805" opacity="0.1"/>
        <rect id="Rectangle_786" data-name="Rectangle 786" width="41.948" height="12.681" rx="6.34" transform="translate(43.899 76.092)" fill="#fe9805" opacity="0.1"/>
        <rect id="Rectangle_787" data-name="Rectangle 787" width="41.948" height="12.681" rx="6.34" transform="translate(87.8 88.776)" fill="#fe9805" opacity="0.1"/>
        <rect id="Rectangle_788" data-name="Rectangle 788" width="41.948" height="12.681" rx="6.34" transform="translate(0 44.386)" fill="#fe9805" opacity="0.1"/>
        <rect id="Rectangle_789" data-name="Rectangle 789" width="41.948" height="12.681" rx="6.34" transform="translate(43.899 57.07)" fill="#fe9805" opacity="0.1"/>
        <rect id="Rectangle_790" data-name="Rectangle 790" width="41.948" height="12.681" rx="6.34" transform="translate(87.8 69.751)" fill="#fe9805" opacity="0.1"/>
        <rect id="Rectangle_791" data-name="Rectangle 791" width="41.948" height="12.681" rx="6.34" transform="translate(0 19.025)" fill="#6c63ff" opacity="0.1"/>
        <rect id="Rectangle_792" data-name="Rectangle 792" width="41.948" height="12.681" rx="6.34" transform="translate(43.899 31.705)" fill="#fe9805" opacity="0.1"/>
        <rect id="Rectangle_793" data-name="Rectangle 793" width="41.948" height="12.681" rx="6.34" transform="translate(87.8 44.386)" fill="#fe9805" opacity="0.1"/>
        <rect id="Rectangle_794" data-name="Rectangle 794" width="41.948" height="12.681" rx="6.34" fill="#fe9805" opacity="0.1"/>
        <rect id="Rectangle_795" data-name="Rectangle 795" width="41.948" height="12.681" rx="6.34" transform="translate(43.899 12.681)" fill="#fe9805" opacity="0.1"/>
        <rect id="Rectangle_796" data-name="Rectangle 796" width="41.948" height="12.681" rx="6.34" transform="translate(87.8 25.365)" fill="#fe9805" opacity="0.1"/>
      </g>
      <g id="Group_16128" data-name="Group 16128">
        <g id="Group_15282" data-name="Group 15282" transform="translate(25.761 92.648)" opacity="0.1">
          <path id="Path_3023" data-name="Path 3023" d="M282.144,553.769a25.856,25.856,0,0,1-.558,5.413c-.071.321-.148.664-.225.985-1.98,7.948-7.573,13.762-14.244,14.119-.221,0-.446.019-.677.019-7.059,0-13.021-6.1-14.988-14.465-.058-.225-.106-.446-.154-.671a25.848,25.848,0,0,1-.558-5.413c0-11.356,7.027-20.536,15.7-20.536S282.144,542.413,282.144,553.769Z" transform="translate(-213.052 -469.231)" fill="#fe9805"/>
          <path id="Path_3024" data-name="Path 3024" d="M282.171,553.742a25.849,25.849,0,0,1-.558,5.413c-.071.321-.148.664-.225.985a5.684,5.684,0,0,1-.7-.029,31.872,31.872,0,0,1-5.134-.7,31.6,31.6,0,0,1-4.579,1.046,32.214,32.214,0,0,1-3.587.321c-.4,0-.809.022-1.213.022a32.74,32.74,0,0,1-4.3-.286,31.759,31.759,0,0,1-6.738-1.675,31.484,31.484,0,0,1-3.642.963c-.058-.225-.106-.446-.154-.671a25.85,25.85,0,0,1-.558-5.413c0-11.356,7.027-20.536,15.7-20.536S282.171,542.386,282.171,553.742Z" transform="translate(-213.079 -469.204)" opacity="0.1"/>
          <path id="Path_3025" data-name="Path 3025" d="M235.906,380.046a31.788,31.788,0,0,0-3.417-14.381l-18.466,5.74,16.207-9.53a31.885,31.885,0,0,0-23.976-13.666,31.989,31.989,0,0,0-2.487-3.3l-26.546,8.256,21.752-12.79a31.917,31.917,0,0,0-50.223,17.006l22.721,26.154L146.79,365.725a31.92,31.92,0,0,0,28.558,56.32,32.088,32.088,0,0,0,20.449.562,31.933,31.933,0,0,0,38.826-31.163c0-.709-.026-1.412-.071-2.111a31.917,31.917,0,0,0,1.354-9.286Z" transform="translate(-133.318 -333.797)" fill="#fe9805"/>
          <path id="Path_3026" data-name="Path 3026" d="M235.324,480.852a85.029,85.029,0,0,0-29.549-.375c-11.086,1.835-22.419,5.869-33.265,2.92-6.363-1.733-11.872-5.737-18.081-7.958a34.272,34.272,0,0,0-18.668-1.126,31.933,31.933,0,0,0,39.564,42.618,32.089,32.089,0,0,0,20.44.561,31.933,31.933,0,0,0,38.826-31.163c0-.709-.026-1.412-.071-2.111A31.594,31.594,0,0,0,235.324,480.852Z" transform="translate(-133.285 -428.684)" opacity="0.1"/>
        </g>
        <ellipse id="Ellipse_173" data-name="Ellipse 173" cx="175.517" cy="31.927" rx="175.517" ry="31.927" transform="translate(0 192.556)" fill="#fe9805" opacity="0.1"/>
      </g>
      <path id="Path_3027" data-name="Path 3027" d="M778.98,746.294a6.1,6.1,0,0,1,9.44-3.53l.25.183c5.368,4.024,2.182,11.4,0,11.571s-6.379.347-6.379.347S777.347,752.824,778.98,746.294Z" transform="translate(-545.808 -518.131)" fill="#192534"/>
      <path id="Path_3028" data-name="Path 3028" d="M835.121,703.819v1.341s-21.819,1.508-24.149,1.508h-4.361s-.064.067-.17.189c-.18.2-.484.558-.821,1a8.613,8.613,0,0,0-1.694,3.17,3.6,3.6,0,0,1-1.508,2.516l-4.361-1.171-4.207-5.031-.613-.59-1.746-1.665L790,703.658l.074-.8v-.122a45.518,45.518,0,0,1,1.367-5.1.463.463,0,0,1,.045-.138c1.21-3.632,3.228-8.044,6.135-9.357.221-.1.452-.2.7-.282l.3-.1c5.577-1.867,16.114-1.126,16.114-1.126s8.047,2.349,8.721,3.356,8.3,9.305,8.3,9.305a12.521,12.521,0,0,1,1.842,1.7A5.711,5.711,0,0,1,835.121,703.819Z" transform="translate(-553.517 -480.671)" fill="#fe9805"/>
      <ellipse id="Ellipse_174" data-name="Ellipse 174" cx="2.349" cy="3.69" rx="2.349" ry="3.69" transform="translate(233.47 226.838)" fill="#fff" opacity="0.1"/>
      <path id="Path_3029" data-name="Path 3029" d="M802.182,692.283s-1.925,2.952-3.959,6.738a.116.116,0,0,0,0,.029c-.542,1.007-1.094,2.069-1.62,3.157l-.023.051s-1.113-.882-1.989-1.742a.464.464,0,0,1,.045-.138c1.21-3.632,3.228-8.044,6.135-9.357.222-.1.453-.2.7-.282Z" transform="translate(-556.634 -483.559)" opacity="0.1"/>
      <path id="Path_3030" data-name="Path 3030" d="M800.48,705.474s11.907,3.53,14.253,2.012c0,0,.841-10.733-4.694-11.4,0,0-3.186-.841-3.85-.321S800.48,705.474,800.48,705.474Z" transform="translate(-560.634 -486.854)" fill="#fff" opacity="0.1"/>
      <path id="Path_3031" data-name="Path 3031" d="M848.56,699.694s2.349,8.888,4.027,9.058,18.61-.17,17.943-1.344-8.051-8.718-8.051-8.718Z" transform="translate(-593.287 -488.958)" fill="#fff" opacity="0.1"/>
      <path id="Path_3032" data-name="Path 3032" d="M836.188,748.182s3.048-4.008,8.416.019,2.179,11.4,0,11.571-6.356.337-6.356.337S831.629,757.388,836.188,748.182Z" transform="translate(-583.796 -521.364)" fill="#192534"/>
      <path id="Path_3033" data-name="Path 3033" d="M915.22,748.258a4.858,4.858,0,0,0-6.568-2.817,9.389,9.389,0,0,0-1.694,1.03c-4.778,3.581-1.925,10.149,0,10.3.7.051,1.624.106,2.525.154a5.975,5.975,0,0,0,6.142-7.3A12.579,12.579,0,0,0,915.22,748.258Z" transform="translate(-631.167 -520.419)" fill="#192534"/>
      <ellipse id="Ellipse_175" data-name="Ellipse 175" cx="2.349" cy="3.69" rx="2.349" ry="3.69" transform="translate(251.417 228.85)" fill="#fff" opacity="0.1"/>
      <path id="Path_3034" data-name="Path 3034" d="M864.232,740.751s-.321-4.864,4.864-2.853,1.845,4.194,1.845,4.194Z" transform="translate(-603.927 -515.254)" fill="#fff" opacity="0.1"/>
      <path id="Path_3035" data-name="Path 3035" d="M925.137,734.449v.671l-.837.321-1.71-.321s-.366-2.747,1.036-3.53A6.107,6.107,0,0,1,925.137,734.449Z" transform="translate(-643.533 -511.301)" fill="#fff" opacity="0.1"/>
      <path id="Path_3036" data-name="Path 3036" d="M835.121,738.495V739.8s-21.819,1.508-24.149,1.508h-.019a4.057,4.057,0,0,0-3.427-.5,3.753,3.753,0,0,0-.863.5c-.077.061-.151.125-.221.189a4.576,4.576,0,0,0-.821,1c-1.5,2.429-1.181,6.19-1.181,6.19-4.361,1.341-8.888-2.179-8.888-2.179a22.132,22.132,0,0,0-2.291-5.134,4.3,4.3,0,0,0-1.745-1.665L790,738.3l.074-.8,12.171,8.85s1.174-7.547,3.85-7.043a60.622,60.622,0,0,0,8.051.5Z" transform="translate(-553.517 -515.315)" opacity="0.1"/>
      <path id="Path_3037" data-name="Path 3037" d="M786.982,737.36s-1.008,2.516,0,2.686,3.27-1.925,6.206,6.876c0,0,4.527,3.53,8.888,2.179,0,0-.52-6.373,3.1-7.884s9.649,6.039,9.649,6.039v1.678l14.256-1.511s4.361-3.353,4.194-8.551l-21.466,1.341a60.65,60.65,0,0,1-8.051-.5c-2.682-.5-3.85,7.059-3.85,7.059Z" transform="translate(-551.163 -515.22)" fill="#fe9805"/>
      <rect id="Rectangle_797" data-name="Rectangle 797" width="17.946" height="17.946" rx="8.973" transform="translate(166.472 176.271)" fill="#192534"/>
      <path id="Path_3038" data-name="Path 3038" d="M563.373,639.195a17.32,17.32,0,0,0,3.292-3.475,16.378,16.378,0,0,0,1.7-4.04q1.883-6,3.244-12.145c-4.938-.754-8.625-5.115-13.454-6.4-.115-.032-3.809,22.159-4.078,24.188-.221,1.675-2.134,9.674.045,9.719,1.165.026,3.6-2.888,4.457-3.655Z" transform="translate(-392.627 -430.859)" fill="#3f3d56"/>
      <path id="Path_3039" data-name="Path 3039" d="M563.373,639.195a17.32,17.32,0,0,0,3.292-3.475,16.378,16.378,0,0,0,1.7-4.04q1.883-6,3.244-12.145c-4.938-.754-8.625-5.115-13.454-6.4-.115-.032-3.809,22.159-4.078,24.188-.221,1.675-2.134,9.674.045,9.719,1.165.026,3.6-2.888,4.457-3.655Z" transform="translate(-392.627 -430.859)" opacity="0.1"/>
      <path id="Path_3040" data-name="Path 3040" d="M346.527,512.92a3.584,3.584,0,0,0-1.572.443c-.642.449-.805,1.284-1.11,2.009a4.919,4.919,0,0,1-1.941,2.246c-.735.449-1.63.751-2.07,1.489a3.283,3.283,0,0,0-.343,1.6,30.752,30.752,0,0,0,.221,4.922,7.451,7.451,0,0,1,.067,2.458,6.907,6.907,0,0,1-1.348,2.519c-1.348,1.864-2.666,3.911-2.776,6.209a16.794,16.794,0,0,1-.09,3.459c-.517,1.986-2.622,3.282-3.032,5.291a9.554,9.554,0,0,1-.321,1.778c-.4.963-1.518,1.489-1.8,2.48a7.571,7.571,0,0,0,.122,2.3,6.147,6.147,0,0,1-1.133,3.154l-3.34,5.679a14.452,14.452,0,0,0-2.378,5.9,13.209,13.209,0,0,0,1.069,5.545c1.434,3.963,3.565,8.16,7.5,9.684,2.314.9,4.89.706,7.364.5a52.563,52.563,0,0,0,10.069-1.492c1.62-.459,3.209-1.072,4.845-1.4a26.5,26.5,0,0,0,3.263-.671,6.738,6.738,0,0,0,4.377-5.294c1.4.552,2.7-1.284,2.5-2.772s-1.2-2.75-1.6-4.194a8.228,8.228,0,0,1,.963-5.991c.963-1.835,2.291-3.459,3.34-5.246a19.987,19.987,0,0,0,2.4-6.469,39.85,39.85,0,0,0,.218-9.36l-.661-11.933a16.611,16.611,0,0,0-1.223-6.417,15.264,15.264,0,0,0-4.9-5.166,81.8,81.8,0,0,0-8.9-5.9c-2-1.117-1.855-.683-3.443.642A8.849,8.849,0,0,1,346.527,512.92Z" transform="translate(-236.808 -360.576)" fill="#3f3d56"/>
      <path id="Path_3041" data-name="Path 3041" d="M458.384,607.2a34.169,34.169,0,0,0-6.312,5.91,17.1,17.1,0,0,0-3.427,9.687,29.862,29.862,0,0,0,.343,4.9c.343,2.647.963,5.6,3.193,7.059,1.405.921,3.337,1.152,4.3,2.532a11.8,11.8,0,0,0,.831,1.345,3.656,3.656,0,0,0,2.567.9,23.787,23.787,0,0,0,4.139-.128,15.48,15.48,0,0,1,4.717-.237c3.023.568,5.278,3.421,8.343,3.8,2.544.321,4.929-1.158,7.059-2.567,2.2-1.453,4.492-3.01,5.683-5.362,1.158-2.285,1.094-4.974,1-7.537a36.421,36.421,0,0,0-.963-8.474,14.868,14.868,0,0,1-.542-2.2c-.228-1.925.642-3.818,1.283-5.66,1-2.8,1.434-6.254-.549-8.468a7.463,7.463,0,0,0-3.183-1.925c-5.214-1.874-10.971-1.161-16.32-.321C465.443,601.217,462.388,604.041,458.384,607.2Z" transform="translate(-321.692 -421.651)" fill="#3f3d56"/>
      <path id="Path_3042" data-name="Path 3042" d="M579.282,556.155a64.425,64.425,0,0,0-5.631,9.626,62,62,0,0,0-2.567,7.573c-2.06,7.12-4.1,14.394-8.218,20.558a6.069,6.069,0,0,0-1.306,2.869,5.593,5.593,0,0,0,.876,2.811,27.5,27.5,0,0,0,3.344,5.378,27.863,27.863,0,0,0,4.672,4.075c3.437,2.567,7.255,5.288,11.551,5.1a3.4,3.4,0,0,0,2.432-.911,3.016,3.016,0,0,0,.571-2.435c-.321-2.641-2.31-4.717-4.114-6.674s-3.616-4.245-3.472-6.915c.112-2.2,1.556-4.085,2.939-5.8,1.582-1.97,3.167-3.937,4.659-5.975,6.453-8.808,11.112-18.823,14.8-29.1,1.556-4.338,2.971-8.895,2.487-13.477-3.529-.866-10.589-3.761-13.57-.773-1.806,1.81-3.083,4.492-4.492,6.626Z" transform="translate(-398.374 -381.7)" fill="#ab8f7d"/>
      <path id="Path_3043" data-name="Path 3043" d="M665.383,454.672a55.059,55.059,0,0,0-5.211,12.386,6.712,6.712,0,0,0-.337,3.209,11.15,11.15,0,0,0,1.6,3.071,3.554,3.554,0,0,1,.465,3.3,21.55,21.55,0,0,1-7.4-1.165l-7.586-2.118a3.914,3.914,0,0,1-1.717-.8c-.879-.831-.812-2.227-.642-3.42,1.486-9.774,6.257-18.784,8.044-28.5.26-1.4.533-2.955,1.649-3.85,3.209-2.535,10.473-.388,12.135,3.282C668.245,444.144,667.485,451.011,665.383,454.672Z" transform="translate(-454.672 -310.343)" fill="#fe9805"/>
      <path id="Path_3044" data-name="Path 3044" d="M581.647,373.221c-.286.148-.606.321-.693.622a1.13,1.13,0,0,0,.3.908l3.238,4.556a143.172,143.172,0,0,0,10.085,13.111,71.2,71.2,0,0,0,9.125,8.49,6.9,6.9,0,0,1,2.362,2.548,24.556,24.556,0,0,1,1-18.216c1.059-2.246,2.458-4.329,3.558-6.562a.934.934,0,0,0-.51-1.514c-2.8-1.444-5.872-2.317-8.664-3.786a46.4,46.4,0,0,1-6.138-4.136c-1.755-1.319-4.091-3.648-6.257-4.2-2.339-.6-2.246,1.531-3,3.311A9.825,9.825,0,0,1,581.647,373.221Z" transform="translate(-411.543 -262.296)" fill="#fbbebe"/>
      <path id="Path_3045" data-name="Path 3045" d="M581.647,373.221c-.286.148-.606.321-.693.622a1.13,1.13,0,0,0,.3.908l3.238,4.556a143.172,143.172,0,0,0,10.085,13.111,71.2,71.2,0,0,0,9.125,8.49,6.9,6.9,0,0,1,2.362,2.548,24.556,24.556,0,0,1,1-18.216c1.059-2.246,2.458-4.329,3.558-6.562a.934.934,0,0,0-.51-1.514c-2.8-1.444-5.872-2.317-8.664-3.786a46.4,46.4,0,0,1-6.138-4.136c-1.755-1.319-4.091-3.648-6.257-4.2-2.339-.6-2.246,1.531-3,3.311A9.825,9.825,0,0,1,581.647,373.221Z" transform="translate(-411.543 -262.296)" opacity="0.1"/>
      <path id="Path_3046" data-name="Path 3046" d="M479.441,389.661c-1.466-1.656-3.446-2.75-5.182-4.123a36.89,36.89,0,0,1-6.376-7.075c-3.5-4.694-7.024-10.444-5.282-16.044-1.852-.18-3.449,1.341-4.322,2.981s-1.322,3.507-2.41,5.012c-1.652,2.288-4.463,3.353-7.082,4.4a115.41,115.41,0,0,0-16.628,8.263,23.762,23.762,0,0,0-5.888,4.54c-1.746,2.005-2.84,4.492-4.322,6.69a25.329,25.329,0,0,1-12.148,9.4,22.609,22.609,0,0,0-4.758,2.054c-3.074,2.076-4.354,6.215-3.626,9.854a15.259,15.259,0,0,0,6.19,8.94,38.931,38.931,0,0,0,9.815,4.784q4.325,1.588,8.705,3.029a49.972,49.972,0,0,0,6.575,1.784c4.1.754,8.323.568,12.472,1.027,3.793.417,7.518,1.377,11.327,1.643s7.842-.241,10.945-2.458c2.467-1.762,4.11-4.422,5.628-7.059a192.135,192.135,0,0,0,10.537-21.068c.908-2.14,9.334-14.263,7.236-15.829-10.566-7.884-7.059,4.643-8.067,3.68C481.434,392.8,480.661,391.038,479.441,389.661Z" transform="translate(-289.485 -260.578)" fill="#fe9805"/>
      <path id="Path_3047" data-name="Path 3047" d="M470.969,376.016a97.148,97.148,0,0,1-5.326-14.3,6.8,6.8,0,0,1-.391-4.139c.545-1.6,2.291-2.975,1.778-4.582-4.081,1.284-8.821,3.3-9.626,7.5a9.853,9.853,0,0,1-.571,2.724c-.831,1.624-2.949,1.97-4.749,2.246-5.237.837-10.441,2.949-14.029,6.854a10.843,10.843,0,0,1-1.925,1.851,8.364,8.364,0,0,1-1.73.77c-3.51,1.261-7.12,2.833-9.379,5.8-1.165,1.527-1.909,3.36-3.209,4.778-1.758,1.925-4.348,2.888-6.251,4.682a16.582,16.582,0,0,0-3.045,4.239c-3.26,5.891-5.651,12.8-3.921,19.31.9,3.4,2.888,6.437,3.956,9.793,1.473,4.572,1.328,9.787,4.091,13.717a17.014,17.014,0,0,0,7.2,5.336,38.707,38.707,0,0,0,19.573,3.151,72.908,72.908,0,0,0,7.38-1.245c5.817-1.2,11.7-2.506,16.981-5.221,9.013-4.63,15.5-12.905,21.691-20.927a28.051,28.051,0,0,0,3.209-4.813,35.716,35.716,0,0,0,1.877-5.24c1.877-5.971,4.518-11.917,4.271-18.168a5.34,5.34,0,0,0-.433-2.179c-.25-.513-.642-.963-.863-1.479-.391-.924-.215-1.993-.491-2.958-.767-2.7-4.309-3.209-7.114-3.186l-.9,15.816c-.138,2.374-.391,5.009-2.159,6.6a4.694,4.694,0,0,1-5.532.433c-1.887-1.223-2.153-3.356-2.14-5.4a22.068,22.068,0,0,0-1.008-7.38C476.488,385.292,473.35,380.813,470.969,376.016Z" transform="translate(-294.101 -254.184)" fill="#192534"/>
      <path id="Path_3048" data-name="Path 3048" d="M593.033,531.037c11.173,5.663,22.41,11.369,32.408,18.909,2.31,1.739,4.556,3.581,7,5.134,7,4.447,15.681,6.613,21.081,12.9a36.8,36.8,0,0,0,3.408,3.943,14.688,14.688,0,0,0,3.767,2.246A33.229,33.229,0,0,0,674.474,577a8.661,8.661,0,0,0,3.635-.642c3.007-1.457,3.69-5.359,3.995-8.686.1-1.126.125-2.455-.761-3.154a3.587,3.587,0,0,0-1.71-.565c-9.758-1.54-18.762-6.238-26.915-11.818s-15.626-12.094-23.668-17.834c-2.827-2.018-5.721-3.94-8.615-5.862l-9.366-6.219c-4.954-3.289-10.172-6.677-16.089-7.3a2.132,2.132,0,0,0-1.008.068,2.328,2.328,0,0,0-1.062,1.235,91.641,91.641,0,0,1-5.978,9.584c-1.139,1.675-1.268,2.108.7,3C589.4,529.622,591.272,530.146,593.033,531.037Z" transform="translate(-415.048 -364.135)" fill="#b59785"/>
      <path id="Path_3049" data-name="Path 3049" d="M675.091,854.4a.481.481,0,1,0-.481-.481A.481.481,0,0,0,675.091,854.4Z" transform="translate(-475.152 -594.053)"/>
      <circle id="Ellipse_176" data-name="Ellipse 176" cx="30.691" cy="30.691" r="30.691" transform="translate(172.758 71.202)" fill="#b39583"/>
      <path id="Path_3050" data-name="Path 3050" d="M587.87,279.612c.545-2.756,3.709-4.149,6.51-4.335a16.156,16.156,0,0,1,14.414,7.329,22.7,22.7,0,0,0,1.3-5.339l5.134.382a3.555,3.555,0,0,0,1.707-.154,3.343,3.343,0,0,0,1.412-1.6c2.246-4.194,3.748-9.341,7.964-11.551v5.776a7.675,7.675,0,0,0,5.4-4.1,22.666,22.666,0,0,0,1.373,4.662c.1.25.247.526.507.59a.9.9,0,0,0,.693-.254,30.686,30.686,0,0,0,5.3-5.134l6.1,10.57a39.7,39.7,0,0,0-17.27-49.122,31.2,31.2,0,0,0-4.4-2.1,43.678,43.678,0,0,0-12.479-2.262c-6.016-.411-12.367-.395-17.648,2.49a33.527,33.527,0,0,0-7.476,6.132c-3.08,3.1-6.161,6.376-7.8,10.428a33.514,33.514,0,0,0-1.864,8.827,13.7,13.7,0,0,0,.116,5.436c.359,1.21,1.036,2.3,1.492,3.475a27.518,27.518,0,0,1,1.168,6.174A37.255,37.255,0,0,0,583.945,279,3.59,3.59,0,0,0,586,280.985c.959.218,2.111-.841,1.6-1.675" transform="translate(-408.544 -165.75)" fill="#192534"/>
      <path id="Path_3051" data-name="Path 3051" d="M587.87,279.612c.545-2.756,3.709-4.149,6.51-4.335a16.156,16.156,0,0,1,14.414,7.329,22.7,22.7,0,0,0,1.3-5.339l5.134.382a3.555,3.555,0,0,0,1.707-.154,3.343,3.343,0,0,0,1.412-1.6c2.246-4.194,3.748-9.341,7.964-11.551v5.776a7.675,7.675,0,0,0,5.4-4.1,22.666,22.666,0,0,0,1.373,4.662c.1.25.247.526.507.59a.9.9,0,0,0,.693-.254,30.686,30.686,0,0,0,5.3-5.134l6.1,10.57a39.7,39.7,0,0,0-17.27-49.122,31.2,31.2,0,0,0-4.4-2.1,43.678,43.678,0,0,0-12.479-2.262c-6.016-.411-12.367-.395-17.648,2.49a33.527,33.527,0,0,0-7.476,6.132c-3.08,3.1-6.161,6.376-7.8,10.428a33.514,33.514,0,0,0-1.864,8.827,13.7,13.7,0,0,0,.116,5.436c.359,1.21,1.036,2.3,1.492,3.475a27.518,27.518,0,0,1,1.168,6.174A37.255,37.255,0,0,0,583.945,279,3.59,3.59,0,0,0,586,280.985c.959.218,2.111-.841,1.6-1.675" transform="translate(-408.544 -165.75)" fill="none" stroke="#000" stroke-width="1"/>
      <path id="Path_3052" data-name="Path 3052" d="M500.877,452.171c1.238,3.4,4.351,5.715,7.3,7.82l7.7,5.493a19.3,19.3,0,0,1,5.481,5.105,4.271,4.271,0,0,0-2.2,5.224,6.711,6.711,0,0,0,4.467,4.046,16.98,16.98,0,0,0,6.2.5c2.391-.131,4.893-.42,6.867-1.778l-4.335-2.67c-1.142-.709-2.455-1.839-2.037-3.112l4.573-.045a2.214,2.214,0,0,0,1.386-.321,2.451,2.451,0,0,0,.674-1.194,10.124,10.124,0,0,1,8.542-6.443c1.13-.083,2.429-.035,3.209-.876a3.7,3.7,0,0,0,.706-2.108,13.616,13.616,0,0,0,.054-4.284,4.621,4.621,0,0,0-2.406-3.369,11.023,11.023,0,0,0-3.129-.536c-4.842-.642-8.2-5.031-10.8-9.167s-5.388-8.712-10.021-10.252a16.312,16.312,0,0,0-4.457-.683,21.51,21.51,0,0,0-9.822,1.521C503.161,437.626,498.669,446.113,500.877,452.171Z" transform="translate(-356.776 -308.854)" fill="#fe9805"/>
      <path id="Path_3053" data-name="Path 3053" d="M645.792,329.292l-6.1-10.57a30.56,30.56,0,0,1-5.3,5.134.889.889,0,0,1-.693.257c-.26-.064-.4-.34-.507-.59a22.708,22.708,0,0,1-1.373-4.666,7.672,7.672,0,0,1-5.4,4.107v-5.776c-4.216,2.217-5.705,7.364-7.964,11.551a3.389,3.389,0,0,1-1.412,1.6,3.556,3.556,0,0,1-1.707.154l-5.134-.382a22.7,22.7,0,0,1-1.3,5.339,16.156,16.156,0,0,0-14.413-7.329c-2.8.186-5.965,1.579-6.511,4.335l-.273-.3c.517.837-.642,1.9-1.6,1.678a3.581,3.581,0,0,1-2.057-1.986,37.273,37.273,0,0,1-4.406-13.082,27.508,27.508,0,0,0-1.168-6.174c-.456-1.178-1.133-2.265-1.492-3.475a.574.574,0,0,0-.032-.122c-.029.241-.058.481-.084.722a13.8,13.8,0,0,0,.116,5.455c.359,1.21,1.036,2.3,1.492,3.472a27.536,27.536,0,0,1,1.168,6.177,37.222,37.222,0,0,0,4.406,13.079,3.6,3.6,0,0,0,2.057,1.989c.959.218,2.111-.841,1.6-1.678l.273.3c.546-2.753,3.709-4.149,6.511-4.332a16.146,16.146,0,0,1,14.413,7.326,22.624,22.624,0,0,0,1.3-5.336l5.134.379a3.529,3.529,0,0,0,1.707-.154,3.344,3.344,0,0,0,1.412-1.6c2.246-4.2,3.748-9.341,7.964-11.551v5.776a7.672,7.672,0,0,0,5.4-4.107,22.771,22.771,0,0,0,1.373,4.665c.1.247.247.526.507.587a.876.876,0,0,0,.693-.253,30.559,30.559,0,0,0,5.3-5.134l6.1,10.57a40.046,40.046,0,0,0,2.647-17.648A39.691,39.691,0,0,1,645.792,329.292Z" transform="translate(-408.625 -224.309)" opacity="0.1"/>
    </g>
    <path id="Subtraction_3" data-name="Subtraction 3" d="M43.375,77.558h0a35.3,35.3,0,0,0,4.2-7.592,10.829,10.829,0,0,0,.281-6.191c-.952-3.5-3.836-5.921-6.625-8.263a32.034,32.034,0,0,1-4.47-4.261,4.5,4.5,0,0,1-.465-5.47c1.063-2.007,3.156-4.119,5.579-6.565l0,0,.006-.006c3.058-3.088,6.525-6.588,8.99-10.97C53.623,23.354,53.085,18.087,49.323,13A28,28,0,0,0,43.8,7.5,25.113,25.113,0,0,1,61.565,0,23.2,23.2,0,0,1,78.176,6.782a23.491,23.491,0,0,1,6.74,16.713c0,16.012-14.091,28.948-35.42,48.527l-.881.809Zm-1.867-.03h0l-5.207-4.7-.881-.809C14.091,52.442,0,39.507,0,23.495A23.49,23.49,0,0,1,6.74,6.782,23.2,23.2,0,0,1,23.352,0a25.074,25.074,0,0,1,19.106,8.97c.094-.112.189-.224.285-.334a26.559,26.559,0,0,1,5.339,5.281c3.421,4.625,3.91,9.187,1.452,13.558-2.363,4.2-5.752,7.622-8.742,10.641l-.006.006c-2.511,2.535-4.68,4.724-5.85,6.932a6.016,6.016,0,0,0,.623,7.157,33.226,33.226,0,0,0,4.683,4.479c2.727,2.29,5.3,4.453,6.128,7.486.417,1.534.158,3.544-.769,5.974a35.258,35.258,0,0,1-4.092,7.375Z" transform="translate(361.908 184.367)" fill="#fe9805"/>
  </g>
</svg>
