<svg xmlns="http://www.w3.org/2000/svg" xmlns:xlink="http://www.w3.org/1999/xlink" width="332.698" height="151.454" viewBox="0 0 332.698 151.454">
  <defs>
    <clipPath id="clip-path">
      <rect id="Rectangle_1138" data-name="Rectangle 1138" width="34.669" height="25.415"/>
    </clipPath>
  </defs>
  <g id="Group_16019" data-name="Group 16019" transform="translate(-41 -163.007)">
    <g id="Group_15860" data-name="Group 15860" transform="translate(41 163.007)">
      <g id="Group_15780" data-name="Group 15780" transform="translate(53.164)">
        <g id="Group_15763" data-name="Group 15763">
          <g id="Group_15750" data-name="Group 15750" transform="translate(88.267 20.648)">
            <g id="Group_15749" data-name="Group 15749">
              <path id="Path_4024" data-name="Path 4024" d="M1556.073,615.417h-73.015a5.173,5.173,0,0,1-5.158-5.158h0a5.173,5.173,0,0,1,5.158-5.158h73.015a5.173,5.173,0,0,1,5.158,5.158h0A5.173,5.173,0,0,1,1556.073,615.417Z" transform="translate(-1477.9 -605.1)" fill="#f4ab19"/>
            </g>
          </g>
          <g id="Group_15752" data-name="Group 15752" transform="translate(51.319 20.648)">
            <g id="Group_15751" data-name="Group 15751">
              <path id="Path_4025" data-name="Path 4025" d="M1232.025,615.417h-13.266a5.173,5.173,0,0,1-5.158-5.158h0a5.173,5.173,0,0,1,5.158-5.158h13.266a5.173,5.173,0,0,1,5.158,5.158h0A5.173,5.173,0,0,1,1232.025,615.417Z" transform="translate(-1213.6 -605.1)" fill="#f4ab19"/>
            </g>
          </g>
          <g id="Group_15754" data-name="Group 15754" transform="translate(166.664)">
            <g id="Group_15753" data-name="Group 15753">
              <path id="Path_4026" data-name="Path 4026" d="M2057.125,467.717h-13.267a5.173,5.173,0,0,1-5.158-5.158h0a5.173,5.173,0,0,1,5.158-5.158h13.267a5.173,5.173,0,0,1,5.158,5.158h0A5.173,5.173,0,0,1,2057.125,467.717Z" transform="translate(-2038.7 -457.4)" fill="#f4ab19"/>
            </g>
          </g>
          <g id="Group_15756" data-name="Group 15756" transform="translate(0 125.186)">
            <g id="Group_15755" data-name="Group 15755" transform="translate(0 0)">
              <path id="Path_4027" data-name="Path 4027" d="M864.925,1363.217H851.658a5.173,5.173,0,0,1-5.158-5.158h0a5.173,5.173,0,0,1,5.158-5.158h13.267a5.173,5.173,0,0,1,5.158,5.158h0A5.173,5.173,0,0,1,864.925,1363.217Z" transform="translate(-846.5 -1352.9)" fill="#f4ab19"/>
            </g>
          </g>
          <g id="Group_15758" data-name="Group 15758" transform="translate(220.848 125.186)">
            <g id="Group_15757" data-name="Group 15757" transform="translate(0 0)">
              <path id="Path_4028" data-name="Path 4028" d="M2444.725,1363.217h-13.267a5.172,5.172,0,0,1-5.158-5.158h0a5.173,5.173,0,0,1,5.158-5.158h13.267a5.173,5.173,0,0,1,5.158,5.158h0A5.173,5.173,0,0,1,2444.725,1363.217Z" transform="translate(-2426.3 -1352.9)" fill="#f4ab19"/>
            </g>
          </g>
          <g id="Group_15760" data-name="Group 15760" transform="translate(96.179)">
            <g id="Group_15759" data-name="Group 15759">
              <path id="Path_4029" data-name="Path 4029" d="M1591.327,467.717h-51.668a5.173,5.173,0,0,1-5.158-5.158h0a5.173,5.173,0,0,1,5.158-5.158h51.668a5.173,5.173,0,0,1,5.158,5.158h0A5.173,5.173,0,0,1,1591.327,467.717Z" transform="translate(-1534.5 -457.4)" fill="#f4ab19"/>
            </g>
          </g>
          <g id="Group_15762" data-name="Group 15762" transform="translate(111.724 10.331)">
            <g id="Group_15761" data-name="Group 15761">
              <path id="Path_4030" data-name="Path 4030" d="M1676.511,536.458h0a5.173,5.173,0,0,1,5.158-5.158H1645.7a5.173,5.173,0,0,1,5.158,5.158h0a5.173,5.173,0,0,1-5.158,5.158h35.969A5.182,5.182,0,0,1,1676.511,536.458Z" transform="translate(-1645.7 -531.3)" fill="#f4ab19"/>
            </g>
          </g>
        </g>
        <g id="Group_15779" data-name="Group 15779" transform="translate(16.44 41.575)">
          <g id="Group_15765" data-name="Group 15765">
            <g id="Group_15764" data-name="Group 15764">
              <path id="Path_4031" data-name="Path 4031" d="M1151.188,765.117H969.258a5.173,5.173,0,0,1-5.158-5.158h0a5.173,5.173,0,0,1,5.158-5.158h181.929a5.173,5.173,0,0,1,5.158,5.158h0A5.173,5.173,0,0,1,1151.188,765.117Z" transform="translate(-964.1 -754.8)" fill="#f4ab19"/>
            </g>
          </g>
          <g id="Group_15767" data-name="Group 15767" transform="translate(18.243 20.634)">
            <g id="Group_15766" data-name="Group 15766">
              <path id="Path_4032" data-name="Path 4032" d="M1251.45,912.717H1099.758a5.173,5.173,0,0,1-5.158-5.158h0a5.173,5.173,0,0,1,5.158-5.159h151.705a5.173,5.173,0,0,1,5.158,5.159h0A5.194,5.194,0,0,1,1251.45,912.717Z" transform="translate(-1094.6 -902.4)" fill="#f4ab19"/>
            </g>
          </g>
          <g id="Group_15769" data-name="Group 15769" transform="translate(39.087 10.317)">
            <g id="Group_15768" data-name="Group 15768">
              <path id="Path_4033" data-name="Path 4033" d="M1355.312,838.917a5.173,5.173,0,0,1-5.158-5.158h0a5.173,5.173,0,0,1,5.158-5.158H1243.7a5.158,5.158,0,0,1,0,10.317h111.612Z" transform="translate(-1243.7 -828.6)" fill="#f4ab19"/>
            </g>
          </g>
          <g id="Group_15776" data-name="Group 15776" transform="translate(0.881 41.267)">
            <g id="Group_15771" data-name="Group 15771" transform="translate(0 20.634)">
              <g id="Group_15770" data-name="Group 15770">
                <path id="Path_4034" data-name="Path 4034" d="M975.558,1197.6h183.621a5.173,5.173,0,0,1,5.159,5.158h0a5.173,5.173,0,0,1-5.159,5.158H975.558a5.173,5.173,0,0,1-5.158-5.158h0A5.173,5.173,0,0,1,975.558,1197.6Z" transform="translate(-970.4 -1197.6)" fill="#f4ab19"/>
              </g>
            </g>
            <g id="Group_15773" data-name="Group 15773" transform="translate(10.219)">
              <g id="Group_15772" data-name="Group 15772">
                <path id="Path_4035" data-name="Path 4035" d="M1048.658,1050h186.906a5.173,5.173,0,0,1,5.159,5.158h0a5.173,5.173,0,0,1-5.159,5.158H1048.658a5.173,5.173,0,0,1-5.158-5.158h0A5.173,5.173,0,0,1,1048.658,1050Z" transform="translate(-1043.5 -1050)" fill="#f4ab19"/>
              </g>
            </g>
            <g id="Group_15775" data-name="Group 15775" transform="translate(23.5 10.317)">
              <g id="Group_15774" data-name="Group 15774">
                <path id="Path_4036" data-name="Path 4036" d="M1141.03,1123.8a5.173,5.173,0,0,1,5.158,5.158h0a5.173,5.173,0,0,1-5.158,5.158H1255.3a5.158,5.158,0,0,1,0-10.317H1141.03Z" transform="translate(-1138.5 -1123.8)" fill="#f4ab19"/>
              </g>
            </g>
          </g>
          <g id="Group_15778" data-name="Group 15778" transform="translate(65.969 30.951)">
            <g id="Group_15777" data-name="Group 15777">
              <path id="Path_4037" data-name="Path 4037" d="M1480.958,981.358h0a5.173,5.173,0,0,1,5.158-5.158H1436a5.173,5.173,0,0,1,5.158,5.158h0a5.173,5.173,0,0,1-5.158,5.158h50.116A5.173,5.173,0,0,1,1480.958,981.358Z" transform="translate(-1436 -976.2)" fill="#f4ab19"/>
            </g>
          </g>
        </g>
      </g>
      <g id="Group_15782" data-name="Group 15782" transform="translate(0 150.475)">
        <g id="Group_15781" data-name="Group 15781" transform="translate(0 0)">
          <rect id="Rectangle_1137" data-name="Rectangle 1137" width="332.698" height="0.979"/>
        </g>
      </g>
      <g id="Group_15784" data-name="Group 15784" transform="translate(16.688 58.617)">
        <g id="Group_15783" data-name="Group 15783">
          <path id="Path_4038" data-name="Path 4038" d="M607.135,893.215a7.182,7.182,0,0,1-2.376-.377,4.781,4.781,0,0,1-3.355-4.11,7.085,7.085,0,0,1,.126-1.356c.042-.266.084-.531.112-.783a1.884,1.884,0,0,0-.419-1.524,2.548,2.548,0,0,0-2.055-.168l-3.285.6a3.934,3.934,0,0,1-2.488-.112,3.149,3.149,0,0,1-1.4-3.173,10.671,10.671,0,0,1,.294-1.51,8.546,8.546,0,0,0,.28-1.524,1.514,1.514,0,0,0-.475-1.384,1.988,1.988,0,0,0-1.594.154l-4.264,1.552a.491.491,0,0,1-.336-.923l4.264-1.552a2.906,2.906,0,0,1,2.432-.07,2.364,2.364,0,0,1,.951,2.293,9.136,9.136,0,0,1-.308,1.678,10.04,10.04,0,0,0-.266,1.384,2.218,2.218,0,0,0,.867,2.209,3.016,3.016,0,0,0,1.873.028l3.285-.6a3.46,3.46,0,0,1,2.88.391,2.717,2.717,0,0,1,.755,2.349c-.028.294-.07.587-.112.853a7,7,0,0,0-.126,1.174,3.787,3.787,0,0,0,2.7,3.215,8.484,8.484,0,0,0,4.711-.014,21.633,21.633,0,0,0,5.144-1.887.488.488,0,0,1,.447.867,22.4,22.4,0,0,1-5.382,1.971A13.208,13.208,0,0,1,607.135,893.215Z" transform="translate(-585.575 -876.706)" fill="#fff"/>
        </g>
      </g>
      <g id="Group_15801" data-name="Group 15801" transform="translate(5.907 108.405)">
        <g id="Group_15786" data-name="Group 15786" transform="translate(12.112 31.557)">
          <g id="Group_15785" data-name="Group 15785">
            <path id="Path_4039" data-name="Path 4039" d="M609.121,1469.6H597.1l-2-11h16.006Z" transform="translate(-595.1 -1458.6)" fill="#fff"/>
          </g>
        </g>
        <g id="Group_15788" data-name="Group 15788" transform="translate(0.488 0.492)">
          <g id="Group_15787" data-name="Group 15787">
            <path id="Path_4040" data-name="Path 4040" d="M529.6,1262.959s-6.682,2.516-6.64-1.9,2.1-5.508-.895-7.172-4.851-2.265-4.32-5.48-6.445-5.941-5.746-9.534,6.109-2.894,8.276-.461,7.339.531,8.3,6.039,1.258,4.781,4.711,7.479S535.51,1261.435,529.6,1262.959Z" transform="translate(-511.947 -1236.381)" fill="#fff"/>
          </g>
        </g>
        <g id="Group_15790" data-name="Group 15790" transform="translate(11.628 31.04)">
          <g id="Group_15789" data-name="Group 15789">
            <path id="Path_4041" data-name="Path 4041" d="M606.144,1466.908H594.122a.48.48,0,0,1-.475-.405l-2-11.016a.482.482,0,0,1,.112-.405.491.491,0,0,1,.377-.182h16.006a.508.508,0,0,1,.489.587l-2,11.016A.506.506,0,0,1,606.144,1466.908Zm-11.617-.979h11.212l1.817-10.037H592.71Z" transform="translate(-591.639 -1454.9)"/>
          </g>
        </g>
        <g id="Group_15792" data-name="Group 15792" transform="translate(6.336 5.385)">
          <g id="Group_15791" data-name="Group 15791">
            <path id="Path_4042" data-name="Path 4042" d="M566.475,1298.027h-.028a.484.484,0,0,1-.461-.5,30.179,30.179,0,0,0-1.272-8.611,34.307,34.307,0,0,0-10.764-16.678.486.486,0,1,1,.629-.741,35.2,35.2,0,0,1,11.072,17.181,29.961,29.961,0,0,1,1.3,8.891A.46.46,0,0,1,566.475,1298.027Z" transform="translate(-553.779 -1271.379)"/>
          </g>
        </g>
        <g id="Group_15794" data-name="Group 15794">
          <g id="Group_15793" data-name="Group 15793">
            <path id="Path_4043" data-name="Path 4043" d="M522.946,1261.133a4.124,4.124,0,0,1-2.349-.6,2.82,2.82,0,0,1-1.132-2.5,16.277,16.277,0,0,1,.489-3.691c.377-1.65.489-2.153-1.132-3.062-.308-.168-.6-.335-.881-.489-2.446-1.314-4.208-2.279-3.677-5.508.21-1.3-1.174-2.642-2.642-4.04-1.733-1.664-3.523-3.383-3.1-5.508a3.363,3.363,0,0,1,2.558-2.7,7.124,7.124,0,0,1,6.556,2.013,5.794,5.794,0,0,0,3.076,1.37c2.195.545,4.7,1.146,5.354,4.907.769,4.417,1.035,4.6,3.062,6.067.419.307.909.657,1.482,1.1a5.969,5.969,0,0,1,1.957,6.011,7.689,7.689,0,0,1-5.788,5.871A12.132,12.132,0,0,1,522.946,1261.133Zm-10.485-27.288a4.188,4.188,0,0,0-1.132.14,2.382,2.382,0,0,0-1.859,1.943c-.308,1.594,1.286,3.131,2.824,4.613,1.58,1.524,3.215,3.1,2.922,4.907-.419,2.544.713,3.145,3.173,4.487l.895.489c2.265,1.258,1.985,2.46,1.608,4.124a15.551,15.551,0,0,0-.461,3.481,1.886,1.886,0,0,0,.713,1.691c1.328.923,4.25.126,5.27-.251.014,0,.028-.014.056-.014a6.72,6.72,0,0,0,5.1-5.13,5.011,5.011,0,0,0-1.594-5.047c-.559-.433-1.034-.783-1.454-1.076-2.237-1.622-2.628-2.027-3.453-6.7-.545-3.131-2.53-3.621-4.613-4.124a6.624,6.624,0,0,1-3.565-1.678A6.292,6.292,0,0,0,512.462,1233.845Z" transform="translate(-508.458 -1232.861)"/>
          </g>
        </g>
        <g id="Group_15796" data-name="Group 15796" transform="translate(16.356 4.368)">
          <g id="Group_15795" data-name="Group 15795">
            <path id="Path_4044" data-name="Path 4044" d="M630.356,1287.368s5.844,2.209,5.816-1.664-1.831-4.823.783-6.277,4.25-1.971,3.774-4.795,5.634-5.2,5.033-8.346-5.354-2.53-7.241-.405-6.417.461-7.269,5.284-1.1,4.18-4.124,6.542S625.184,1286.04,630.356,1287.368Z" transform="translate(-625.457 -1264.107)" fill="#04948b"/>
          </g>
        </g>
        <g id="Group_15798" data-name="Group 15798" transform="translate(19.979 8.608)">
          <g id="Group_15797" data-name="Group 15797">
            <path id="Path_4045" data-name="Path 4045" d="M651.868,1317.876a.49.49,0,0,1-.489-.461,26.95,26.95,0,0,1,1.146-7.786,30.9,30.9,0,0,1,9.716-15.07.486.486,0,1,1,.629.741,29.966,29.966,0,0,0-9.408,14.594,26.128,26.128,0,0,0-1.1,7.479.5.5,0,0,1-.461.517C651.882,1317.862,651.882,1317.876,651.868,1317.876Z" transform="translate(-651.375 -1294.438)"/>
          </g>
        </g>
        <g id="Group_15800" data-name="Group 15800" transform="translate(15.881 3.885)">
          <g id="Group_15799" data-name="Group 15799">
            <path id="Path_4046" data-name="Path 4046" d="M630.637,1285.514a10.926,10.926,0,0,1-3.341-.643,6.747,6.747,0,0,1-5.1-5.186,5.287,5.287,0,0,1,1.733-5.326c.5-.391.923-.7,1.3-.965,1.761-1.272,1.985-1.44,2.656-5.27.587-3.327,2.88-3.9,4.725-4.348a4.972,4.972,0,0,0,2.656-1.188,6.207,6.207,0,0,1,5.8-1.775,3.023,3.023,0,0,1,2.279,2.418c.364,1.887-1.216,3.4-2.74,4.865-1.272,1.216-2.474,2.377-2.293,3.481.475,2.866-1.09,3.719-3.243,4.879-.252.14-.5.28-.769.419-1.384.769-1.286,1.16-.965,2.614a14.315,14.315,0,0,1,.433,3.243,2.506,2.506,0,0,1-1.021,2.237A3.726,3.726,0,0,1,630.637,1285.514Zm9.17-23.877a5.448,5.448,0,0,0-3.83,1.608,5.788,5.788,0,0,1-3.159,1.482c-1.817.447-3.523.867-4,3.565-.713,4.11-1.062,4.459-3.034,5.9-.363.266-.783.559-1.272.951a4.314,4.314,0,0,0-1.37,4.348,5.836,5.836,0,0,0,4.417,4.446c.014,0,.028.014.056.014.881.335,3.425,1.021,4.557.224a1.6,1.6,0,0,0,.6-1.426,13.149,13.149,0,0,0-.405-3.034c-.336-1.482-.587-2.558,1.44-3.677l.783-.433c2.139-1.146,3.1-1.677,2.754-3.858-.266-1.622,1.174-3.006,2.572-4.348,1.342-1.286,2.726-2.614,2.46-3.97a2.059,2.059,0,0,0-1.58-1.664A3.944,3.944,0,0,0,639.807,1261.636Z" transform="translate(-622.062 -1260.651)"/>
          </g>
        </g>
      </g>
      <g id="Group_15818" data-name="Group 15818" transform="translate(179.788 108.433)">
        <g id="Group_15803" data-name="Group 15803" transform="translate(9.07 31.529)">
          <g id="Group_15802" data-name="Group 15802">
            <path id="Path_4047" data-name="Path 4047" d="M2656.085,1469.6h12.022l2-11H2654.1Z" transform="translate(-2654.1 -1458.6)" fill="#fff"/>
          </g>
        </g>
        <g id="Group_15805" data-name="Group 15805" transform="translate(13.451 0.464)">
          <g id="Group_15804" data-name="Group 15804">
            <path id="Path_4048" data-name="Path 4048" d="M2691.041,1262.959s6.682,2.516,6.64-1.9-2.1-5.508.895-7.172,4.851-2.265,4.32-5.48,6.445-5.941,5.746-9.534-6.109-2.894-8.276-.461-7.339.531-8.3,6.039-1.258,4.781-4.711,7.479S2685.128,1261.435,2691.041,1262.959Z" transform="translate(-2685.441 -1236.381)" fill="#fff"/>
          </g>
        </g>
        <g id="Group_15807" data-name="Group 15807" transform="translate(8.572 31.012)">
          <g id="Group_15806" data-name="Group 15806">
            <path id="Path_4049" data-name="Path 4049" d="M2665.045,1466.908h-12.022a.481.481,0,0,1-.476-.405l-2-11.016a.483.483,0,0,1,.112-.405.491.491,0,0,1,.377-.182h16.007a.513.513,0,0,1,.377.182.519.519,0,0,1,.112.405l-2,11.016A.5.5,0,0,1,2665.045,1466.908Zm-11.6-.979h11.212l1.817-10.037h-14.846Z" transform="translate(-2650.539 -1454.9)"/>
          </g>
        </g>
        <g id="Group_15809" data-name="Group 15809" transform="translate(17.662 5.365)">
          <g id="Group_15808" data-name="Group 15808">
            <path id="Path_4050" data-name="Path 4050" d="M2716.061,1298.092a.491.491,0,0,1-.489-.461,30.577,30.577,0,0,1,1.3-8.891,35.348,35.348,0,0,1,11.072-17.181.474.474,0,0,1,.685.056.486.486,0,0,1-.056.685A34.411,34.411,0,0,0,2717.794,1289a29.09,29.09,0,0,0-1.258,8.569.5.5,0,0,1-.461.517C2716.074,1298.078,2716.061,1298.092,2716.061,1298.092Z" transform="translate(-2715.567 -1271.438)"/>
          </g>
        </g>
        <g id="Group_15811" data-name="Group 15811" transform="translate(12.961)">
          <g id="Group_15810" data-name="Group 15810">
            <path id="Path_4051" data-name="Path 4051" d="M2691.679,1261.3a12.742,12.742,0,0,1-3.8-.727,7.649,7.649,0,0,1-5.787-5.871,5.95,5.95,0,0,1,1.957-6.011c.573-.447,1.048-.8,1.482-1.1,2.027-1.468,2.292-1.664,3.062-6.067.657-3.76,3.145-4.376,5.354-4.907a5.793,5.793,0,0,0,3.075-1.37,7.124,7.124,0,0,1,6.556-2.013,3.382,3.382,0,0,1,2.558,2.7c.406,2.111-1.384,3.83-3.1,5.508-1.468,1.412-2.852,2.74-2.642,4.04.531,3.229-1.23,4.18-3.677,5.508-.28.154-.573.308-.881.489-1.622.909-1.51,1.4-1.132,3.062a16.164,16.164,0,0,1,.489,3.691,2.82,2.82,0,0,1-1.132,2.5A4.506,4.506,0,0,1,2691.679,1261.3Zm10.485-27.288a6.292,6.292,0,0,0-4.431,1.859,6.624,6.624,0,0,1-3.565,1.677c-2.1.517-4.068.993-4.613,4.124-.811,4.669-1.216,5.074-3.453,6.7-.419.307-.895.643-1.454,1.076a5,5,0,0,0-1.594,5.047,6.74,6.74,0,0,0,5.1,5.131c.014,0,.028.014.056.014,1.021.377,3.942,1.174,5.27.252a1.854,1.854,0,0,0,.713-1.692,15.663,15.663,0,0,0-.461-3.481c-.377-1.664-.657-2.866,1.608-4.124l.895-.489c2.475-1.328,3.593-1.943,3.174-4.488-.294-1.817,1.342-3.383,2.922-4.907,1.538-1.482,3.131-3.02,2.824-4.613a2.382,2.382,0,0,0-1.859-1.943A4.259,4.259,0,0,0,2702.163,1234.017Z" transform="translate(-2681.941 -1233.061)"/>
          </g>
        </g>
        <g id="Group_15813" data-name="Group 15813" transform="translate(0.486 4.34)">
          <g id="Group_15812" data-name="Group 15812">
            <path id="Path_4052" data-name="Path 4052" d="M2608.149,1287.368s-5.844,2.209-5.815-1.664,1.831-4.823-.783-6.277-4.25-1.971-3.774-4.795-5.634-5.2-5.032-8.346,5.354-2.53,7.241-.405,6.417.461,7.269,5.284,1.1,4.18,4.124,6.542S2613.321,1286.04,2608.149,1287.368Z" transform="translate(-2592.702 -1264.107)" fill="#8cc540"/>
          </g>
        </g>
        <g id="Group_15815" data-name="Group 15815" transform="translate(5.544 8.586)">
          <g id="Group_15814" data-name="Group 15814">
            <path id="Path_4053" data-name="Path 4053" d="M2640.052,1317.911h-.028a.484.484,0,0,1-.461-.5h0a26.136,26.136,0,0,0-1.118-7.521,29.937,29.937,0,0,0-9.394-14.553.486.486,0,1,1,.629-.741,31.008,31.008,0,0,1,9.716,15.07,27.057,27.057,0,0,1,1.146,7.786A.5.5,0,0,1,2640.052,1317.911Z" transform="translate(-2628.879 -1294.479)"/>
          </g>
        </g>
        <g id="Group_15817" data-name="Group 15817" transform="translate(0 3.871)">
          <g id="Group_15816" data-name="Group 15816">
            <path id="Path_4054" data-name="Path 4054" d="M2601.955,1285.6a3.679,3.679,0,0,1-2.083-.531,2.539,2.539,0,0,1-1.021-2.237,13.773,13.773,0,0,1,.434-3.243c.335-1.454.419-1.845-.965-2.614-.266-.154-.531-.294-.769-.419-2.167-1.16-3.719-2.013-3.243-4.879.182-1.1-1.02-2.265-2.292-3.481-1.524-1.468-3.1-2.992-2.74-4.865a3.042,3.042,0,0,1,2.279-2.418,6.208,6.208,0,0,1,5.8,1.775,5.078,5.078,0,0,0,2.656,1.188c1.845.447,4.152,1.021,4.725,4.348.671,3.83.9,4,2.656,5.27.377.266.8.573,1.3.965a5.287,5.287,0,0,1,1.734,5.326,6.787,6.787,0,0,1-5.1,5.186A12.075,12.075,0,0,1,2601.955,1285.6Zm-9.157-23.877a3.681,3.681,0,0,0-.979.126,2.024,2.024,0,0,0-1.58,1.664c-.266,1.356,1.118,2.684,2.46,3.97,1.4,1.342,2.838,2.74,2.572,4.348-.364,2.181.615,2.712,2.754,3.858.251.14.517.28.783.433,2.027,1.118,1.775,2.195,1.44,3.677a13.04,13.04,0,0,0-.405,3.033,1.6,1.6,0,0,0,.6,1.426c1.132.8,3.677.1,4.557-.224.014,0,.028-.014.056-.014a5.817,5.817,0,0,0,4.417-4.445,4.3,4.3,0,0,0-1.37-4.348c-.489-.377-.909-.685-1.272-.951-1.971-1.426-2.321-1.789-3.034-5.9-.475-2.7-2.181-3.118-4-3.565a5.833,5.833,0,0,1-3.159-1.482A5.532,5.532,0,0,0,2592.8,1261.722Z" transform="translate(-2589.223 -1260.751)"/>
          </g>
        </g>
      </g>
      <g id="Group_15835" data-name="Group 15835" transform="translate(300.867 83.765)">
        <g id="Group_15820" data-name="Group 15820">
          <g id="Group_15819" data-name="Group 15819">
            <path id="Path_4055" data-name="Path 4055" d="M2619.8,1057.3a.7.7,0,1,1-.7-.7A.692.692,0,0,1,2619.8,1057.3Z" transform="translate(-2618.4 -1056.6)" fill="#fff"/>
          </g>
        </g>
        <g id="Group_15822" data-name="Group 15822" transform="translate(3.914)">
          <g id="Group_15821" data-name="Group 15821">
            <path id="Path_4056" data-name="Path 4056" d="M2647.8,1057.3a.7.7,0,1,1-.7-.7A.692.692,0,0,1,2647.8,1057.3Z" transform="translate(-2646.4 -1056.6)" fill="#fff"/>
          </g>
        </g>
        <g id="Group_15824" data-name="Group 15824" transform="translate(7.843)">
          <g id="Group_15823" data-name="Group 15823">
            <path id="Path_4057" data-name="Path 4057" d="M2675.9,1057.3a.7.7,0,1,1-.7-.7A.692.692,0,0,1,2675.9,1057.3Z" transform="translate(-2674.5 -1056.6)" fill="#fff"/>
          </g>
        </g>
        <g id="Group_15826" data-name="Group 15826" transform="translate(11.757)">
          <g id="Group_15825" data-name="Group 15825">
            <path id="Path_4058" data-name="Path 4058" d="M2703.9,1057.3a.7.7,0,1,1-.7-.7A.692.692,0,0,1,2703.9,1057.3Z" transform="translate(-2702.5 -1056.6)" fill="#fff"/>
          </g>
        </g>
        <g id="Group_15828" data-name="Group 15828" transform="translate(0 3.397)">
          <g id="Group_15827" data-name="Group 15827">
            <path id="Path_4059" data-name="Path 4059" d="M2619.8,1081.6a.7.7,0,1,1-.7-.7A.692.692,0,0,1,2619.8,1081.6Z" transform="translate(-2618.4 -1080.9)" fill="#fff"/>
          </g>
        </g>
        <g id="Group_15830" data-name="Group 15830" transform="translate(3.914 3.397)">
          <g id="Group_15829" data-name="Group 15829">
            <path id="Path_4060" data-name="Path 4060" d="M2647.8,1081.6a.7.7,0,1,1-.7-.7A.692.692,0,0,1,2647.8,1081.6Z" transform="translate(-2646.4 -1080.9)" fill="#fff"/>
          </g>
        </g>
        <g id="Group_15832" data-name="Group 15832" transform="translate(7.843 3.397)">
          <g id="Group_15831" data-name="Group 15831">
            <path id="Path_4061" data-name="Path 4061" d="M2675.9,1081.6a.7.7,0,1,1-.7-.7A.692.692,0,0,1,2675.9,1081.6Z" transform="translate(-2674.5 -1080.9)" fill="#fff"/>
          </g>
        </g>
        <g id="Group_15834" data-name="Group 15834" transform="translate(11.757 3.397)">
          <g id="Group_15833" data-name="Group 15833">
            <path id="Path_4062" data-name="Path 4062" d="M2703.9,1081.6a.7.7,0,1,1-.7-.7A.692.692,0,0,1,2703.9,1081.6Z" transform="translate(-2702.5 -1080.9)" fill="#fff"/>
          </g>
        </g>
      </g>
      <g id="Group_15852" data-name="Group 15852" transform="translate(51.235 90.881)">
        <g id="Group_15837" data-name="Group 15837">
          <g id="Group_15836" data-name="Group 15836">
            <path id="Path_4063" data-name="Path 4063" d="M834.1,1108.2a.7.7,0,1,1-.7-.7A.7.7,0,0,1,834.1,1108.2Z" transform="translate(-832.7 -1107.5)" fill="#fff"/>
          </g>
        </g>
        <g id="Group_15839" data-name="Group 15839" transform="translate(3.914)">
          <g id="Group_15838" data-name="Group 15838">
            <path id="Path_4064" data-name="Path 4064" d="M862.1,1108.2a.7.7,0,1,1-.7-.7A.692.692,0,0,1,862.1,1108.2Z" transform="translate(-860.7 -1107.5)" fill="#fff"/>
          </g>
        </g>
        <g id="Group_15841" data-name="Group 15841" transform="translate(7.842)">
          <g id="Group_15840" data-name="Group 15840">
            <circle id="Ellipse_315" data-name="Ellipse 315" cx="0.699" cy="0.699" r="0.699" fill="#fff"/>
          </g>
        </g>
        <g id="Group_15843" data-name="Group 15843" transform="translate(11.757)">
          <g id="Group_15842" data-name="Group 15842">
            <path id="Path_4065" data-name="Path 4065" d="M918.2,1108.2a.7.7,0,1,1-.7-.7A.692.692,0,0,1,918.2,1108.2Z" transform="translate(-916.8 -1107.5)" fill="#fff"/>
          </g>
        </g>
        <g id="Group_15845" data-name="Group 15845" transform="translate(0 3.397)">
          <g id="Group_15844" data-name="Group 15844">
            <path id="Path_4066" data-name="Path 4066" d="M834.1,1132.5a.7.7,0,1,1-.7-.7A.7.7,0,0,1,834.1,1132.5Z" transform="translate(-832.7 -1131.8)" fill="#fff"/>
          </g>
        </g>
        <g id="Group_15847" data-name="Group 15847" transform="translate(3.914 3.397)">
          <g id="Group_15846" data-name="Group 15846">
            <path id="Path_4067" data-name="Path 4067" d="M862.1,1132.5a.7.7,0,1,1-.7-.7A.692.692,0,0,1,862.1,1132.5Z" transform="translate(-860.7 -1131.8)" fill="#fff"/>
          </g>
        </g>
        <g id="Group_15849" data-name="Group 15849" transform="translate(7.842 3.397)">
          <g id="Group_15848" data-name="Group 15848">
            <path id="Path_4068" data-name="Path 4068" d="M890.2,1132.5a.7.7,0,1,1-.7-.7A.7.7,0,0,1,890.2,1132.5Z" transform="translate(-888.8 -1131.8)" fill="#fff"/>
          </g>
        </g>
        <g id="Group_15851" data-name="Group 15851" transform="translate(11.757 3.397)">
          <g id="Group_15850" data-name="Group 15850">
            <path id="Path_4069" data-name="Path 4069" d="M918.2,1132.5a.7.7,0,1,1-.7-.7A.692.692,0,0,1,918.2,1132.5Z" transform="translate(-916.8 -1131.8)" fill="#fff"/>
          </g>
        </g>
      </g>
      <g id="Group_15854" data-name="Group 15854" transform="translate(285.311 52.879)">
        <g id="Group_15853" data-name="Group 15853">
          <path id="Path_4070" data-name="Path 4070" d="M2515.733,848.791a7.192,7.192,0,0,1-.923-.07,9.655,9.655,0,0,1-7.661-6.389.486.486,0,0,1,.923-.308,8.639,8.639,0,0,0,6.864,5.732,3.408,3.408,0,0,0,2.628-.5c.895-.769.909-2.237.615-3.355-.125-.489-.293-.951-.461-1.454a10.65,10.65,0,0,1-.671-2.586,2.577,2.577,0,0,1,.573-2.1,2.786,2.786,0,0,1,2.838-.419,13.806,13.806,0,0,1,5.3,2.74l.056-2.027a2.546,2.546,0,0,1,.671-1.985,2.178,2.178,0,0,1,2.265-.182,4.036,4.036,0,0,1,2.25,2.544.487.487,0,1,1-.937.266,3.072,3.072,0,0,0-1.691-1.915,1.242,1.242,0,0,0-1.23.014,1.774,1.774,0,0,0-.335,1.272l-.084,3.089a.467.467,0,0,1-.308.433.524.524,0,0,1-.531-.1,12.8,12.8,0,0,0-5.676-3.215c-.909-.238-1.552-.182-1.887.154a1.741,1.741,0,0,0-.308,1.314,9.762,9.762,0,0,0,.629,2.349c.182.5.35,1.007.489,1.538a4.2,4.2,0,0,1-.937,4.334A3.471,3.471,0,0,1,2515.733,848.791Z" transform="translate(-2507.125 -835.659)" fill="#fff"/>
        </g>
      </g>
      <g id="Group_15859" data-name="Group 15859" transform="translate(19.731 3.075)">
        <g id="Group_15856" data-name="Group 15856" transform="translate(0 19.487)">
          <g id="Group_15855" data-name="Group 15855">
            <path id="Path_4071" data-name="Path 4071" d="M607.376,635.1h36.794a5.9,5.9,0,0,0-4.194-5.648,6.627,6.627,0,0,0-6.375-5.172,10.094,10.094,0,0,0-18.928,2.922h-.14a7.183,7.183,0,0,0-7.185,7.185,3.071,3.071,0,0,0,.028.713Z" transform="translate(-607.34 -618.8)" fill="#fff"/>
          </g>
        </g>
        <g id="Group_15858" data-name="Group 15858" transform="translate(230.139)">
          <g id="Group_15857" data-name="Group 15857">
            <path id="Path_4072" data-name="Path 4072" d="M2253.656,501.026h48.788a7.826,7.826,0,0,0-5.564-7.493,8.8,8.8,0,0,0-8.458-6.864,13.389,13.389,0,0,0-25.107,3.872h-.2a9.522,9.522,0,0,0-9.52,9.52,7.431,7.431,0,0,0,.056.965Z" transform="translate(-2253.6 -479.4)" fill="#fff"/>
          </g>
        </g>
      </g>
    </g>
    <g id="Group_15887" data-name="Group 15887" transform="translate(144.364 191.987)">
      <g id="Group_15875" data-name="Group 15875">
        <g id="Group_15863" data-name="Group 15863">
          <g id="Group_15861" data-name="Group 15861" transform="translate(0.489 0.489)">
            <path id="Path_4073" data-name="Path 4073" d="M1160.724,788.7h-53.555a5.37,5.37,0,0,1-5.368-5.368V672.568a5.369,5.369,0,0,1,5.368-5.368h53.555a5.37,5.37,0,0,1,5.368,5.368v110.76A5.37,5.37,0,0,1,1160.724,788.7Z" transform="translate(-1101.8 -667.2)" fill="#fff"/>
          </g>
          <g id="Group_15862" data-name="Group 15862">
            <path id="Path_4074" data-name="Path 4074" d="M1157.713,786.174h-53.555a5.865,5.865,0,0,1-5.857-5.857V669.557a5.865,5.865,0,0,1,5.857-5.857h53.555a5.865,5.865,0,0,1,5.857,5.857v110.76A5.865,5.865,0,0,1,1157.713,786.174Zm-53.555-121.5a4.883,4.883,0,0,0-4.879,4.879v110.76a4.883,4.883,0,0,0,4.879,4.879h53.555a4.883,4.883,0,0,0,4.879-4.879V669.557a4.883,4.883,0,0,0-4.879-4.879Z" transform="translate(-1098.3 -663.7)"/>
          </g>
        </g>
        <g id="Group_15866" data-name="Group 15866" transform="translate(4.557 14.147)">
          <g id="Group_15864" data-name="Group 15864" transform="translate(0.447 0.447)">
            <path id="Path_4075" data-name="Path 4075" d="M1188.8,862.168h-54.143a.561.561,0,0,1-.559-.559v-92.95a.561.561,0,0,1,.559-.559H1188.8a.561.561,0,0,1,.559.559v92.95A.561.561,0,0,1,1188.8,862.168Z" transform="translate(-1134.1 -768.1)" fill="#fe9805"/>
          </g>
          <g id="Group_15865" data-name="Group 15865">
            <path id="Path_4076" data-name="Path 4076" d="M1186.049,859.863h-54.143a1,1,0,0,1-1.006-1.007v-92.95a1,1,0,0,1,1.006-1.007h54.143a1,1,0,0,1,1.006,1.007v92.95A1.011,1.011,0,0,1,1186.049,859.863Zm-54.143-94.068a.12.12,0,0,0-.112.112v92.95a.12.12,0,0,0,.112.112h54.143a.12.12,0,0,0,.112-.112v-92.95a.12.12,0,0,0-.112-.112Z" transform="translate(-1130.9 -764.9)"/>
          </g>
        </g>
        <g id="Group_15868" data-name="Group 15868" transform="translate(25.205 112.297)">
          <g id="Group_15867" data-name="Group 15867">
            <path id="Path_4077" data-name="Path 4077" d="M1290.734,1472.48h-9.394a2.744,2.744,0,0,1-2.74-2.74h0a2.744,2.744,0,0,1,2.74-2.74h9.394a2.744,2.744,0,0,1,2.74,2.74h0A2.754,2.754,0,0,1,1290.734,1472.48Z" transform="translate(-1278.6 -1467)" fill="#fe9805"/>
          </g>
        </g>
        <g id="Group_15870" data-name="Group 15870" transform="translate(14.105 4.655)">
          <g id="Group_15869" data-name="Group 15869">
            <path id="Path_4078" data-name="Path 4078" d="M1201.451,701.5h0a2.258,2.258,0,0,1-2.251-2.251h0a2.258,2.258,0,0,1,2.251-2.251h0a2.258,2.258,0,0,1,2.251,2.251h0A2.267,2.267,0,0,1,1201.451,701.5Z" transform="translate(-1199.2 -697)" fill="#f4ab19"/>
          </g>
        </g>
        <g id="Group_15872" data-name="Group 15872" transform="translate(42.218 5.522)">
          <g id="Group_15871" data-name="Group 15871">
            <path id="Path_4079" data-name="Path 4079" d="M1401.7,706h0a1.4,1.4,0,0,1-1.4-1.4h0a1.4,1.4,0,0,1,1.4-1.4h0a1.4,1.4,0,0,1,1.4,1.4h0A1.4,1.4,0,0,1,1401.7,706Z" transform="translate(-1400.3 -703.2)" fill="#f4ab19"/>
          </g>
        </g>
        <g id="Group_15874" data-name="Group 15874" transform="translate(26.799 5.857)">
          <g id="Group_15873" data-name="Group 15873">
            <path id="Path_4080" data-name="Path 4080" d="M1301.17,707.711h-10.68a.5.5,0,0,1-.489-.489v-1.132a.5.5,0,0,1,.489-.489h10.68a.5.5,0,0,1,.489.489v1.132A.486.486,0,0,1,1301.17,707.711Z" transform="translate(-1290 -705.6)" fill="#f4ab19"/>
          </g>
        </g>
      </g>
      <g id="Group_15886" data-name="Group 15886" transform="translate(13.113 38.961)">
        <g id="Group_15876" data-name="Group 15876" transform="translate(0 20.899)">
          <path id="Path_4081" data-name="Path 4081" d="M1228.377,1097.408h-33.523a2.75,2.75,0,0,1-2.754-2.754h0a2.75,2.75,0,0,1,2.754-2.754h33.523a2.75,2.75,0,0,1,2.754,2.754h0A2.75,2.75,0,0,1,1228.377,1097.408Z" transform="translate(-1192.1 -1091.9)"/>
        </g>
        <g id="Group_15885" data-name="Group 15885" transform="translate(2.363)">
          <g id="Group_15884" data-name="Group 15884" clip-path="url(#clip-path)">
            <g id="Group_15879" data-name="Group 15879" transform="translate(-5.291 -5.774)">
              <g id="Group_15877" data-name="Group 15877" transform="translate(0 0)">
                <circle id="Ellipse_316" data-name="Ellipse 316" cx="15.881" cy="15.881" r="15.881" transform="translate(0 22.458) rotate(-45)" fill="#fff"/>
              </g>
              <g id="Group_15878" data-name="Group 15878" transform="translate(6.088 6.095)">
                <path id="Path_4082" data-name="Path 4082" d="M1231.07,977.44a16.37,16.37,0,1,1,16.37-16.37A16.383,16.383,0,0,1,1231.07,977.44Zm0-31.775a15.391,15.391,0,1,0,15.391,15.391A15.411,15.411,0,0,0,1231.07,945.665Z" transform="translate(-1214.7 -944.7)"/>
              </g>
            </g>
            <g id="Group_15881" data-name="Group 15881" transform="translate(4.18 3.705)">
              <g id="Group_15880" data-name="Group 15880">
                <circle id="Ellipse_317" data-name="Ellipse 317" cx="12.987" cy="12.987" r="12.987" fill="#fe9805"/>
              </g>
            </g>
            <g id="Group_15883" data-name="Group 15883" transform="translate(11.617 6.64)">
              <g id="Group_15882" data-name="Group 15882">
                <path id="Path_4083" data-name="Path 4083" d="M1302.837,1000.985a3.383,3.383,0,0,0-1.048-1.216,6.376,6.376,0,0,0-1.636-.811,20.224,20.224,0,0,0-2.153-.615c-.629-.154-1.09-.28-1.356-.363a3.738,3.738,0,0,1-.811-.349,1.983,1.983,0,0,1-.629-.531,1.182,1.182,0,0,1-.224-.727,1.41,1.41,0,0,1,.671-1.16,3,3,0,0,1,1.775-.489,2.669,2.669,0,0,1,1.719.447,3.659,3.659,0,0,1,.923,1.244,3.211,3.211,0,0,0,.545.8,1.008,1.008,0,0,0,.741.238,1.149,1.149,0,0,0,.895-.405,1.34,1.34,0,0,0,.363-.909,2.484,2.484,0,0,0-.293-1.132,3.642,3.642,0,0,0-.909-1.118,4.781,4.781,0,0,0-1.566-.853,6.505,6.505,0,0,0-1.831-.308v-2.055a.767.767,0,0,0-.769-.769.776.776,0,0,0-.769.769v2.111a6.051,6.051,0,0,0-1.664.419,3.975,3.975,0,0,0-1.831,1.384,3.5,3.5,0,0,0-.629,2.055,3.359,3.359,0,0,0,.6,2.041,4.029,4.029,0,0,0,1.622,1.286,13.113,13.113,0,0,0,2.53.825,17.109,17.109,0,0,1,1.8.489,2.827,2.827,0,0,1,1.1.671,1.575,1.575,0,0,1,.419,1.132,1.783,1.783,0,0,1-.783,1.468,3.376,3.376,0,0,1-2.055.587,3.21,3.21,0,0,1-1.482-.294,2.446,2.446,0,0,1-.881-.741,4.893,4.893,0,0,1-.573-1.118,2.178,2.178,0,0,0-.531-.853,1.067,1.067,0,0,0-.755-.294,1.242,1.242,0,0,0-1.272,1.244,3.384,3.384,0,0,0,.6,1.831,4.711,4.711,0,0,0,1.552,1.51,5.936,5.936,0,0,0,2.237.713v2.474a.767.767,0,0,0,.769.769.776.776,0,0,0,.769-.769v-2.418a6.8,6.8,0,0,0,2.628-.573,4.263,4.263,0,0,0,1.915-1.594,4.149,4.149,0,0,0,.657-2.293A4.024,4.024,0,0,0,1302.837,1000.985Z" transform="translate(-1292.1 -989.9)" fill="#fff"/>
              </g>
            </g>
          </g>
        </g>
      </g>
    </g>
    <g id="Group_15920" data-name="Group 15920" transform="translate(179.788 197.858)">
      <g id="Group_15915" data-name="Group 15915">
        <g id="Group_15913" data-name="Group 15913" transform="translate(0.489 0.475)">
          <circle id="Ellipse_320" data-name="Ellipse 320" cx="15.881" cy="15.881" r="15.881" fill="#fff"/>
        </g>
        <g id="Group_15914" data-name="Group 15914">
          <path id="Path_4095" data-name="Path 4095" d="M1368.07,738.44a16.37,16.37,0,1,1,16.37-16.37A16.383,16.383,0,0,1,1368.07,738.44Zm0-31.775a15.391,15.391,0,1,0,15.391,15.391A15.411,15.411,0,0,0,1368.07,706.665Z" transform="translate(-1351.7 -705.7)"/>
        </g>
      </g>
      <g id="Group_15917" data-name="Group 15917" transform="translate(3.383 3.369)">
        <g id="Group_15916" data-name="Group 15916">
          <circle id="Ellipse_321" data-name="Ellipse 321" cx="12.987" cy="12.987" r="12.987" fill="#f4ab19"/>
        </g>
      </g>
      <g id="Group_15919" data-name="Group 15919" transform="translate(10.834 6.319)">
        <g id="Group_15918" data-name="Group 15918">
          <path id="Path_4096" data-name="Path 4096" d="M1439.937,761.986a3.384,3.384,0,0,0-1.048-1.216,6.38,6.38,0,0,0-1.636-.811,20.211,20.211,0,0,0-2.153-.615c-.629-.154-1.09-.28-1.356-.363a3.739,3.739,0,0,1-.811-.349,1.821,1.821,0,0,1-.629-.531,1.182,1.182,0,0,1-.224-.727,1.41,1.41,0,0,1,.671-1.16,3,3,0,0,1,1.775-.489,2.669,2.669,0,0,1,1.719.447,3.661,3.661,0,0,1,.923,1.244,3.206,3.206,0,0,0,.545.8,1.007,1.007,0,0,0,.741.238,1.149,1.149,0,0,0,.895-.405,1.34,1.34,0,0,0,.364-.909,2.485,2.485,0,0,0-.294-1.132,3.641,3.641,0,0,0-.909-1.118,4.782,4.782,0,0,0-1.566-.853,6.5,6.5,0,0,0-1.831-.308v-2.055a.769.769,0,1,0-1.538,0v2.111a6.045,6.045,0,0,0-1.664.419,3.975,3.975,0,0,0-1.831,1.384,3.5,3.5,0,0,0-.629,2.055,3.361,3.361,0,0,0,.6,2.041,4.033,4.033,0,0,0,1.622,1.286,13.113,13.113,0,0,0,2.53.825,17.114,17.114,0,0,1,1.8.489,2.828,2.828,0,0,1,1.1.671,1.575,1.575,0,0,1,.419,1.132,1.783,1.783,0,0,1-.783,1.468,3.377,3.377,0,0,1-2.055.587,3.209,3.209,0,0,1-1.482-.294,2.444,2.444,0,0,1-.881-.741,4.893,4.893,0,0,1-.573-1.118,2.177,2.177,0,0,0-.531-.853,1.067,1.067,0,0,0-.755-.294,1.241,1.241,0,0,0-1.272,1.244,3.384,3.384,0,0,0,.6,1.831,4.708,4.708,0,0,0,1.552,1.51,5.933,5.933,0,0,0,2.237.713v2.474a.769.769,0,1,0,1.538,0v-2.418a6.8,6.8,0,0,0,2.628-.573,4.263,4.263,0,0,0,1.915-1.594,4.149,4.149,0,0,0,.657-2.293A4.021,4.021,0,0,0,1439.937,761.986Z" transform="translate(-1429.2 -750.9)" fill="#fff"/>
        </g>
      </g>
    </g>
    <g id="Group_15990" data-name="Group 15990" transform="translate(100.872 259.935)">
      <g id="Group_15930" data-name="Group 15930" transform="translate(15.757 28.183)">
        <g id="Group_15929" data-name="Group 15929">
          <path id="Path_4099" data-name="Path 4099" d="M899.9,1372.964s3.914-17.209,10.876-21.109c6.039-3.383,30.028,11.687,30.028,11.687l-6.668,11.03s-12.582-11.393-17.153-12.679c-5.228-1.468-13.49,12.512-13.49,12.512Z" transform="translate(-899.9 -1351.36)" fill="#08223a"/>
        </g>
      </g>
      <g id="Group_15937" data-name="Group 15937" transform="translate(0 48.94)">
        <g id="Group_15933" data-name="Group 15933">
          <g id="Group_15932" data-name="Group 15932">
            <g id="Group_15931" data-name="Group 15931">
              <path id="Path_4100" data-name="Path 4100" d="M787.273,1500.7a.177.177,0,0,1-.014-.294c.531-.391,2.125-1.23,4.529.391,3.006,2.041,2.7,2.964,2.7,2.964l-.489.811a.182.182,0,0,1-.252.056Z" transform="translate(-787.187 -1499.837)"/>
            </g>
          </g>
        </g>
        <g id="Group_15936" data-name="Group 15936" transform="translate(4.056 0.344)">
          <g id="Group_15935" data-name="Group 15935">
            <g id="Group_15934" data-name="Group 15934">
              <path id="Path_4101" data-name="Path 4101" d="M816.2,1504.662l1.873-2.362,3.02,2.432a11.7,11.7,0,0,1-2.153,1.957Z" transform="translate(-816.2 -1502.3)"/>
            </g>
          </g>
        </g>
      </g>
      <g id="Group_15944" data-name="Group 15944" transform="translate(10.167 49.787)">
        <g id="Group_15940" data-name="Group 15940" transform="translate(0 0.692)">
          <g id="Group_15939" data-name="Group 15939">
            <g id="Group_15938" data-name="Group 15938">
              <path id="Path_4102" data-name="Path 4102" d="M860.052,1512.368a.174.174,0,0,1-.1-.28c.391-.531,1.677-1.8,4.445-.951,3.467,1.063,3.453,2.041,3.453,2.041l-.238.923a.18.18,0,0,1-.224.126Z" transform="translate(-859.915 -1510.851)"/>
            </g>
          </g>
        </g>
        <g id="Group_15943" data-name="Group 15943" transform="translate(4.485)">
          <g id="Group_15942" data-name="Group 15942">
            <g id="Group_15941" data-name="Group 15941">
              <path id="Path_4103" data-name="Path 4103" d="M892,1508.71l1.1-2.81,3.607,1.44a18.9,18.9,0,0,1-1.482,2.5Z" transform="translate(-892 -1505.9)"/>
            </g>
          </g>
        </g>
      </g>
      <g id="Group_15946" data-name="Group 15946" transform="translate(5.943 29.512)">
        <g id="Group_15945" data-name="Group 15945">
          <path id="Path_4104" data-name="Path 4104" d="M845.147,1361.164c4.236-1.677,16.118,4.082,23.779,8.234l.028-.252h13.574s3.607,14.986-8.709,16.062c-.1.014-.559.014-.657.014H870.7a9.8,9.8,0,0,1-5.648-2.069c-4.082-3.117-12.036-9.115-15.042-10.82-4.711-2.7-17.293,10.764-17.293,10.764l-3.02-2.432C829.7,1380.638,838.7,1363.708,845.147,1361.164Z" transform="translate(-829.7 -1360.866)" fill="#113255"/>
        </g>
      </g>
      <g id="Group_15953" data-name="Group 15953" transform="translate(22.547 11.015)">
        <g id="Group_15948" data-name="Group 15948" transform="translate(3.429 5.124)">
          <g id="Group_15947" data-name="Group 15947">
            <path id="Path_4105" data-name="Path 4105" d="M989.943,1265.2c-.21.5-.405,1.007-.6,1.51l-.587,1.51-.587,1.524-.294.755a2.132,2.132,0,0,0-.1.293.408.408,0,0,1-.028.126,1.482,1.482,0,0,1-.657.825,1.566,1.566,0,0,1-.573.21,2.066,2.066,0,0,1-.657.014.727.727,0,0,1-.168-.042.2.2,0,0,1-.084-.028l-.042-.014h-.028l-.042-.028-.727-.349-1.454-.7c-.979-.475-1.943-.937-2.922-1.4q-2.936-1.4-5.885-2.768l-1.51,2.488q2.579,1.992,5.172,3.942c.867.657,1.719,1.3,2.6,1.943l1.3.964.657.489.042.028.07.042.126.084c.084.056.182.112.266.168.182.112.377.21.559.307a7.582,7.582,0,0,0,2.488.7,7.842,7.842,0,0,0,2.614-.182,7.936,7.936,0,0,0,2.446-1.062,7.657,7.657,0,0,0,1.985-1.873l2.041-3.005c.308-.447.6-.895.909-1.342s.6-.895.895-1.356Z" transform="translate(-973 -1265.2)" fill="#f19f8e"/>
          </g>
        </g>
        <g id="Group_15950" data-name="Group 15950" transform="translate(19.002)">
          <g id="Group_15949" data-name="Group 15949">
            <path id="Path_4106" data-name="Path 4106" d="M1092.494,1228.708c.895.336,2.7,2.307,1.426,6.514a19.29,19.29,0,0,1-2.251,4.669l-7.269-3.69a27.543,27.543,0,0,1,2.251-4.39,10.874,10.874,0,0,1,.979-1.3C1089.209,1228.708,1091.348,1228.261,1092.494,1228.708Z" transform="translate(-1084.4 -1228.547)" fill="#f19f8e"/>
          </g>
        </g>
        <g id="Group_15952" data-name="Group 15952" transform="translate(0 4.523)">
          <g id="Group_15951" data-name="Group 15951">
            <path id="Path_4107" data-name="Path 4107" d="M949.331,1261.222c.853-.559,2.027.126,2.7.629h0l-.391-.881c.825-.6,3.551,2.88,3.551,2.88l-2.111,2.391a20.586,20.586,0,0,1-3.453-1.817C948.227,1263.417,948.073,1262.047,949.331,1261.222Z" transform="translate(-948.475 -1260.901)" fill="#f19f8e"/>
          </g>
        </g>
      </g>
      <g id="Group_15955" data-name="Group 15955" transform="translate(37.871 10.126)">
        <g id="Group_15954" data-name="Group 15954">
          <path id="Path_4108" data-name="Path 4108" d="M1058.094,1231.9c.028-1.943,4.7-5.829,5.508-6.528s2.81-2.852,4.543-3.1c1.44-.21,5.089-.713,8.765,8.08,4.026,9.618,2.572,28.071,2.572,28.071a54.07,54.07,0,0,1-12.484-1.915c-3.635-1.062-7.9-7.06-7.9-7.06s1.23-3.411,1.3-11.379C1059.352,1236.223,1058.052,1234.28,1058.094,1231.9Z" transform="translate(-1058.093 -1222.186)" fill="#48a9f9"/>
        </g>
      </g>
      <g id="Group_15978" data-name="Group 15978" transform="translate(40.719)">
        <g id="Group_15958" data-name="Group 15958" transform="translate(4.465 7.709)">
          <g id="Group_15957" data-name="Group 15957">
            <g id="Group_15956" data-name="Group 15956">
              <path id="Path_4109" data-name="Path 4109" d="M1112.581,1204.9a10.54,10.54,0,0,0,2.027,2.922c.028.014.056.042.084.056.923.531-2.81,2.488-2.992,1.664s-1.3-3.523-1.3-3.523Z" transform="translate(-1110.4 -1204.9)" fill="#fdab9a"/>
            </g>
          </g>
        </g>
        <g id="Group_15961" data-name="Group 15961" transform="translate(0.433 2.352)">
          <g id="Group_15960" data-name="Group 15960">
            <g id="Group_15959" data-name="Group 15959">
              <path id="Path_4110" data-name="Path 4110" d="M1082.767,1167.492s-1.859,2.474-.965,4.767c.643,1.65,1.65,2.852,2.614,3.118a2.942,2.942,0,0,0,2.5-1.384c1.677-2.376.895-6.067.895-6.067S1083.955,1165.213,1082.767,1167.492Z" transform="translate(-1081.558 -1166.58)" fill="#fdab9a"/>
            </g>
          </g>
        </g>
        <g id="Group_15964" data-name="Group 15964" transform="translate(0 4.396)">
          <g id="Group_15963" data-name="Group 15963">
            <g id="Group_15962" data-name="Group 15962">
              <path id="Path_4111" data-name="Path 4111" d="M1079.641,1181.2s-1.356,3.509-1.16,3.607a3.566,3.566,0,0,0,.979.112Z" transform="translate(-1078.462 -1181.2)" fill="#fdab9a"/>
            </g>
          </g>
        </g>
        <g id="Group_15966" data-name="Group 15966" transform="translate(7.273 0.523)">
          <g id="Group_15965" data-name="Group 15965">
            <path id="Path_4112" data-name="Path 4112" d="M1130.489,1155.118s2.726-2.838,5.494-1.007c4.1,2.712-.28,10.359-.28,10.359s-2.223-2.768-1.887-4.879-1.412-3.467-2.418-3.173S1130.489,1155.118,1130.489,1155.118Z" transform="translate(-1130.487 -1153.496)"/>
          </g>
        </g>
        <g id="Group_15968" data-name="Group 15968" transform="translate(7.274 1.691)">
          <g id="Group_15967" data-name="Group 15967">
            <path id="Path_4113" data-name="Path 4113" d="M1131.095,1161.916a3.582,3.582,0,0,1,.839,1.552c.028.1-.084.168-.168.14a.5.5,0,0,0-.349,0c-.993.28-.923-1.3-.923-1.3a1.445,1.445,0,0,1,.391-.419A.142.142,0,0,1,1131.095,1161.916Z" transform="translate(-1130.493 -1161.853)" fill="#fff"/>
          </g>
        </g>
        <g id="Group_15971" data-name="Group 15971" transform="translate(0.053)">
          <g id="Group_15970" data-name="Group 15970">
            <g id="Group_15969" data-name="Group 15969">
              <path id="Path_4114" data-name="Path 4114" d="M1087.072,1155.255c.322-1.44-.014-3.495-1.356-3.746a4.182,4.182,0,0,0-4.334-1.664c-2.237.419-2.6,1.706-2.53,3.1a2.2,2.2,0,0,0,2.838,1.566c.489-.126.5.727.5.727a3.167,3.167,0,0,0,.28,1.062c.252.713.419.154.545-.154a2.074,2.074,0,0,1,.377-.447,1.961,1.961,0,0,1-.042.811s1.831.21,2.223,1.342C1085.576,1157.869,1086.569,1157.561,1087.072,1155.255Z" transform="translate(-1078.844 -1149.755)"/>
            </g>
          </g>
        </g>
        <g id="Group_15974" data-name="Group 15974" transform="translate(3.842 5.087)">
          <g id="Group_15973" data-name="Group 15973">
            <g id="Group_15972" data-name="Group 15972">
              <path id="Path_4115" data-name="Path 4115" d="M1108.746,1187.407a1.4,1.4,0,1,1-1.538-1.258A1.4,1.4,0,0,1,1108.746,1187.407Z" transform="translate(-1105.942 -1186.14)" fill="#fdab9a"/>
            </g>
          </g>
        </g>
        <g id="Group_15977" data-name="Group 15977" transform="translate(4.503 5.748)">
          <g id="Group_15976" data-name="Group 15976">
            <g id="Group_15975" data-name="Group 15975">
              <path id="Path_4116" data-name="Path 4116" d="M1112.157,1191.547a.744.744,0,1,1-.811-.671A.739.739,0,0,1,1112.157,1191.547Z" transform="translate(-1110.671 -1190.871)" fill="#fdab9a"/>
            </g>
          </g>
        </g>
      </g>
      <g id="Group_15980" data-name="Group 15980" transform="translate(27.22 19.256)">
        <g id="Group_15979" data-name="Group 15979">
          <path id="Path_4117" data-name="Path 4117" d="M998.843,1287.5c-.21.5-.405,1.007-.6,1.51l-.587,1.51-.587,1.524-.294.755a2.127,2.127,0,0,0-.1.293.408.408,0,0,1-.028.126,1.482,1.482,0,0,1-.657.825,1.57,1.57,0,0,1-.573.21,2.066,2.066,0,0,1-.657.014.727.727,0,0,1-.168-.042.2.2,0,0,1-.084-.028l-.042-.014h-.028l-.042-.028-.727-.349-1.454-.7c-.979-.475-1.943-.937-2.922-1.4q-2.936-1.4-5.885-2.768l-1.51,2.488q2.579,1.992,5.172,3.942c.867.657,1.719,1.3,2.6,1.943l1.3.965.657.489.042.028.07.042.126.084c.084.056.182.112.266.168.182.112.377.21.559.307a7.583,7.583,0,0,0,2.488.7,7.842,7.842,0,0,0,2.614-.182,7.936,7.936,0,0,0,2.446-1.062,7.655,7.655,0,0,0,1.985-1.873l2.041-3.006c.308-.447.6-.895.909-1.342s.6-.895.895-1.356Z" transform="translate(-981.9 -1287.5)" fill="#fdab9a"/>
        </g>
      </g>
      <g id="Group_15982" data-name="Group 15982" transform="translate(42.793 14.138)">
        <g id="Group_15981" data-name="Group 15981">
          <path id="Path_4118" data-name="Path 4118" d="M1101.394,1251.044c.895.336,2.7,2.307,1.426,6.515a19.287,19.287,0,0,1-2.251,4.669l-7.269-3.691a27.548,27.548,0,0,1,2.251-4.39,10.884,10.884,0,0,1,.979-1.3C1098.109,1251.044,1100.234,1250.61,1101.394,1251.044Z" transform="translate(-1093.3 -1250.888)" fill="#1a93e5"/>
        </g>
      </g>
      <g id="Group_15987" data-name="Group 15987" transform="translate(22.213 14.307)">
        <g id="Group_15984" data-name="Group 15984" transform="translate(0 0.084)">
          <g id="Group_15983" data-name="Group 15983">
            <path id="Path_4119" data-name="Path 4119" d="M950.351,1259.368l1.174-1.594c.028-.028.014-.1-.014-.154l-2.978-4.823a.234.234,0,0,0-.126-.1l-1.971.294c-.056.014-.433.084-.336.252l3.816,6.165C949.959,1259.494,950.309,1259.41,950.351,1259.368Z" transform="translate(-946.085 -1252.7)"/>
          </g>
        </g>
        <g id="Group_15986" data-name="Group 15986" transform="translate(0.299)">
          <g id="Group_15985" data-name="Group 15985">
            <path id="Path_4120" data-name="Path 4120" d="M952.192,1258.852l1.482-1.678c.028-.028.014-.1-.014-.154l-2.978-4.823a.235.235,0,0,0-.126-.1l-2.279.391c-.056.014-.07.084-.028.154l3.816,6.165A.077.077,0,0,0,952.192,1258.852Z" transform="translate(-948.226 -1252.1)" fill="#48a9f9"/>
          </g>
        </g>
      </g>
      <g id="Group_15989" data-name="Group 15989" transform="translate(23.488 18.49)">
        <g id="Group_15988" data-name="Group 15988">
          <path id="Path_4121" data-name="Path 4121" d="M955.75,1282.816c.853-.559,2.474,0,3.145.5l-.294-.336s-.867-.671-.224-.937c.853-.35,3.83,3.1,3.83,3.1l-2.111,2.391a9.917,9.917,0,0,1-3.453-1.817C955.681,1284.759,954.492,1283.641,955.75,1282.816Z" transform="translate(-955.206 -1282.022)" fill="#fdab9a"/>
        </g>
      </g>
    </g>
    <g id="Group_16017" data-name="Group 16017" transform="translate(278.763 275.291)">
      <g id="Group_15993" data-name="Group 15993" transform="translate(4.977 12.735)">
        <g id="Group_15991" data-name="Group 15991">
          <path id="Path_4122" data-name="Path 4122" d="M2099.5,1360.5h30.168a.692.692,0,0,0,.7-.7V1354.9a.692.692,0,0,0-.7-.7H2099.5a.692.692,0,0,0-.7.7v4.907A.692.692,0,0,0,2099.5,1360.5Z" transform="translate(-2098.311 -1353.711)" fill="#fff"/>
          <path id="Path_4123" data-name="Path 4123" d="M2095.3,1356.8v-4.907a1.187,1.187,0,0,1,1.188-1.188h30.168a1.187,1.187,0,0,1,1.188,1.188v4.907a1.187,1.187,0,0,1-1.188,1.188h-30.168A1.187,1.187,0,0,1,2095.3,1356.8Zm1.188-5.131a.215.215,0,0,0-.21.21v4.907a.215.215,0,0,0,.21.21h30.168a.215.215,0,0,0,.209-.21v-4.907a.215.215,0,0,0-.209-.21Z" transform="translate(-2095.3 -1350.7)"/>
        </g>
        <g id="Group_15992" data-name="Group 15992" transform="translate(16.272 2.321)">
          <path id="Path_4124" data-name="Path 4124" d="M2212.189,1368.279h15.28a.489.489,0,0,0,0-.979h-15.28a.489.489,0,0,0,0,.979Z" transform="translate(-2211.7 -1367.3)"/>
        </g>
      </g>
      <g id="Group_15996" data-name="Group 15996" transform="translate(7.647 6.417)">
        <g id="Group_15994" data-name="Group 15994">
          <path id="Path_4125" data-name="Path 4125" d="M2118.6,1315.3h30.168a.692.692,0,0,0,.7-.7V1309.7a.692.692,0,0,0-.7-.7H2118.6a.692.692,0,0,0-.7.7v4.907A.692.692,0,0,0,2118.6,1315.3Z" transform="translate(-2117.411 -1308.511)" fill="#fff"/>
          <path id="Path_4126" data-name="Path 4126" d="M2114.4,1311.595v-4.907a1.187,1.187,0,0,1,1.188-1.188h30.168a1.187,1.187,0,0,1,1.188,1.188v4.907a1.187,1.187,0,0,1-1.188,1.188h-30.168A1.187,1.187,0,0,1,2114.4,1311.595Zm1.188-5.116a.215.215,0,0,0-.21.21v4.907a.215.215,0,0,0,.21.21h30.168a.215.215,0,0,0,.21-.21v-4.907a.215.215,0,0,0-.21-.21Z" transform="translate(-2114.4 -1305.5)"/>
        </g>
        <g id="Group_15995" data-name="Group 15995" transform="translate(16.272 2.335)">
          <path id="Path_4127" data-name="Path 4127" d="M2231.289,1323.178h15.28a.489.489,0,0,0,0-.979h-15.28a.489.489,0,0,0,0,.979Z" transform="translate(-2230.8 -1322.2)"/>
        </g>
      </g>
      <g id="Group_15999" data-name="Group 15999" transform="translate(3.579)">
        <g id="Group_15997" data-name="Group 15997">
          <path id="Path_4128" data-name="Path 4128" d="M2089.5,1269.4h30.168a.692.692,0,0,0,.7-.7V1263.8a.692.692,0,0,0-.7-.7H2089.5a.692.692,0,0,0-.7.7v4.907A.692.692,0,0,0,2089.5,1269.4Z" transform="translate(-2088.311 -1262.611)" fill="#fff"/>
          <path id="Path_4129" data-name="Path 4129" d="M2085.3,1265.7v-4.907a1.187,1.187,0,0,1,1.188-1.188h30.168a1.187,1.187,0,0,1,1.188,1.188v4.907a1.187,1.187,0,0,1-1.188,1.188h-30.168A1.187,1.187,0,0,1,2085.3,1265.7Zm1.188-5.117a.215.215,0,0,0-.21.21v4.907a.215.215,0,0,0,.21.21h30.168a.215.215,0,0,0,.21-.21v-4.907a.215.215,0,0,0-.21-.21Z" transform="translate(-2085.3 -1259.6)"/>
        </g>
        <g id="Group_15998" data-name="Group 15998" transform="translate(16.272 2.321)">
          <path id="Path_4130" data-name="Path 4130" d="M2202.189,1277.179h15.28a.489.489,0,0,0,0-.979h-15.28a.489.489,0,0,0,0,.979Z" transform="translate(-2201.7 -1276.2)"/>
        </g>
      </g>
      <g id="Group_16002" data-name="Group 16002" transform="translate(0 19.04)">
        <g id="Group_16000" data-name="Group 16000">
          <path id="Path_4131" data-name="Path 4131" d="M2063.9,1405.6h30.168a.692.692,0,0,0,.7-.7V1400a.692.692,0,0,0-.7-.7H2063.9a.692.692,0,0,0-.7.7v4.907A.7.7,0,0,0,2063.9,1405.6Z" transform="translate(-2062.711 -1398.811)" fill="#fff"/>
          <path id="Path_4132" data-name="Path 4132" d="M2059.7,1401.9v-4.907a1.187,1.187,0,0,1,1.188-1.188h30.168a1.187,1.187,0,0,1,1.188,1.188v4.907a1.187,1.187,0,0,1-1.188,1.188h-30.168A1.187,1.187,0,0,1,2059.7,1401.9Zm1.188-5.117a.215.215,0,0,0-.21.21v4.907a.215.215,0,0,0,.21.21h30.168a.215.215,0,0,0,.21-.21v-4.907a.215.215,0,0,0-.21-.21Z" transform="translate(-2059.7 -1395.8)"/>
        </g>
        <g id="Group_16001" data-name="Group 16001" transform="translate(15.979 2.167)">
          <path id="Path_4133" data-name="Path 4133" d="M2174.489,1412.279h15.28a.489.489,0,0,0,0-.979h-15.28a.489.489,0,0,0,0,.979Z" transform="translate(-2174 -1411.3)"/>
        </g>
      </g>
      <g id="Group_16005" data-name="Group 16005" transform="translate(7.843 25.359)">
        <g id="Group_16003" data-name="Group 16003">
          <path id="Path_4134" data-name="Path 4134" d="M2120,1450.8h30.168a.692.692,0,0,0,.7-.7V1445.2a.692.692,0,0,0-.7-.7H2120a.692.692,0,0,0-.7.7v4.907A.71.71,0,0,0,2120,1450.8Z" transform="translate(-2118.811 -1444.011)" fill="#fff"/>
          <path id="Path_4135" data-name="Path 4135" d="M2115.8,1447.095v-4.907a1.187,1.187,0,0,1,1.188-1.188h30.168a1.187,1.187,0,0,1,1.188,1.188v4.907a1.187,1.187,0,0,1-1.188,1.188h-30.168A1.187,1.187,0,0,1,2115.8,1447.095Zm1.188-5.13a.215.215,0,0,0-.21.21v4.907a.215.215,0,0,0,.21.21h30.168a.215.215,0,0,0,.209-.21v-4.907a.215.215,0,0,0-.209-.21Z" transform="translate(-2115.8 -1441)"/>
        </g>
        <g id="Group_16004" data-name="Group 16004" transform="translate(0.294 2.74)">
          <path id="Path_4136" data-name="Path 4136" d="M2118.389,1461.579h15.28a.489.489,0,0,0,0-.979h-15.28a.489.489,0,0,0,0,.979Z" transform="translate(-2117.9 -1460.6)"/>
        </g>
      </g>
      <g id="Group_16008" data-name="Group 16008" transform="translate(2.53 31.664)">
        <g id="Group_16006" data-name="Group 16006">
          <path id="Path_4137" data-name="Path 4137" d="M2081.913,1495.9h30.154a.692.692,0,0,0,.7-.7V1490.3a.692.692,0,0,0-.7-.7H2081.9a.692.692,0,0,0-.7.7v4.907A.713.713,0,0,0,2081.913,1495.9Z" transform="translate(-2080.725 -1489.111)" fill="#fff"/>
          <path id="Path_4138" data-name="Path 4138" d="M2077.8,1492.2v-4.907a1.187,1.187,0,0,1,1.188-1.188h30.154a1.187,1.187,0,0,1,1.188,1.188v4.907a1.187,1.187,0,0,1-1.188,1.188h-30.168A1.184,1.184,0,0,1,2077.8,1492.2Zm1.188-5.116a.215.215,0,0,0-.21.21v4.907a.215.215,0,0,0,.21.21h30.154a.215.215,0,0,0,.21-.21v-4.907a.215.215,0,0,0-.21-.21Z" transform="translate(-2077.8 -1486.1)"/>
        </g>
        <g id="Group_16007" data-name="Group 16007" transform="translate(0.489 2.307)">
          <path id="Path_4139" data-name="Path 4139" d="M2081.789,1503.579h15.28a.489.489,0,0,0,0-.979h-15.28a.5.5,0,0,0-.489.489A.486.486,0,0,0,2081.789,1503.579Z" transform="translate(-2081.3 -1502.6)"/>
        </g>
      </g>
      <g id="Group_16016" data-name="Group 16016" transform="translate(24.828 6.319)">
        <g id="Group_16011" data-name="Group 16011">
          <g id="Group_16009" data-name="Group 16009" transform="translate(0.489 0.489)">
            <circle id="Ellipse_324" data-name="Ellipse 324" cx="15.881" cy="15.881" r="15.881" fill="#fff"/>
          </g>
          <g id="Group_16010" data-name="Group 16010">
            <path id="Path_4140" data-name="Path 4140" d="M2253.67,1337.54a16.37,16.37,0,1,1,16.37-16.37A16.383,16.383,0,0,1,2253.67,1337.54Zm0-31.775a15.391,15.391,0,1,0,15.391,15.391A15.411,15.411,0,0,0,2253.67,1305.765Z" transform="translate(-2237.3 -1304.8)"/>
          </g>
        </g>
        <g id="Group_16013" data-name="Group 16013" transform="translate(3.383 3.383)">
          <g id="Group_16012" data-name="Group 16012">
            <circle id="Ellipse_325" data-name="Ellipse 325" cx="12.987" cy="12.987" r="12.987" fill="#fe9805"/>
          </g>
        </g>
        <g id="Group_16015" data-name="Group 16015" transform="translate(10.834 6.319)">
          <g id="Group_16014" data-name="Group 16014">
            <path id="Path_4141" data-name="Path 4141" d="M2325.536,1361.086a3.385,3.385,0,0,0-1.049-1.216,6.373,6.373,0,0,0-1.635-.811,20.167,20.167,0,0,0-2.153-.615c-.629-.154-1.091-.28-1.356-.364a3.728,3.728,0,0,1-.811-.349,1.821,1.821,0,0,1-.629-.531,1.182,1.182,0,0,1-.224-.727,1.41,1.41,0,0,1,.671-1.16,3,3,0,0,1,1.775-.489,2.669,2.669,0,0,1,1.719.447,3.657,3.657,0,0,1,.923,1.244,3.211,3.211,0,0,0,.545.8,1.008,1.008,0,0,0,.741.238,1.149,1.149,0,0,0,.895-.405,1.34,1.34,0,0,0,.364-.909,2.483,2.483,0,0,0-.294-1.132,3.641,3.641,0,0,0-.909-1.118,4.78,4.78,0,0,0-1.566-.853,6.506,6.506,0,0,0-1.831-.307v-2.055a.769.769,0,0,0-1.538,0v2.111a6.055,6.055,0,0,0-1.664.419,3.975,3.975,0,0,0-1.831,1.384,3.506,3.506,0,0,0-.629,2.055,3.36,3.36,0,0,0,.6,2.041,4.03,4.03,0,0,0,1.622,1.286,13.105,13.105,0,0,0,2.53.825,17.147,17.147,0,0,1,1.8.489,2.825,2.825,0,0,1,1.1.671,1.575,1.575,0,0,1,.419,1.132,1.783,1.783,0,0,1-.783,1.468,3.376,3.376,0,0,1-2.055.587,3.21,3.21,0,0,1-1.482-.293,2.446,2.446,0,0,1-.881-.741,4.9,4.9,0,0,1-.573-1.118,2.35,2.35,0,0,0-.531-.853,1.068,1.068,0,0,0-.755-.294,1.242,1.242,0,0,0-1.272,1.244,3.383,3.383,0,0,0,.6,1.831,4.706,4.706,0,0,0,1.552,1.51,5.932,5.932,0,0,0,2.237.713v2.474a.769.769,0,1,0,1.538,0v-2.418a6.8,6.8,0,0,0,2.628-.573,4.263,4.263,0,0,0,1.915-1.594,4.151,4.151,0,0,0,.657-2.293A4.023,4.023,0,0,0,2325.536,1361.086Z" transform="translate(-2314.8 -1350)" fill="#fff"/>
          </g>
        </g>
      </g>
    </g>
  </g>
</svg>
