<svg xmlns="http://www.w3.org/2000/svg" width="63" height="60.218" viewBox="0 0 63 60.218">
  <path id="pharma" d="M61.969,20.519A9.894,9.894,0,0,1,44.962,30.546ZM18.784,5.132A10.294,10.294,0,0,1,32.806,1.373h0A10.3,10.3,0,0,1,36.561,15.39C30.724,25.494,24.9,35.5,19.071,45.609h0a10.258,10.258,0,0,1-13.93,3.744h0A10.258,10.258,0,0,1,1.377,35.392h0C7.193,25.278,12.937,15.251,18.784,5.132Zm5.79,26.439-13.7-7.909L3.433,36.541h0A7.95,7.95,0,0,0,6.326,47.353h0a7.939,7.939,0,0,0,10.812-2.9h0ZM46.331,45.855a9.894,9.894,0,0,1-13.617,13.13,9.745,9.745,0,0,1-3.39-3.077Zm-17.469-.323A9.883,9.883,0,0,1,42.3,41.675a9.745,9.745,0,0,1,3.2,2.816L28.544,54.482A9.827,9.827,0,0,1,28.862,45.532ZM44.5,20.19a9.894,9.894,0,0,1,16.638-1.026L44.177,29.151a9.9,9.9,0,0,1,.323-8.96Z" transform="translate(-0.025 -0.007)" fill="#04948b"/>
</svg>
