<svg id="snack-svgrepo-com" xmlns="http://www.w3.org/2000/svg" width="58.925" height="58.925" viewBox="0 0 58.925 58.925">
  <g id="Group_15245" data-name="Group 15245" transform="translate(0 19.855)">
    <g id="Group_15244" data-name="Group 15244">
      <path id="Path_2949" data-name="Path 2949" d="M30.743,194.938a14.091,14.091,0,0,1-14.091-14.091,8.326,8.326,0,1,0-16.653,0,30.743,30.743,0,0,0,30.743,30.743,8.326,8.326,0,0,0,0-16.653Z" transform="translate(0 -172.521)" fill="#fe9805"/>
    </g>
  </g>
  <g id="Group_15247" data-name="Group 15247" transform="translate(19.855)">
    <g id="Group_15246" data-name="Group 15246">
      <path id="Path_2950" data-name="Path 2950" d="M203.265,22.417A14.091,14.091,0,0,1,189.175,8.326a8.326,8.326,0,1,0-16.653,0A30.743,30.743,0,0,0,203.265,39.07a8.326,8.326,0,1,0,0-16.653Z" transform="translate(-172.522)" fill="#fe9805"/>
    </g>
  </g>
</svg>
