<svg xmlns="http://www.w3.org/2000/svg" width="351.035" height="237.744" viewBox="0 0 351.035 237.744">
  <g id="Group_16173" data-name="Group 16173" transform="translate(-38.25 -127.923)">
    <g id="Group_16128" data-name="Group 16128" transform="translate(38.25 101.587)">
      <g id="Group_15282" data-name="Group 15282" transform="translate(25.761 92.648)" opacity="0.1">
        <path id="Path_3023" data-name="Path 3023" d="M282.144,553.769a25.856,25.856,0,0,1-.558,5.413c-.071.321-.148.664-.225.985-1.98,7.948-7.573,13.762-14.244,14.119-.221,0-.446.019-.677.019-7.059,0-13.021-6.1-14.988-14.465-.058-.225-.106-.446-.154-.671a25.848,25.848,0,0,1-.558-5.413c0-11.356,7.027-20.536,15.7-20.536S282.144,542.413,282.144,553.769Z" transform="translate(-213.052 -469.231)" fill="#fe9805"/>
        <path id="Path_3024" data-name="Path 3024" d="M282.171,553.742a25.849,25.849,0,0,1-.558,5.413c-.071.321-.148.664-.225.985a5.684,5.684,0,0,1-.7-.029,31.872,31.872,0,0,1-5.134-.7,31.6,31.6,0,0,1-4.579,1.046,32.214,32.214,0,0,1-3.587.321c-.4,0-.809.022-1.213.022a32.74,32.74,0,0,1-4.3-.286,31.759,31.759,0,0,1-6.738-1.675,31.484,31.484,0,0,1-3.642.963c-.058-.225-.106-.446-.154-.671a25.85,25.85,0,0,1-.558-5.413c0-11.356,7.027-20.536,15.7-20.536S282.171,542.386,282.171,553.742Z" transform="translate(-213.079 -469.204)" opacity="0.1"/>
        <path id="Path_3025" data-name="Path 3025" d="M235.906,380.046a31.788,31.788,0,0,0-3.417-14.381l-18.466,5.74,16.207-9.53a31.885,31.885,0,0,0-23.976-13.666,31.989,31.989,0,0,0-2.487-3.3l-26.546,8.256,21.752-12.79a31.917,31.917,0,0,0-50.223,17.006l22.721,26.154L146.79,365.725a31.92,31.92,0,0,0,28.558,56.32,32.088,32.088,0,0,0,20.449.562,31.933,31.933,0,0,0,38.826-31.163c0-.709-.026-1.412-.071-2.111a31.917,31.917,0,0,0,1.354-9.286Z" transform="translate(-133.318 -333.797)" fill="#fe9805"/>
        <path id="Path_3026" data-name="Path 3026" d="M235.324,480.852a85.029,85.029,0,0,0-29.549-.375c-11.086,1.835-22.419,5.869-33.265,2.92-6.363-1.733-11.872-5.737-18.081-7.958a34.272,34.272,0,0,0-18.668-1.126,31.933,31.933,0,0,0,39.564,42.618,32.089,32.089,0,0,0,20.44.561,31.933,31.933,0,0,0,38.826-31.163c0-.709-.026-1.412-.071-2.111A31.594,31.594,0,0,0,235.324,480.852Z" transform="translate(-133.285 -428.684)" opacity="0.1"/>
      </g>
      <ellipse id="Ellipse_173" data-name="Ellipse 173" cx="175.517" cy="31.927" rx="175.517" ry="31.927" transform="translate(0 192.556)" fill="#fe9805" opacity="0.1"/>
    </g>
    <g id="Group_16127" data-name="Group 16127" transform="translate(-296.651 60.718)">
      <g id="Group_16121" data-name="Group 16121" transform="translate(450.546 67.205)">
        <g id="Group_16120" data-name="Group 16120" transform="translate(0 0)">
          <g id="Group_16090" data-name="Group 16090" transform="translate(33.67 129.267)">
            <path id="Path_4226" data-name="Path 4226" d="M1026.257,1408.316c-3.674,6.992-6.209,14.979,3.4,18,4.354,1.365,1.851-4.913,1.851-4.913s-8.592-.165-.895-11.112C1033.41,1406.31,1026.257,1408.316,1026.257,1408.316Z" transform="translate(-1022.971 -1407.81)" fill="#635045"/>
          </g>
          <g id="Group_16091" data-name="Group 16091" transform="translate(76.182 129.928)">
            <path id="Path_4227" data-name="Path 4227" d="M1475.723,1416.262c2.008,7.769,2.424,16.161-9.341,16.262-5.333.048-.588-5.244-.588-5.244s9.749,2.335,4.41-10.392C1468.265,1412.263,1475.723,1416.262,1475.723,1416.262Z" transform="translate(-1463.849 -1414.656)" fill="#635045"/>
          </g>
          <path id="Path_4228" data-name="Path 4228" d="M1156.622,1645.71l16.515,12.016,16.434-10.5Z" transform="translate(-1110.065 -1493.503)" fill="#c12f13"/>
          <g id="Group_16092" data-name="Group 16092" transform="translate(52.156 103.752)">
            <path id="Path_4229" data-name="Path 4229" d="M1214.707,1149.233l7.332-.628v-5.413h4.4v5.424l7.2.617c.524,9.889-8.83,10.406-9.448,10.428v0l-.017,0-.015,0v0C1223.538,1159.639,1214.184,1159.121,1214.707,1149.233Z" transform="translate(-1214.685 -1143.192)" fill="#5d4a3f"/>
            <path id="Path_4230" data-name="Path 4230" d="M1295.4,1184.628a2.414,2.414,0,0,0-1.89.819v-2.267h3.778v2.267A2.414,2.414,0,0,0,1295.4,1184.628Z" transform="translate(-1285.908 -1179.324)" fill="#5d4a3f"/>
          </g>
          <g id="Group_16093" data-name="Group 16093" transform="translate(31.331 109.007)">
            <path id="Path_4231" data-name="Path 4231" d="M1025.244,1206.711c.054,8.4,5.564,11.506,11.1,10.723v-.01l.036,0,.037,0v.01c5.533.783,11.042-2.327,11.1-10.723,2.391,0,10.4,2.225,15.984,8.959,3.769,4.54,3.08,13.37,1.749,14.37-2.124-.671-9.15-1.3-10.3-3.007.052,6.505,1.555,19.07,1.223,21.955a111.066,111.066,0,0,1-19.752,1.758h-.073a111.066,111.066,0,0,1-19.753-1.758c-.332-2.885.94-16.591.992-23.1-2.424.49-7.7,3.412-10.473,4.079a18.539,18.539,0,0,1,4.5-15.932C1017.24,1207.929,1022.853,1206.713,1025.244,1206.711Z" transform="translate(-1006.006 -1205.842)" fill="#04948b"/>
            <path id="Path_4232" data-name="Path 4232" d="M1128.134,1594.121a117.782,117.782,0,0,1-19.86-1.942c-.016-2.125-.03-5.63-.038-7.553,11.917,3.639,30.525,1.97,39.8,0-.009,1.923-.022,5.428-.038,7.553A117.773,117.773,0,0,1,1128.134,1594.121Z" transform="translate(-1097.675 -1547.316)" fill="#002c49"/>
            <path id="Path_4233" data-name="Path 4233" d="M1291.7,1630.212a2.24,2.24,0,0,0,2.5,1.948h0a2.24,2.24,0,0,0,1.948-2.5h0a2.24,2.24,0,0,0-2.5-1.949h0a2.24,2.24,0,0,0-1.948,2.5Z" transform="translate(-1263.43 -1586.234)" fill="#00436b"/>
            <path id="Path_4234" data-name="Path 4234" d="M1487.322,1398.217s8.763,2.531,14.262.76a35.437,35.437,0,0,0,.189-3.589,53.979,53.979,0,0,1-14.163-1.2C1487.376,1396.548,1487.322,1398.217,1487.322,1398.217Z" transform="translate(-1440.208 -1375.24)" fill="#047b74"/>
            <path id="Path_4235" data-name="Path 4235" d="M1013.086,1400.361s-8.831,2.282-14.278.357a35.339,35.339,0,0,1-.088-3.593,53.983,53.983,0,0,0,14.191-.8C1013.078,1398.69,1013.086,1400.361,1013.086,1400.361Z" transform="translate(-998.709 -1377.171)" fill="#047b74"/>
            <path id="Path_4236" data-name="Path 4236" d="M1172.095,1198.821a31.808,31.808,0,0,0,4.565-1.125c.887,5.074,3.073,9.373,9.2,9.494,6.124-.121,8.31-4.42,9.2-9.494a31.815,31.815,0,0,0,4.565,1.125s-.966,12.821-13.648,12.789h-.226C1173.06,1211.641,1172.095,1198.821,1172.095,1198.821Z" transform="translate(-1155.376 -1197.696)" fill="#047b74"/>
          </g>
          <g id="Group_16098" data-name="Group 16098" transform="translate(31.965 149.111)">
            <g id="Group_16094" data-name="Group 16094" transform="translate(29.044)">
              <path id="Path_4237" data-name="Path 4237" d="M1311.084,1624.13s13.448-11.524,23.715-10.457,8.913,8.238,4.566,11.9c-4.53,3.819-20.726,9.289-20.726,9.289Z" transform="translate(-1310.642 -1613.603)" fill="#00436b"/>
              <path id="Path_4238" data-name="Path 4238" d="M1328.511,1662.356s-10.627,2.359-14.457-1.029,5.081-9.855,5.081-9.855-6.868,4.2-12.639,8.588c1.968,4.535,8.5,6.685,8.5,6.685Z" transform="translate(-1306.496 -1647.82)" fill="#c12f13"/>
            </g>
            <path id="Path_4239" data-name="Path 4239" d="M1294.816,1758.951l-12.32-6,2.918-6.347s6.025,5.585,11.719,7.7S1294.816,1758.951,1294.816,1758.951Z" transform="translate(-1255.766 -1733.778)" fill="#635045"/>
            <g id="Group_16095" data-name="Group 16095" transform="translate(0 0.104)">
              <path id="Path_4240" data-name="Path 4240" d="M1036.473,1626.937s-11.5-11.743-23.216-12.247-8.906,13.493-1.812,18.393,8.1-3.129,8.1-3.129a43.242,43.242,0,0,0,11.042,5.735A32.378,32.378,0,0,0,1036.473,1626.937Z" transform="translate(-1005.29 -1614.677)" fill="#00436b"/>
              <path id="Path_4241" data-name="Path 4241" d="M1020.9,1676.392s-1.358,9.751,8.2,12.2c5.775-1.9,12.387,1.224,12.387,1.224l3.261,1.144s.244-4.557-6.128-6.974-9.8,2.1-13.231-.99A16.149,16.149,0,0,1,1020.9,1676.392Z" transform="translate(-1019.33 -1670.441)" fill="#c12f13"/>
              <path id="Path_4242" data-name="Path 4242" d="M1204.523,1691.317s-2.747,8.273-8.437,12.757a51.246,51.246,0,0,0,6.941,3.8s6.675-6.72,7.156-11.986A71.415,71.415,0,0,0,1204.523,1691.317Z" transform="translate(-1177.689 -1683.927)" fill="#002c49"/>
            </g>
            <g id="Group_16096" data-name="Group 16096" transform="translate(33.39 16.001)">
              <path id="Path_4243" data-name="Path 4243" d="M1357.138,1780.011c-2.142-1.315-5.73.2-1.73,4.119.064,1.164-3.842,1.859-3.842,1.859a15.842,15.842,0,0,0,9.815,5.182c5.808.579,13.344-3.8,10.645-8.854s-6.7-1.645-10.177-1.545A10.5,10.5,0,0,1,1357.138,1780.011Z" transform="translate(-1351.566 -1779.547)" fill="#1a1a1a"/>
              <path id="Path_4244" data-name="Path 4244" d="M1383.429,1790.573c5-2.268,5-6.322,3.192-8.4a4.85,4.85,0,0,1,2.764,2.364c2.7,5.05-5.054,9.586-10.862,9.007a15.183,15.183,0,0,1-7.986-3.436C1373.624,1791.2,1379.1,1792.537,1383.429,1790.573Z" transform="translate(-1368.708 -1781.918)" fill="#d7d6d6"/>
            </g>
            <g id="Group_16097" data-name="Group 16097" transform="translate(8.129 14.196)">
              <path id="Path_4245" data-name="Path 4245" d="M1101.472,1772.225s4.941-3.334,1.87-7.974c-3.421-5.168-11.059-3.491-12.98-1.4s-.116,6.963,3.883,9.371A6.6,6.6,0,0,0,1101.472,1772.225Z" transform="translate(-1089.59 -1760.827)" fill="#1a1a1a"/>
              <path id="Path_4246" data-name="Path 4246" d="M1090.056,1781.885c2.516-.873,7.316-.73,10.224,2.377,2.55,2.731,2.306,5.108,1.036,6.684a6.627,6.627,0,0,1-7.061-.115C1090.507,1788.573,1088.687,1784.154,1090.056,1781.885Z" transform="translate(-1089.6 -1779.436)" fill="#d7d6d6"/>
            </g>
          </g>
          <g id="Group_16103" data-name="Group 16103" transform="translate(39.764 138.954)">
            <g id="Group_16100" data-name="Group 16100" transform="translate(6.32 0.092)">
              <g id="Group_16099" data-name="Group 16099">
                <path id="Path_4247" data-name="Path 4247" d="M1197.124,1536.262a.464.464,0,0,1-.467-.33l-.554-1.816a.467.467,0,0,1,.892-.274l.557,1.818a.468.468,0,0,1-.312.583A.482.482,0,0,1,1197.124,1536.262Z" transform="translate(-1191.803 -1531.17)" fill="#2a292a"/>
                <path id="Path_4248" data-name="Path 4248" d="M1186.923,1514.267a1.364,1.364,0,1,1-1.884-.418A1.364,1.364,0,0,1,1186.923,1514.267Z" transform="translate(-1181.256 -1513.21)" fill="#353537"/>
                <path id="Path_4249" data-name="Path 4249" d="M1398.59,1532.012a.471.471,0,0,1-.3-.486l.194-1.886a.467.467,0,1,1,.929.091l-.193,1.89a.46.46,0,0,1-.51.415A.364.364,0,0,1,1398.59,1532.012Z" transform="translate(-1374.509 -1527.29)" fill="#2a292a"/>
                <path id="Path_4250" data-name="Path 4250" d="M1395.586,1510.356a1.364,1.364,0,1,1-1.574-1.117A1.367,1.367,0,0,1,1395.586,1510.356Z" transform="translate(-1369.623 -1509.22)" fill="#353537"/>
                <path id="Path_4251" data-name="Path 4251" d="M1152.487,1546.314l27.172-.019.678,3.959-28.621.145Z" transform="translate(-1151.716 -1542.721)" fill="#353537"/>
                <path id="Path_4252" data-name="Path 4252" d="M1284.721,1554.237a1.249,1.249,0,1,1-1-1.456A1.248,1.248,0,0,1,1284.721,1554.237Z" transform="translate(-1269.658 -1548.562)" fill="#56575a"/>
                <path id="Path_4253" data-name="Path 4253" d="M1151.716,1587.5l1.523,3.531,25.978-.477,1.12-3.2Z" transform="translate(-1151.716 -1579.822)" fill="#2a292a"/>
              </g>
              <path id="Path_4254" data-name="Path 4254" d="M1300.785,1642.107a.422.422,0,0,1-.187-.084c-10.817-8.21-16.222-15.763-16.522-23.089-.227-5.529,2.583-10.957,8.352-16.135,2.386-2.141,3.406-4.33,3.034-6.5-1.176-6.841-15.738-12.846-24.439-16.436-2.036-.838-3.8-1.564-5.148-2.191-6.242-2.9-4.865-6.375-3.41-10.059.854-2.16,1.822-4.608,1.433-7.286a.45.45,0,0,1,.89-.127c.423,2.914-.593,5.479-1.487,7.742-1.464,3.7-2.522,6.377,2.953,8.915,1.333.619,3.083,1.341,5.112,2.177,9.446,3.9,23.722,9.783,24.979,17.113.431,2.5-.687,4.961-3.319,7.323-5.638,5.061-8.274,10.106-8.053,15.428.289,7.042,5.576,14.375,16.167,22.414a.449.449,0,0,1-.356.8Z" transform="translate(-1250.672 -1554.933)" fill="#2a292a"/>
            </g>
            <g id="Group_16101" data-name="Group 16101">
              <path id="Path_4255" data-name="Path 4255" d="M1088.03,1511.694a8.254,8.254,0,0,1,3.822-1.813,7.371,7.371,0,0,0,3.142-1.269c1.465-1.212,1.8,1.129,1.342,1.855a4.256,4.256,0,0,1-2.624,1.718s.329.653,1.964,1.3c2.375.942,5.422,1.07,5.195,2.333s-1.683.973-1.683.973,1.045,1.839-.973,1.864c.574.915-.277,1.253-1.54,1.333-.4,1.563-5.362.007-6.853-.781-1.066-.564-2.787-1.328-3.406-2.386C1085.62,1515.455,1086.9,1512.649,1088.03,1511.694Z" transform="translate(-1086.169 -1508.27)" fill="#635045"/>
              <path id="Path_4256" data-name="Path 4256" d="M1180.308,1584.4a14.393,14.393,0,0,1-4.105-1.158.178.178,0,0,1,.134-.331,12.838,12.838,0,0,0,4.1,1.137.179.179,0,0,1,0,.358C1180.431,1584.406,1180.388,1584.406,1180.308,1584.4Z" transform="translate(-1167.422 -1575.703)" fill="#53433e"/>
              <path id="Path_4257" data-name="Path 4257" d="M1168.389,1600.529h0a13.163,13.163,0,0,1-4.444-1.509.177.177,0,0,1-.077-.241.176.176,0,0,1,.24-.074,12.972,12.972,0,0,0,4.315,1.47.18.18,0,0,1,.16.193A.182.182,0,0,1,1168.389,1600.529Z" transform="translate(-1156.355 -1589.964)" fill="#53433e"/>
              <path id="Path_4258" data-name="Path 4258" d="M1150.458,1614.693l-.015,0a16.32,16.32,0,0,1-4.5-1.453.178.178,0,0,1-.072-.242.183.183,0,0,1,.242-.072,16.136,16.136,0,0,0,4.389,1.415.179.179,0,0,1-.042.356Z" transform="translate(-1140.093 -1602.814)" fill="#53433e"/>
            </g>
            <g id="Group_16102" data-name="Group 16102" transform="translate(29.215 0.092)">
              <path id="Path_4259" data-name="Path 4259" d="M1381.017,1513.351a8.19,8.19,0,0,0-3.913-1.6,7.346,7.346,0,0,1-3.207-1.091c-1.533-1.13-1.739,1.23-1.24,1.926a4.254,4.254,0,0,0,2.716,1.569s-.292.67-1.886,1.41c-2.319,1.075-5.354,1.37-5.059,2.618s1.735.877,1.735.877-.94,1.9,1.075,1.81c-.522.946.346,1.234,1.612,1.244.487,1.538,5.353-.292,6.8-1.165,1.031-.62,2.709-1.481,3.267-2.57C1383.636,1516.973,1382.2,1514.241,1381.017,1513.351Z" transform="translate(-1368.407 -1510.361)" fill="#635045"/>
              <path id="Path_4260" data-name="Path 4260" d="M1385.077,1586.192a14.317,14.317,0,0,0,4.03-1.384.178.178,0,1,0-.148-.323,12.724,12.724,0,0,1-4.035,1.363.185.185,0,0,0-.17.19.178.178,0,0,0,.188.167C1384.952,1586.2,1385,1586.2,1385.077,1586.192Z" transform="translate(-1383.178 -1577.323)" fill="#53433e"/>
              <path id="Path_4261" data-name="Path 4261" d="M1396.106,1601.625h0a13.179,13.179,0,0,0,4.353-1.758.178.178,0,0,0,.061-.244.174.174,0,0,0-.244-.059,13.089,13.089,0,0,1-4.224,1.707.179.179,0,0,0,.05.354Z" transform="translate(-1393.253 -1590.938)" fill="#53433e"/>
              <path id="Path_4262" data-name="Path 4262" d="M1414.143,1614.777s.009,0,.014-.005a16.252,16.252,0,0,0,4.414-1.7.177.177,0,0,0,.058-.246.182.182,0,0,0-.245-.057,16.144,16.144,0,0,1-4.3,1.656.18.18,0,0,0,.062.354Z" transform="translate(-1409.55 -1602.87)" fill="#53433e"/>
            </g>
          </g>
          <g id="Group_16119" data-name="Group 16119">
            <path id="Path_4263" data-name="Path 4263" d="M787.378,105.859C783.2,97.6,768.709,91.8,768.709,91.8s15.4,2.1,10.854-6.834c-5.953-11.689-32.219-7.44-32.219-7.44s10.978-7.475.892-9.959c-7.991-1.968-21.427,4.533-23.273,8.138-3.9-3.779-15.935-4.664-21.414-2.665-9.758,3.56-.92,9.36-.92,9.36s-21.228-.12-24.809,12.5c-2.735,9.645,10.234,8.865,10.234,8.865s-11.359,4.237-13.859,13.143c-1.568,5.587,1.378,11.655,8.195,10.99-6.472,2.946-.386,15.757,10.562,14.527,0,0,25.721-3.579,40.263-6.169,14.77-.272,40.7-1.737,40.7-1.737,10.98-.911,14.472-14.657,7.552-16.3C788.281,117.56,790,111.038,787.378,105.859Z" transform="translate(-673.784 -67.205)"/>
            <path id="Path_4264" data-name="Path 4264" d="M871.595,414.059c2.236,22.847,21.552,36.311,43.553,34.159s38.341-19.1,36.1-41.954-21.8-38.8-43.8-36.647S869.36,391.214,871.595,414.059Z" transform="translate(-852.334 -340.282)" fill="#635045"/>
            <g id="Group_16106" data-name="Group 16106" transform="translate(8.131 60.078)">
              <g id="Group_16104" data-name="Group 16104" transform="translate(0 8.862)">
                <path id="Path_4265" data-name="Path 4265" d="M770.844,787.014s-.99-4.589-6.668-4.848c-5.989-.271-7.8,7.69-4.286,12.115s10.133,4.03,11.932.243Z" transform="translate(-758.107 -782.159)" fill="#635045"/>
              </g>
              <g id="Group_16105" data-name="Group 16105" transform="translate(89.466)">
                <path id="Path_4267" data-name="Path 4267" d="M1685.94,696.482s.08-4.693,5.6-6.047c5.824-1.426,9.143,6.033,6.556,11.054s-9.161,5.918-11.66,2.553Z" transform="translate(-1685.94 -690.257)" fill="#635045"/>
              </g>
            </g>
            <path id="Path_4287" data-name="Path 4287" d="M941.178,343.484c-7.265,9.371-4.141,12.62-.336,11.342,6.057-2.036,8.771-11.2,8.771-11.2s-2.766,11.1,6.987,7.5a14.9,14.9,0,0,0,10.062-12.772S971.443,352.8,982,350.083c5.963-1.532-.734-12.44-.734-12.44s8.677,13.355,14.109,8.969c8.475-6.843-17.8-19.677-31.031-17.18S941.178,343.484,941.178,343.484Z" transform="translate(-911.435 -303.86)"/>
          </g>
        </g>
      </g>
      <g id="Group_16126" data-name="Group 16126" transform="translate(426.723 242.849)">
        <path id="Path_4288" data-name="Path 4288" d="M1769.092,2143.647c6.772,0,15.69-.931,19.953-5.343a3.709,3.709,0,0,0,1.147-3.5c-1.276-5.752-16.43-11.561-25.485-15.032-1.715-.657-3.2-1.225-4.166-1.64a.341.341,0,0,0-.268.627c.98.42,2.469.99,4.19,1.65,8.341,3.2,23.866,9.148,25.063,14.542a3.028,3.028,0,0,1-.972,2.88c-6.987,7.231-27.893,4.673-28.1,4.646a.341.341,0,0,0-.086.677A75.713,75.713,0,0,0,1769.092,2143.647Z" transform="translate(-1631.499 -2095.99)" fill="#2a292a"/>
        <g id="Group_16122" data-name="Group 16122" transform="translate(22.7 19.245)">
          <path id="Path_4289" data-name="Path 4289" d="M675.077,2119.75a32.143,32.143,0,0,0,5.466-.462.341.341,0,1,0-.126-.67c-.131.024-13.165,2.382-16.959-4.29-1.677-2.949.3-4.1,2.8-5.562,2.752-1.607,6.176-3.607,3.275-8.836-.877-1.58-1.148-2.578-.852-3.138.427-.81,2.229-.98,4.724-1.215a41.931,41.931,0,0,0,20.414-6.589.341.341,0,0,0-.372-.572c-8.248,5.367-15.384,6.038-20.106,6.482-2.808.264-4.664.439-5.262,1.575-.425.8-.169,1.938.859,3.788,2.578,4.645-.144,6.234-3.023,7.916-2.487,1.452-5.058,2.954-3.048,6.488C665.255,2118.867,670.821,2119.75,675.077,2119.75Z" transform="translate(-662.143 -2088.361)" fill="#2a292a"/>
        </g>
        <path id="Path_4290" data-name="Path 4290" d="M1865.207,1934.426l13.844-13.952,5.516,6.381Z" transform="translate(-1726.502 -1917.417)" fill="#fe9805"/>
        <path id="Path_4291" data-name="Path 4291" d="M581.56,1902.08l-16.332-13.3-6.49,3.894Z" transform="translate(-546.009 -1888.776)" fill="#fe9805"/>
        <path id="Path_4292" data-name="Path 4292" d="M1972.5,2148.6l19.36-3.353-.216,5.624Z" transform="translate(-1823.448 -2120.522)" fill="#fe9805"/>
        <path id="Path_4293" data-name="Path 4293" d="M453.654,2138.079l-23.47-9.085-3.461,8.112Z" transform="translate(-426.723 -2105.831)" fill="#fe9805"/>
        <g id="Group_16125" data-name="Group 16125" transform="translate(37.799 4.524)">
          <path id="Path_4294" data-name="Path 4294" d="M824.852,2358.008s-5.154-13.2-5.878-14.829.181-2.8,2.442-2.8h7.233Zm88.476,0s5.153-13.2,5.876-14.829-.181-2.8-2.441-2.8H909.53Z" transform="translate(-818.731 -2301.356)" fill="#3d3e3e"/>
          <g id="Group_16123" data-name="Group 16123" transform="translate(0 39.149)">
            <path id="Path_4295" data-name="Path 4295" d="M820.3,2343.455a1.9,1.9,0,0,1-.045-1.754,1.747,1.747,0,0,0-1.284,2.675c.724,1.628,5.878,14.828,5.878,14.828l.6-2.782C824.113,2353,820.861,2344.707,820.3,2343.455Z" transform="translate(-818.731 -2341.701)" fill="#323333"/>
            <path id="Path_4296" data-name="Path 4296" d="M1798.757,2341.7a1.9,1.9,0,0,1-.045,1.754c-.557,1.252-3.807,9.544-5.146,12.968l.6,2.782s5.153-13.2,5.876-14.828A1.747,1.747,0,0,0,1798.757,2341.7Z" transform="translate(-1699.567 -2341.701)" fill="#323333"/>
          </g>
          <path id="Path_4297" data-name="Path 4297" d="M968.356,2495.583a1.886,1.886,0,0,1-1.885,1.885H881.209a1.885,1.885,0,0,1-1.885-1.885h0a1.886,1.886,0,0,1,1.885-1.885h85.263a1.886,1.886,0,0,1,1.885,1.885Z" transform="translate(-873.481 -2439.894)" fill="#4a4b4c"/>
          <path id="Path_4298" data-name="Path 4298" d="M928.47,1935.7H839.358c-4.977,0-4.173,3.635-4.173,3.635l5.116,51.9h87.227l5.115-51.9S933.017,1935.7,928.47,1935.7Z" transform="translate(-833.555 -1935.698)" fill="#656666"/>
          <path id="Path_4299" data-name="Path 4299" d="M1252.557,2146.974a10.231,10.231,0,1,1-10.231-10.232A10.232,10.232,0,0,1,1252.557,2146.974Z" transform="translate(-1192.235 -2117.356)" fill="#929191"/>
          <g id="Group_16124" data-name="Group 16124" transform="translate(4.908)">
            <path id="Path_4300" data-name="Path 4300" d="M1454.243,1941.822c-.344-.114-11.831,42-15.538,54.456h4.2l17.929-54.994S1454.646,1941.958,1454.243,1941.822Z" transform="translate(-1383.832 -1940.746)" fill="#747474"/>
            <path id="Path_4301" data-name="Path 4301" d="M871.469,1991.23h6.748c6.9-12.054,27.867-51.94,29.9-55.532h-9.81l-5.789.135-22.888,36.752Z" transform="translate(-869.631 -1935.698)" fill="#747474"/>
          </g>
          <path id="Path_4302" data-name="Path 4302" d="M839.417,1937.046h90.592a4.438,4.438,0,0,1,3.3,1.1c-.3-1.062-1.229-2.451-4.04-2.451H840.157c-2.981,0-3.887,1.3-4.136,2.35A4.86,4.86,0,0,1,839.417,1937.046Z" transform="translate(-834.354 -1935.698)" fill="#838283"/>
          <path id="Path_4303" data-name="Path 4303" d="M862.668,1946.577s40.926.269,91.68,0C897,1945.836,862.668,1946.577,862.668,1946.577Z" transform="translate(-858.431 -1945.23)" fill="#a1a1a1"/>
        </g>
        <path id="Path_4304" data-name="Path 4304" d="M815.207,2389.051s1.274,2.677,1.014,3.056c-.492.717-1.123.162-1.771-.271a5.163,5.163,0,0,0-2.542-.487c-.864-.027-.892-.892-.243-1.135s2.408.287,2.406-.379S814.66,2388.469,815.207,2389.051Z" transform="translate(-774.139 -2340.616)" fill="#0da9b8"/>
      </g>
    </g>
  </g>
</svg>
