<svg xmlns="http://www.w3.org/2000/svg" width="366.461" height="246.649" viewBox="0 0 366.461 246.649">
  <g id="Group_15417" data-name="Group 15417" transform="translate(-31 -368.437)">
    <g id="undraw_play_time_7k7b" transform="translate(31 440.914)">
      <path id="Path_3144" data-name="Path 3144" d="M400.484,739.874c-3.768,0-7.365.072-10.657.2a.5.5,0,0,0,.01-.081c0-1.143-3.924-2.186-10.395-2.983,19.057-1.035,31.832-2.935,31.832-5.108,0-3.279-29.086-5.938-64.964-5.938s-64.964,2.658-64.964,5.938c0,.612,1.013,1.2,2.891,1.757-11.193.38-19.236,1.428-19.236,2.662,0,1.555,12.767,2.815,28.516,2.815,5.042,0,9.776-.129,13.886-.356-.992.386-1.525.793-1.525,1.213,0,2.5,18.795,4.528,41.979,4.528,9.633,0,18.506-.35,25.59-.939,3.794,1.115,14.465,1.918,27.037,1.918,15.749,0,28.516-1.26,28.516-2.815S416.233,739.874,400.484,739.874Z" transform="translate(-265 -571.332)" fill="#ffbf05"/>
      <path id="Path_3145" data-name="Path 3145" d="M359.51,678.851c1.642,6.068,7.264,9.826,7.264,9.826s2.961-6.08,1.32-12.148-7.264-9.826-7.264-9.826S357.868,672.783,359.51,678.851Z" transform="translate(-336.002 -526.573)" fill="#3f3d56"/>
      <path id="Path_3146" data-name="Path 3146" d="M336.161,696.339c4.5,4.385,5.055,11.125,5.055,11.125s-6.753-.369-11.257-4.754-5.055-11.125-5.055-11.125S331.656,691.954,336.161,696.339Z" transform="translate(-310.24 -545.365)" fill="#fe9805"/>
      <path id="Path_3147" data-name="Path 3147" d="M600.266,181.637s.517.592-.369,1.739-.171,3.634,1.512,3.7,2.5.768,2.093,1.7-.893,3.134.939,2.8,2.412.394,2.087.955.817-1.115.817-1.115,1.021,1.521,2.275.456,1.752-10.719-.8-10.883A65.125,65.125,0,0,0,600.266,181.637Z" transform="translate(-517.634 -159.729)" fill="#2f2e41"/>
      <path id="Path_3148" data-name="Path 3148" d="M390.505,275.269l.582,4.076h2.621l-.874-4.658Z" transform="translate(-294.919 -207.45)" fill="#9f616a"/>
      <path id="Path_3149" data-name="Path 3149" d="M647.036,377.83s3.494,3.2,2.62,3.494S645.58,385.109,645,385.4c-.521.26-6.114,2.038-5.241,0a7.658,7.658,0,0,1,2.912-3.2l.582-3.494Z" transform="translate(-547.956 -308.41)" fill="#f2f2f2"/>
      <path id="Path_3150" data-name="Path 3150" d="M647.036,377.83s3.494,3.2,2.62,3.494S645.58,385.109,645,385.4c-.521.26-6.114,2.038-5.241,0a7.658,7.658,0,0,1,2.912-3.2l.582-3.494Z" transform="translate(-547.956 -308.41)" opacity="0.1"/>
      <path id="Path_3151" data-name="Path 3151" d="M404.779,262.779l.582,4.076h2.62l-.873-4.659Z" transform="translate(-305.699 -198.017)" fill="#9f616a"/>
      <path id="Path_3152" data-name="Path 3152" d="M625.047,251.595l3.816-12.618s-6.405-5.823-2.038-7.57,5.532,6.988,5.532,6.988l-1.456,15.14h-5.823Z" transform="translate(-536.916 -197.653)" fill="#ffb8b8"/>
      <path id="Path_3153" data-name="Path 3153" d="M641.4,276.725s-7.525,9.651-6.383,11.086,3.18,10.169,3.18,10.169-.291,3.494.873,3.494,4.076-.582,4.076-1.456-2.62-11.937-2.62-11.937l7.57-9.9Z" transform="translate(-544.353 -232.053)" fill="#fe9805"/>
      <path id="Path_3154" data-name="Path 3154" d="M651.581,266.528l7.57-4.076s5.241,2.62,3.785,4.95-8.152,8.443-8.152,8.443,2.038,9.9,1.747,10.19-3.494,1.456-4.367,1.165-5.532-11.646-4.367-12.228,4.95-6.7,4.95-6.7Z" transform="translate(-553.956 -221.273)" fill="#fe9805"/>
      <path id="Path_3155" data-name="Path 3155" d="M561.4,712.945s5.241,3.2,5.823,3.2,8.443,2.038,4.95,3.494-16.887-.582-16.6-1.456,0-6.114.582-6.114S561.4,712.945,561.4,712.945Z" transform="translate(-484.446 -560.837)" fill="#2f2e41"/>
      <path id="Path_3156" data-name="Path 3156" d="M585.188,729.6s5.241,3.2,5.823,3.2,8.443,2.038,4.95,3.494-16.887-.582-16.6-1.456,0-6.114.582-6.114S585.188,729.6,585.188,729.6Z" transform="translate(-502.413 -573.413)" fill="#2f2e41"/>
      <path id="Path_3157" data-name="Path 3157" d="M561.951,469.345a41.543,41.543,0,0,0,2.329,7.57c1.456,3.2-.291,18.343-1.165,20.672s-9.317,29.989-6.7,30.28a66.408,66.408,0,0,0,7.861,0l8.443-26.495-1.456-35.521Z" transform="translate(-484.708 -374.885)" fill="#3f3d56"/>
      <path id="Path_3158" data-name="Path 3158" d="M561.951,469.345a41.543,41.543,0,0,0,2.329,7.57c1.456,3.2-.291,18.343-1.165,20.672s-9.317,29.989-6.7,30.28a66.408,66.408,0,0,0,7.861,0l8.443-26.495-1.456-35.521Z" transform="translate(-484.107 -374.885)" opacity="0.1"/>
      <path id="Path_3159" data-name="Path 3159" d="M574.866,466.758s1.165,7.861,3.785,9.608,1.747,3.494,1.747,3.494l-1.165,15.431s-11.355,27.951-7.861,31.445,6.7,2.038,8.152,1.747,4.076-6.405,2.62-8.152,2.911-12.228,4.076-13.975,0-4.076,1.456-4.658,4.658-4.367,4.658-6.988,4.076-30.571,1.456-32.318S574.374,466,574.374,466Z" transform="translate(-495.875 -372.007)" fill="#3f3d56"/>
      <circle id="Ellipse_242" data-name="Ellipse 242" cx="6.405" cy="6.405" r="6.405" transform="translate(67.053 41.179)" fill="#ffb8b8"/>
      <circle id="Ellipse_243" data-name="Ellipse 243" cx="5.241" cy="5.241" r="5.241" transform="translate(82.776 19.051)" fill="#9f616a"/>
      <path id="Path_3160" data-name="Path 3160" d="M566.652,288.62s3.494,6.405,5.241,6.405-6.988,6.7-6.988,6.7-2.912-8.443-3.494-8.735S566.652,288.62,566.652,288.62Z" transform="translate(-488.825 -241.036)" fill="#ffb8b8"/>
      <path id="Path_3161" data-name="Path 3161" d="M558.848,307.019s-7.57,2.62-7.279,3.494-2.038,2.912-2.038,3.785-.582,8.735,2.912,15.14,9.026,11.064,6.405,13.975-6.7,7.861-2.329,7.861,11.355-6.405,17.76-4.076,4.95-6.405,4.95-6.405.873-6.7-.873-8.735-7.861-16.6-7.861-18.343-5.823-8.444-7.279-8.444S558.848,307.019,558.848,307.019Z" transform="translate(-479.857 -253.612)" fill="#fe9805"/>
      <path id="Path_3162" data-name="Path 3162" d="M624.579,206.546" transform="translate(-536.563 -179.052)" fill="none" stroke="#2f2e41" stroke-width="1"/>
      <path id="Path_3163" data-name="Path 3163" d="M630.526,196.665a49.735,49.735,0,0,1,2.5,5.311c.125.8,4.2-5.311,4.2-5.311l-4.658-3.2Z" transform="translate(-541.054 -169.17)" fill="#9f616a"/>
      <path id="Path_3164" data-name="Path 3164" d="M632.1,204.65l4.95-5.241,5.823,2.62s5.431,11.937,5.772,12.811-8.684,4.95-9.557,4.95-6.988-9.026-6.988-9.026S630.643,206.4,632.1,204.65Z" transform="translate(-541.753 -173.662)" fill="#f2f2f2"/>
      <path id="Path_3165" data-name="Path 3165" d="M359.579,155.145v5.241h3.494l-1.149-5.241Z" transform="translate(-271.563 -117.169)" fill="#9f616a"/>
      <path id="Path_3166" data-name="Path 3166" d="M626.073,265.424a2.171,2.171,0,0,0-2.051,1.379c-.228.616-.15,1.262.931,1.533,2.329.582,2.62,0,2.62,0s4.043-.582,3.186-1.747-3.186-1.165-3.186-1.165Z" transform="translate(-536.064 -223.518)" fill="#9f616a"/>
      <path id="Path_3167" data-name="Path 3167" d="M661.31,368.314s3.494,3.2,2.62,3.494-4.076,3.785-4.658,4.076c-.521.26-6.114,2.038-5.241,0a7.658,7.658,0,0,1,2.912-3.2l.582-3.494Z" transform="translate(-558.736 -301.223)" fill="#f2f2f2"/>
      <path id="Path_3168" data-name="Path 3168" d="M532.039,262.6c.4-.235.874-.527.885-.992a.878.878,0,0,0-.576-.771,2.576,2.576,0,0,0-1.006-.136,1.311,1.311,0,0,0-.389.039c-.332.1-.523.439-.784.668a3.276,3.276,0,0,1-1.39.556,9.1,9.1,0,0,0-2.329.965,1.092,1.092,0,0,0-.369.3,1.487,1.487,0,0,0-.148.754,7.545,7.545,0,0,1-1.1,2.734,2.993,2.993,0,0,0-.214,2.832,9.636,9.636,0,0,1,.576.817c.368.766-.091,1.71.174,2.517a2.2,2.2,0,0,0,.557.836,4.429,4.429,0,0,0,1.835,1.111c.662.2,1.482.339,1.742.981a5.22,5.22,0,0,0,.245.852,1.349,1.349,0,0,0,.957.48,4.088,4.088,0,0,0,1.239.09,1.538,1.538,0,0,0,1.069-.572,3.125,3.125,0,0,1,.433-.638c.422-.352,1.062-.074,1.6-.167a1.173,1.173,0,0,0,.919-.862,1.633,1.633,0,0,1,.187-.659c.336-.43,1.221-.127,1.443-.625.144-.324-.158-.667-.449-.869a12.779,12.779,0,0,1-1.435-.973,1.67,1.67,0,0,1-.609-1.538c.2-.844,1.3-1.309,1.339-2.176a1.559,1.559,0,0,0-.735-1.228,11.332,11.332,0,0,1-1.22-.854c-.261-.253-.458-.57-.742-.8a3.48,3.48,0,0,0-1.869-.527c-.351-.036-1.749-.2-1.694-.732C530.233,263.577,531.684,262.811,532.039,262.6Z" transform="translate(-460.863 -219.949)" fill="#2f2e41"/>
      <path id="Path_3169" data-name="Path 3169" d="M622.217,219.63s-3.2,1.165-3.2,2.62-1.456,6.114,0,6.114a17.812,17.812,0,0,0,4.367-1.118Z" transform="translate(-531.872 -188.933)" fill="#f2f2f2"/>
      <path id="Path_3170" data-name="Path 3170" d="M623.734,234.305s8.443-2.912,8.735-2.912,4.367-2.329,4.076-3.2l-1.165-7.279s-4.658-9.608-1.456-9.608,4.95,7.57,4.95,7.57,6.988,13.1,3.2,16.013-19.507,8.152-20.381,7.279S623.734,234.305,623.734,234.305Z" transform="translate(-534.262 -182.645)" fill="#ffb8b8"/>
      <path id="Path_3171" data-name="Path 3171" d="M652.1,218.022l1.965,1.894-2.548,2.473s-3.494-1.456-3.2-.582,2.038,3.494,3.2,3.494,7.226-3.785,7.252-4.95-3.759-5.241-4.632-5.532S652.1,218.022,652.1,218.022Z" transform="translate(-554.476 -185.287)" fill="#9f616a"/>
      <path id="Path_3172" data-name="Path 3172" d="M648.735,208.437s4.278,3.776,4.86,3.776,1.641-5.674,1.641-5.674-3.451-2.249-4.73-1.636S648.735,208.437,648.735,208.437Z" transform="translate(-554.806 -177.731)" fill="#f2f2f2"/>
      <path id="Path_3173" data-name="Path 3173" d="M587.706,306.97s0-4.076,8.735-4.076h3.785l-1.747,9.608-5.823,1.747Z" transform="translate(-508.715 -251.816)" fill="#fe9805"/>
      <path id="Path_3174" data-name="Path 3174" d="M617,168.164a22.609,22.609,0,0,1-2.561-.158A7.146,7.146,0,0,0,612,164.535a9.222,9.222,0,0,0-2.45-1.344c-1.94-.824-5.169-.31-5.358.627-3.817,1.824-2.853,5.027-2.853,5.027.593,1.254,1.924.7,3.053.13a2.231,2.231,0,0,0,1.944,1.717c1.864.07,2.768.851,2.319,1.879s-.99,3.472,1.041,3.1,2.672.437,2.312,1.058.905-1.235.905-1.235,1.131,1.685,2.52.506a1.053,1.053,0,0,0,.289-.5,2.087,2.087,0,0,0,1.448.253c1.663-.744.63-2.492.63-2.492s2.22-.341,1.5-.284-1.168-.871.043-2.542S618.125,168.2,617,168.164Z" transform="translate(-518.933 -145.997)" fill="#2f2e41"/>
      <rect id="Rectangle_806" data-name="Rectangle 806" width="0.873" height="2.62" transform="matrix(0.949, 0.316, -0.316, 0.949, 85.978, 20.581)" fill="#6c63ff"/>
      <path id="Path_3175" data-name="Path 3175" d="M345.658,338.336c-11.327.052-20.548.22-20.548.22s10.959-14.517,20.506-9.138a130.365,130.365,0,0,0,20.514,8.95S356.986,338.284,345.658,338.336Z" transform="translate(-310.397 -270.944)" fill="#f2f2f2"/>
      <path id="Path_3176" data-name="Path 3176" d="M678.658,104.336c-11.327.052-20.548.22-20.548.22s10.959-14.517,20.506-9.138a130.37,130.37,0,0,0,20.514,8.95S689.986,104.284,678.658,104.336Z" transform="translate(-561.887 -94.222)" fill="#f2f2f2"/>
      <path id="Path_3177" data-name="Path 3177" d="M755.779,355.336c11.327.052,20.548.22,20.548.22s-10.959-14.517-20.506-9.138a130.367,130.367,0,0,1-20.514,8.949S744.452,355.284,755.779,355.336Z" transform="translate(-620.187 -283.783)" fill="#f2f2f2"/>
    </g>
    <g id="Group_15355" data-name="Group 15355" transform="translate(83 -200.564)">
      <path id="Path_3260" data-name="Path 3260" d="M293.516,739.874c3.768,0,7.365.072,10.657.2a.5.5,0,0,1-.01-.081c0-1.143,3.924-2.186,10.395-2.983-19.057-1.035-31.832-2.935-31.832-5.108,0-3.279,29.086-5.938,64.964-5.938s64.964,2.658,64.964,5.938c0,.612-1.013,1.2-2.891,1.757,11.193.38,19.236,1.428,19.236,2.662,0,1.555-12.767,2.815-28.516,2.815-5.042,0-9.776-.129-13.886-.356.992.386,1.525.793,1.525,1.213,0,2.5-18.795,4.528-41.979,4.528-9.633,0-18.506-.35-25.59-.939-3.794,1.115-14.465,1.918-27.037,1.918-15.749,0-28.516-1.26-28.516-2.815S277.767,739.874,293.516,739.874Z" transform="translate(-172 38.146)" fill="#ffbf05"/>
      <g id="Group_15353" data-name="Group 15353" transform="translate(-4762 2480)">
        <path id="Path_3259" data-name="Path 3259" d="M5.675,16.739a3.476,3.476,0,0,0,.16-5.327L9.98,0,4.263,1.213.736,11.862a3.495,3.495,0,0,0,4.938,4.877Z" transform="translate(4949.221 -1795.933) rotate(45)" fill="#a0616a"/>
        <g id="undraw_injured_9757" transform="translate(4875 -1911)">
          <path id="Path_3238" data-name="Path 3238" d="M745.116,603.65c-2.493,5.177-7.088,9.027-11.9,12.158a75.159,75.159,0,0,1-16.883,8.172c-.815.281-1.639.542-2.466.792H680.417c-.233-.253-.455-.518-.665-.792a13.969,13.969,0,0,1-3.012-10.147,11.611,11.611,0,0,1,8.632-9.858c4.555-.985,9.747,1.733,11.133,6.186.76-8.58,1.638-17.516,6.2-24.822a26.3,26.3,0,0,1,19.032-12.193,23.966,23.966,0,0,1,13.25,2.426c.376.19.748.388,1.112.594a22.169,22.169,0,0,1,6.388,5.45A21.412,21.412,0,0,1,745.116,603.65Z" transform="translate(-545.586 -423.891)" fill="#8cc540"/>
          <path id="Path_3239" data-name="Path 3239" d="M768.592,580.505a125.488,125.488,0,0,0-35.84,47.274c-.115.261-.23.526-.341.792h-1.575c.111-.265.222-.53.336-.792,1.524-3.562,3.206-7.06,5.054-10.468a127.384,127.384,0,0,1,13.816-20.445,125.447,125.447,0,0,1,17.516-17.394.767.767,0,0,1,.166-.1.8.8,0,0,1,1.112.594.585.585,0,0,1-.245.542Z" transform="translate(-578.326 -427.689)" fill="#fff"/>
          <path id="Path_3240" data-name="Path 3240" d="M493.239,454.879a2.309,2.309,0,0,0-.293-3.529l-1.166-7.688-4.79,1.508,2.624,6.859a2.322,2.322,0,0,0,3.625,2.85Z" transform="translate(-455.832 -306.028)" fill="#ffb8b8"/>
          <path id="Path_3241" data-name="Path 3241" d="M482.634,374.61l-2.955-13.8a7.9,7.9,0,0,1,2.257-7.39c3.782-3.645,8.643-8.239,10.322-9.427a8.657,8.657,0,0,1,5.416-1.6l.041,0,2.542,2.4-5.537,9.115-8.406,5.267.935,13.525Z" transform="translate(-450.161 -229.376)" fill="#ffbf05"/>
          <rect id="Rectangle_815" data-name="Rectangle 815" width="14.345" height="1.945" rx="0.973" transform="translate(29.449 126.482)" fill="#ccc"/>
          <rect id="Rectangle_816" data-name="Rectangle 816" width="14.345" height="1.945" rx="0.973" transform="translate(29.449 147.634)" fill="#ccc"/>
          <path id="Path_3242" data-name="Path 3242" d="M489.146,473.462a.486.486,0,0,1-.484-.443l-6.2-72.7a.486.486,0,0,1,.969-.086l5.708,67.167,5.545-67.166a.486.486,0,0,1,.969.084l-6.023,72.7a.486.486,0,0,1-.484.444Z" transform="translate(-452.403 -272.824)" fill="#ccc"/>
          <ellipse id="Ellipse_248" data-name="Ellipse 248" cx="6.38" cy="6.38" rx="6.38" ry="6.38" transform="translate(44.279 97.35)" fill="#ffb8b8"/>
          <path id="Path_3243" data-name="Path 3243" d="M134.072,453.719l-3.034-.967,2.286-12.163,4.478,1.427Z" transform="translate(-102.426 -255.996)" fill="#ffb8b8"/>
          <path id="Path_3244" data-name="Path 3244" d="M457.894,683.056l-9.767-3.113.081-.254a3.849,3.849,0,0,1,4.83-2.495l6.1,1.946Z" transform="translate(-426.417 -482.643)" fill="#2f2e41"/>
          <path id="Path_3245" data-name="Path 3245" d="M219.675,456.1H216.49l-1.515-12.283h4.7Z" transform="translate(-165.955 -258.437)" fill="#ffb8b8"/>
          <path id="Path_3246" data-name="Path 3246" d="M541.926,690.923h9.765V687.3h-6.164a3.6,3.6,0,0,0-3.6,3.6Z" transform="translate(-497.41 -490.428)" fill="#2f2e41"/>
          <path id="Path_3247" data-name="Path 3247" d="M500.018,504.138l-1.075-.16c-3.26-.486-3.455-.515-3.972-.742-.264-.116-.283-1.871-.124-11.733.116-7.239.261-16.249-.02-21.085a.851.851,0,0,0-1.63-.287c-2.425,5.6-6.495,18.136-9.187,26.43-.937,2.885-1.676,5.164-2.144,6.53a1.1,1.1,0,0,1-1.3.7c-2.216-.554-2.068-.789-5.224-1.606a1.091,1.091,0,0,1-.8-1.284c.571-2.692,11.018-46.342,11.817-50.491a1.095,1.095,0,0,1,1.29-.868c2.352.474,3.783.977,6.107,1.463,2.508.525,5.1,1.067,7.631,1.574h0a1.085,1.085,0,0,1,.637.39,6.773,6.773,0,0,0,2.537,1.7c.663.317-.839.288-.262.745,2.336,1.85-1.023,39.41-3.054,47.893a1.1,1.1,0,0,1-1.227.824Z" transform="translate(-446.391 -310.465)" fill="#2f2e41"/>
          <path id="Path_3248" data-name="Path 3248" d="M547.584,277.3c-.372-1.58,1.51-4.981,1.138-6.561-.252-1.07-2.769-.343-3.356-1.272a3.376,3.376,0,0,0-2.671-1.7c-1.264-.014-2.507.923-3.7.518a2.386,2.386,0,0,1-1.062-3.228,5.8,5.8,0,0,1,2.827-2.479c1.94-.987,4.2-1.707,6.274-1.054a10.311,10.311,0,0,1,3.32,2.086,11.568,11.568,0,0,1,2.514,2.552,6.856,6.856,0,0,1,.108,6.727,10.113,10.113,0,0,1-5.232,4.5" transform="translate(-494.207 -167.985)" fill="#2f2e41"/>
          <path id="Path_3249" data-name="Path 3249" d="M513.545,371.6c.689-1.15,1.734-6.54,3.023-15.586.878-6.175,1.642-12.45,2.022-15.655a1.541,1.541,0,0,1,.865-1.216q.369-.178.734-.337a16.829,16.829,0,0,1,17.954,2.523l.029.027.007.038c.014.071,1.331,7.172-1.368,11.97-2.662,4.734-2.693,17.269-2.693,17.4v.161l-.155-.044c-4.141-1.183-20.138.887-20.3.908l-.249.033Z" transform="translate(-475.832 -225.509)" fill="#ffbf05"/>
          <rect id="Rectangle_817" data-name="Rectangle 817" width="14.345" height="1.945" rx="0.973" transform="translate(48.413 129.642)" fill="#ccc"/>
          <rect id="Rectangle_818" data-name="Rectangle 818" width="14.345" height="1.945" rx="0.973" transform="translate(48.413 150.795)" fill="#ccc"/>
          <path id="Path_3250" data-name="Path 3250" d="M567.146,483.545a.486.486,0,0,1-.484-.443l-6.2-69.78a.486.486,0,0,1,.969-.086l5.708,64.249,5.545-64.248a.486.486,0,1,1,.969.084l-6.023,69.78a.486.486,0,0,1-.484.444Z" transform="translate(-511.439 -282.663)" fill="#ccc"/>
          <path id="Path_3251" data-name="Path 3251" d="M571.322,472.214a2.309,2.309,0,0,1,2.163-2.8l5.156-5.82,3.2,3.868-5.93,4.332a2.322,2.322,0,0,1-4.592.423Z" transform="translate(-519.618 -321.111)" fill="#ffb8b8"/>
          <path id="Path_3252" data-name="Path 3252" d="M583.838,385.49l8.135-10.846-4.195-8.989.3-10.66,3.439-.635.036.018a8.657,8.657,0,0,1,3.678,4.285c.764,1.91,2.348,8.408,3.543,13.523a7.9,7.9,0,0,1-2.121,7.43l-9.979,9.979Z" transform="translate(-529.132 -238.437)" fill="#ffbf05"/>
          <path id="Path_3253" data-name="Path 3253" d="M443.5,605.43l11.129,2.68a.954.954,0,0,0,1.107-.517l9.56-25.418a.783.783,0,0,0,0-.619.886.886,0,0,0-.509-.477l-8.367-3.2a1.006,1.006,0,0,0-.82.045.854.854,0,0,0-.447.548h0l-5.906,22.4-.088.005c-.034,0-3.42.232-4.942,2.06A3.232,3.232,0,0,0,443.5,605.43Z" transform="translate(-422.895 -407.564)" fill="#fe9805"/>
          <rect id="Rectangle_819" data-name="Rectangle 819" width="0.486" height="10.203" transform="translate(28.615 184.1) rotate(-83.955)" fill="#fff"/>
          <rect id="Rectangle_820" data-name="Rectangle 820" width="0.486" height="8.954" transform="translate(27.582 188.066) rotate(-65.776)" fill="#fff"/>
          <path id="Path_3255" data-name="Path 3255" d="M147.425,415.682l-9.624-3.188.2-.443,9.624,3.188Z" transform="translate(-107.545 -234.397)" fill="#fff"/>
          <path id="Path_3256" data-name="Path 3256" d="M151.425,402.141l-9.624-4.646.2-.443,9.624,4.646Z" transform="translate(-110.572 -223.044)" fill="#fff"/>
          <rect id="Rectangle_821" data-name="Rectangle 821" width="0.486" height="9.126" transform="translate(26.617 191.8) rotate(-49.495)" fill="#fff"/>
          <rect id="Rectangle_822" data-name="Rectangle 822" width="0.486" height="6.746" transform="translate(24.519 193.596) rotate(-24.393)" fill="#fff"/>
          <path id="Path_3257" data-name="Path 3257" d="M726.16,385.378V204.988c0-2.436.046-4.877,0-7.313,0-.106,0-.213,0-.32a1.188,1.188,0,0,0-2.375,0V377.745c0,2.436-.046,4.877,0,7.313,0,.106,0,.213,0,.32A1.188,1.188,0,0,0,726.16,385.378Z" transform="translate(-574.053 -196.209)" fill="#ffbf05"/>
          <path id="Path_3258" data-name="Path 3258" d="M715.567,265.774H687.072A2.575,2.575,0,0,1,684.5,263.2V228.572A2.575,2.575,0,0,1,687.073,226h28.495a2.575,2.575,0,0,1,2.572,2.572V263.2A2.575,2.575,0,0,1,715.567,265.774Z" transform="translate(-550.328 -214.21)" fill="#ffbf05"/>
        </g>
        <g id="Group_15352" data-name="Group 15352" transform="translate(4923.248 -1841.198)">
          <path id="Path_3204" data-name="Path 3204" d="M589.218,430.585h-4.237l-2.016-16.345h6.254Z" transform="translate(-549.594 -303.44)" fill="#a0616a"/>
          <path id="Path_3205" data-name="Path 3205" d="M570.3,458.025h8.172v5.146H565.154A5.146,5.146,0,0,1,570.3,458.025Z" transform="translate(-537.94 -332.09)" fill="#2f2e41"/>
          <path id="Path_3206" data-name="Path 3206" d="M661.209,404.765l-3.131,2.856-12.505-10.716,4.621-4.215Z" transform="translate(-590.562 -289.338)" fill="#a0616a"/>
          <path id="Path_3207" data-name="Path 3207" d="M5.146,0h8.172V5.146H0A5.146,5.146,0,0,1,5.146,0Z" transform="matrix(0.739, -0.674, 0.674, 0.739, 60.661, 122.897)" fill="#2f2e41"/>
          <path id="Path_3208" data-name="Path 3208" d="M817.315,547.343a1.546,1.546,0,0,1-1.536-1.333l-3.693-25.54a14.826,14.826,0,0,1-.052-3.844l3.6-30.754,22.985,1.93-3.469,29.14,13.123,16.363a1.552,1.552,0,0,1-.192,2.146l-3.3,2.878a1.555,1.555,0,0,1-2.2-.162l-12.434-14.551a19.543,19.543,0,0,1-4.051-7.8l-1.775-6.923a.518.518,0,0,0-.992-.041l-2.348,6.783,1.485,29.875a1.559,1.559,0,0,1-1.467,1.63l-3.585.2Z" transform="translate(-781.857 -423.935)" fill="#2f2e41"/>
          <circle id="Ellipse_246" data-name="Ellipse 246" cx="8.489" cy="8.489" r="8.489" transform="translate(39.74 3.401)" fill="#a0616a"/>
          <path id="Path_3209" data-name="Path 3209" d="M.3,4.919A3.476,3.476,0,0,0,5.42,6.412l11.131,6.743-.865-5.7L6.264,1.363A3.495,3.495,0,0,0,.3,4.919Z" transform="translate(0 51.885) rotate(-47)" fill="#a0616a"/>
          <path id="Path_3210" data-name="Path 3210" d="M835.284,417.507h0a27.805,27.805,0,0,1-13.946-4.158,1.725,1.725,0,0,1-.75-2.1L825,399.36l-1-14.013a12.161,12.161,0,0,1,6.054-11.527,10.92,10.92,0,0,1,9.527-.564,11.743,11.743,0,0,1,6.766,7.711l1.417,4.929a30.24,30.24,0,0,1-.566,18.354l-4.1,11.524-.106.064A16.207,16.207,0,0,1,835.284,417.507Z" transform="translate(-787.448 -349.7)" fill="#fe9805"/>
          <path id="Path_3211" data-name="Path 3211" d="M.289,5.791A1.727,1.727,0,0,1,.308,3.85L2.459.744A1.731,1.731,0,0,1,4.677.194l15.952,8.3,17.6-1.764a4.888,4.888,0,1,1,.537,9.752l-16.413.167a10.1,10.1,0,0,1-4.946-1.24L.9,6.35A1.735,1.735,0,0,1,.289,5.791Z" transform="matrix(0.719, -0.695, 0.695, 0.719, 5.301, 48.884)" fill="#fe9805"/>
          <path id="Path_3213" data-name="Path 3213" d="M7.632,44.115a1.716,1.716,0,0,1-.594-.106l-3.547-1.3A1.731,1.731,0,0,1,2.4,40.7L6.425,23.175.3,6.582A4.888,4.888,0,1,1,9.6,3.613l4.283,15.845a10.1,10.1,0,0,1,.042,5.1L9.309,42.811a1.727,1.727,0,0,1-1.676,1.3h0Z" transform="translate(53.072 27.032) rotate(56)" fill="#fe9805"/>
          <path id="Path_3214" data-name="Path 3214" d="M849.323,324.56c.43-1.786.643-2.789,1.07-4.577A2.86,2.86,0,0,0,848.735,317a9.629,9.629,0,0,0-3.543-.742,6.2,6.2,0,0,1-3.417-1.107,4.029,4.029,0,0,1-1-4.515,5.134,5.134,0,0,1,3.69-2.951,7.329,7.329,0,0,1,4.745.73,3.342,3.342,0,0,1,3.64-1.687,9.012,9.012,0,0,1,3.8,1.965c2.144,1.619,4.345,3.581,4.821,6.25.46,2.577-.848,5.178-2.6,7.1a15.721,15.721,0,0,1-9.084,4.93A3.218,3.218,0,0,1,849.323,324.56Z" transform="translate(-800.533 -306.68)"/>
        </g>
      </g>
      <path id="Path_3261" data-name="Path 3261" d="M345.658,338.336c-11.327.052-20.548.22-20.548.22s10.959-14.517,20.506-9.138a130.365,130.365,0,0,0,20.514,8.95S356.986,338.284,345.658,338.336Z" transform="translate(-182.397 297.97)" fill="#f2f2f2"/>
      <path id="Path_3262" data-name="Path 3262" d="M678.658,104.336c-11.327.052-20.548.22-20.548.22s10.959-14.517,20.506-9.138a130.37,130.37,0,0,0,20.514,8.95S689.986,104.284,678.658,104.336Z" transform="translate(-464.621 485.692)" fill="#f2f2f2"/>
      <path id="Path_3263" data-name="Path 3263" d="M755.779,355.336c11.327.052,20.548.22,20.548.22s-10.959-14.517-20.506-9.138a130.367,130.367,0,0,1-20.514,8.949S744.452,355.284,755.779,355.336Z" transform="translate(-461.866 286.137)" fill="#f2f2f2"/>
    </g>
  </g>
</svg>
