<svg xmlns="http://www.w3.org/2000/svg" width="387.485" height="339.305" viewBox="0 0 387.485 339.305">
  <g id="Group_15418" data-name="Group 15418" transform="translate(-20.515 -225.456)">
    <g id="stars" transform="translate(67 225.456)">
      <path id="Path_607" data-name="Path 607" d="M20.681,36.323l-1.527,4.14a.4.4,0,0,1-.743,0l-1.527-4.14a12.206,12.206,0,0,0-7.229-7.229l-4.14-1.527a.4.4,0,0,1,0-.743L9.655,25.3a12.206,12.206,0,0,0,7.229-7.229l1.527-4.14a.4.4,0,0,1,.743,0l1.527,4.14A12.206,12.206,0,0,0,27.91,25.3l4.14,1.527a.4.4,0,0,1,0,.743l-4.14,1.527A12.205,12.205,0,0,0,20.681,36.323Z" transform="translate(300.155 98.762)" fill="#9d29b2"/>
      <path id="Path_608" data-name="Path 608" d="M84.418,144.823l4.877-1.8a14.38,14.38,0,0,0,8.517-8.517l1.8-4.878a.467.467,0,0,1,.876,0l1.8,4.877a14.382,14.382,0,0,0,8.517,8.517l4.878,1.8a.467.467,0,0,1,0,.876l-4.878,1.8a14.382,14.382,0,0,0-8.517,8.517l-1.8,4.878a.467.467,0,0,1-.876,0l-1.8-4.878A14.381,14.381,0,0,0,89.3,147.5l-4.878-1.8a.467.467,0,0,1,0-.876Z" transform="translate(46.95 178.106)" fill="#09a8f9"/>
      <path id="Path_609" data-name="Path 609" d="M213.016,85.786l4.5-1.659a13.262,13.262,0,0,0,7.854-7.854l1.659-4.5a.431.431,0,0,1,.808,0l1.658,4.5a13.261,13.261,0,0,0,7.854,7.854l4.5,1.659a.43.43,0,0,1,0,.808l-4.5,1.658a13.264,13.264,0,0,0-7.854,7.854l-1.658,4.5a.431.431,0,0,1-.808,0l-1.659-4.5a13.26,13.26,0,0,0-7.854-7.854l-4.5-1.659a.43.43,0,0,1,0-.808Z" transform="translate(-163.63 -71.495)" fill="#9d29b2"/>
      <path id="Path_610" data-name="Path 610" d="M207.325,251.8l3.138-1.157a9.25,9.25,0,0,0,5.478-5.478l1.157-3.137a.3.3,0,0,1,.563,0l1.157,3.137a9.248,9.248,0,0,0,5.478,5.478l3.138,1.157a.3.3,0,0,1,0,.563l-3.137,1.157a9.25,9.25,0,0,0-5.478,5.478l-1.157,3.137a.3.3,0,0,1-.563,0l-1.157-3.137a9.25,9.25,0,0,0-5.478-5.478l-3.137-1.157a.3.3,0,0,1,0-.563Z" transform="translate(-225.135 -174.951)" fill="#0b43ca"/>
      <path id="Path_611" data-name="Path 611" d="M145.291,9.968l3.138-1.157a9.248,9.248,0,0,0,5.478-5.478L155.063.2a.3.3,0,0,1,.563,0l1.157,3.136a9.251,9.251,0,0,0,5.478,5.478L165.4,9.968a.3.3,0,0,1,0,.563l-3.137,1.157a9.25,9.25,0,0,0-5.479,5.479L155.626,20.3a.3.3,0,0,1-.563,0l-1.157-3.137a9.247,9.247,0,0,0-5.478-5.478l-3.137-1.157a.3.3,0,0,1,0-.563Z" transform="translate(2.906 32.234)" fill="#ec3b95"/>
      <path id="Path_612" data-name="Path 612" d="M28.068,226.95,31,225.87a8.638,8.638,0,0,0,5.115-5.115l1.08-2.929a.28.28,0,0,1,.526,0l1.08,2.929a8.637,8.637,0,0,0,5.115,5.115l2.929,1.08a.28.28,0,0,1,0,.526l-2.929,1.08a8.637,8.637,0,0,0-5.115,5.115l-1.08,2.929a.28.28,0,0,1-.526,0l-1.08-2.929A8.636,8.636,0,0,0,31,228.556l-2.929-1.08a.28.28,0,0,1,0-.526Z" transform="translate(200.193 -164.908)" fill="#fe9805"/>
    </g>
    <g id="Group_15400" data-name="Group 15400" transform="translate(-1146 1083)">
      <g id="undraw_medicine_b1ol" transform="translate(1166.52 -819.994)">
        <ellipse id="Ellipse_21" data-name="Ellipse 21" cx="34.14" cy="5.483" rx="34.14" ry="5.483" transform="translate(111.845 263.123)" fill="#fe9805" opacity="0.1"/>
        <ellipse id="Ellipse_22" data-name="Ellipse 22" cx="42.601" cy="5.483" rx="42.601" ry="5.483" transform="translate(189.452 263.277)" fill="#fe9805" opacity="0.1"/>
        <path id="Path_241" data-name="Path 241" d="M59.729,396.83H95.288V445.3H62.332c-.088.5-.172,1-.263,1.5H95.288v39.087c-.06-.018-.112-.039-.168-.06-.939-.371-1.871-.764-2.8-1.184l-.6-.27q-1.4-.662-2.8-1.4c-.326-.172-.652-.35-.974-.533a58.307,58.307,0,0,1-13.973-10.917c-.119-.116-.231-.238-.35-.35-.568-.617-1.125-1.24-1.664-1.878l-.6-.7c-.638-.781-1.254-1.584-1.853-2.4-.088-.119-.172-.238-.263-.35a52.162,52.162,0,0,1-6.026-10.9c-.049-.116-.091-.242-.137-.35q-.722-1.857-1.279-3.749c-.161-.529-.315-1.051-.448-1.6-.049-.161-.091-.319-.13-.476C59.235,441,59,432.932,59,424.919v-2.8c0-3.241.039-6.5.095-9.761,0-.844.035-1.685.053-2.533q.074-3.227.21-6.454c.021-.6.049-1.195.081-1.79a10.139,10.139,0,0,1,.053-1.03C59.575,399.3,59.645,398.063,59.729,396.83Z" transform="translate(-54.568 -278.339)" fill="#fe9805" opacity="0.1"/>
        <path id="Path_242" data-name="Path 242" d="M126.405,197.1H106.9a147.859,147.859,0,0,1,10.374-14.281c2.9-3.56,5.956-7.028,9.131-10.371Z" transform="translate(-85.685 -132.575)" fill="#fe9805" opacity="0.1"/>
        <path id="Path_243" data-name="Path 243" d="M96.847,247.09v50.965H61.4c0-.147.025-.3.035-.445.032-.4.063-.806.1-1.205.039-.469.081-.943.126-1.4s.095-1.02.147-1.528.1-1.023.161-1.531.112-1.016.175-1.521.119-1.016.186-1.521c.053-.42.109-.837.165-1.258.081-.592.165-1.188.256-1.776a1.638,1.638,0,0,1,.039-.263,121.193,121.193,0,0,1,2.61-12.8,94.629,94.629,0,0,1,4.4-12.964,97.318,97.318,0,0,1,6.615-12.739Z" transform="translate(-56.127 -181.064)" fill="#fe9805" opacity="0.1"/>
        <path id="Path_244" data-name="Path 244" d="M186.8,177.117v48.47h75.949v-48.47Zm0,49.966v41.624c.434.091.865.179,1.293.252.582.112,1.16.214,1.752.3.112.017.228.035.35.046.231.039.469.07.7.1.585.081,1.167.147,1.752.2.277.028.557.053.837.074l.676.053h0c.368.028.732.049,1.093.06.224,0,.448.021.68.028h2.5c.3,0,.6,0,.9-.028h.021a4.715,4.715,0,0,0,.627-.028,1.458,1.458,0,0,0,.175,0,3.625,3.625,0,0,0,.519-.025h.123l1.174-.091c.385-.035.774-.081,1.167-.123l.8-.095a69.885,69.885,0,0,0,9.618-2.046c7.084-1.976,14.015-4.741,21.1-6.766,9.155-2.61,19.27-3.893,28.117-.7V227.083Zm75.949-103.926V58.629a97.638,97.638,0,0,0-24.676,2.894c-19.232,4.832-36.487,15.311-51.273,28.7v32.935h3.812v1.5H186.8v50.972h75.949V124.653H206.263v-1.5Zm97.553-21.8a31.459,31.459,0,0,1-13.766-4c-8.181-4.45-14.715-11.32-22.017-17.119a101.087,101.087,0,0,0-53.288-21.173v64.089H379.654l.27-.284Zm9.877-1.752L380.652,111.1V96.6a41.551,41.551,0,0,0-10.459,3Zm10.473,179.434v-51.96H358.337c-.06-.221-.119-.445-.189-.669.067.224.123.448.186.669H271.246V264.66c.827.613,1.643,1.258,2.453,1.913h0c.872.7,1.734,1.44,2.6,2.165l.872.722c.417.35.837.7,1.261,1.03q1.261,1.023,2.547,2.018c.424.35.858.666,1.289,1a175.611,175.611,0,0,0,21.593,14.123q2.533,1.4,5.112,2.736c1.146.585,2.3,1.167,3.455,1.731q2.607,1.272,5.256,2.453h0a193,193,0,0,0,51.154,14.9q5.883.869,11.811,1.366V279.039H381ZM271.246,124.653v50.968h109.42V124.653Zm0,52.464v48.47h109.42v-48.47ZM389.159,96.532v16.18l13.367-14.666q-6.643-1.072-13.367-1.531Zm0,80.6v48.453H495.584v-48.47ZM495.195,282.89l.375-55.807H389.159v84.288a190.839,190.839,0,0,0,20.567-.245h.119q4.905-.308,9.765-.9h.074a179.825,179.825,0,0,0,50.173-13.388M516.1,185.1c-.4-.943-.816-1.878-1.24-2.8-.792-1.752-1.629-3.455-2.491-5.157h-8.3v48.449h20.994c-.011-13.72-3.483-27.735-8.948-40.506Zm-12.035,42v48a68.764,68.764,0,0,0,14.509-19.568,67.269,67.269,0,0,0,6.468-28.439Zm0-64.089v12.613H511.6a136.654,136.654,0,0,0-7.515-12.631Zm-72.176-56.97c-.554-.21-1.107-.424-1.664-.631a151.926,151.926,0,0,0-17.977-5.4L391.8,122.456h0l-.392.417.263.287h72.8A155.708,155.708,0,0,0,431.9,106.024ZM466.6,124.67h-75.95l-1.493,1.366v49.584H495.6V151.6a151.641,151.641,0,0,0-28.986-26.95Z" transform="translate(-137.591 -58.63)" fill="#fe9805" opacity="0.1"/>
        <path id="Path_245" data-name="Path 245" d="M96.847,320.46v25.258H61.4c0-.147.025-.3.035-.445.032-.4.063-.806.1-1.205.039-.469.081-.942.126-1.4s.095-1.02.147-1.528.1-1.023.161-1.531.112-1.016.175-1.521.119-1.016.186-1.521c.053-.42.109-.837.165-1.258.081-.592.165-1.188.256-1.776a1.637,1.637,0,0,1,.039-.263,121.193,121.193,0,0,1,2.61-12.8Z" transform="translate(-56.127 -228.727)" fill="#fe9805" opacity="0.1"/>
        <path id="Path_246" data-name="Path 246" d="M59.729,396.83H95.288V445.3H62.332c-.088.5-.172,1-.263,1.5H95.288v39.087c-.06-.018-.112-.039-.168-.06-.939-.371-1.871-.764-2.8-1.184l-.6-.27q-1.4-.662-2.8-1.4c-.326-.172-.652-.35-.974-.533a58.307,58.307,0,0,1-13.973-10.917c-.119-.116-.231-.238-.35-.35-.568-.617-1.125-1.24-1.664-1.878l-.6-.7c-.638-.781-1.254-1.584-1.853-2.4-.088-.119-.172-.238-.263-.35a52.162,52.162,0,0,1-6.026-10.9c-.049-.116-.091-.242-.137-.35q-.722-1.857-1.279-3.749c-.161-.529-.315-1.051-.448-1.6-.049-.161-.091-.319-.13-.476C59.235,441,59,432.932,59,424.919v-2.8c0-3.241.039-6.5.095-9.761,0-.844.035-1.685.053-2.533q.074-3.227.21-6.454c.021-.6.049-1.195.081-1.79a10.139,10.139,0,0,1,.053-1.03C59.575,399.3,59.645,398.063,59.729,396.83Z" transform="translate(-54.147 -280.075)" fill="#fe9805" opacity="0.1"/>
        <path id="Path_247" data-name="Path 247" d="M166.3,181.866v43.67H139.56v-43.67h3.812V167.08h15.647v14.786Z" transform="translate(-90.351 -108.545)" fill="#fe9805" opacity="0.1"/>
        <rect id="Rectangle_37" data-name="Rectangle 37" width="26.733" height="48.467" transform="translate(49.213 118.487)" fill="#fe9805" opacity="0.1"/>
        <path id="Path_248" data-name="Path 248" d="M186.8,539.44h26.737v40.292a69.753,69.753,0,0,1-9.618,2.043l-.8.1c-.392.046-.781.084-1.167.123s-.785.067-1.174.091h-.123c-.168,0-.35.021-.515.025h-.179c-.21,0-.42.021-.631.028h0c-.3.018-.6.021-.9.025h-2.481l-.676-.025c-.35,0-.729-.039-1.093-.063h0l-.673-.049-.837-.077c-.589-.053-1.174-.119-1.752-.2l-.7-.1-.35-.049c-.585-.091-1.163-.189-1.752-.3-.431-.074-.858-.165-1.293-.252Z" transform="translate(-137.591 -370.983)" fill="#fe9805" opacity="0.1"/>
        <rect id="Rectangle_38" data-name="Rectangle 38" width="22.045" height="48.824" transform="translate(221.03 68.164)" fill="#fe9805" opacity="0.1"/>
        <path id="Path_249" data-name="Path 249" d="M490,338.19v48.47H380.58V365.754h58.284v12.333h29.091v-39.9Z" transform="translate(-246.925 -219.703)" fill="#fe9805" opacity="0.1"/>
        <path id="Path_250" data-name="Path 250" d="M537.591,590.166h-.35v31.8q-5.921-.5-11.807-1.363a193.009,193.009,0,0,1-51.175-14.933q-7.053-3.174-13.819-6.93a176.33,176.33,0,0,1-21.6-14.123q-2.579-1.976-5.091-4.043c-1.16-.957-2.312-1.938-3.479-2.891-.809-.655-1.626-1.3-2.453-1.917V538.2H514.9c-.06-.224-.119-.448-.182-.669.067.221.13.445.189.669H537.24v51.946C537.359,590.148,537.475,590.159,537.591,590.166Z" transform="translate(-294.165 -369.742)" fill="#fe9805" opacity="0.1"/>
        <path id="Path_251" data-name="Path 251" d="M877.585,209.88H863.22v-4.464h6.44v-13.3q.837.3,1.668.627v12.669h6.258Z" transform="translate(-577.014 -145.353)" fill="#fe9805" opacity="0.1"/>
        <path id="Path_252" data-name="Path 252" d="M847.972,298.055H777.45l.025.018-.032-.018H764.36V249.231h3.707v36.088h16.94V263.946H799V247.09h14.365v16.87H827.36v21.372h20.612Z" transform="translate(-512.792 -181.064)" fill="#fe9805" opacity="0.1"/>
        <path id="Path_253" data-name="Path 253" d="M764.36,396.82v48.47h83.612V396.82ZM870.669,502.344l.116-38.365H847.972V446.811H764.36v84.264a190.848,190.848,0,0,0,20.567-.245h.119q4.905-.308,9.765-.9h.074a179.826,179.826,0,0,0,50.173-13.388" transform="translate(-512.792 -278.333)" fill="#fe9805" opacity="0.1"/>
        <path id="Path_254" data-name="Path 254" d="M1093.842,539.44h19.505a67.483,67.483,0,0,1-6.471,28.436,68.787,68.787,0,0,1-14.505,19.568V556.612h1.472Z" transform="translate(-725.877 -370.983)" fill="#fe9805" opacity="0.1"/>
        <path id="Path_255" data-name="Path 255" d="M1116.086,460.056H1096.57V419.55h10.56C1112.6,432.321,1116.068,446.336,1116.086,460.056Z" transform="translate(-728.606 -293.099)" fill="#fe9805" opacity="0.1"/>
        <rect id="Rectangle_39" data-name="Rectangle 39" width="11.811" height="15.308" transform="translate(231.268 81.737)" fill="#6c63ff" opacity="0.1"/>
        <rect id="Rectangle_40" data-name="Rectangle 40" width="11.811" height="3.525" transform="translate(231.268 113.466)" fill="#fe9805" opacity="0.1"/>
        <rect id="Rectangle_41" data-name="Rectangle 41" width="11.811" height="10.283" transform="translate(231.268 118.487)" fill="#fe9805" opacity="0.1"/>
        <rect id="Rectangle_42" data-name="Rectangle 42" width="11.811" height="15.308" transform="translate(231.268 145.196)" fill="#fe9805" opacity="0.1"/>
        <rect id="Rectangle_43" data-name="Rectangle 43" width="11.811" height="15.308" transform="translate(231.268 176.925)" fill="#fe9805" opacity="0.1"/>
        <path id="Path_256" data-name="Path 256" d="M718.227,665.918a1.938,1.938,0,0,1,.35.021h-.35V669.5H706.42V654.17h11.807Z" transform="translate(-475.152 -445.515)" fill="#fe9805" opacity="0.1"/>
        <path id="Path_257" data-name="Path 257" d="M718.227,744.71v11.825q-5.921-.5-11.807-1.363V744.71Z" transform="translate(-475.152 -504.333)" fill="#fe9805" opacity="0.1"/>
        <rect id="Rectangle_44" data-name="Rectangle 44" width="50.618" height="1.125" transform="translate(133.655 165.833)" fill="#6c63ff" opacity="0.1"/>
        <rect id="Rectangle_45" data-name="Rectangle 45" width="50.618" height="4.31" transform="translate(133.655 168.453)" fill="#fe9805" opacity="0.1"/>
        <rect id="Rectangle_46" data-name="Rectangle 46" width="50.618" height="6.93" transform="translate(133.655 186.89)" fill="#fe9805" opacity="0.1"/>
        <path id="Path_258" data-name="Path 258" d="M482.975,652.15v6.93H443.384q-2.579-1.969-5.094-4.043c-1.16-.957-2.309-1.938-3.479-2.887Z" transform="translate(-298.706 -444.203)" fill="#fe9805" opacity="0.1"/>
        <path id="Path_259" data-name="Path 259" d="M538.915,712.22v6.923h-4.18q-7.046-3.178-13.815-6.934Z" transform="translate(-354.645 -483.22)" fill="#fe9805" opacity="0.1"/>
        <rect id="Rectangle_47" data-name="Rectangle 47" width="9.964" height="9.964" transform="translate(272.139 123.186)" fill="#fe9805" opacity="0.1"/>
        <rect id="Rectangle_48" data-name="Rectangle 48" width="9.964" height="9.964" transform="translate(56.388 76.758)" fill="#fe9805" opacity="0.1"/>
        <rect id="Rectangle_49" data-name="Rectangle 49" width="9.964" height="9.964" transform="translate(56.388 99.904)" fill="#fe9805" opacity="0.1"/>
        <rect id="Rectangle_50" data-name="Rectangle 50" width="9.964" height="9.964" transform="translate(56.388 123.049)" fill="#fe9805" opacity="0.1"/>
        <rect id="Rectangle_51" data-name="Rectangle 51" width="9.964" height="9.964" transform="translate(56.388 146.191)" fill="#fe9805" opacity="0.1"/>
        <rect id="Rectangle_52" data-name="Rectangle 52" width="9.964" height="9.964" transform="translate(56.388 169.336)" fill="#6c63ff" opacity="0.1"/>
        <rect id="Rectangle_53" data-name="Rectangle 53" width="9.964" height="9.964" transform="translate(56.388 192.482)" fill="#fe9805" opacity="0.1"/>
        <rect id="Rectangle_54" data-name="Rectangle 54" width="9.964" height="9.964" transform="translate(310.178 123.186)" fill="#fe9805" opacity="0.1"/>
        <rect id="Rectangle_55" data-name="Rectangle 55" width="9.964" height="9.964" transform="translate(272.139 147.764)" fill="#fe9805" opacity="0.1"/>
        <rect id="Rectangle_56" data-name="Rectangle 56" width="9.964" height="9.964" transform="translate(310.178 147.764)" fill="#fe9805" opacity="0.1"/>
        <rect id="Rectangle_57" data-name="Rectangle 57" width="9.964" height="9.964" transform="translate(272.139 172.339)" fill="#fe9805" opacity="0.1"/>
        <rect id="Rectangle_58" data-name="Rectangle 58" width="9.964" height="9.964" transform="translate(310.178 172.339)" fill="#fe9805" opacity="0.1"/>
        <rect id="Rectangle_59" data-name="Rectangle 59" width="9.964" height="9.964" transform="translate(272.139 196.917)" fill="#fe9805" opacity="0.1"/>
        <rect id="Rectangle_60" data-name="Rectangle 60" width="9.964" height="9.964" transform="translate(310.178 196.917)" fill="#fe9805" opacity="0.1"/>
        <rect id="Rectangle_61" data-name="Rectangle 61" width="9.964" height="9.964" transform="translate(272.139 221.496)" fill="#fe9805" opacity="0.1"/>
        <rect id="Rectangle_62" data-name="Rectangle 62" width="9.964" height="9.964" transform="translate(310.178 221.496)" fill="#fe9805" opacity="0.1"/>
        <path id="Path_260" data-name="Path 260" d="M775.83,708.756V702.33h9.961v5.511Z" transform="translate(-503.691 -456.259)" fill="#fe9805" opacity="0.1"/>
        <path id="Path_261" data-name="Path 261" d="M65.24,357v5.7h34.1V357Zm3.4,5.343H65.857V357.35h2.8Zm3.4,0h-2.8V357.35h2.8Zm3.388,0h-2.8V357.35h2.8Zm3.4,0h-2.8V357.35h2.8Zm3.392,0h-2.8V357.35h2.8Zm3.4,0H82.8V357.35h2.8Zm3.4,0H86.2V357.35H89Zm3.392,0h-2.8V357.35h2.8Zm3.392,0h-2.8V357.35h2.8Zm3.392,0h-2.8V357.35h2.8Z" transform="translate(-58.622 -252.465)" fill="#fe9805" opacity="0.1"/>
        <path id="Path_262" data-name="Path 262" d="M65.24,404.34v5.7h34.1v-5.7Zm3.4,5.34H65.857V404.7h2.8Zm3.4,0h-2.8V404.7h2.8Zm3.388,0h-2.8V404.7h2.8Zm3.4,0h-2.8V404.7h2.8Zm3.392,0h-2.8V404.7h2.8Zm3.4,0H82.8V404.7h2.8Zm3.4,0H86.2V404.7H89Zm3.392,0h-2.8V404.7h2.8Zm3.392,0h-2.8V404.7h2.8Zm3.392,0h-2.8V404.7h2.8Z" transform="translate(-58.622 -283.218)" fill="#fe9805" opacity="0.1"/>
        <path id="Path_263" data-name="Path 263" d="M65.24,451.7v5.711h34.1V451.7Zm3.4,5.34H65.857v-4.982h2.8Zm3.4,0h-2.8v-4.982h2.8Zm3.388,0h-2.8v-4.982h2.8Zm3.4,0h-2.8v-4.982h2.8Zm3.392,0h-2.8v-4.982h2.8Zm3.4,0H82.8v-4.982h2.8Zm3.4,0H86.2v-4.982H89Zm3.392,0h-2.8v-4.982h2.8Zm3.392,0h-2.8v-4.982h2.8Zm3.392,0h-2.8v-4.982h2.8Z" transform="translate(-58.622 -313.985)" fill="#fe9805" opacity="0.1"/>
        <path id="Path_264" data-name="Path 264" d="M65.24,499.06v5.694h34.1V499.06Zm3.4,5.34H65.857v-4.986h2.8Zm3.4,0h-2.8v-4.986h2.8Zm3.388,0h-2.8v-4.986h2.8Zm3.4,0h-2.8v-4.986h2.8Zm3.392,0h-2.8v-4.986h2.8Zm3.4,0H82.8v-4.986h2.8Zm3.4,0H86.2v-4.986H89Zm3.392,0h-2.8v-4.986h2.8Zm3.392,0h-2.8v-4.986h2.8Zm3.392,0h-2.8v-4.986h2.8Z" transform="translate(-58.622 -344.751)" fill="#fe9805" opacity="0.1"/>
        <path id="Path_265" data-name="Path 265" d="M65.66,546.41c.137.536.291,1.072.452,1.6v-1.244h2.8v4.982h-1.5c.046.116.091.242.137.35H99.614v-5.69Zm6.657,5.34h-2.8v-4.982h2.8Zm3.388,0H72.9v-4.982h2.8Zm3.4,0H76.29v-4.982h2.8Zm3.392,0h-2.8v-4.982h2.8Zm3.4,0h-2.8v-4.982h2.8Zm3.4,0h-2.8v-4.982h2.8Zm3.392,0h-2.8v-4.982h2.8Zm3.392,0h-2.8v-4.982h2.8Zm3.392,0h-2.8v-4.982h2.8Z" transform="translate(-58.894 -375.511)" fill="#fe9805" opacity="0.1"/>
        <path id="Path_266" data-name="Path 266" d="M88.26,593.77c.088.112.172.238.263.35h1.853v2.393c.2.238.4.477.6.7v-3.108h2.8v5H92.643c.112.116.221.238.35.35h21.313V593.77Zm8.9,5.336h-2.8v-4.979h2.8Zm3.4,0h-2.8v-4.979h2.8Zm3.4,0h-2.8v-4.979h2.8Zm3.392,0h-2.8v-4.979h2.8Zm3.392,0h-2.8v-4.979h2.8Zm3.392,0h-2.8v-4.979h2.8Z" transform="translate(-73.576 -406.278)" fill="#fe9805" opacity="0.1"/>
        <path id="Path_267" data-name="Path 267" d="M141.65,641.12c.319.182.645.35.974.533v-.175h2.8v1.577l.6.277v-1.853h2.8v3.031a.875.875,0,0,0,.168.063V641.12Z" transform="translate(-108.26 -437.038)" fill="#6c63ff" opacity="0.1"/>
        <path id="Path_268" data-name="Path 268" d="M409.343,295.255ZM387.76,398.663Zm-22.518-52.615c.067.224.123.449.186.669h0C365.372,346.5,365.312,346.272,365.242,346.048Zm44.1-50.8ZM197.72,242.78v1.5h15.651v-1.5ZM387.76,398.663Zm-22.518-52.615c.067.224.123.449.186.669h0C365.372,346.5,365.312,346.272,365.242,346.048Zm44.1-50.8ZM387.76,398.652Zm-22.518-52.6c.067.224.123.449.186.669h0C365.372,346.5,365.312,346.272,365.242,346.048Z" transform="translate(-144.685 -178.264)" fill="#fe9805" opacity="0.1"/>
        <ellipse id="Ellipse_29" data-name="Ellipse 29" cx="34.14" cy="5.483" rx="34.14" ry="5.483" transform="translate(12.676 255.516)" fill="#fe9805" opacity="0.1"/>
        <rect id="Rectangle_63" data-name="Rectangle 63" width="2.197" height="49.462" transform="translate(45.72 155.959)" fill="#535461"/>
        <path id="Path_313" data-name="Path 313" d="M167.249,638.287l-.137,2.228-.2,3.153-.081,1.31-.193,3.153-.084,1.31-.2,3.153-2.214,35.762a6.061,6.061,0,0,1-6.047,5.683H146.588a6.058,6.058,0,0,1-6.044-5.683l-2.2-35.787-.2-3.153-.081-1.31-.2-3.153-.081-1.31-.2-3.153-.14-2.228a3.153,3.153,0,0,1,3.153-3.332h23.548a3.132,3.132,0,0,1,3.1,3.357Z" transform="translate(-105.528 -433.017)" fill="#3f3d56"/>
        <path id="Path_314" data-name="Path 314" d="M120.116,592.24l-.2,3.143H90.776l-.2-3.143Z" transform="translate(-58.532 -384.742)" fill="#9d9cb5"/>
        <path id="Path_315" data-name="Path 315" d="M120.353,604.95l-.193,3.146H91.566l-.2-3.146Z" transform="translate(-59.045 -392.998)" fill="#9d9cb5"/>
        <path id="Path_316" data-name="Path 316" d="M120.589,617.68l-.193,3.143H92.356l-.2-3.143Z" transform="translate(-59.558 -401.268)" fill="#9d9cb5"/>
        <path id="Path_317" data-name="Path 317" d="M75.955,538.542c12.792,9.257,18.132,23.734,18.132,23.734s-15.416-.529-28.212-9.786S47.75,528.76,47.75,528.76,63.159,529.286,75.955,538.542Z" transform="translate(-47.259 -364.045)" fill="#8cc540"/>
        <path id="Path_318" data-name="Path 318" d="M47.72,528.76s16,8.882,21.138,16.236,25.209,17.28,25.209,17.28" transform="translate(-47.24 -364.045)" fill="none" stroke="#535461" stroke-miterlimit="10" stroke-width="2"/>
        <path id="Path_319" data-name="Path 319" d="M123.353,493.586a31.107,31.107,0,0,1,9.873,12.915,31.046,31.046,0,0,1-15.357-5.322A31.045,31.045,0,0,1,108,488.26,31.022,31.022,0,0,1,123.353,493.586Z" transform="translate(-86.4 -337.735)" fill="#8cc540"/>
        <path id="Path_320" data-name="Path 320" d="M108,488.26s8.71,4.835,11.5,8.836,13.724,9.4,13.724,9.4" transform="translate(-86.4 -337.735)" fill="none" stroke="#535461" stroke-miterlimit="10" stroke-width="2"/>
        <path id="Path_321" data-name="Path 321" d="M190.881,517.742c-8,8.791-9.691,20.279-9.691,20.279s11.278-2.768,19.27-11.562,9.691-20.279,9.691-20.279S198.88,508.951,190.881,517.742Z" transform="translate(-133.946 -349.376)" fill="#8cc540"/>
        <path id="Path_322" data-name="Path 322" d="M210.159,506.19s-10.42,9.011-13.069,15.22-15.9,16.618-15.9,16.618" transform="translate(-133.946 -349.383)" fill="none" stroke="#535461" stroke-miterlimit="10" stroke-width="2"/>
        <path id="Path_331" data-name="Path 331" d="M909.733,650.1a21.687,21.687,0,0,0,.413,3.153,43.952,43.952,0,0,0-10.007-.1V650.03Z" transform="translate(-600.999 -442.826)" fill="#fe9805" opacity="0.1"/>
        <path id="Path_332" data-name="Path 332" d="M1006.322,654.377s-5.606.273-12.291.329c-.189-1.752-.231-3.2-.231-3.2s3.777-5.256,10.7.42a7.618,7.618,0,0,1,1.447,1.57A8.564,8.564,0,0,0,1006.322,654.377Z" transform="translate(-661.843 -442.349)" fill="#fe9805" opacity="0.1"/>
        <path id="Path_350" data-name="Path 350" d="M992.52,458.42s-5.256-1.051-3.427.7,1.818,3.286,4.057,3.216S992.52,458.42,992.52,458.42Z" transform="translate(-658.534 -318.147)" fill="#fe9805" opacity="0.1"/>
        <path id="Path_351" data-name="Path 351" d="M1023.789,566.58s-2.376,1.608,2.169,5.315S1023.789,566.58,1023.789,566.58Z" transform="translate(-680.922 -388.614)" fill="#fe9805" opacity="0.1"/>
        <path id="Path_352" data-name="Path 352" d="M1011.811,604.31c0,.21-.841,7.708,2.305,9.583S1011.811,604.31,1011.811,604.31Z" transform="translate(-673.477 -413.125)" fill="#fe9805" opacity="0.1"/>
        <path id="Path_354" data-name="Path 354" d="M881.39,451Z" transform="translate(-588.818 -313.53)" fill="#ffb0b1"/>
        <path id="Path_355" data-name="Path 355" d="M880.74,451.509l.105-.109Z" transform="translate(-588.396 -313.79)" fill="#ffb0b1"/>
        <path id="Path_365" data-name="Path 365" d="M861.656,429.024h0a.9.9,0,0,1,1.125.582l3.034,9.558-.228,1.5.221.231.3-2-3.052-9.558a.9.9,0,0,0-1.121-.582h0a.9.9,0,0,0-.466.35A1.212,1.212,0,0,1,861.656,429.024Z" transform="translate(-575.877 -299.052)" fill="#fff" opacity="0.1"/>
        <path id="Path_366" data-name="Path 366" d="M822.6,399.68l1.7-.54-.249,1.64-.053.361-.5-.519Z" transform="translate(-534.075 -259.298)" fill="#efc8c4"/>
        <path id="Path_367" data-name="Path 367" d="M872.42,461.787a.351.351,0,0,1,.109-.091.154.154,0,0,1,.165,0,.431.431,0,0,1,.06.095.3.3,0,0,0,.217.144l-.053.35Z" transform="translate(-582.991 -320.463)" fill="#727a9c"/>
        <path id="Path_369" data-name="Path 369" d="M550.825,110.05h-.086a9.82,9.82,0,0,0-8.2,4.488,9.82,9.82,0,0,0-8.2-4.488h-.086a9.759,9.759,0,0,0-9.666,9.753,21.007,21.007,0,0,0,4.125,11.451c5.2,7.1,13.825,13.318,13.825,13.318s8.63-6.213,13.824-13.318A21,21,0,0,0,560.49,119.8,9.759,9.759,0,0,0,550.825,110.05ZM549.593,131.8a1.934,1.934,0,0,1-1.8-1.242h-2.048a.647.647,0,0,1-.61-.441l-.629-1.9-1.991,6.956a.644.644,0,0,1-.618.465h-.04a.636.636,0,0,1-.6-.533l-2.052-12.34-1.5,7.3a.639.639,0,0,1-.621.486H534.2a.642.642,0,1,1,0-1.282h2.38l2.124-9.817a.644.644,0,0,1,1.263.053l2.1,12.588,1.784-6.224a.631.631,0,0,1,.6-.459h.013a.641.641,0,0,1,.609.441l1.138,3.422h1.559a1.924,1.924,0,1,1,1.828,2.526Z" transform="translate(-448.644 -78.545)" fill="#fe9805"/>
      </g>
      <g id="undraw_Business_deal_re_up4u" transform="translate(1200.565 -807.375)">
        <path id="Path_3277" data-name="Path 3277" d="M756.025,245.33a201.561,201.561,0,0,1-13.69,55.712c-9.095,22.818-21.521,42.917-35.935,58.122l-.8-.7c14.344-15.132,26.714-35.142,35.77-57.866,8.185-20.535,13.054-41.905,14.086-61.79l1.022.171Q756.316,242.133,756.025,245.33Z" transform="translate(-503.06 -198.517)" fill="#ffbf05"/>
        <path id="Path_3278" data-name="Path 3278" d="M744.911,505.817c-20.245,32.209-44.807,55.222-69.161,64.8l-.493-.9c24.186-9.512,48.6-32.407,68.756-64.469Z" transform="translate(-485.39 -353.671)" fill="#ffbf05"/>
        <path id="Path_3279" data-name="Path 3279" d="M754.849,299.394a201.561,201.561,0,0,1-13.69,55.712c-9.095,22.818-21.521,42.916-35.934,58.122l-.8-.7c14.344-15.132,26.713-35.142,35.77-57.866,8.185-20.535,13.054-41.905,14.086-61.79l1.022.171Q755.14,296.2,754.849,299.394Z" transform="translate(-502.375 -230)" fill="#ffbf05"/>
        <path id="Path_3284" data-name="Path 3284" d="M837.51,527.435H824.227a1.88,1.88,0,0,1-1.476-.711,1.841,1.841,0,0,1-.36-1.564,36.124,36.124,0,0,0-.232-16.931,1.883,1.883,0,0,1,.731-1.979c6.83-4.912,12.209-4.77,15.988.424a1.888,1.888,0,0,1,.331.8,59.117,59.117,0,0,1,.166,18.346A1.876,1.876,0,0,1,837.51,527.435Z" transform="translate(-570.904 -352.171)" fill="#fe9805"/>
        <path id="Path_3285" data-name="Path 3285" d="M841.431,527.459h-4.57a.953.953,0,0,1,0-1.906h4.57a.953.953,0,0,1,0,1.905Z" transform="translate(-578.943 -365.497)" fill="#fff"/>
        <path id="Path_3286" data-name="Path 3286" d="M841.431,535.459h-4.57a.953.953,0,0,1,0-1.906h4.57a.953.953,0,0,1,0,1.906Z" transform="translate(-578.943 -370.156)" fill="#fff"/>
        <path id="Path_3287" data-name="Path 3287" d="M841.431,543.459h-4.57a.953.953,0,0,1,0-1.906h4.57a.953.953,0,0,1,0,1.905Z" transform="translate(-578.943 -374.815)" fill="#fff"/>
        <circle id="Ellipse_249" data-name="Ellipse 249" cx="7.936" cy="7.936" r="7.936" transform="translate(146.74 81.838)" fill="#fe9805"/>
        <path id="Path_3291" data-name="Path 3291" d="M590.283,349.114a.642.642,0,0,0-.886,0,26.285,26.285,0,0,0-4.5,4.6l-.963-1.862c-.37-.717-1.452-.084-1.082.632l1.408,2.724a.634.634,0,0,0,1.082,0A25.371,25.371,0,0,1,590.283,350,.63.63,0,0,0,590.283,349.114Z" transform="translate(-431.533 -262.647)" fill="#fff"/>
        <path id="Path_3292" data-name="Path 3292" d="M489.3,374.607l-11.967-18.793,13.857-7.421,3.637,14.338,25.626,13.848a5.541,5.541,0,1,1-3.153,7.538Z" transform="translate(-370.132 -262.33)" fill="#a0616a"/>
        <path id="Path_3293" data-name="Path 3293" d="M455.47,305.169c-3.76,5.521,9.6,25.587,9.6,25.587.651-1.4,6.874,14.353,7.916,13.423,2.962-2.645,7.6-10.014,10.176-10.343,1.474-.188-3.419-10.641-3.419-10.641s-2.236-6.173-5.27-14.058a14.16,14.16,0,0,0-10.285-8.995S459.23,299.648,455.47,305.169Z" transform="translate(-357.012 -234.225)" fill="#3f3d56"/>
        <path id="Path_3294" data-name="Path 3294" d="M236.173,569.927h5.683l2.7-21.921h-8.388Z" transform="translate(-137.531 -319.122)" fill="#a0616a"/>
        <path id="Path_3295" data-name="Path 3295" d="M453.368,734.844h1.6l6.245-2.54,3.347,2.539h0a7.133,7.133,0,0,1,7.133,7.132v.232H453.368Z" transform="translate(-356.176 -485.895)" fill="#2f2e41"/>
        <path id="Path_3296" data-name="Path 3296" d="M299.39,569.927h5.683l2.7-21.921h-8.388Z" transform="translate(-174.345 -319.122)" fill="#a0616a"/>
        <path id="Path_3297" data-name="Path 3297" d="M516.585,734.844h1.6l6.245-2.54,3.347,2.539h0a7.133,7.133,0,0,1,7.133,7.132v.232H516.585Z" transform="translate(-392.99 -485.895)" fill="#2f2e41"/>
        <path id="Path_3298" data-name="Path 3298" d="M465.809,455.889l-36.966.924c-7.021,3.813-7.127,12.067-4.827,21.866,0,0-.777,5.824.777,7.377s2.33,1.553,1.553,4.271,3.326,7.157,2.828,7.656a20.091,20.091,0,0,0-1.663,3.216l3.883,22.132s2.718,38.44,3.495,39.217,1.553,0,.777,1.941-1.553,1.165-.777,1.941a28.575,28.575,0,0,1,1.941,2.33h9.388s.708-3.883.708-4.271.777-2.718.777-3.106-.686-1.075-.686-1.075a12.771,12.771,0,0,1-.478-2.42c0-.777-2.33-30.675-2.33-30.675l4.66-38.829,11.26,38.052s0,33.392.777,34.169.777.388.388,1.941-1.941,1.165-.777,2.33,1.553-.777,1.165,1.165l-.388,1.941,11.649.167s1.553-3.273.777-4.438-.73-.847.217-2.753,1.336-2.295.947-2.683-.388-2.454-.388-2.454l-1.941-37.151s-.388-39.217-.388-40.382a3.873,3.873,0,0,1,.323-1.747v-1.581L471,469.36Z" transform="translate(-338.304 -324.929)" fill="#2f2e41"/>
        <circle id="Ellipse_250" data-name="Ellipse 250" cx="11.486" cy="11.486" r="11.486" transform="translate(93.813 31.123)" fill="#a0616a"/>
        <path id="Path_3299" data-name="Path 3299" d="M445.718,282.244c2.474,1.471,3.955,4.174,4.8,6.924a65.62,65.62,0,0,1,2.82,15.678l.9,15.93,11.115,33.92c-9.633,8.151-45.842,1.853-45.842,1.853s-1.112-.37,0-1.482,2.194-.127,1.082-1.238-.345.127.025-.985,0-.37-.371-.741,2.868-3.705,2.868-3.705l-2.964-19.47-3.705-39.274c4.446-5.558,13.388-8.834,13.388-8.834l2.31-4.159,11.552.924Z" transform="translate(-334.676 -220.559)" fill="#3f3d56"/>
        <path id="Path_3300" data-name="Path 3300" d="M463.958,217.093a5.323,5.323,0,0,1,1.891,2.656,37.382,37.382,0,0,0,.024-5.212c-.135-1.22-.994-1.494-1.988-1.812-.9-.287-1.914-.612-2.187-1.8-3.61-3.512-9.9-3.335-14.2-2.11-2.367.674-3.729,1.54-3.85,2.048l-.025.1-.1.048c-1.824.912-2.18,3.793-2.156,6.049.044,4.25,1.512,9.077,2.339,9.469.044.021.055.013.074,0h0c1.245-.995,2.763.076,3.431.657a11.946,11.946,0,0,1,10.7-10.132,18.741,18.741,0,0,0,2.578-.432,5.428,5.428,0,0,1,1.317-.173A3.748,3.748,0,0,1,463.958,217.093Z" transform="translate(-349.19 -180.587)" fill="#2f2e41"/>
        <path id="Path_3301" data-name="Path 3301" d="M653.8,416.217l22.094-22.436,5.821-17.944-9.367-3.789c-4.641,4.681-9.417,19.01-9.417,19.01L647.85,411.3c-.12.045-.24.092-.359.148a4.463,4.463,0,1,0,6.308,4.772Z" transform="translate(-467.731 -276.105)" fill="#ffb8b8"/>
        <path id="Path_3302" data-name="Path 3302" d="M704.453,346.979l11.846,3.427.044-.009c4.354-.845,7.8-8.082,9.922-14a8.185,8.185,0,0,0-4.433-10.257h0a8.2,8.2,0,0,0-8.56,1.305l-5.906,5.086Z" transform="translate(-502.392 -248.984)" fill="#6c63ff"/>
        <path id="Path_3303" data-name="Path 3303" d="M446.413,564.633h-6.371l-3.031-24.573h9.4Z" transform="translate(-254.487 -314.495)" fill="#ffb8b8"/>
        <path id="Path_3304" data-name="Path 3304" d="M655.435,732.281h-1.793l-7-2.847-3.752,2.847h0a8,8,0,0,0-8,8v.26h20.542Z" transform="translate(-461.884 -484.224)" fill="#2f2e41"/>
        <path id="Path_3305" data-name="Path 3305" d="M514.1,564.633h-6.371l-3.031-24.573h9.4Z" transform="translate(-293.901 -314.495)" fill="#ffb8b8"/>
        <path id="Path_3306" data-name="Path 3306" d="M723.118,732.281h-1.793l-7-2.847-3.752,2.847h0a8,8,0,0,0-8,8v.26h20.542Z" transform="translate(-501.298 -484.224)" fill="#2f2e41"/>
        <path id="Path_3307" data-name="Path 3307" d="M697.485,484.176a67.63,67.63,0,0,1-1.116,17.482c-1.86,8.555-1.86,32.649-1.86,32.649l-4.092,46.95-12.275-1.116L674.8,501.658l-11.9,26.409,1.116,3.72-1.486.93s1.114,7.253.371,7.253a8.887,8.887,0,0,0-2.6,1.116l1.488,38.312-12.647-.372-4.464-53.934,4.836-30.873.372-5.951,1.674.069.852-2.487,1.565-4.278Z" transform="translate(-467.576 -339.886)" fill="#2f2e41"/>
        <path id="Path_3308" data-name="Path 3308" d="M707.463,372.995l.066-.093c3.541-4.957-1.784-16.868-2.588-18.594l3.383-1.1-.762-6.475-.361-2.887,2.585-2.585.007-.064,1.488-13.019,2.163-8.647a18.983,18.983,0,0,0-5.388-18.4l-5-4.715-6.077-8.992h-9.8l-3.36,6.347a14.284,14.284,0,0,0-11.052,14.583l.762,16.646-2.981,20.726,0,3.751-3.355,3.729.733,3.663-2.553,1.094-1.127,5.261c-.467.616-3.546,4.722-3.546,5.845,0,.169.124.331.391.512,2.1,1.421,13.7,4.319,18.834,2.264,5.469-2.187,27.209,1.094,27.428,1.127Z" transform="translate(-476.911 -226.829)" fill="#fe9805"/>
        <circle id="Ellipse_251" data-name="Ellipse 251" cx="12.979" cy="12.979" r="12.979" transform="translate(200.925 31.74)" fill="#ffb8b8"/>
        <path id="Path_3309" data-name="Path 3309" d="M706.926,239.32a35.3,35.3,0,0,0,5.992-.574c1.957-.451,6.276-3.791,7.453-5.764h0a17.342,17.342,0,0,0,1.686-5.377,15.779,15.779,0,0,0-3.082-12.451,4.986,4.986,0,0,0-2.057-1.666c-.073-.026-.148-.049-.223-.069a6.151,6.151,0,0,1-3.108-1.814,5.071,5.071,0,0,0-.522-.51,7.576,7.576,0,0,0-3.2-1.505c-1.891-.454-4.6.115-8.041,1.693a8.5,8.5,0,0,1-5.131.29.482.482,0,0,0-.45.167,3.4,3.4,0,0,1-2.287.981c-.526.037-1.059.78-1.7,1.747-.146.22-.316.476-.44.632l-.025-.294-.289.336a4.128,4.128,0,0,0,2.036,6.675,8.05,8.05,0,0,0,1.625.216c.332.021.675.043,1.005.092a6.223,6.223,0,0,1,4.727,3.918,1.628,1.628,0,0,0,2.476.726,2.689,2.689,0,0,1,2.438-.509,1.785,1.785,0,0,1,.812.874,2.326,2.326,0,0,0,.909,1.007c1.351.653,1.522,3.7,1.108,6.248-.4,2.459-1.265,4.253-2.108,4.363-.649.084-.722.132-.766.248l-.039.1.076.094A2.658,2.658,0,0,0,706.926,239.32Z" transform="translate(-494.266 -181.412)" fill="#2f2e41"/>
        <path id="Path_3310" data-name="Path 3310" d="M631.232,369.2l-6.239-7.949c-6.355,1.75-17.63,11.8-17.63,11.8L584.207,383.1a4.461,4.461,0,1,0,2.71,7.228l30.334-8.463Z" transform="translate(-429.339 -269.82)" fill="#ffb8b8"/>
        <path id="Path_3311" data-name="Path 3311" d="M686.006,346.339l9.844-10.973.547-7.775a8.2,8.2,0,0,0-4.071-7.643h0a8.184,8.184,0,0,0-10.873,2.577c-3.478,5.242-7.22,12.329-5.295,16.325l.02.04Z" transform="translate(-485.609 -245.139)" fill="#fe9805"/>
        <path id="Path_3312" data-name="Path 3312" d="M444.953,408.555l-25.584-13.1a4.037,4.037,0,0,1-1.344-5.511l16.681-32.571a4.037,4.037,0,0,1,5.257-2.13l25.584,13.1a4.037,4.037,0,0,1,1.344,5.511l-16.681,32.571A4.038,4.038,0,0,1,444.953,408.555Z" transform="translate(-335.283 -266.11)" fill="#e6e6e6"/>
        <path id="Path_3313" data-name="Path 3313" d="M446.089,408.382l-17.382-8.9a3.781,3.781,0,0,1-1.259-5.161l13.858-27.06a3.781,3.781,0,0,1,4.923-1.995l20.994,10.752a3.781,3.781,0,0,1,1.258,5.161l-7.529,14.7C456.453,404.665,453.681,412.27,446.089,408.382Z" transform="translate(-340.79 -271.96)" fill="#fff"/>
        <path id="Path_3314" data-name="Path 3314" d="M471.326,420.155l-15.4-7.885a.963.963,0,0,1,.869-1.7l15.4,7.885a.963.963,0,0,1-.869,1.7Z" transform="translate(-357.433 -298.511)" fill="#fe9805"/>
        <path id="Path_3315" data-name="Path 3315" d="M455.335,422.092l-3.513-1.8a.963.963,0,0,1,.869-1.7l3.513,1.8a.963.963,0,0,1-.869,1.7Z" transform="translate(-355.04 -303.182)" fill="#6c63ff"/>
        <path id="Path_3316" data-name="Path 3316" d="M457.449,433.3l-9.736-4.987a.963.963,0,0,1,.869-1.7l9.736,4.986a.963.963,0,0,1-.869,1.7Z" transform="translate(-352.647 -307.854)" fill="#fe9805"/>
        <path id="Path_3317" data-name="Path 3317" d="M485.913,391.673l-15.4-7.885a.963.963,0,0,1,.869-1.7l15.4,7.885a.963.963,0,0,1-.869,1.7Z" transform="translate(-365.927 -281.925)" fill="#fe9805"/>
        <path id="Path_3318" data-name="Path 3318" d="M469.922,393.61l-3.513-1.8a.963.963,0,0,1,.869-1.7l3.513,1.8a.963.963,0,0,1-.869,1.7Z" transform="translate(-363.535 -286.596)" fill="#fe9805"/>
        <path id="Path_3319" data-name="Path 3319" d="M472.036,404.819l-9.736-4.986a.963.963,0,0,1,.869-1.7l9.736,4.986a.963.963,0,0,1-.869,1.7Z" transform="translate(-361.142 -291.268)" fill="#fe9805"/>
        <path id="Path_3320" data-name="Path 3320" d="M424.427,381.417l-5.78-21.517,15.445-2.924-.83,14.769,20.293,20.9a5.541,5.541,0,1,1-5.269,6.245Z" transform="translate(-335.957 -267.329)" fill="#a0616a"/>
        <path id="Path_3321" data-name="Path 3321" d="M412.076,302.53c-5.243,4.139,1.486,27.289,1.486,27.289,1.042-1.143,2.252,15.754,3.526,15.179,3.619-1.635,10.253-7.274,12.81-6.815,1.462.263-.07-11.177-.07-11.177s-.282-6.559-.811-14.992A14.16,14.16,0,0,0,421.9,300.35S417.319,298.391,412.076,302.53Z" transform="translate(-330.967 -234.084)" fill="#3f3d56"/>
        <path id="Path_3322" data-name="Path 3322" d="M602.5,489l-13.961-6.592a2.185,2.185,0,0,1-1.2-1.48,2.14,2.14,0,0,1,.4-1.823,42.009,42.009,0,0,0,8.108-17.648,2.17,2.17,0,0,1,2.127-1.75c7.12.024,12.442,2.624,15.816,7.726a2.2,2.2,0,0,1,.287,1.828,68.718,68.718,0,0,1-8.816,18.965A2.18,2.18,0,0,1,602.5,489Z" transform="translate(-434.158 -327.151)" fill="#fe9805"/>
        <path id="Path_3323" data-name="Path 3323" d="M617.784,497.734l-10.675-5.041a1.107,1.107,0,1,1,.946-2l10.675,5.041a1.107,1.107,0,1,1-.946,2Z" transform="translate(-445.335 -345.134)" fill="#fff"/>
        <path id="Path_3324" data-name="Path 3324" d="M621.754,489.326l-10.675-5.041a1.107,1.107,0,1,1,.946-2l10.675,5.041a1.107,1.107,0,1,1-.946,2Z" transform="translate(-447.647 -340.237)" fill="#fff"/>
        <path id="Path_3325" data-name="Path 3325" d="M427.739,181.186l-.994.109c-4.43-17.41-13.018-29.472-24.835-34.881-15.022-6.876-33.6-2.259-52.306,13-18.8,15.339-35.448,39.567-46.869,68.223l-.964-.441c11.471-28.781,28.2-53.126,47.11-68.55,19-15.5,37.958-20.153,53.373-13.1C414.41,151.115,423.222,163.437,427.739,181.186Z" transform="translate(-267.896 -142.337)" fill="#ffbf05"/>
        <path id="Path_3326" data-name="Path 3326" d="M302.423,288.958c-2.6,5.474-5.07,11.145-7.346,16.856-13.1,32.863-19.736,66.425-19.193,97.058l-1.024-.109c-.543-30.748,6.114-64.425,19.253-97.39,2.283-5.727,4.761-11.414,7.367-16.9Z" transform="translate(-252.207 -227.435)" fill="#ffbf05"/>
        <path id="Path_3327" data-name="Path 3327" d="M301.247,343.022c-2.6,5.474-5.07,11.145-7.346,16.856-13.1,32.863-19.736,66.425-19.193,97.058l-1.024-.109c-.543-30.748,6.114-64.425,19.253-97.39,2.283-5.727,4.761-11.414,7.367-16.9Z" transform="translate(-251.522 -258.918)" fill="#ffbf05"/>
        <ellipse id="Ellipse_253" data-name="Ellipse 253" cx="3.699" cy="4.258" rx="3.699" ry="4.258" transform="translate(254.041 152.107) rotate(-56.364)" fill="#fff"/>
      </g>
    </g>
  </g>
</svg>
