<svg xmlns="http://www.w3.org/2000/svg" width="76.264" height="69.03" viewBox="0 0 76.264 69.03">
  <g id="Man" transform="translate(-2.664 -10.1)">
    <g id="Group_15674" data-name="Group 15674" transform="translate(2.664 10.1)">
      <path id="Path_4016" data-name="Path 4016" d="M62.7,71.91A5.636,5.636,0,0,0,68.252,67.1a.615.615,0,0,1-.247.308,1.637,1.637,0,0,1-2.28,0,1.082,1.082,0,0,1-.247-.308A3.2,3.2,0,1,0,62.7,71.91Z" transform="translate(-24.469 -31.355)" fill="#fff"/>
      <circle id="Ellipse_310" data-name="Ellipse 310" cx="5.732" cy="5.732" r="5.732" transform="translate(55.801)" fill="#fff"/>
      <path id="Path_4017" data-name="Path 4017" d="M71.408,31.1h-14.3a7.155,7.155,0,0,0-7.15,7.15v16.21l-4.5,4.5a2.715,2.715,0,0,1-1.541.678h-6.04a2.715,2.715,0,0,1-1.541-.678l-4.253-4.253-2.1-17.442A7.169,7.169,0,0,0,22.9,31.1H11.931a7.176,7.176,0,0,0-7.088,6.163L2.686,55.569a2.489,2.489,0,0,0,2.157,2.774,2.459,2.459,0,0,0,2.774-2.219L9.651,39.174a.784.784,0,0,1,.678-.616.749.749,0,0,1,.74.74v.123S9.589,51.439,9.589,51.686a4.665,4.665,0,0,0-.062.925V83.181A3.732,3.732,0,0,0,13.1,87.064a3.732,3.732,0,0,0,3.575-3.883V58.342a.74.74,0,0,1,1.479,0V83.181a3.732,3.732,0,0,0,3.575,3.883,3.732,3.732,0,0,0,3.575-3.883V52.61a4.665,4.665,0,0,0-.062-.925c0-.247-1.479-12.265-1.479-12.265V39.3a.749.749,0,0,1,.74-.74.672.672,0,0,1,.678.616l2.034,16.949a2.583,2.583,0,0,0,2.774,2.219,2.741,2.741,0,0,0,1.233-.493l5.239,5.239V83.921c0,2.342.925,3.267,2.034,3.267a2.052,2.052,0,0,0,2.034-2.034V73.5a.431.431,0,0,1,.863,0V85.092a2.052,2.052,0,0,0,2.034,2.034c1.109,0,2.034-.925,2.034-3.267V63.027L50.884,57.6a2.421,2.421,0,0,0,1.726.678,2.5,2.5,0,0,0,2.527-2.527V39.729a.749.749,0,0,1,.74-.74.712.712,0,0,1,.74.74V83.181a3.732,3.732,0,0,0,3.575,3.883,3.771,3.771,0,0,0,3.575-3.883V58.4a.749.749,0,0,1,.74-.74.712.712,0,0,1,.74.74V83.181a3.732,3.732,0,0,0,3.575,3.883,3.771,3.771,0,0,0,3.575-3.883V39.729a.74.74,0,1,1,1.479,0V55.877A2.538,2.538,0,0,0,76.4,58.4a2.5,2.5,0,0,0,2.527-2.527V38.25A7.74,7.74,0,0,0,71.408,31.1Z" transform="translate(-2.664 -18.157)" fill="#fff"/>
      <path id="Path_4018" data-name="Path 4018" d="M20.923,21.664A5.732,5.732,0,1,0,15.931,13.1a3.387,3.387,0,0,1-.431.555,2.9,2.9,0,0,1-4.068,0A3.387,3.387,0,0,1,11,13.1,10.081,10.081,0,0,0,20.923,21.664Z" transform="translate(-5.862 -10.138)" fill="#fff"/>
    </g>
  </g>
</svg>
