<svg xmlns="http://www.w3.org/2000/svg" width="64.35" height="61.422" viewBox="0 0 64.35 61.422">
  <path id="nutrition-protein" d="M35.526,14.1c-5.484-1.723-10.077-.524-13.324,2.367A2.98,2.98,0,0,1,23.815,18.4c2.1,7.977,3.666,4.541,4.426,7.469a26.989,26.989,0,0,1,1.048,6.379,2.647,2.647,0,0,1,.288-.094,2.985,2.985,0,0,1,3.666,2.126c1.487,5.594,1.514,9.26.215,12.046a10.27,10.27,0,0,1-5.489,4.86c.487.477,1,.948,1.529,1.409,4.19,3,7.856,2.587,11.256.733a10.65,10.65,0,0,0,8.642.639c4.52-1.7,9.124-8.38,11.292-12.57,4.714-9.061,6.348-20.688-4.221-26.355-2.886-1.545-6.489-2-11.057-.974a14.089,14.089,0,0,1-3.431.686,18.887,18.887,0,0,1,.9-6.186,14.665,14.665,0,0,1,4.054-6.285A1.409,1.409,0,1,0,45.043.236,17.389,17.389,0,0,0,40.2,7.72l-.12.372c-2.891-5.086-7.835-7.736-15.9-6.5l-3.184.33c2.331,4.845,5.2,9.784,11.146,10.512h0a12.491,12.491,0,0,0,7.333-1.6l-.136.55h.031a23.522,23.522,0,0,0-.2,3.389,17.368,17.368,0,0,1-3.635-.681ZM9.192,16.572c2.854-4.536,1.807-8.658-5.2-12.12C1.9,9.726,2.76,15.357,9.192,16.572ZM23.15,52.795l2.514-1.079,3.253,7.516a1.367,1.367,0,0,1-2.509,1.084L23.161,52.8ZM16.436,30.409c4.787-1.639,6.521-3.572,4.515-11.245-3.761,2.97-8.134,5.1-4.494,11.245Zm-3.42-7.888c4.462-1.535,6.081-3.331,4.19-10.475C13.707,14.807,9.642,16.786,13.015,22.522Zm9.019,27.9c-5.678,2.991-8.941,2.917-14.272-5.62,6.008-.9,11.764-3.074,14.272,5.62Zm-4.305-10c-5.049,2.661-7.977,2.619-12.7-5C10.376,34.62,15.508,32.672,17.729,40.413Zm-3.834-8.9c-4.468,2.362-7.086,2.3-11.277-4.41,4.74-.7,9.281-2.43,11.266,4.436Zm-3.42-7.9C6.285,25.811,3.886,25.758,0,19.479,4.41,18.819,8.647,17.216,10.475,23.611ZM24.617,49.275c6.07-2.1,8.27-4.525,5.688-14.246-4.75,3.782-10.287,6.479-5.688,14.262ZM20.3,39.3c5.395-1.849,7.333-4.028,5.06-12.67C21.113,29.975,16.189,32.394,20.3,39.3ZM23.852,3.294c6.1,1.671,9.993,2.409,14.843,6.762C32.525,8.537,28.807,7.2,23.852,3.294Z" transform="translate(0 0.286)" fill="#09a8f9"/>
</svg>
