<svg xmlns="http://www.w3.org/2000/svg" width="18" height="18" viewBox="0 0 18 18">
  <g id="vuesax_bulk_frame" data-name="vuesax/bulk/frame" transform="translate(-108 -188)" opacity="0.8">
    <g id="frame" transform="translate(108 188)">
      <path id="Vector" d="M14.438,4.29C12.7,1.567,10.17,0,7.5,0A7.262,7.262,0,0,0,3.682,1.118,10.015,10.015,0,0,0,.563,4.29a4.328,4.328,0,0,0,0,4.268A8.382,8.382,0,0,0,7.5,12.847a7.262,7.262,0,0,0,3.818-1.118,10.015,10.015,0,0,0,3.12-3.172A4.328,4.328,0,0,0,14.438,4.29ZM7.5,9.458a3.03,3.03,0,1,1,3.03-3.03A3.026,3.026,0,0,1,7.5,9.458Z" transform="translate(1.5 2.572)" opacity="0.4"/>
      <path id="Vector-2" data-name="Vector" d="M2.138,0A2.141,2.141,0,1,0,4.283,2.145,2.143,2.143,0,0,0,2.138,0Z" transform="translate(6.863 6.855)"/>
      <path id="Vector-3" data-name="Vector" d="M0,0H18V18H0Z" fill="none" opacity="0"/>
    </g>
  </g>
</svg>
