<svg xmlns="http://www.w3.org/2000/svg" width="39.007" height="28.037" viewBox="0 0 39.007 28.037">
  <g id="picture-svgrepo-com" opacity="0.2">
    <g id="Group_15130" data-name="Group 15130" transform="translate(0 0)">
      <path id="Path_2925" data-name="Path 2925" d="M37,0H2A2.005,2.005,0,0,0,0,2V26.9a1.135,1.135,0,0,0,1.133,1.133H37a2.005,2.005,0,0,0,2-2V2A2.005,2.005,0,0,0,37,0ZM14.384,3.413a4.327,4.327,0,1,1-4.327,4.327A4.332,4.332,0,0,1,14.384,3.413ZM30.611,23.966a.914.914,0,0,1-.8.475H10.051a.914.914,0,0,1-.771-1.406l4.7-7.374a.914.914,0,0,1,1.542,0L17.778,19.2l4.409-6.92a.914.914,0,0,1,1.542,0L30.58,23.035A.914.914,0,0,1,30.611,23.966Z" transform="translate(0 0)"/>
    </g>
  </g>
</svg>
