<svg xmlns="http://www.w3.org/2000/svg" width="15.806" height="19.77" viewBox="0 0 15.806 19.77">
  <g id="Group_15364" data-name="Group 15364" transform="translate(-74 -461)">
    <g id="Icon_ionic-ios-notifications" data-name="Icon ionic-ios-notifications" transform="translate(74 461)">
      <path id="Path_4" data-name="Path 4" d="M18.2,32.285c2.317,0,3.584-1.639,3.584-3.949H14.6C14.6,30.646,15.871,32.285,18.2,32.285Z" transform="translate(-10.298 -12.515)"/>
      <path id="Path_5" data-name="Path 5" d="M22.367,16.939c-.761-.891-2.258-1.414-2.258-5.4,0-4.1-2.036-5.743-3.933-6.138-.178-.04-.306-.092-.306-.259V5.01a1.213,1.213,0,0,0-2.411,0v.127c0,.162-.128.22-.306.259-1.9.4-3.933,2.042-3.933,6.138,0,3.991-1.5,4.509-2.258,5.4a.869.869,0,0,0,.786,1.4h13.84A.869.869,0,0,0,22.367,16.939Z" transform="translate(-6.761 -3.93)"/>
    </g>
  </g>
</svg>
