<svg xmlns="http://www.w3.org/2000/svg" width="24.457" height="22.5" viewBox="0 0 24.457 22.5">
  <g id="D_-_8_x2C__Building_x2C__office_x2C__Tower_x2C__Headoffice" transform="translate(-21.726 -40.468)">
    <g id="Group_16183" data-name="Group 16183" transform="translate(21.726 40.468)">
      <rect id="Rectangle_1150" data-name="Rectangle 1150" width="1.467" height="1.467" transform="translate(9.929 10.761)"/>
      <rect id="Rectangle_1151" data-name="Rectangle 1151" width="1.467" height="1.467" transform="translate(3.082 14.185)"/>
      <rect id="Rectangle_1152" data-name="Rectangle 1152" width="1.467" height="1.467" transform="translate(9.929 14.185)"/>
      <rect id="Rectangle_1153" data-name="Rectangle 1153" width="1.467" height="1.467" transform="translate(6.505 10.761)"/>
      <rect id="Rectangle_1154" data-name="Rectangle 1154" width="1.467" height="1.467" transform="translate(6.505 7.337)"/>
      <rect id="Rectangle_1155" data-name="Rectangle 1155" width="1.467" height="1.467" transform="translate(3.082 7.337)"/>
      <rect id="Rectangle_1156" data-name="Rectangle 1156" width="1.467" height="1.467" transform="translate(3.082 10.761)"/>
      <rect id="Rectangle_1157" data-name="Rectangle 1157" width="1.467" height="1.467" transform="translate(6.505 3.913)"/>
      <rect id="Rectangle_1158" data-name="Rectangle 1158" width="1.467" height="1.467" transform="translate(9.929 7.337)"/>
      <rect id="Rectangle_1159" data-name="Rectangle 1159" width="1.467" height="1.467" transform="translate(3.082 3.913)"/>
      <rect id="Rectangle_1160" data-name="Rectangle 1160" width="1.467" height="1.467" transform="translate(6.505 14.185)"/>
      <rect id="Rectangle_1161" data-name="Rectangle 1161" width="1.467" height="1.467" transform="translate(9.929 3.913)"/>
      <rect id="Rectangle_1162" data-name="Rectangle 1162" width="8.315" height="1.467" transform="translate(3.082 0)"/>
      <path id="Path_4311" data-name="Path 4311" d="M319.928,79.51h-1.223V78.238a.245.245,0,0,0-.489,0V79.51h-1.473l-.019-2.252a.245.245,0,0,0-.245-.243h0a.245.245,0,0,0-.242.247l.019,2.248h-1.217v1.957h4.891V79.51Z" transform="translate(-299.727 -75.107)"/>
      <path id="Path_4312" data-name="Path 4312" d="M45.938,98.006v-7.5L43.884,87.74V98.006h-.489V82.843H35.568V98.006h-.489V77.952H22.851V98.006h-.88a.245.245,0,1,0,0,.489H45.938a.245.245,0,1,0,0-.489ZM31.166,79.664a.245.245,0,0,1,.245-.245h1.957a.245.245,0,0,1,.245.245V81.62a.245.245,0,0,1-.245.245H31.411a.245.245,0,0,1-.245-.245Zm0,3.424a.245.245,0,0,1,.245-.245h1.957a.245.245,0,0,1,.245.245v1.957a.245.245,0,0,1-.245.245H31.411a.245.245,0,0,1-.245-.245Zm0,3.424a.245.245,0,0,1,.245-.245h1.957a.245.245,0,0,1,.245.245v1.957a.245.245,0,0,1-.245.245H31.411a.245.245,0,0,1-.245-.245Zm0,3.424a.245.245,0,0,1,.245-.245h1.957a.245.245,0,0,1,.245.245v1.957a.245.245,0,0,1-.245.245H31.411a.245.245,0,0,1-.245-.245ZM27.742,79.664a.245.245,0,0,1,.245-.245h1.957a.245.245,0,0,1,.245.245V81.62a.245.245,0,0,1-.245.245H27.987a.245.245,0,0,1-.245-.245V79.664Zm0,3.424a.245.245,0,0,1,.245-.245h1.957a.245.245,0,0,1,.245.245v1.957a.245.245,0,0,1-.245.245H27.987a.245.245,0,0,1-.245-.245V83.088Zm0,3.424a.245.245,0,0,1,.245-.245h1.957a.245.245,0,0,1,.245.245v1.957a.245.245,0,0,1-.245.245H27.987a.245.245,0,0,1-.245-.245V86.512Zm0,3.424a.245.245,0,0,1,.245-.245h1.957a.245.245,0,0,1,.245.245v1.957a.245.245,0,0,1-.245.245H27.987a.245.245,0,0,1-.245-.245V89.936ZM24.318,79.664a.245.245,0,0,1,.245-.245H26.52a.245.245,0,0,1,.245.245V81.62a.245.245,0,0,1-.245.245H24.563a.245.245,0,0,1-.245-.245Zm0,3.424a.245.245,0,0,1,.245-.245H26.52a.245.245,0,0,1,.245.245v1.957a.245.245,0,0,1-.245.245H24.563a.245.245,0,0,1-.245-.245Zm0,3.424a.245.245,0,0,1,.245-.245H26.52a.245.245,0,0,1,.245.245v1.957a.245.245,0,0,1-.245.245H24.563a.245.245,0,0,1-.245-.245Zm0,3.424a.245.245,0,0,1,.245-.245H26.52a.245.245,0,0,1,.245.245v1.957a.245.245,0,0,1-.245.245H24.563a.245.245,0,0,1-.245-.245Zm6.359,8.071V93.6H27.253v4.4h-.489V93.36a.245.245,0,0,1,.245-.245h3.913a.245.245,0,0,1,.245.245v4.647Zm6.359,0V84.555a.245.245,0,0,1,.489,0V98.006Zm1.467,0V84.555a.245.245,0,0,1,.489,0V98.006Zm1.467,0V84.555a.245.245,0,0,1,.489,0V98.006Zm1.467,0V84.555a.245.245,0,0,1,.489,0V98.006Z" transform="translate(-21.726 -75.995)"/>
    </g>
  </g>
</svg>
