<svg xmlns="http://www.w3.org/2000/svg" width="15.526" height="18.771" viewBox="0 0 15.526 18.771">
  <path id="Path_3269" data-name="Path 3269" d="M-487.327-995.229a1.279,1.279,0,0,1-1.357-1.178v-14.373a1.278,1.278,0,0,1,1.357-1.178h9.5a1.278,1.278,0,0,1,1.357,1.178v14.373a1.278,1.278,0,0,1-1.357,1.178Zm.543-3.888a.639.639,0,0,0,.678.589h7.326a.639.639,0,0,0,.678-.589.639.639,0,0,0-.678-.589h-7.326A.639.639,0,0,0-486.785-999.117Zm0-4.713a.639.639,0,0,0,.678.589h7.326a.639.639,0,0,0,.678-.589.639.639,0,0,0-.678-.589h-7.326A.639.639,0,0,0-486.785-1003.83Zm0-4.713a.639.639,0,0,0,.678.589h7.326a.639.639,0,0,0,.678-.589.639.639,0,0,0-.678-.589h-7.326A.639.639,0,0,0-486.785-1008.542Zm-2.714,12.091h-.818A1.587,1.587,0,0,1-492-997.914v-14.624a1.587,1.587,0,0,1,1.684-1.462h5.052l1.808,1.57h-4.686a1.278,1.278,0,0,0-1.357,1.178v14.8Z" transform="translate(492 1014)"/>
</svg>
