<svg xmlns="http://www.w3.org/2000/svg" width="24" height="24" viewBox="0 0 24 24">
  <g id="vuesax_bulk_lock" data-name="vuesax/bulk/lock" transform="translate(-172 -252)">
    <g id="lock">
      <path id="Vector" d="M3.26,1.63A1.63,1.63,0,1,1,1.63,0,1.63,1.63,0,0,1,3.26,1.63Z" transform="translate(182.37 266.09)" opacity="0.4"/>
      <path id="Vector-2" data-name="Vector" d="M14.65,0H5.35C1.25,0,0,1.25,0,5.35V7.21c0,4.1,1.25,5.35,5.35,5.35h9.3c4.1,0,5.35-1.25,5.35-5.35V5.35C20,1.25,18.75,0,14.65,0ZM10,9.3a3.02,3.02,0,1,1,3.02-3.02A3.024,3.024,0,0,1,10,9.3Z" transform="translate(174 261.44)"/>
      <path id="Vector-3" data-name="Vector" d="M1.4,7.45V6.28c0-2.93.83-4.88,4.88-4.88s4.88,1.95,4.88,4.88V7.45a11.912,11.912,0,0,1,1.4.09V6.28c0-2.7-.65-6.28-6.28-6.28S0,3.58,0,6.28V7.53A11.891,11.891,0,0,1,1.4,7.45Z" transform="translate(177.72 254)" opacity="0.4"/>
      <path id="Vector-4" data-name="Vector" d="M0,0H24V24H0Z" transform="translate(172 252)" fill="none" opacity="0"/>
    </g>
  </g>
</svg>
