<svg xmlns="http://www.w3.org/2000/svg" width="19.971" height="14" viewBox="0 0 19.971 14">
  <g id="Group_15363" data-name="Group 15363" transform="translate(-70 -407)">
    <g id="_-Product-Icons" data-name="ðŸ”-Product-Icons" transform="translate(70 407)">
      <g id="ic_fluent_payment_24_filled" transform="translate(0 0)">
        <path id="_-Color" data-name="ðŸŽ¨-Color" d="M21.981,10.993v5.279A2.749,2.749,0,0,1,19.4,19.016l-.167.005H4.76a2.749,2.749,0,0,1-2.744-2.582l-.005-.167V10.993Zm-3.734,3.5h-2.5l-.1.007a.75.75,0,0,0,0,1.486l.1.007h2.5l.1-.007a.75.75,0,0,0,0-1.486Zm.986-9.476A2.749,2.749,0,0,1,21.977,7.6l0,.167V9.493H2.01V7.77A2.749,2.749,0,0,1,4.593,5.026l.167-.005Z" transform="translate(-2.01 -5.021)"/>
      </g>
    </g>
  </g>
</svg>
