<svg xmlns="http://www.w3.org/2000/svg" width="24" height="24" viewBox="0 0 24 24">
  <g id="Group_16179" data-name="Group 16179" transform="translate(-157 -673)">
    <path id="Path_720" data-name="Path 720" d="M12,0A12,12,0,1,1,0,12,12,12,0,0,1,12,0Z" transform="translate(157 673)" fill="#fe9805"/>
    <g id="plus-svgrepo-com" transform="translate(162.618 678.618)">
      <g id="Group_16177" data-name="Group 16177">
        <path id="Path_721" data-name="Path 721" d="M11.373,4.841H7.486V1.234a1.234,1.234,0,1,0-2.468,0V4.841H1.234a1.234,1.234,0,1,0,0,2.468H5.018v4.064a1.234,1.234,0,0,0,2.469,0V7.309h3.887a1.234,1.234,0,1,0,0-2.468Z" fill="#fff"/>
      </g>
    </g>
  </g>
</svg>
