<svg xmlns="http://www.w3.org/2000/svg" width="19" height="19" viewBox="0 0 19 19">
  <g id="Group_15366" data-name="Group 15366" transform="translate(-73 -572)">
    <path id="Icon_awesome-history" data-name="Icon awesome-history" d="M19.563,10.045A9.5,9.5,0,0,1,4.1,17.459.919.919,0,0,1,4.03,16.1l.432-.432a.921.921,0,0,1,1.222-.076,7.049,7.049,0,1,0-.45-10.661L7.177,6.871a.613.613,0,0,1-.433,1.046H1.175A.613.613,0,0,1,.563,7.3V1.736A.613.613,0,0,1,1.609,1.3L3.5,3.194a9.5,9.5,0,0,1,16.062,6.851Zm-6.93,3.018.376-.484a.919.919,0,0,0-.161-1.29l-1.559-1.213v-4a.919.919,0,0,0-.919-.919H9.756a.919.919,0,0,0-.919.919v5.2l2.506,1.949A.919.919,0,0,0,12.632,13.062Z" transform="translate(72.438 571.438)"/>
  </g>
</svg>
