<svg xmlns="http://www.w3.org/2000/svg" width="16.442" height="16.442" viewBox="0 0 16.442 16.442">
  <g id="Icon_feather-search" data-name="Icon feather-search" transform="translate(-3.5 -3.5)">
    <path id="Path_2943" data-name="Path 2943" d="M10.919,3.5A7.419,7.419,0,1,1,3.5,10.919,7.427,7.427,0,0,1,10.919,3.5Zm0,12.837A5.419,5.419,0,1,0,5.5,10.919,5.425,5.425,0,0,0,10.919,16.337Z" fill="#dcdcdc"/>
    <path id="Path_2944" data-name="Path 2944" d="M28.465,29.465a1,1,0,0,1-.707-.293l-3.49-3.49a1,1,0,0,1,1.414-1.414l3.49,3.49a1,1,0,0,1-.707,1.707Z" transform="translate(-9.523 -9.523)" fill="#dcdcdc"/>
  </g>
</svg>
