<svg xmlns="http://www.w3.org/2000/svg" width="58.283" height="66.921" viewBox="0 0 58.283 66.921">
  <g id="child-care-svgrepo-com" transform="translate(-6.149 -3)">
    <path id="Path_4019" data-name="Path 4019" d="M40.237,44.785c-.073,1.3-.871,6.872-1.023,7.929h-2.3v7.977h17.95V52.713h-2.3a26.932,26.932,0,0,1,3.808-4.506,26.951,26.951,0,0,0,4.188-5.063c.336-.547.677-1.072,1.007-1.582h0c1.192-1.839,2.249-3.469,2.472-5.153.285-2.15.684-15.068.05-17.036s-4.488-3.138-5.91,1.213a36.624,36.624,0,0,0-1.2,7.437h0c-.244,2.583-.461,4.893-1.1,5.974-1.268,2.134-5.32,7.423-5.32,7.423l3.536-6.65a4.466,4.466,0,0,0,.3-2.69c-.239-1.77-2.248-4.278-3.251-2.336a17.533,17.533,0,0,1-2.725,3.678L42.311,40.77S40.318,43.35,40.237,44.785Zm-9.893,0c.073,1.3.871,6.872,1.023,7.929h2.3v7.978H15.713V52.713h2.3A26.938,26.938,0,0,0,14.2,48.208a26.949,26.949,0,0,1-4.188-5.063c-.336-.547-.677-1.072-1.007-1.582h0c-1.192-1.839-2.249-3.469-2.472-5.153-.285-2.15-.684-15.068-.05-17.036s4.487-3.138,5.91,1.213a36.639,36.639,0,0,1,1.2,7.437h0c.244,2.583.462,4.893,1.1,5.974,1.268,2.134,5.32,7.424,5.32,7.424l-3.536-6.65a4.467,4.467,0,0,1-.3-2.69c.24-1.77,2.248-4.278,3.251-2.336a17.533,17.533,0,0,0,2.725,3.678l6.106,7.346S30.264,43.35,30.344,44.785Z" transform="translate(0 9.231)" fill="#fe9805"/>
    <path id="Path_4020" data-name="Path 4020" d="M34.256,16.054a6.527,6.527,0,1,0-6.527-6.527A6.527,6.527,0,0,0,34.256,16.054Z" transform="translate(13.634 0)" fill="#fe9805"/>
    <path id="Path_4021" data-name="Path 4021" d="M40.924,17.468H38.68l-3.708-3.713a6.526,6.526,0,0,0-5.573-3.07H22.272l.679,13.566h6.1A6.749,6.749,0,0,0,33.9,22.187l1.046,1.047a3.324,3.324,0,0,0,2.47,1.006c.039,0,.074.01.113.01h3.392a3.391,3.391,0,1,0,0-6.783Z" transform="translate(10.186 4.855)" fill="#fe9805"/>
    <path id="Path_4022" data-name="Path 4022" d="M22.393,13.146,19,16.538H15.068a3.392,3.392,0,0,0,0,6.783h5.081a.441.441,0,0,0,.115-.01,3.329,3.329,0,0,0,2.47-1.006l4.408-4.409a3.361,3.361,0,1,0-4.754-4.754Z" transform="translate(3.492 5.785)" fill="#fe9805"/>
  </g>
</svg>
