<svg id="crying-black" xmlns="http://www.w3.org/2000/svg" width="61" height="61" viewBox="0 0 61 61">
  <path id="Path_2952" data-name="Path 2952" d="M30.5,0A30.5,30.5,0,1,1,0,30.5,30.507,30.507,0,0,1,30.5,0Zm4.62,22.4h0a3.82,3.82,0,0,1,.894-.894,9.622,9.622,0,0,1,5.514-1.987,8.837,8.837,0,0,1,6.11,1.838,11.876,11.876,0,0,1,1.143,1.093A1.66,1.66,0,1,1,46.2,24.539a3.971,3.971,0,0,0-.646-.646,5.682,5.682,0,0,0-3.875-1.143A6.551,6.551,0,0,0,38.1,23.993a3.214,3.214,0,0,1-.447.4,1.709,1.709,0,0,1-2.335.248,1.531,1.531,0,0,1-.2-2.235ZM15.7,39.193h0a15.789,15.789,0,0,0,7.9,7.054,19.44,19.44,0,0,0,8,1.54,17.5,17.5,0,0,0,7.65-1.987,13.389,13.389,0,0,0,6.011-6.557,1.657,1.657,0,0,1,3.03,1.341,16.7,16.7,0,0,1-7.451,8.1,20.662,20.662,0,0,1-9.14,2.384,22.178,22.178,0,0,1-9.438-1.788,19.634,19.634,0,0,1-9.488-8.494,1.629,1.629,0,0,1,.646-2.235,1.673,1.673,0,0,1,2.285.646ZM12.27,22.4h0a3.82,3.82,0,0,1,.894-.894,9.622,9.622,0,0,1,5.514-1.987,8.791,8.791,0,0,1,6.16,1.838,11.876,11.876,0,0,1,1.143,1.093A1.66,1.66,0,1,1,23.4,24.539a3.97,3.97,0,0,0-.646-.646,5.682,5.682,0,0,0-3.875-1.143A6.551,6.551,0,0,0,15.3,23.993c-.2.149-.3.3-.447.4a1.709,1.709,0,0,1-2.335.248A1.536,1.536,0,0,1,12.27,22.4Z" fill="#8cc540"/>
</svg>
