<svg xmlns="http://www.w3.org/2000/svg" width="351.035" height="235.729" viewBox="0 0 351.035 235.729">
  <g id="Group_16201" data-name="Group 16201" transform="translate(-38.25 -125.557)">
    <ellipse id="Ellipse_173" data-name="Ellipse 173" cx="175.517" cy="31.927" rx="175.517" ry="31.927" transform="translate(38.25 274.143)" fill="#f8eede"/>
    <g id="Group_16200" data-name="Group 16200" transform="translate(-14.951 -6.831)">
      <path id="Path_4322" data-name="Path 4322" d="M939.267,1616.6a11.959,11.959,0,1,0,11.959-11.959,11.958,11.958,0,0,0-11.959,11.959" transform="translate(-731.345 -1308.448)" fill="#ffc600"/>
      <path id="Path_4323" data-name="Path 4323" d="M976.21,1620.371c.348.764,1.746.874,3.123.246s2.21-1.755,1.863-2.519-1.746-.874-3.123-.246-2.211,1.754-1.862,2.518" transform="translate(-763.093 -1319.474)" fill="#fff58f"/>
      <path id="Path_4324" data-name="Path 4324" d="M956.545,1644.75c.271.32.959.184,1.537-.3s.826-1.144.556-1.465-.958-.184-1.536.3-.827,1.144-.556,1.464" transform="translate(-746.131 -1341.317)" fill="#fff58f"/>
      <path id="Path_4325" data-name="Path 4325" d="M964.691,1672.407A12.411,12.411,0,0,0,977.1,1660c0-.109,0-.217,0-.325a11.209,11.209,0,0,1-19.832,10.272,12.357,12.357,0,0,0,7.425,2.465" transform="translate(-746.846 -1355.84)" fill="#f19700"/>
      <path id="Path_4326" data-name="Path 4326" d="M1123.766,1633.655a11.959,11.959,0,1,0,11.959-11.959,11.958,11.958,0,0,0-11.959,11.959" transform="translate(-890.242 -1323.135)" fill="#ed92bd"/>
      <path id="Path_4327" data-name="Path 4327" d="M1160.709,1637.423c.348.764,1.746.874,3.122.246s2.211-1.755,1.863-2.518-1.746-.874-3.123-.246-2.21,1.754-1.862,2.518" transform="translate(-921.99 -1334.16)" fill="#f7cfe2"/>
      <path id="Path_4328" data-name="Path 4328" d="M1141.046,1661.8c.271.32.959.184,1.537-.3s.826-1.144.556-1.464-.959-.184-1.536.3-.826,1.145-.556,1.465" transform="translate(-905.029 -1356.004)" fill="#f7cfe2"/>
      <path id="Path_4329" data-name="Path 4329" d="M1149.191,1689.46a12.411,12.411,0,0,0,12.411-12.411c0-.11,0-.218,0-.326A11.209,11.209,0,0,1,1141.766,1687a12.357,12.357,0,0,0,7.425,2.465" transform="translate(-905.744 -1370.527)" fill="#e761a0"/>
      <path id="Path_4330" data-name="Path 4330" d="M1611.68,1531.227a11.959,11.959,0,1,0,11.959-11.959,11.959,11.959,0,0,0-11.959,11.959" transform="translate(-1310.449 -1234.921)" fill="#00aec8"/>
      <path id="Path_4331" data-name="Path 4331" d="M1648.624,1534.994c.348.764,1.746.874,3.123.246s2.211-1.755,1.863-2.519-1.746-.874-3.123-.246-2.211,1.755-1.863,2.518" transform="translate(-1342.198 -1245.945)" fill="#97d7e7"/>
      <path id="Path_4332" data-name="Path 4332" d="M1628.959,1559.375c.272.32.96.184,1.537-.3s.826-1.144.555-1.464-.958-.185-1.536.3-.827,1.144-.557,1.464" transform="translate(-1325.236 -1267.79)" fill="#97d7e7"/>
      <path id="Path_4333" data-name="Path 4333" d="M1637.1,1587.033a12.411,12.411,0,0,0,12.411-12.411q0-.164,0-.325a11.209,11.209,0,0,1-19.832,10.272,12.357,12.357,0,0,0,7.425,2.465" transform="translate(-1325.95 -1282.313)" fill="#008090"/>
      <path id="Path_4334" data-name="Path 4334" d="M1277.764,1676.133a11.959,11.959,0,1,0,11.959-11.959,11.959,11.959,0,0,0-11.959,11.959" transform="translate(-1022.87 -1359.719)" fill="#00aec8"/>
      <path id="Path_4335" data-name="Path 4335" d="M1314.708,1679.9c.348.763,1.746.874,3.123.246s2.211-1.755,1.863-2.518-1.746-.874-3.123-.246-2.211,1.755-1.863,2.519" transform="translate(-1054.619 -1370.745)" fill="#97d7e7"/>
      <path id="Path_4336" data-name="Path 4336" d="M1295.043,1704.283c.271.32.959.184,1.537-.3s.826-1.144.555-1.464-.959-.185-1.536.3-.826,1.144-.556,1.465" transform="translate(-1037.657 -1392.589)" fill="#97d7e7"/>
      <path id="Path_4337" data-name="Path 4337" d="M1303.188,1731.941a12.411,12.411,0,0,0,12.411-12.411c0-.109,0-.217,0-.325a11.209,11.209,0,0,1-19.832,10.271,12.355,12.355,0,0,0,7.425,2.466" transform="translate(-1038.371 -1407.112)" fill="#008090"/>
      <path id="Path_4338" data-name="Path 4338" d="M440.123,1494.991a11.959,11.959,0,1,0,11.959-11.959,11.958,11.958,0,0,0-11.959,11.959" transform="translate(-301.466 -1203.714)" fill="#008c55"/>
      <path id="Path_4339" data-name="Path 4339" d="M477.068,1498.76c.348.763,1.746.874,3.123.246s2.211-1.755,1.863-2.518-1.746-.875-3.123-.247-2.211,1.755-1.863,2.519" transform="translate(-333.216 -1214.738)" fill="#acdbd3"/>
      <path id="Path_4340" data-name="Path 4340" d="M457.4,1523.14c.271.321.959.184,1.537-.3s.827-1.143.556-1.464-.959-.184-1.536.3-.827,1.144-.556,1.464" transform="translate(-316.255 -1236.583)" fill="#acdbd3"/>
      <path id="Path_4341" data-name="Path 4341" d="M465.55,1550.8a12.412,12.412,0,0,0,12.411-12.411c0-.109,0-.217,0-.326a11.209,11.209,0,0,1-19.832,10.271,12.356,12.356,0,0,0,7.425,2.465" transform="translate(-316.97 -1251.105)" fill="#007555"/>
      <path id="Path_4342" data-name="Path 4342" d="M329.781,1552.012a11.959,11.959,0,1,0,11.959-11.959,11.959,11.959,0,0,0-11.959,11.959" transform="translate(-206.436 -1252.821)" fill="#ffc600"/>
      <path id="Path_4343" data-name="Path 4343" d="M366.725,1555.782c.348.764,1.746.874,3.123.247s2.21-1.755,1.862-2.519-1.746-.873-3.123-.246-2.211,1.755-1.862,2.518" transform="translate(-238.185 -1263.849)" fill="#fff58f"/>
      <path id="Path_4344" data-name="Path 4344" d="M347.059,1580.16c.271.32.959.184,1.537-.3s.826-1.144.555-1.465-.959-.184-1.536.3-.827,1.144-.556,1.464" transform="translate(-221.222 -1285.691)" fill="#fff58f"/>
      <path id="Path_4345" data-name="Path 4345" d="M355.206,1607.817a12.411,12.411,0,0,0,12.411-12.411c0-.108,0-.217,0-.325a11.209,11.209,0,0,1-19.832,10.271,12.357,12.357,0,0,0,7.425,2.465" transform="translate(-221.938 -1300.214)" fill="#f19700"/>
      <path id="Path_4346" data-name="Path 4346" d="M1839.131,1551.55a11.959,11.959,0,1,0,11.959-11.959,11.959,11.959,0,0,0-11.959,11.959" transform="translate(-1506.337 -1252.424)" fill="#6a398d"/>
      <path id="Path_4347" data-name="Path 4347" d="M1876.073,1555.317c.348.764,1.746.874,3.123.246s2.21-1.755,1.863-2.518-1.746-.874-3.123-.246-2.21,1.755-1.862,2.518" transform="translate(-1538.085 -1263.448)" fill="#c09bc7"/>
      <path id="Path_4348" data-name="Path 4348" d="M1856.412,1579.7c.27.32.958.184,1.536-.3s.826-1.144.556-1.464-.959-.184-1.537.3-.826,1.144-.555,1.465" transform="translate(-1521.126 -1285.291)" fill="#c09bc7"/>
      <path id="Path_4349" data-name="Path 4349" d="M1864.558,1607.355a12.412,12.412,0,0,0,12.411-12.411c0-.109,0-.218,0-.325a11.209,11.209,0,0,1-19.832,10.271,12.354,12.354,0,0,0,7.425,2.465" transform="translate(-1521.841 -1299.815)" fill="#532375"/>
      <path id="Path_4350" data-name="Path 4350" d="M1645.222,1646.022a11.959,11.959,0,1,0,11.959-11.959,11.959,11.959,0,0,0-11.959,11.959" transform="translate(-1339.336 -1333.786)" fill="#82ad2c"/>
      <path id="Path_4351" data-name="Path 4351" d="M1682.166,1649.79c.348.763,1.746.874,3.123.246s2.21-1.755,1.863-2.518-1.746-.874-3.123-.247-2.211,1.755-1.863,2.519" transform="translate(-1371.086 -1344.812)" fill="#e8e263"/>
      <path id="Path_4352" data-name="Path 4352" d="M1662.5,1674.169c.27.321.958.184,1.536-.3s.827-1.144.556-1.464-.958-.184-1.536.3-.826,1.144-.555,1.464" transform="translate(-1354.125 -1366.654)" fill="#e8e263"/>
      <path id="Path_4353" data-name="Path 4353" d="M1670.647,1701.829a12.411,12.411,0,0,0,12.411-12.411q0-.164,0-.325a11.209,11.209,0,0,1-19.832,10.271,12.36,12.36,0,0,0,7.425,2.465" transform="translate(-1354.839 -1381.18)" fill="#63922b"/>
      <path id="Path_4354" data-name="Path 4354" d="M1522.984,1359.36a11.959,11.959,0,1,0,11.959-11.959,11.959,11.959,0,0,0-11.959,11.959" transform="translate(-1234.061 -1086.904)" fill="#82ad2c"/>
      <path id="Path_4355" data-name="Path 4355" d="M1559.929,1363.128c.348.764,1.746.874,3.123.246s2.211-1.755,1.863-2.518-1.746-.875-3.123-.247-2.211,1.755-1.863,2.519" transform="translate(-1265.812 -1097.929)" fill="#e8e263"/>
      <path id="Path_4356" data-name="Path 4356" d="M1540.266,1387.508c.271.32.959.185,1.536-.3s.827-1.144.556-1.464-.958-.184-1.536.3-.826,1.144-.556,1.464" transform="translate(-1248.85 -1119.773)" fill="#e8e263"/>
      <path id="Path_4357" data-name="Path 4357" d="M1548.41,1415.167a12.411,12.411,0,0,0,12.411-12.411q0-.164,0-.325a11.209,11.209,0,0,1-19.832,10.271,12.359,12.359,0,0,0,7.425,2.465" transform="translate(-1249.564 -1134.297)" fill="#63922b"/>
      <path id="Path_4358" data-name="Path 4358" d="M1204.447,1764.227a11.959,11.959,0,1,0,11.959-11.959,11.959,11.959,0,0,0-11.959,11.959" transform="translate(-959.727 -1435.588)" fill="#6a398d"/>
      <path id="Path_4359" data-name="Path 4359" d="M1241.391,1768c.348.763,1.746.874,3.123.247s2.211-1.755,1.863-2.519-1.746-.875-3.123-.247-2.21,1.755-1.863,2.519" transform="translate(-991.476 -1446.614)" fill="#c09bc7"/>
      <path id="Path_4360" data-name="Path 4360" d="M1221.729,1792.377c.271.32.959.184,1.536-.3s.826-1.144.556-1.464-.959-.184-1.537.3-.826,1.144-.555,1.464" transform="translate(-974.516 -1468.459)" fill="#c09bc7"/>
      <path id="Path_4361" data-name="Path 4361" d="M1229.876,1820.033a12.412,12.412,0,0,0,12.411-12.411c0-.109,0-.217,0-.325a11.209,11.209,0,0,1-19.832,10.272,12.353,12.353,0,0,0,7.424,2.465" transform="translate(-975.233 -1482.98)" fill="#532375"/>
      <path id="Path_4362" data-name="Path 4362" d="M497.226,1699.848a11.959,11.959,0,1,0,11.959-11.959,11.959,11.959,0,0,0-11.959,11.959" transform="translate(-350.645 -1380.143)" fill="#ffc600"/>
      <path id="Path_4363" data-name="Path 4363" d="M534.171,1703.615c.348.763,1.746.874,3.123.246s2.211-1.755,1.863-2.518-1.746-.874-3.122-.246-2.211,1.755-1.863,2.518" transform="translate(-382.395 -1391.167)" fill="#fff58f"/>
      <path id="Path_4364" data-name="Path 4364" d="M514.505,1727.994c.271.321.959.184,1.537-.3s.827-1.143.555-1.464-.958-.184-1.536.3-.827,1.144-.556,1.464" transform="translate(-365.432 -1413.01)" fill="#fff58f"/>
      <path id="Path_4365" data-name="Path 4365" d="M522.651,1755.651a12.411,12.411,0,0,0,12.411-12.411q0-.164,0-.325a11.209,11.209,0,0,1-19.832,10.271,12.358,12.358,0,0,0,7.425,2.465" transform="translate(-366.147 -1427.533)" fill="#f19700"/>
      <path id="Path_4366" data-name="Path 4366" d="M489.791,1778.872a11.959,11.959,0,1,0,11.959-11.959,11.959,11.959,0,0,0-11.959,11.959" transform="translate(-344.241 -1448.201)" fill="#005cab"/>
      <path id="Path_4367" data-name="Path 4367" d="M526.733,1782.641c.348.764,1.746.874,3.123.246s2.211-1.755,1.863-2.518-1.746-.874-3.123-.246-2.21,1.755-1.862,2.518" transform="translate(-375.99 -1459.227)" fill="#a7e0fa"/>
      <path id="Path_4368" data-name="Path 4368" d="M507.069,1807.02c.271.32.959.184,1.536-.3s.827-1.143.556-1.464-.958-.184-1.536.3-.826,1.144-.556,1.464" transform="translate(-359.028 -1481.07)" fill="#a7e0fa"/>
      <path id="Path_4369" data-name="Path 4369" d="M515.214,1834.677a12.411,12.411,0,0,0,12.411-12.411c0-.109,0-.217,0-.325a11.209,11.209,0,0,1-19.832,10.271,12.357,12.357,0,0,0,7.425,2.465" transform="translate(-359.742 -1495.593)" fill="#004c9e"/>
      <path id="Path_4370" data-name="Path 4370" d="M727.087,1693.016a11.959,11.959,0,1,0,11.959-11.959,11.958,11.958,0,0,0-11.959,11.959" transform="translate(-548.609 -1374.259)" fill="#ed92bd"/>
      <path id="Path_4371" data-name="Path 4371" d="M764.031,1696.785c.348.764,1.746.874,3.122.247s2.211-1.755,1.863-2.518-1.746-.874-3.123-.247-2.211,1.755-1.862,2.518" transform="translate(-580.357 -1385.286)" fill="#f7cfe2"/>
      <path id="Path_4372" data-name="Path 4372" d="M744.366,1721.165c.271.32.959.184,1.537-.3s.827-1.144.556-1.464-.959-.184-1.536.3-.826,1.144-.556,1.465" transform="translate(-563.396 -1407.129)" fill="#f7cfe2"/>
      <path id="Path_4373" data-name="Path 4373" d="M752.512,1748.823a12.411,12.411,0,0,0,12.411-12.411c0-.109,0-.217,0-.325a11.209,11.209,0,0,1-19.832,10.271,12.355,12.355,0,0,0,7.425,2.465" transform="translate(-564.111 -1421.652)" fill="#e761a0"/>
      <path id="Path_4374" data-name="Path 4374" d="M909.676,1738.538a11.959,11.959,0,1,0,11.959-11.959,11.959,11.959,0,0,0-11.959,11.959" transform="translate(-705.86 -1413.464)" fill="#005cab"/>
      <path id="Path_4375" data-name="Path 4375" d="M946.619,1742.308c.348.764,1.746.874,3.123.246s2.211-1.754,1.863-2.518-1.746-.874-3.123-.247-2.211,1.755-1.862,2.519" transform="translate(-737.609 -1424.491)" fill="#a7e0fa"/>
      <path id="Path_4376" data-name="Path 4376" d="M926.956,1766.687c.271.32.959.184,1.536-.3s.827-1.143.555-1.464-.958-.184-1.536.3-.826,1.145-.555,1.465" transform="translate(-720.648 -1446.334)" fill="#a7e0fa"/>
      <path id="Path_4377" data-name="Path 4377" d="M935.1,1794.345a12.411,12.411,0,0,0,12.411-12.411c0-.109,0-.218,0-.325a11.209,11.209,0,0,1-19.832,10.272,12.356,12.356,0,0,0,7.424,2.464" transform="translate(-721.363 -1460.857)" fill="#004c9e"/>
      <path id="Path_4378" data-name="Path 4378" d="M1259.342,1316.418a11.959,11.959,0,1,0,11.959-11.96,11.959,11.959,0,0,0-11.959,11.96" transform="translate(-1007.004 -1049.92)" fill="#005cab"/>
      <path id="Path_4379" data-name="Path 4379" d="M1296.286,1320.188c.347.764,1.745.874,3.122.246s2.211-1.755,1.863-2.518-1.746-.874-3.123-.247-2.211,1.755-1.862,2.519" transform="translate(-1038.753 -1060.948)" fill="#a7e0fa"/>
      <path id="Path_4380" data-name="Path 4380" d="M1276.622,1344.567c.271.321.959.184,1.536-.3s.826-1.143.555-1.464-.958-.184-1.536.3-.827,1.145-.556,1.465" transform="translate(-1021.792 -1082.79)" fill="#a7e0fa"/>
      <path id="Path_4381" data-name="Path 4381" d="M1284.767,1372.226a12.411,12.411,0,0,0,12.412-12.411c0-.109,0-.218,0-.325a11.209,11.209,0,0,1-19.832,10.271,12.355,12.355,0,0,0,7.424,2.465" transform="translate(-1022.507 -1097.315)" fill="#004c9e"/>
      <path id="Path_4382" data-name="Path 4382" d="M1389.122,1840.624a11.959,11.959,0,1,0,11.959-11.959,11.959,11.959,0,0,0-11.959,11.959" transform="translate(-1118.775 -1501.384)" fill="#005cab"/>
      <path id="Path_4383" data-name="Path 4383" d="M1426.064,1844.394c.348.764,1.746.874,3.123.247s2.211-1.755,1.863-2.519-1.746-.874-3.123-.247-2.211,1.755-1.863,2.518" transform="translate(-1150.523 -1512.41)" fill="#a7e0fa"/>
      <path id="Path_4384" data-name="Path 4384" d="M1406.4,1868.774c.271.32.958.184,1.536-.3s.827-1.144.556-1.464-.958-.184-1.536.3-.827,1.144-.556,1.465" transform="translate(-1133.562 -1534.254)" fill="#a7e0fa"/>
      <path id="Path_4385" data-name="Path 4385" d="M1414.546,1896.431a12.411,12.411,0,0,0,12.412-12.41c0-.109,0-.218,0-.326a11.209,11.209,0,0,1-19.832,10.272,12.356,12.356,0,0,0,7.424,2.464" transform="translate(-1134.277 -1548.777)" fill="#004c9e"/>
      <path id="Path_4386" data-name="Path 4386" d="M1525.6,1726.938a11.959,11.959,0,1,0,11.959-11.959,11.958,11.958,0,0,0-11.959,11.959" transform="translate(-1236.316 -1403.473)" fill="#00853b"/>
      <path id="Path_4387" data-name="Path 4387" d="M1562.543,1730.705c.348.764,1.746.874,3.123.246s2.21-1.754,1.863-2.518-1.746-.874-3.123-.247-2.211,1.755-1.863,2.518" transform="translate(-1268.062 -1414.498)" fill="#c1e2cd"/>
      <path id="Path_4388" data-name="Path 4388" d="M1542.878,1755.087c.271.32.959.184,1.537-.3s.826-1.144.555-1.464-.959-.184-1.536.3-.826,1.144-.556,1.465" transform="translate(-1251.101 -1436.344)" fill="#c1e2cd"/>
      <path id="Path_4389" data-name="Path 4389" d="M1551.025,1782.745a12.411,12.411,0,0,0,12.411-12.411c0-.109,0-.218,0-.325a11.209,11.209,0,0,1-19.832,10.272,12.355,12.355,0,0,0,7.425,2.464" transform="translate(-1251.816 -1450.867)" fill="#1b612c"/>
      <path id="Path_4390" data-name="Path 4390" d="M1048.379,1832.371a11.959,11.959,0,1,0,11.959-11.959,11.958,11.958,0,0,0-11.959,11.959" transform="translate(-825.316 -1494.277)" fill="#00853b"/>
      <path id="Path_4391" data-name="Path 4391" d="M1085.32,1836.14c.348.763,1.746.874,3.123.246s2.21-1.755,1.862-2.518-1.746-.874-3.123-.246-2.21,1.755-1.862,2.518" transform="translate(-857.063 -1505.302)" fill="#c1e2cd"/>
      <path id="Path_4392" data-name="Path 4392" d="M1065.657,1860.519c.271.32.959.184,1.537-.3s.826-1.143.555-1.464-.959-.184-1.536.3-.826,1.144-.556,1.465" transform="translate(-840.102 -1527.145)" fill="#c1e2cd"/>
      <path id="Path_4393" data-name="Path 4393" d="M1073.8,1888.177a12.411,12.411,0,0,0,12.411-12.411c0-.109,0-.218,0-.326a11.209,11.209,0,0,1-19.832,10.272,12.356,12.356,0,0,0,7.425,2.465" transform="translate(-840.817 -1541.668)" fill="#1b612c"/>
      <path id="Path_4394" data-name="Path 4394" d="M131.157,1604.3a11.959,11.959,0,1,0,11.959-11.959,11.959,11.959,0,0,0-11.959,11.959" transform="translate(-35.375 -1297.852)" fill="#ed92bd"/>
      <path id="Path_4395" data-name="Path 4395" d="M168.1,1608.067c.348.763,1.746.873,3.123.246s2.211-1.755,1.863-2.518-1.746-.874-3.123-.246-2.211,1.755-1.863,2.519" transform="translate(-67.123 -1308.877)" fill="#f7cfe2"/>
      <path id="Path_4396" data-name="Path 4396" d="M148.436,1632.445c.271.32.959.184,1.536-.3s.827-1.143.556-1.464-.958-.184-1.536.3-.827,1.145-.556,1.465" transform="translate(-50.161 -1330.72)" fill="#f7cfe2"/>
      <path id="Path_4397" data-name="Path 4397" d="M156.581,1660.1a12.411,12.411,0,0,0,12.411-12.411c0-.109,0-.218,0-.326a11.209,11.209,0,0,1-19.832,10.271,12.354,12.354,0,0,0,7.425,2.465" transform="translate(-50.876 -1345.244)" fill="#e761a0"/>
      <path id="Path_4398" data-name="Path 4398" d="M103.9,1749.591a11.959,11.959,0,1,0,11.959-11.959,11.959,11.959,0,0,0-11.959,11.959" transform="translate(-11.898 -1422.983)" fill="#008c55"/>
      <path id="Path_4399" data-name="Path 4399" d="M140.842,1753.357c.348.764,1.746.874,3.123.246s2.21-1.755,1.862-2.518-1.746-.874-3.123-.246-2.211,1.755-1.863,2.518" transform="translate(-43.648 -1434.007)" fill="#acdbd3"/>
      <path id="Path_4400" data-name="Path 4400" d="M121.179,1777.735c.271.321.959.184,1.536-.3s.827-1.144.556-1.464-.959-.184-1.536.3-.827,1.144-.556,1.464" transform="translate(-26.688 -1455.849)" fill="#acdbd3"/>
      <path id="Path_4401" data-name="Path 4401" d="M129.325,1805.4a12.411,12.411,0,0,0,12.411-12.411c0-.109,0-.217,0-.325a11.209,11.209,0,0,1-19.832,10.272,12.36,12.36,0,0,0,7.425,2.465" transform="translate(-27.402 -1470.374)" fill="#007555"/>
      <path id="Path_4402" data-name="Path 4402" d="M1327.3,1948.178a11.959,11.959,0,1,0,11.959-11.959,11.959,11.959,0,0,0-11.959,11.959" transform="translate(-1065.527 -1594.012)" fill="#ffc600"/>
      <path id="Path_4403" data-name="Path 4403" d="M1364.238,1951.947c.348.763,1.746.874,3.123.246s2.211-1.755,1.863-2.519-1.746-.874-3.123-.246-2.211,1.755-1.863,2.519" transform="translate(-1097.276 -1605.038)" fill="#fff58f"/>
      <path id="Path_4404" data-name="Path 4404" d="M1344.574,1976.326c.271.321.959.184,1.536-.3s.827-1.144.556-1.464-.959-.184-1.536.3-.827,1.144-.556,1.464" transform="translate(-1080.314 -1626.882)" fill="#fff58f"/>
      <path id="Path_4405" data-name="Path 4405" d="M1352.72,2003.983a12.411,12.411,0,0,0,12.411-12.411c0-.109,0-.218,0-.325a11.209,11.209,0,0,1-19.832,10.272,12.36,12.36,0,0,0,7.425,2.464" transform="translate(-1081.029 -1641.404)" fill="#f19700"/>
      <path id="Path_4406" data-name="Path 4406" d="M765.12,1830.792a11.959,11.959,0,1,0,11.959-11.959,11.959,11.959,0,0,0-11.959,11.959" transform="translate(-581.364 -1492.916)" fill="#00aec8"/>
      <path id="Path_4407" data-name="Path 4407" d="M802.065,1834.56c.348.763,1.746.874,3.123.247s2.21-1.756,1.862-2.52-1.746-.874-3.123-.246-2.21,1.755-1.863,2.518" transform="translate(-613.114 -1503.941)" fill="#97d7e7"/>
      <path id="Path_4408" data-name="Path 4408" d="M782.4,1858.939c.271.32.959.184,1.537-.3s.826-1.144.555-1.464-.958-.184-1.536.3-.826,1.144-.556,1.465" transform="translate(-596.153 -1525.784)" fill="#97d7e7"/>
      <path id="Path_4409" data-name="Path 4409" d="M790.547,1886.6a12.411,12.411,0,0,0,12.411-12.411c0-.109,0-.217,0-.326a11.209,11.209,0,0,1-19.832,10.272,12.357,12.357,0,0,0,7.425,2.465" transform="translate(-596.868 -1540.306)" fill="#008090"/>
      <path id="Path_4410" data-name="Path 4410" d="M282.559,1679.874a11.959,11.959,0,1,0,11.959-11.959,11.959,11.959,0,0,0-11.959,11.959" transform="translate(-165.767 -1362.94)" fill="#6a398d"/>
      <path id="Path_4411" data-name="Path 4411" d="M319.5,1683.642c.348.764,1.746.874,3.123.247s2.21-1.756,1.862-2.519-1.746-.874-3.123-.246-2.21,1.755-1.862,2.518" transform="translate(-197.515 -1373.966)" fill="#c09bc7"/>
      <path id="Path_4412" data-name="Path 4412" d="M299.839,1708.021c.271.321.959.185,1.536-.3s.827-1.144.556-1.464-.958-.184-1.537.3-.826,1.144-.555,1.464" transform="translate(-180.555 -1395.809)" fill="#c09bc7"/>
      <path id="Path_4413" data-name="Path 4413" d="M307.984,1735.678a12.411,12.411,0,0,0,12.411-12.411c0-.109,0-.218,0-.326a11.209,11.209,0,0,1-19.832,10.272,12.358,12.358,0,0,0,7.425,2.465" transform="translate(-181.269 -1410.33)" fill="#532375"/>
      <path id="Path_4414" data-name="Path 4414" d="M740.171,1330.842a11.959,11.959,0,1,0,11.959-11.959,11.959,11.959,0,0,0-11.959,11.959" transform="translate(-559.877 -1062.343)" fill="#6a398d"/>
      <path id="Path_4415" data-name="Path 4415" d="M777.115,1334.611c.348.764,1.746.874,3.123.246s2.211-1.755,1.863-2.519-1.746-.873-3.123-.246-2.211,1.755-1.863,2.518" transform="translate(-591.627 -1073.369)" fill="#c09bc7"/>
      <path id="Path_4416" data-name="Path 4416" d="M757.452,1358.99c.271.321.959.185,1.536-.3s.826-1.144.555-1.464-.958-.185-1.536.3-.826,1.144-.555,1.465" transform="translate(-574.666 -1095.213)" fill="#c09bc7"/>
      <path id="Path_4417" data-name="Path 4417" d="M765.6,1386.646a12.412,12.412,0,0,0,12.412-12.411c0-.109,0-.218,0-.325a11.209,11.209,0,0,1-19.832,10.272,12.358,12.358,0,0,0,7.425,2.465" transform="translate(-575.381 -1109.733)" fill="#532375"/>
      <path id="Path_4418" data-name="Path 4418" d="M912.288,1962.53a11.959,11.959,0,1,0,11.959-11.959,11.959,11.959,0,0,0-11.959,11.959" transform="translate(-708.11 -1606.373)" fill="#6a398d"/>
      <path id="Path_4419" data-name="Path 4419" d="M949.231,1966.3c.348.764,1.746.874,3.123.246s2.211-1.755,1.863-2.519-1.746-.874-3.123-.246-2.211,1.755-1.863,2.518" transform="translate(-739.858 -1617.401)" fill="#c09bc7"/>
      <path id="Path_4420" data-name="Path 4420" d="M929.567,1990.68c.271.32.959.184,1.536-.3s.827-1.144.556-1.464-.959-.185-1.536.3-.827,1.144-.556,1.464" transform="translate(-722.897 -1639.243)" fill="#c09bc7"/>
      <path id="Path_4421" data-name="Path 4421" d="M937.714,2018.338a12.411,12.411,0,0,0,12.412-12.412q0-.163,0-.325a11.209,11.209,0,0,1-19.832,10.271,12.358,12.358,0,0,0,7.424,2.465" transform="translate(-723.614 -1653.767)" fill="#532375"/>
      <path id="Path_4422" data-name="Path 4422" d="M191.091,1852.436a11.959,11.959,0,1,0,11.959-11.959,11.959,11.959,0,0,0-11.959,11.959" transform="translate(-86.991 -1511.557)" fill="#e62353"/>
      <path id="Path_4423" data-name="Path 4423" d="M228.033,1856.2c.348.764,1.746.874,3.123.246s2.211-1.755,1.862-2.518-1.746-.874-3.122-.247-2.211,1.755-1.863,2.519" transform="translate(-118.739 -1522.582)" fill="#f5b6c9"/>
      <path id="Path_4424" data-name="Path 4424" d="M208.368,1880.585c.271.32.959.184,1.537-.3s.826-1.144.556-1.464-.959-.184-1.537.3-.827,1.143-.556,1.464" transform="translate(-101.777 -1544.427)" fill="#f5b6c9"/>
      <path id="Path_4425" data-name="Path 4425" d="M216.514,1908.241a12.411,12.411,0,0,0,12.411-12.411q0-.163,0-.325a11.209,11.209,0,0,1-19.832,10.271,12.357,12.357,0,0,0,7.425,2.465" transform="translate(-102.492 -1558.948)" fill="#c90042"/>
      <path id="Path_4426" data-name="Path 4426" d="M361.527,1889.737a11.959,11.959,0,1,0,11.959-11.959,11.959,11.959,0,0,0-11.959,11.959" transform="translate(-233.776 -1543.681)" fill="#00aec8"/>
      <path id="Path_4427" data-name="Path 4427" d="M398.471,1893.505c.348.764,1.746.874,3.123.246s2.21-1.755,1.862-2.518-1.746-.874-3.123-.247-2.211,1.755-1.862,2.519" transform="translate(-265.526 -1554.706)" fill="#97d7e7"/>
      <path id="Path_4428" data-name="Path 4428" d="M378.806,1917.885c.271.321.959.184,1.537-.3s.826-1.144.556-1.464-.959-.184-1.536.3-.826,1.144-.556,1.464" transform="translate(-248.564 -1576.551)" fill="#97d7e7"/>
      <path id="Path_4429" data-name="Path 4429" d="M386.952,1945.543a12.411,12.411,0,0,0,12.411-12.411q0-.164,0-.325a11.209,11.209,0,0,1-19.832,10.272,12.355,12.355,0,0,0,7.425,2.465" transform="translate(-249.279 -1591.073)" fill="#008090"/>
      <path id="Path_4430" data-name="Path 4430" d="M545.04,1923.268A11.959,11.959,0,1,0,557,1911.309a11.959,11.959,0,0,0-11.959,11.959" transform="translate(-391.824 -1572.559)" fill="#ffc600"/>
      <path id="Path_4431" data-name="Path 4431" d="M581.986,1927.037c.347.763,1.746.874,3.123.247s2.21-1.755,1.863-2.519-1.746-.874-3.123-.246-2.211,1.755-1.863,2.518" transform="translate(-423.575 -1583.586)" fill="#fff58f"/>
      <path id="Path_4432" data-name="Path 4432" d="M562.32,1951.417c.271.321.959.185,1.537-.3s.826-1.144.555-1.464-.959-.185-1.536.3-.827,1.144-.556,1.464" transform="translate(-406.612 -1605.43)" fill="#fff58f"/>
      <path id="Path_4433" data-name="Path 4433" d="M570.467,1979.072a12.411,12.411,0,0,0,12.411-12.411c0-.11,0-.218,0-.326a11.209,11.209,0,0,1-19.832,10.272,12.356,12.356,0,0,0,7.425,2.465" transform="translate(-407.328 -1619.95)" fill="#f19700"/>
      <path id="Path_4434" data-name="Path 4434" d="M724.031,1938.229a11.959,11.959,0,1,0,11.959-11.959,11.959,11.959,0,0,0-11.959,11.959" transform="translate(-545.977 -1585.444)" fill="#e62353"/>
      <path id="Path_4435" data-name="Path 4435" d="M760.974,1942c.348.763,1.746.874,3.123.246s2.211-1.755,1.863-2.518-1.746-.874-3.123-.246-2.211,1.755-1.863,2.518" transform="translate(-577.725 -1596.471)" fill="#f5b6c9"/>
      <path id="Path_4436" data-name="Path 4436" d="M741.309,1966.378c.271.32.959.184,1.536-.3s.827-1.143.556-1.464-.959-.184-1.537.3-.826,1.144-.556,1.465" transform="translate(-560.763 -1618.314)" fill="#f5b6c9"/>
      <path id="Path_4437" data-name="Path 4437" d="M749.456,1994.034a12.411,12.411,0,0,0,12.411-12.411q0-.163,0-.325a11.209,11.209,0,0,1-19.832,10.272,12.357,12.357,0,0,0,7.425,2.465" transform="translate(-561.479 -1632.836)" fill="#c90042"/>
      <path id="Path_4438" data-name="Path 4438" d="M1137.118,1949.76a11.959,11.959,0,1,0,11.959-11.959,11.958,11.958,0,0,0-11.959,11.959" transform="translate(-901.741 -1595.375)" fill="#ed92bd"/>
      <path id="Path_4439" data-name="Path 4439" d="M1174.06,1953.529c.348.763,1.746.874,3.123.246s2.211-1.755,1.863-2.519-1.746-.874-3.123-.247-2.211,1.755-1.863,2.519" transform="translate(-933.489 -1606.401)" fill="#f7cfe2"/>
      <path id="Path_4440" data-name="Path 4440" d="M1154.4,1977.909c.271.321.959.185,1.537-.3s.826-1.144.556-1.464-.959-.184-1.536.3-.827,1.144-.556,1.464" transform="translate(-916.527 -1628.246)" fill="#f7cfe2"/>
      <path id="Path_4441" data-name="Path 4441" d="M1162.543,2005.566a12.411,12.411,0,0,0,12.411-12.411c0-.109,0-.218,0-.326a11.209,11.209,0,0,1-19.832,10.272,12.359,12.359,0,0,0,7.425,2.465" transform="translate(-917.243 -1642.767)" fill="#e761a0"/>
      <path id="Path_4442" data-name="Path 4442" d="M1756.406,1713.1a11.959,11.959,0,1,0,11.959-11.958,11.959,11.959,0,0,0-11.959,11.958" transform="translate(-1435.091 -1391.559)" fill="#e62353"/>
      <path id="Path_4443" data-name="Path 4443" d="M1793.35,1716.872c.348.763,1.746.873,3.123.246s2.211-1.755,1.863-2.518-1.746-.874-3.122-.246-2.211,1.754-1.863,2.518" transform="translate(-1466.841 -1402.584)" fill="#f5b6c9"/>
      <path id="Path_4444" data-name="Path 4444" d="M1773.686,1741.25c.271.321.959.184,1.537-.3s.827-1.144.556-1.464-.959-.184-1.536.3-.827,1.143-.556,1.464" transform="translate(-1449.879 -1424.426)" fill="#f5b6c9"/>
      <path id="Path_4445" data-name="Path 4445" d="M1781.833,1768.907a12.411,12.411,0,0,0,12.411-12.411c0-.109,0-.217,0-.325a11.209,11.209,0,0,1-19.832,10.272,12.355,12.355,0,0,0,7.425,2.465" transform="translate(-1450.595 -1438.949)" fill="#c90042"/>
      <path id="Path_4446" data-name="Path 4446" d="M1941.744,1723.278a11.959,11.959,0,1,0,11.959-11.959,11.959,11.959,0,0,0-11.959,11.959" transform="translate(-1594.711 -1400.322)" fill="#ed92bd"/>
      <path id="Path_4447" data-name="Path 4447" d="M1978.688,1727.046c.348.764,1.746.874,3.123.247s2.211-1.755,1.863-2.518-1.747-.874-3.123-.247-2.211,1.755-1.863,2.518" transform="translate(-1626.46 -1411.347)" fill="#f7cfe2"/>
      <path id="Path_4448" data-name="Path 4448" d="M1959.024,1751.425c.271.32.959.184,1.536-.3s.827-1.144.556-1.464-.958-.185-1.536.3-.827,1.144-.556,1.465" transform="translate(-1609.499 -1433.19)" fill="#f7cfe2"/>
      <path id="Path_4449" data-name="Path 4449" d="M1967.169,1779.082a12.411,12.411,0,0,0,12.411-12.411q0-.164,0-.326a11.209,11.209,0,0,1-19.832,10.271,12.355,12.355,0,0,0,7.425,2.465" transform="translate(-1610.212 -1447.712)" fill="#e761a0"/>
      <path id="Path_4450" data-name="Path 4450" d="M1835.482,1856.089a11.959,11.959,0,1,0,11.959-11.958,11.959,11.959,0,0,0-11.959,11.958" transform="translate(-1503.194 -1514.703)" fill="#00aec8"/>
      <path id="Path_4451" data-name="Path 4451" d="M1872.427,1859.857c.348.764,1.746.874,3.123.246s2.21-1.755,1.863-2.518-1.746-.874-3.123-.246-2.21,1.755-1.863,2.519" transform="translate(-1534.944 -1525.727)" fill="#97d7e7"/>
      <path id="Path_4452" data-name="Path 4452" d="M1852.763,1884.235c.271.32.959.184,1.537-.3s.826-1.144.555-1.464-.959-.185-1.536.3-.826,1.144-.556,1.464" transform="translate(-1517.983 -1547.57)" fill="#97d7e7"/>
      <path id="Path_4453" data-name="Path 4453" d="M1860.909,1911.892a12.411,12.411,0,0,0,12.411-12.411q0-.163,0-.325a11.209,11.209,0,0,1-19.832,10.272,12.357,12.357,0,0,0,7.425,2.464" transform="translate(-1518.698 -1562.093)" fill="#008090"/>
      <path id="Path_4454" data-name="Path 4454" d="M1668.744,1887.177a11.959,11.959,0,1,0,11.959-11.959,11.959,11.959,0,0,0-11.959,11.959" transform="translate(-1359.594 -1541.477)" fill="#ed92bd"/>
      <path id="Path_4455" data-name="Path 4455" d="M1705.688,1890.944c.348.763,1.746.874,3.123.246s2.211-1.755,1.863-2.519-1.746-.874-3.123-.246-2.211,1.755-1.863,2.518" transform="translate(-1391.343 -1552.501)" fill="#f7cfe2"/>
      <path id="Path_4456" data-name="Path 4456" d="M1686.023,1915.323c.271.32.959.184,1.536-.3s.827-1.144.556-1.464-.958-.184-1.536.3-.827,1.144-.556,1.465" transform="translate(-1374.381 -1574.344)" fill="#f7cfe2"/>
      <path id="Path_4457" data-name="Path 4457" d="M1694.169,1942.981a12.411,12.411,0,0,0,12.411-12.411q0-.164,0-.325a11.209,11.209,0,0,1-19.832,10.272,12.36,12.36,0,0,0,7.425,2.464" transform="translate(-1375.096 -1588.868)" fill="#e761a0"/>
      <path id="Path_4458" data-name="Path 4458" d="M1372.237,1535.373c-.382-.045-10.367-4.2-10.367-4.2l-2.831,7.554,12.82,4.229Z" transform="translate(-1092.866 -1245.176)" fill="#fdb993"/>
      <path id="Path_4459" data-name="Path 4459" d="M867.952,1434.415s22.768,8.367,29.968,13.233c-3.7,5.059-4.865,11.092-3.308,14.4-11.286-3.7-35.805-10.313-38.529-10.118s-32.314,8.954-33.871,8.37c.194-4.865-4.475-11.542-6.421-13.1,9.73-5.059,24.724-12.2,24.724-12.2Z" transform="translate(-625.003 -1161.843)" fill="#09a8f9"/>
      <path id="Path_4460" data-name="Path 4460" d="M1434.734,1492.977c-5.313-1.89-8.614,5.678-9.621,8.188s-2.946,9.523-1.933,11.331,5.38,4.421,7.036,3.741,7.149-22.323,4.519-23.259" transform="translate(-1147.861 -1212.02)" fill="#9d29b2"/>
      <path id="Path_4461" data-name="Path 4461" d="M1469.923,1498.594c-.683-4.942-8.535-6.219-9.46-.663s-4.469,15.691-3.609,18.165,6.7,4.9,10.45-1.686c2.949-5.179,3.37-10.388,2.62-15.816" transform="translate(-1176.992 -1213.411)" fill="#eae4ea"/>
      <path id="Path_4462" data-name="Path 4462" d="M1485.967,1503c-.671-4.853-8.382-6.108-9.292-.65s-4.39,15.411-3.544,17.84,6.577,4.818,10.263-1.656c2.9-5.086,3.31-10.2,2.573-15.534" transform="translate(-1191.013 -1217.275)" fill="#b58159"/>
      <path id="Path_4463" data-name="Path 4463" d="M1350.589,1507.051c-2.394-2.155-5.137-3.211-6.036-2.954s-7.834,8.348-5.394,16.952c1.285.771,6.678,2.312,6.678,1.927s.771-9.76,4.752-15.925" transform="translate(-1075.3 -1221.823)" fill="#04948b"/>
      <path id="Path_4464" data-name="Path 4464" d="M757.559,1535.373c.383-.045,10.367-4.2,10.367-4.2l2.831,7.554-12.82,4.229Z" transform="translate(-574.852 -1245.176)" fill="#fdb993"/>
      <path id="Path_4465" data-name="Path 4465" d="M699.145,1492.977c5.313-1.89,8.613,5.678,9.621,8.188s2.946,9.523,1.933,11.331-5.38,4.421-7.036,3.741-7.149-22.323-4.518-23.259" transform="translate(-523.939 -1212.02)" fill="#9d29b2"/>
      <path id="Path_4466" data-name="Path 4466" d="M657.827,1498.594c.683-4.942,8.535-6.219,9.461-.663s4.469,15.691,3.609,18.165-6.7,4.9-10.45-1.686c-2.949-5.179-3.37-10.388-2.619-15.816" transform="translate(-488.68 -1213.411)" fill="#eae4ea"/>
      <path id="Path_4467" data-name="Path 4467" d="M643.282,1503c.671-4.853,8.382-6.108,9.291-.65s4.39,15.411,3.545,17.84-6.577,4.818-10.263-1.656c-2.9-5.086-3.31-10.2-2.573-15.534" transform="translate(-476.158 -1217.275)" fill="#b58159"/>
      <path id="Path_4468" data-name="Path 4468" d="M786.973,1507.051c2.394-2.155,5.137-3.211,6.036-2.954s7.834,8.348,5.394,16.952c-1.284.771-6.678,2.312-6.678,1.927s-.77-9.76-4.752-15.925" transform="translate(-600.184 -1221.823)" fill="#04948b"/>
      <path id="Path_4469" data-name="Path 4469" d="M1211.3,911.455s16.832-.906,31.4-30.149c2.316.263,4.111-1.672,5.946-4.714,1.968-1.749,3.007-3.275,2.178-3.893-.857-.637-2.882,1.479-3.46,1.934.051-.11,2.249-2.973,2.689-3.639,1.019-1.545-.325-2.713-1.448-1.546-.933.985-2.932,3.38-3.043,3.5.061-.151,1.9-3.435,2.246-4.031,1.028-1.773-.792-3.162-2.013-1.16-.827,1.363-2.194,3.808-2.368,3.984-.029-.122.537-2.171.786-3.41.4-2.037-1.279-2.66-2.134-.449-.673,1.747-2.478,5.857-2.478,5.857s-1.554-2.658-3.011-1.777,1.4,5.446,1.4,5.446-6.419,21.618-28.94,27.615c-3.947,3.882,2.254,6.427,2.254,6.427" transform="translate(-962.554 -672.729)" fill="#fdb993"/>
      <path id="Path_4470" data-name="Path 4470" d="M680,995.285a72.7,72.7,0,0,1-38.248-20.765c-2.172.868-4.417-.526-6.985-2.977-2.36-1.161-3.767-2.361-3.133-3.174.661-.841,3.171.667,3.847.952-.074-.094-2.952-2.274-3.549-2.8-1.395-1.222-.408-2.7.98-1.872,1.165.7,3.721,2.482,3.859,2.565-.094-.124-2.735-2.806-3.231-3.293-1.456-1.432-.072-3.257,1.636-1.643,1.156,1.091,3.123,3.09,3.338,3.214-.006-.127-1.094-1.954-1.657-3.079-.931-1.857.523-2.908,1.936-1,1.112,1.51,3.941,4.994,3.941,4.994s.791-2.979,2.429-2.512.1,5.62.1,5.62,12.44,14.514,35.216,18.969c4.834,2.7-.476,6.8-.476,6.8" transform="translate(-466.074 -753.608)" fill="#fdb993"/>
      <path id="Path_4471" data-name="Path 4471" d="M700.031,1005.562a.153.153,0,0,1-.106-.077c-1.128-1.739.188-3.308,1.144-3.964a.165.165,0,0,1,.238.043.183.183,0,0,1-.037.252c-.856.576-2.031,1.968-1.051,3.481a.171.171,0,0,1-.051.236.176.176,0,0,1-.138.028" transform="translate(-524.842 -788.993)" fill="#c36141"/>
      <path id="Path_4472" data-name="Path 4472" d="M1015.773,1105.2s4.293-1.016,7.061-2.049a26.849,26.849,0,0,0-.737-6.074l5.24-.913s.753,4.682.822,6.576c3.905.717,9.128,1.318,9.128,1.318s3.491,11.83-9.944,12.252c-3.537.114-11.793-5.588-11.569-11.111" transform="translate(-797.231 -870.526)" fill="#fdb993"/>
      <path id="Path_4473" data-name="Path 4473" d="M1033.419,1103.946a38.767,38.767,0,0,1-17.64,1.8,5.235,5.235,0,0,1-.007-.548s4.294-1.016,7.061-2.049a26.844,26.844,0,0,0-.737-6.074l5.24-.913s.754,4.682.822,6.576c1.964.361,4.26.692,6.059.932-.265.1-.531.188-.8.278" transform="translate(-797.23 -870.526)" fill="#ec9c73"/>
      <path id="Path_4474" data-name="Path 4474" d="M906.343,1125.318c5.289,14.869-18.949,16.057-18.883,1.681-2.133-.021-6.933-1.493-12.362-4.472-1.22,5.339-7.081,6.539-8.022,10.117,3.378,2.654,8.8,5.6,13.783,5.724,1.755,5.159-.627,26.168-1.33,27.374a70.075,70.075,0,0,0,40.43-.678c.008,0-3.867-26.89-3.417-27.344a21.257,21.257,0,0,0,10.011-5.889c-1.338-5.43-5.547-8.79-6.926-10.67a30.3,30.3,0,0,1-13.285,4.157" transform="translate(-669.172 -892.058)" fill="#ffbf05"/>
      <path id="Path_4475" data-name="Path 4475" d="M1027.043,1146.888c.778,4.236.128,9.817-6.333,9.774-5.692-.036-8.065-2.929-8.031-8.582a20.371,20.371,0,0,0-3.891.847s.2,12.289,12.547,11.652c11.728-.606,9.558-13.334,9.558-13.334Z" transform="translate(-791.219 -914.215)" fill="#e62353"/>
      <path id="Path_4476" data-name="Path 4476" d="M1243.929,1105.218s6.07,6.543,7.009,11.616a16.012,16.012,0,0,1-2.4,2.085s-3.429-7.287-7.485-11.694a9.369,9.369,0,0,0,2.879-2.008" transform="translate(-991.25 -878.328)" fill="#e62353"/>
      <path id="Path_4477" data-name="Path 4477" d="M858.831,1132.868s4.178-7.872,7.891-11.453a17.15,17.15,0,0,1,2.945,2.058c-1.794,1.5-4.819,5.434-7.313,11.235-1.482-.817-3.522-1.84-3.522-1.84" transform="translate(-662.071 -892.277)" fill="#e62353"/>
      <path id="Path_4478" data-name="Path 4478" d="M697.075,930.158c-.3.4.153,6.751,5.887,8.166-3.63,1.307-2.371,6.114,1.5,8.076-4.627-.194-4.681,3.478-3.623,6.347-4.277-2.265-8.105,2.163-5.79,5.8-3.479,3.37-8.756,3.339-15.706,1.516,1.42,2.831,9,4.621,9,4.621a18.338,18.338,0,0,1-8.251,2.347c7.543,3.029,14.545,3.8,18.683-5.562,2.826,1.269,6.465-1.746,4.9-5.623a5.033,5.033,0,0,0,5.217-8.385c6.244-1.612,8.395-9.065,2.052-11.338,7.987-3.84,3.062-14.75-2.746-16.449-12.806-1.2-11.122,10.483-11.122,10.483" transform="translate(-507.492 -718.457)" fill="#502a31"/>
      <path id="Path_4479" data-name="Path 4479" d="M774,1194.511s-3.255.891-2.488,3.1c.947,3.121,4.53,3.667,4.53,3.667s2.021-.063,2.384-2.977c-1.667-.55-4.426-3.789-4.426-3.789" transform="translate(-586.768 -955.229)" fill="#ffb000"/>
      <path id="Path_4480" data-name="Path 4480" d="M1246.971,876.9c.381.322,1.407,6.6-3.845,9.3,3.832.436,3.714,5.4.4,8.205,4.457-1.256,5.357,2.305,4.988,5.341,3.641-3.189,8.386.236,6.971,4.311,4.162,2.477,9.29,1.23,15.633-2.145-.729,3.082-7.689,6.571-7.689,6.571a18.318,18.318,0,0,0,8.57.381c-6.641,4.686-13.279,7.053-19.463-1.106-2.459,1.887-6.693-.207-6.064-4.342a5.033,5.033,0,0,1-7.009-6.956c-6.449-.129-10.259-6.887-4.61-10.561-8.657-1.9-6.379-13.648-1.118-16.639,5.779-2.463,13.238,7.638,13.238,7.638" transform="translate(-980.928 -674.779)" fill="#502a31"/>
      <path id="Path_4481" data-name="Path 4481" d="M1399.095,1116.2s3.372.117,3.136,2.443c-.2,3.255-3.563,4.611-3.563,4.611s-1.982.4-3.007-2.347c1.5-.921,3.434-4.707,3.434-4.707" transform="translate(-1124.406 -887.783)" fill="#ffb000"/>
      <path id="Path_4482" data-name="Path 4482" d="M650.337,748.5c-6.023,1.687-21.36,7.688-15.788,15.54,5.152,7.26,24.591,4.216,24.591,4.216Z" transform="translate(-467.881 -571.11)" fill="#ec3b95"/>
      <path id="Path_4483" data-name="Path 4483" d="M729.689,602.854c4.631-17.659,37.093-19.982,37.093-19.982s36.382-7.753,43.318,12.362c10.172,2.459,9.506,13.293,3.608,13.892,6,1.4,3.023,13.305-6.477,14.132,0,0-22.436,1.358-35.218,1.645-12.578,2.292-34.828,5.478-34.828,5.478-9.472,1.1-14.782-9.964-9.192-12.537-5.9.6-6.013-10.759,1.7-14.991" transform="translate(-545.71 -427.201)" fill="#502a31"/>
      <path id="Path_4484" data-name="Path 4484" d="M894.22,677.171c2.007,19.766-12.081,34.491-31.116,36.423s-35.8-9.66-37.8-29.429,11.864-36.644,30.9-38.576,36.015,11.816,38.02,31.582" transform="translate(-633.028 -482.324)" fill="#fdb993"/>
      <path id="Path_4485" data-name="Path 4485" d="M1313.36,842.787s.055-4.062,4.829-5.254c5.034-1.25,7.932,5.194,5.705,9.55s-7.908,5.15-10.082,2.245Z" transform="translate(-1053.526 -647.653)" fill="#fdb993"/>
      <path id="Path_4486" data-name="Path 4486" d="M1336.172,850.176c-3.4-.128-5.276,6.083-.354,8.5-2.473-3.862-.932-5.519,1.725-3.878-.214-1.343-1.16-2.078-3.14-1.653a3.771,3.771,0,0,1,1.769-2.965" transform="translate(-1070.285 -658.675)" fill="#ca6f51"/>
      <path id="Path_4487" data-name="Path 4487" d="M766.6,899.1s-.871-3.968-5.786-4.173c-5.184-.214-6.727,6.682-3.673,10.5s8.782,3.456,10.328.174Z" transform="translate(-573.153 -697.209)" fill="#fdb993"/>
      <path id="Path_4488" data-name="Path 4488" d="M784.394,907.667c3.307-.808,6.391,4.9,2.054,8.251,1.648-4.28-.2-5.593-2.466-3.453-.061-1.357.716-2.267,2.74-2.25a3.774,3.774,0,0,0-2.328-2.548" transform="translate(-597.605 -708.124)" fill="#ca6f51"/>
      <path id="Path_4492" data-name="Path 4492" d="M922.62,618.432c7.766,6.711,5.67,10,2.224,9.567-5.487-.692-9.356-8.007-9.356-8.007s4.243,8.942-4.648,7.555a12.9,12.9,0,0,1-10.72-9.118s-1.028,11.635-10.454,11.134c-5.32-.282-2.062-9.237-2.062-9.237s-5.08,12.813-10.44,10.02c-8.359-4.358,11.744-19.736,23.4-19.879s22.059,7.964,22.059,7.964" transform="translate(-676.157 -452.232)" fill="#502a31"/>
      <path id="Path_4500" data-name="Path 4500" d="M1013.33,427.394c-2.546-3.589-8.352-5.03-10.011.433a99.371,99.371,0,0,0,10.011-.433" transform="translate(-786.509 -291.818)" fill="#005cab"/>
      <path id="Path_4501" data-name="Path 4501" d="M753.157,485.132c22-5.768,62.631-7.558,84.768-8.3-.869-6.539-2.783-21.465-13.209-28.3-6.675-4.376-19.172-6.747-31.12-5.577-12.128,1.187-24.431,4.939-30.623,9.664-9.907,7.558-9.7,21.9-9.816,32.516m32.665-16.812a89.922,89.922,0,0,0,19.8-1.572c3.349-.647,6.915,6.123.78,7.727-9.081,2.372-16.783,2.359-20.986,1.466s-3.022-7.6.408-7.621" transform="translate(-571.061 -307.707)" fill="#ec3b95"/>
      <path id="Path_4502" data-name="Path 4502" d="M1053.133,1289.854c1.079-.3.618-5.422,2.38-5.035,1.02.22.687,4.468,1.876,4.709,1.42.288,4.48-1.253,4.641-.245.226,1.453-4.831,2.468-3.857,3.726,1.42,1.831,2.98,4.118,2.338,4.632-1.159.934-3.8-3-5.349-3.151-1.726-.165-5.352,4.835-5.789,3.117-.316-1.234,3.078-4.035,2.394-4.966-1.324-1.8-4.417-3.533-3.047-3.927s3.411,1.419,4.413,1.142" transform="translate(-825.315 -1032.988)" fill="#fff"/>
      <path id="Path_4503" data-name="Path 4503" d="M535.529,896.015a11.959,11.959,0,1,0,11.959-11.959,11.958,11.958,0,0,0-11.959,11.959" transform="translate(-383.633 -687.856)" fill="#008c55"/>
      <path id="Path_4504" data-name="Path 4504" d="M572.474,899.783c.348.764,1.746.874,3.123.246s2.211-1.755,1.863-2.518-1.746-.874-3.123-.246-2.211,1.755-1.863,2.519" transform="translate(-415.382 -698.882)" fill="#acdbd3"/>
      <path id="Path_4505" data-name="Path 4505" d="M552.81,924.163c.271.321.959.185,1.537-.3s.827-1.143.556-1.464-.959-.184-1.537.3-.826,1.144-.556,1.464" transform="translate(-398.421 -720.725)" fill="#acdbd3"/>
      <path id="Path_4506" data-name="Path 4506" d="M560.956,951.821a12.411,12.411,0,0,0,12.411-12.411c0-.109,0-.217,0-.326a11.209,11.209,0,0,1-19.832,10.271,12.356,12.356,0,0,0,7.425,2.465" transform="translate(-399.137 -735.248)" fill="#007555"/>
      <path id="Path_4507" data-name="Path 4507" d="M1409.232,468.216a11.959,11.959,0,1,0,11.959-11.959,11.959,11.959,0,0,0-11.959,11.959" transform="translate(-1136.094 -319.421)" fill="#ffc600"/>
      <path id="Path_4508" data-name="Path 4508" d="M1446.177,471.985c.348.764,1.746.874,3.123.247s2.21-1.755,1.862-2.519-1.746-.874-3.123-.247-2.211,1.755-1.863,2.518" transform="translate(-1167.844 -330.448)" fill="#fff58f"/>
      <path id="Path_4509" data-name="Path 4509" d="M1426.51,496.364c.271.32.959.184,1.537-.3s.826-1.144.556-1.465-.959-.184-1.536.3-.827,1.144-.556,1.464" transform="translate(-1150.88 -352.291)" fill="#fff58f"/>
      <path id="Path_4510" data-name="Path 4510" d="M1434.658,524.021a12.411,12.411,0,0,0,12.411-12.411c0-.109,0-.217,0-.325a11.209,11.209,0,0,1-19.832,10.272,12.356,12.356,0,0,0,7.425,2.465" transform="translate(-1151.597 -366.813)" fill="#f19700"/>
      <path id="Path_4511" data-name="Path 4511" d="M1410,792.449a11.959,11.959,0,1,0,11.959-11.959A11.958,11.958,0,0,0,1410,792.449" transform="translate(-1136.757 -598.661)" fill="#ed92bd"/>
      <path id="Path_4512" data-name="Path 4512" d="M1446.946,796.218c.348.764,1.746.874,3.122.246s2.211-1.755,1.863-2.518-1.746-.874-3.123-.247-2.211,1.755-1.863,2.518" transform="translate(-1168.506 -609.688)" fill="#f7cfe2"/>
      <path id="Path_4513" data-name="Path 4513" d="M1427.282,820.6c.271.32.959.184,1.537-.3s.827-1.144.556-1.464-.959-.184-1.536.3-.826,1.144-.556,1.465" transform="translate(-1151.545 -631.53)" fill="#f7cfe2"/>
      <path id="Path_4514" data-name="Path 4514" d="M1435.427,848.254a12.411,12.411,0,0,0,12.411-12.411c0-.109,0-.218,0-.326A11.209,11.209,0,0,1,1428,845.79a12.357,12.357,0,0,0,7.425,2.465" transform="translate(-1152.259 -646.053)" fill="#e761a0"/>
      <path id="Path_4519" data-name="Path 4519" d="M540.438,526.522A11.959,11.959,0,1,0,552.4,514.563a11.959,11.959,0,0,0-11.959,11.959" transform="translate(-387.86 -369.637)" fill="#e62353"/>
      <path id="Path_4520" data-name="Path 4520" d="M577.381,530.29c.348.763,1.746.874,3.123.246s2.211-1.755,1.863-2.518-1.746-.874-3.123-.246-2.211,1.755-1.863,2.518" transform="translate(-419.609 -380.662)" fill="#f5b6c9"/>
      <path id="Path_4521" data-name="Path 4521" d="M557.717,554.67c.271.32.959.184,1.536-.3s.826-1.144.556-1.464-.959-.184-1.537.3-.826,1.144-.556,1.464" transform="translate(-402.648 -402.506)" fill="#f5b6c9"/>
      <path id="Path_4522" data-name="Path 4522" d="M565.863,582.326a12.411,12.411,0,0,0,12.411-12.411q0-.164,0-.325a11.209,11.209,0,0,1-19.832,10.272,12.356,12.356,0,0,0,7.425,2.465" transform="translate(-403.363 -417.028)" fill="#c90042"/>
      <path id="Path_4535" data-name="Path 4535" d="M257.04,604.671l-28.728-17.9-4.58,13.739Z" transform="translate(-115.103 -431.822)" fill="#ed92bd"/>
      <path id="Path_4536" data-name="Path 4536" d="M170.277,871.8l-39.553.416,2.5,11.658Z" transform="translate(-35.001 -677.297)" fill="#0da9b8"/>
      <path id="Path_4537" data-name="Path 4537" d="M287.215,1042.813l-27.479,14.155,8.327,12.074Z" transform="translate(-146.111 -824.582)" fill="#ffc600"/>
      <path id="Path_4538" data-name="Path 4538" d="M1733.26,606.3l21.376-26.246,8.785,11.514Z" transform="translate(-1415.157 -426.043)" fill="#6a398d"/>
      <path id="Path_4539" data-name="Path 4539" d="M1765.887,898.8l39.552.416-2.5,11.658Z" transform="translate(-1443.257 -700.553)" fill="#ffc600"/>
      <path id="Path_4540" data-name="Path 4540" d="M1702.88,1036.813l27.479,14.156-8.327,12.074Z" transform="translate(-1388.993 -819.415)" fill="#008c55"/>
    </g>
  </g>
</svg>
