<svg xmlns="http://www.w3.org/2000/svg" xmlns:xlink="http://www.w3.org/1999/xlink" width="403.672" height="350.174" viewBox="0 0 403.672 350.174">
  <defs>
    <linearGradient id="linear-gradient" x1="0.5" y1="1" x2="0.5" gradientUnits="objectBoundingBox">
      <stop offset="0" stop-color="gray" stop-opacity="0.251"/>
      <stop offset="0.54" stop-color="gray" stop-opacity="0.122"/>
      <stop offset="1" stop-color="gray" stop-opacity="0.102"/>
    </linearGradient>
    <linearGradient id="linear-gradient-2" x1="0.5" y1="1" x2="0.5" y2="0" xlink:href="#linear-gradient"/>
    <linearGradient id="linear-gradient-3" x1="0.5" y1="1" x2="0.5" y2="0" xlink:href="#linear-gradient"/>
  </defs>
  <g id="Group_15417" data-name="Group 15417" transform="translate(-12.164 -225.456)">
    <g id="undraw_children_4rtb" transform="translate(12.179 275.006)">
      <ellipse id="Ellipse_38" data-name="Ellipse 38" cx="173.802" cy="10.605" rx="173.802" ry="10.605" transform="matrix(0.998, -0.055, 0.055, 0.998, 10.034, 279.445)" fill="#fe9805" opacity="0.1"/>
      <path id="Path_438" data-name="Path 438" d="M67.34,437.14c6.389,26.245,19.91,48.928,41.281,59.918,44.41,22.854,144.566,11.067,219.316-2.464a172.809,172.809,0,0,0,97.335-53.482Z" transform="translate(-62.992 -285.066)" fill="#fe9805" opacity="0.1"/>
      <path id="Path_439" data-name="Path 439" d="M477.412,47.255H436.393a3.409,3.409,0,1,1,0-6.815h7.087a3.409,3.409,0,1,1,0-6.815h-5.063a3.409,3.409,0,1,1,0-6.815h21.407a58.173,58.173,0,0,0-16.719-4.423c-58.345-7.211-79.185-2.442-86.537,2.464a83.6,83.6,0,0,1-30,12.641C290.552,44.634,223.2,53.226,162.16,34.741c-30.337-9.188-52.893,6.339-66.41,32.285H484.536a58.867,58.867,0,0,0-4.819-20.6A3.634,3.634,0,0,1,477.412,47.255Z" transform="translate(-81.076 -18.71)" fill="#fe9805" opacity="0.1"/>
      <path id="Path_440" data-name="Path 440" d="M305.5,300.448l-.534-.033-5.583-.316-53.485-3.006-5.779-.327-85.171-4.783-23.871-1.348-3.776-.211-3.355-.189L56.22,286.43a166.773,166.773,0,0,0,1.592,45.795l56.985,2,4.518.164.8.025,27.052.941,1.454.047,3.118.109,27.259.96,3.736.134,13.019.458H196l1.915.069,6.524.229h0l5.724.2,10.9.382h.229l.97.036,1.032.036h.225l17.38.611,4.87.174h.2l2.344.08h0l.436.018h.174l2.061.073,6.291.222h0l2.362.084,3.035.105h.113l4.165.149,12.045.425,3.315.113h.363l16.057.563,9.326.327,11.6.411,1.861.065,3.006.105,10.925.382,82.412,2.908a162.3,162.3,0,0,0,25.016-36.679ZM150.542,325.89a3.613,3.613,0,0,1-2.362-.872h0a3.446,3.446,0,0,1-.749-.905,3.311,3.311,0,0,1-.433-1.628,3.25,3.25,0,0,1,.586-1.861h0a3.771,3.771,0,0,1,.393-.469,3.594,3.594,0,0,1,2.566-1.061h7.087a3.413,3.413,0,1,1,0-6.818h-5.063q-.165.008-.331,0a3.4,3.4,0,1,1,.331-6.8h41.012a3.409,3.409,0,1,1,0,6.811h5.063a3.413,3.413,0,1,1,0,6.818h-7.087a3.409,3.409,0,1,1,0,6.811Z" transform="translate(-55.35 -189.131)" fill="#fe9805" opacity="0.1"/>
      <path id="Path_441" data-name="Path 441" d="M460.47,152.32l-282.895,6.611-31.093.727-79.148,1.85a145.346,145.346,0,0,0-9.413,39.034H453.582a156.446,156.446,0,0,0,5.71-24.878A113.284,113.284,0,0,0,460.47,152.32ZM137.726,182.439h-7.087a3.485,3.485,0,0,1,3.544,3.406v.207a3.387,3.387,0,0,1-1.574,2.628,3.635,3.635,0,0,1-1.963.574H89.635a3.409,3.409,0,1,1,0-6.815h7.091a3.409,3.409,0,1,1,0-6.815H91.663a3.409,3.409,0,1,1,0-6.815h41.012a3.409,3.409,0,1,1,0,6.815h5.063a3.591,3.591,0,0,1,1.683.414,3.391,3.391,0,0,1,1.861,2.991,3.489,3.489,0,0,1-3.544,3.409Z" transform="translate(-56.996 -103.763)" fill="#fe9805" opacity="0.1"/>
      <g id="Group_66" data-name="Group 66" transform="translate(212.063 132.077)" opacity="0.1">
        <path id="Path_442" data-name="Path 442" d="M645.86,486.229s10.376-24.58,29.752-33.7a41.129,41.129,0,0,0,18.979-17.711,66.285,66.285,0,0,0,4.747-11.489" transform="translate(-643.312 -408.352)" fill="none" stroke="#535461" stroke-width="2"/>
        <path id="Path_443" data-name="Path 443" d="M804.674,391.283c-2.017,2.442-12.474,6-12.474,6s1.261-10.594,3.271-13.033a6.041,6.041,0,0,1,8.258-.9,5.5,5.5,0,0,1,.945,7.934Z" transform="translate(-736.465 -382.12)" fill="#fe9805"/>
        <path id="Path_444" data-name="Path 444" d="M792.366,441.248c-3.075.992-13.866-1.479-13.866-1.479s7.047-8.232,10.122-9.228a5.931,5.931,0,0,1,7.44,3.555,5.6,5.6,0,0,1-3.7,7.153Z" transform="translate(-727.744 -412.754)" fill="#fe9805"/>
        <path id="Path_445" data-name="Path 445" d="M743.534,503.912c-3.176-.632-11.194-8-11.194-8s10.416-3.7,13.586-3.049a5.652,5.652,0,0,1,4.554,6.677A5.873,5.873,0,0,1,743.534,503.912Z" transform="translate(-698.361 -452.568)" fill="#fe9805"/>
        <path id="Path_446" data-name="Path 446" d="M689.721,542.426c-3.242-.109-12.441-6.07-12.441-6.07s9.61-5.328,12.852-5.219a5.652,5.652,0,1,1-.411,11.289Z" transform="translate(-663.313 -476.976)" fill="#fe9805"/>
        <path id="Path_447" data-name="Path 447" d="M750.785,426.293c.414,3.093,7.44,11.343,7.44,11.343s4.627-9.693,4.212-12.786a5.837,5.837,0,0,0-6.578-4.881A5.692,5.692,0,0,0,750.785,426.293Z" transform="translate(-710.071 -406.183)" fill="#fe9805"/>
        <path id="Path_448" data-name="Path 448" d="M690.166,469.547c1.359,2.831,10.631,8.683,10.631,8.683s1.4-10.58.04-13.411a5.979,5.979,0,0,0-7.792-2.748,5.56,5.56,0,0,0-2.878,7.476Z" transform="translate(-671.183 -432.676)" fill="#fe9805"/>
        <path id="Path_449" data-name="Path 449" d="M639.039,523.6c.84,3.013,8.952,10.286,8.952,10.286s3.238-10.2,2.4-13.211a5.91,5.91,0,0,0-7.2-4,5.626,5.626,0,0,0-4.151,6.924Z" transform="translate(-638.85 -467.648)" fill="#fe9805"/>
        <path id="Path_450" data-name="Path 450" d="M804.674,391.283c-2.017,2.442-12.474,6-12.474,6s1.261-10.594,3.271-13.033a6.041,6.041,0,0,1,8.258-.9,5.5,5.5,0,0,1,.945,7.934Z" transform="translate(-736.465 -382.12)" fill="#fe9805" opacity="0.25"/>
        <path id="Path_451" data-name="Path 451" d="M792.366,441.248c-3.075.992-13.866-1.479-13.866-1.479s7.047-8.232,10.122-9.228a5.931,5.931,0,0,1,7.44,3.555,5.6,5.6,0,0,1-3.7,7.153Z" transform="translate(-727.744 -412.754)" fill="#fe9805" opacity="0.25"/>
        <path id="Path_452" data-name="Path 452" d="M743.534,503.912c-3.176-.632-11.194-8-11.194-8s10.416-3.7,13.586-3.049a5.652,5.652,0,0,1,4.554,6.677A5.873,5.873,0,0,1,743.534,503.912Z" transform="translate(-698.361 -452.568)" fill="#fe9805" opacity="0.25"/>
        <path id="Path_453" data-name="Path 453" d="M689.721,542.426c-3.242-.109-12.441-6.07-12.441-6.07s9.61-5.328,12.852-5.219a5.652,5.652,0,1,1-.411,11.289Z" transform="translate(-663.313 -476.976)" fill="#fe9805" opacity="0.25"/>
        <path id="Path_454" data-name="Path 454" d="M750.785,426.293c.414,3.093,7.44,11.343,7.44,11.343s4.627-9.693,4.212-12.786a5.837,5.837,0,0,0-6.578-4.881A5.692,5.692,0,0,0,750.785,426.293Z" transform="translate(-710.071 -406.183)" fill="#fe9805" opacity="0.25"/>
        <path id="Path_455" data-name="Path 455" d="M690.166,469.547c1.359,2.831,10.631,8.683,10.631,8.683s1.4-10.58.04-13.411a5.979,5.979,0,0,0-7.792-2.748,5.56,5.56,0,0,0-2.878,7.476Z" transform="translate(-671.183 -432.676)" fill="#fe9805" opacity="0.25"/>
        <path id="Path_456" data-name="Path 456" d="M639.039,523.6c.84,3.013,8.952,10.286,8.952,10.286s3.238-10.2,2.4-13.211a5.91,5.91,0,0,0-7.2-4,5.626,5.626,0,0,0-4.151,6.924Z" transform="translate(-638.85 -467.648)" fill="#fe9805" opacity="0.25"/>
      </g>
      <g id="Group_67" data-name="Group 67" transform="translate(211.576 79.479)" opacity="0.1">
        <path id="Path_457" data-name="Path 457" d="M667.23,360.2s1.308-26.5,16.442-41.277a39.646,39.646,0,0,0,11.794-22.759,65.221,65.221,0,0,0,.523-12.357" transform="translate(-656.428 -266.942)" fill="none" stroke="#535461" stroke-width="2"/>
        <path id="Path_458" data-name="Path 458" d="M752.543,244.887c-1.065,2.944-9.7,9.639-9.7,9.639s-2.457-10.366-1.4-13.328a5.916,5.916,0,0,1,7.476-3.482,5.6,5.6,0,0,1,3.627,7.171Z" transform="translate(-703.499 -237.399)" fill="#fe9805"/>
        <path id="Path_459" data-name="Path 459" d="M757.679,293.669c-2.544,1.919-13.589,3.028-13.589,3.028s3.805-10.017,6.364-11.932a6.033,6.033,0,0,1,8.247.981,5.5,5.5,0,0,1-1.021,7.923Z" transform="translate(-705.353 -266.788)" fill="#fe9805"/>
        <path id="Path_460" data-name="Path 460" d="M729.354,368.021c-3.217.414-13.324-4-13.324-4s8.548-6.8,11.761-7.211a5.839,5.839,0,0,1,6.6,4.845A5.714,5.714,0,0,1,729.354,368.021Z" transform="translate(-687.492 -313.38)" fill="#fe9805"/>
        <path id="Path_461" data-name="Path 461" d="M693.139,421.477c-3.1.931-13.829-1.763-13.829-1.763s7.229-8.087,10.326-9.017a5.923,5.923,0,0,1,7.36,3.7,5.611,5.611,0,0,1-3.856,7.076Z" transform="translate(-664.117 -347.547)" fill="#fe9805"/>
        <path id="Path_462" data-name="Path 462" d="M710.376,296.22c1.454,2.784,10.933,8.327,10.933,8.327s1.021-10.616-.436-13.4a5.986,5.986,0,0,0-7.887-2.5,5.543,5.543,0,0,0-2.61,7.582Z" transform="translate(-683.499 -269.626)" fill="#fe9805"/>
        <path id="Path_463" data-name="Path 463" d="M668.1,356.365c2.257,2.239,13.022,4.8,13.022,4.8s-2.33-10.424-4.587-12.663a6.044,6.044,0,0,0-8.308-.124,5.492,5.492,0,0,0-.127,7.985Z" transform="translate(-655.923 -307.03)" fill="#fe9805"/>
        <path id="Path_464" data-name="Path 464" d="M638.52,423.681c1.817,2.573,11.994,6.851,11.994,6.851s-.469-10.653-2.286-13.23a6.03,6.03,0,0,0-8.167-1.454,5.514,5.514,0,0,0-1.541,7.832Z" transform="translate(-637.509 -350.358)" fill="#fe9805"/>
      </g>
      <ellipse id="Ellipse_39" data-name="Ellipse 39" cx="6.56" cy="0.901" rx="6.56" ry="0.901" transform="translate(139.014 249.006)" fill="#6c63ff" opacity="0.1"/>
      <ellipse id="Ellipse_40" data-name="Ellipse 40" cx="6.56" cy="0.901" rx="6.56" ry="0.901" transform="translate(113.885 251.554)" fill="#6c63ff" opacity="0.1"/>
      <ellipse id="Ellipse_41" data-name="Ellipse 41" cx="6.56" cy="0.901" rx="6.56" ry="0.901" transform="translate(84.285 248.105)" fill="#6c63ff" opacity="0.1"/>
      <ellipse id="Ellipse_42" data-name="Ellipse 42" cx="4.663" cy="0.64" rx="4.663" ry="0.64" transform="translate(125.839 259.07)" fill="#6c63ff" opacity="0.1"/>
      <ellipse id="Ellipse_43" data-name="Ellipse 43" cx="4.663" cy="0.64" rx="4.663" ry="0.64" transform="translate(99.757 258.431)" fill="#6c63ff" opacity="0.1"/>
      <path id="Path_465" data-name="Path 465" d="M337.44,625.533s9.2-30.166-1.454-42.24c-7.96-9.035-16.995-7.956-21.04-6.836a7.461,7.461,0,0,0-4.827,4c-1.414,3.053-1.159,8,8.825,13.789,16.719,9.679,17.762,22.959,17.762,22.959Z" transform="translate(-217.137 -373.281)" fill="#8cc540"/>
      <path id="Path_466" data-name="Path 466" d="M328.49,589.51s27.121,8.479,21.04,44.8" transform="translate(-229.227 -382.057)" fill="none" stroke="#565987" stroke-width="1"/>
      <path id="Path_467" data-name="Path 467" d="M367.2,597.87s-3.733,2.519-2.544,6.3" transform="translate(-252.103 -387.379)" fill="none" stroke="#565987" stroke-width="1"/>
      <path id="Path_468" data-name="Path 468" d="M336,601.5s2.283-2.322,5.059-1.039" transform="translate(-234.007 -388.783)" fill="none" stroke="#565987" stroke-width="1"/>
      <path id="Path_469" data-name="Path 469" d="M365.47,634.822s4-2.035,5.045.512" transform="translate(-252.767 -410.41)" fill="none" stroke="#565987" stroke-width="1"/>
      <path id="Path_470" data-name="Path 470" d="M387.394,647.814s-3.009-.24-3.064,1.2" transform="translate(-264.772 -419.161)" fill="none" stroke="#565987" stroke-width="1"/>
      <path id="Path_471" data-name="Path 471" d="M358.932,675.86s-10.773-21.92-13.735-21.444c-1.4.229-2.053,1.61-2.344,3a8.829,8.829,0,0,0,.585,5.335C344.975,666.254,349.075,672.927,358.932,675.86Z" transform="translate(-238.258 -423.368)" fill="#8cc540"/>
      <path id="Path_472" data-name="Path 472" d="M349.83,665.89s11.329,16.4,13.509,17.122" transform="translate(-242.811 -430.677)" fill="none" stroke="#565987" stroke-width="1"/>
      <line id="Line_7" data-name="Line 7" x2="2.639" transform="translate(105.98 237.772)" fill="none" stroke="#565987" stroke-width="1"/>
      <line id="Line_8" data-name="Line 8" x2="4.14" y2="0.178" transform="translate(109.142 243.773)" fill="none" stroke="#565987" stroke-width="1"/>
      <line id="Line_9" data-name="Line 9" x1="0.451" y2="2.155" transform="translate(111.21 238.971)" fill="none" stroke="#565987" stroke-width="1"/>
      <line id="Line_10" data-name="Line 10" x1="0.08" y2="1.959" transform="translate(115.982 245.532)" fill="none" stroke="#565987" stroke-width="1"/>
      <path id="Path_473" data-name="Path 473" d="M386.52,675.86s10.776-21.92,13.738-21.444c1.4.229,2.053,1.61,2.344,3a8.827,8.827,0,0,1-.585,5.335C400.506,666.254,396.38,672.927,386.52,675.86Z" transform="translate(-266.166 -423.368)" fill="#8cc540"/>
      <path id="Path_474" data-name="Path 474" d="M400.48,665.89s-11.3,16.4-13.48,17.122" transform="translate(-266.472 -430.677)" fill="none" stroke="#565987" stroke-width="1"/>
      <line id="Line_11" data-name="Line 11" x1="2.639" transform="translate(132.41 237.772)" fill="none" stroke="#565987" stroke-width="1"/>
      <line id="Line_12" data-name="Line 12" x1="4.136" y2="0.178" transform="translate(127.75 243.773)" fill="none" stroke="#565987" stroke-width="1"/>
      <line id="Line_13" data-name="Line 13" x2="0.447" y2="2.155" transform="translate(129.371 238.971)" fill="none" stroke="#565987" stroke-width="1"/>
      <line id="Line_14" data-name="Line 14" x2="0.08" y2="1.959" transform="translate(124.97 245.532)" fill="none" stroke="#565987" stroke-width="1"/>
      <path id="Path_475" data-name="Path 475" d="M334.5,722.327a1.882,1.882,0,0,1-.614-.927.818.818,0,0,1,.429-.941c.392-.153.814.12,1.134.4a1.507,1.507,0,0,0,1.09.531,1.683,1.683,0,0,1-.52-1.57.667.667,0,0,1,.145-.316c.218-.236.614-.134.876.051a3.259,3.259,0,0,1,1.069,2.729,5.036,5.036,0,0,0,0-1.123,1.152,1.152,0,0,1,.425-1,1.26,1.26,0,0,1,.643-.153,1.335,1.335,0,0,1,1.047.3,1.043,1.043,0,0,1-.04,1.283,4.071,4.071,0,0,1-1.09.869,2.383,2.383,0,0,0-.774.727.532.532,0,0,0-.058.131h-2.344A6.648,6.648,0,0,1,334.5,722.327Z" transform="translate(-232.642 -464.714)" fill="#8cc540"/>
      <path id="Path_476" data-name="Path 476" d="M447.467,698.036a1.881,1.881,0,0,1-.614-.927.818.818,0,0,1,.429-.941c.392-.153.814.12,1.134.4s.683.589,1.09.531a1.675,1.675,0,0,1-.52-1.57.664.664,0,0,1,.145-.316c.218-.236.614-.134.876.051a3.258,3.258,0,0,1,1.069,2.729,5.04,5.04,0,0,0,0-1.123,1.156,1.156,0,0,1,.422-1,1.267,1.267,0,0,1,.647-.153,1.337,1.337,0,0,1,1.047.3,1.04,1.04,0,0,1-.044,1.283,4,4,0,0,1-1.09.869,2.337,2.337,0,0,0-.771.727.53.53,0,0,0-.058.131h-2.344a6.531,6.531,0,0,1-1.417-.989Z" transform="translate(-304.554 -449.252)" fill="#8cc540"/>
      <path id="Path_477" data-name="Path 477" d="M409.817,722.327a1.882,1.882,0,0,1-.614-.927.818.818,0,0,1,.429-.941c.392-.153.814.12,1.134.4a1.507,1.507,0,0,0,1.09.531,1.675,1.675,0,0,1-.52-1.57.666.666,0,0,1,.145-.316c.218-.236.614-.134.876.051a3.259,3.259,0,0,1,1.068,2.729,5.032,5.032,0,0,0,0-1.123,1.156,1.156,0,0,1,.422-1,1.27,1.27,0,0,1,.647-.153,1.338,1.338,0,0,1,1.047.3,1.04,1.04,0,0,1-.044,1.283,4,4,0,0,1-1.09.869,2.338,2.338,0,0,0-.771.727.533.533,0,0,0-.058.131h-2.344A6.541,6.541,0,0,1,409.817,722.327Z" transform="translate(-280.587 -464.714)" fill="#8cc540"/>
      <path id="Path_478" data-name="Path 478" d="M300.7,678.42s-.88,1.148.407,2.882,2.344,3.2,1.915,4.281c0,0-1.937-3.22-3.518-3.271S298.968,680.357,300.7,678.42Z" transform="translate(-210.282 -438.653)" fill="#8cc540"/>
      <path id="Path_479" data-name="Path 479" d="M300.7,678.42a1.357,1.357,0,0,0-.178.363c-1.541,1.817-2.359,3.5-.88,3.536,1.377.04,3.031,2.5,3.427,3.129a.39.39,0,0,1-.047.138c-.018.044-1.937-3.22-3.518-3.271S298.968,680.357,300.7,678.42Z" transform="translate(-210.282 -438.653)" opacity="0.1"/>
      <path id="Path_480" data-name="Path 480" d="M299.67,681.995c0,.4.044.727.1.727s.1-.327.1-.727-.055-.214-.113-.214S299.67,681.588,299.67,681.995Z" transform="translate(-210.882 -440.763)" fill="#ffd037"/>
      <path id="Path_481" data-name="Path 481" d="M297.742,683.295c.363.193.665.309.694.258s-.24-.243-.6-.436-.214-.055-.244,0S297.389,683.1,297.742,683.295Z" transform="translate(-209.516 -441.579)" fill="#ffd037"/>
      <path id="Path_482" data-name="Path 482" d="M312.7,678.42s.876,1.148-.407,2.882-2.344,3.2-1.915,4.281c0,0,1.937-3.22,3.515-3.271S314.437,680.357,312.7,678.42Z" transform="translate(-217.638 -438.653)" fill="#8cc540"/>
      <path id="Path_483" data-name="Path 483" d="M312.79,678.42a1.5,1.5,0,0,1,.178.363c1.537,1.817,2.359,3.5.88,3.536-1.377.04-3.031,2.5-3.427,3.129a.39.39,0,0,0,.047.138c.018.044,1.937-3.22,3.515-3.271S314.523,680.357,312.79,678.42Z" transform="translate(-217.725 -438.653)" opacity="0.1"/>
      <path id="Path_484" data-name="Path 484" d="M321.074,681.995c0,.4-.044.727-.1.727s-.1-.327-.1-.727.058-.214.113-.214S321.074,681.588,321.074,681.995Z" transform="translate(-224.376 -440.763)" fill="#ffd037"/>
      <path id="Path_485" data-name="Path 485" d="M321.788,683.295c-.363.193-.665.309-.691.258s.24-.243.6-.436.214-.055.24,0S322.151,683.1,321.788,683.295Z" transform="translate(-224.52 -441.579)" fill="#ffd037"/>
      <path id="Path_486" data-name="Path 486" d="M304.646,695.4s-2.457-.076-3.2-.6-3.78-1.156-3.962-.309-3.7,4.205-.92,4.227,6.448-.433,7.185-.883S304.646,695.4,304.646,695.4Z" transform="translate(-208.229 -448.614)" fill="#a8a8a8"/>
      <path id="Path_487" data-name="Path 487" d="M296.511,700.7c2.777.022,6.448-.433,7.185-.883.563-.342.789-1.574.865-2.141h.08s-.156,1.981-.894,2.431-4.412.9-7.185.883c-.8,0-1.09-.291-1.065-.727C295.61,700.551,295.915,700.7,296.511,700.7Z" transform="translate(-208.225 -450.913)" opacity="0.2"/>
      <rect id="Rectangle_86" data-name="Rectangle 86" width="6.422" height="14.353" rx="3.211" transform="matrix(0.3, 0.954, -0.954, 0.3, 72.753, 201.762)" fill="#fe9805"/>
      <path id="Path_488" data-name="Path 488" d="M596.459,253.643s-1.127-8.617-7.178-8.8.949,10.689,1.661,11.67c.418.571.083,2.159-.262,3.384a25.066,25.066,0,0,0-.622,2.679,6.255,6.255,0,0,1-1.367,3.1,15.511,15.511,0,0,0-2.435,4.078,5.739,5.739,0,0,1-2.431-.363c-.651-.44-4.8-1.955-4.983-1.712-.04.051-.153.073-.309.069a5.01,5.01,0,0,1-.727-.091c-.033-.2-.069-.407-.12-.618,0,0-.512-.222-1.09-.534v-.036h0c.135-.342.222-.709.363-1.043V265.4h0a1.617,1.617,0,0,1,.462-.654c.556-.447,1.359-.294,2.032-.516a2.33,2.33,0,0,0,.222-.087l.08-.047.124-.069.087-.062.1-.073.087-.076a.866.866,0,0,1,.084-.08l.076-.091.076-.087.069-.1c.022-.033.047-.062.065-.095s.044-.069.062-.105l.058-.105.055-.109.047-.113a1.118,1.118,0,0,0,.047-.116.4.4,0,0,1,.04-.116c.014-.04.022-.08.036-.12s0-.076.029-.12a1.211,1.211,0,0,0,.029-.124l.022-.12a.327.327,0,0,1,.018-.131c.018-.044,0-.076,0-.113v-.142a.975.975,0,0,1,0-.1v-.443a3.638,3.638,0,0,0-.069-.443,4.178,4.178,0,0,1-.269-2.159.623.623,0,0,1,.029-.073,1.147,1.147,0,0,1,.109-.207,1.494,1.494,0,0,1,.6-.5c.211-.109.443-.193.661-.284a5.088,5.088,0,0,0,2.1-1.454h0a3.358,3.358,0,0,0,.727-1.643,2.619,2.619,0,0,0,0-.825v-.076h0a7.691,7.691,0,0,1-.327-1.454,1.855,1.855,0,0,1,.084-.571q.043-.131.1-.262l.029-.062c.04-.084.084-.167.127-.247a.271.271,0,0,0,.025-.044l.142-.225.033-.047c.051-.08.109-.16.163-.24.135-.193.276-.382.407-.578h0c.062-.091.12-.185.174-.28h0c.055-.1.105-.193.153-.291v-.047a3.269,3.269,0,0,0,.12-.313l.033-.105c.033-.12.062-.236.084-.363a.717.717,0,0,1,0-.087c0-.109.029-.218.036-.327a.529.529,0,0,1,0-.08v-.385a.842.842,0,0,0,0-.094,1.943,1.943,0,0,0-.025-.385,9.878,9.878,0,0,0-.24-1.356c-.156-.651-.432-1.4-1.065-1.57a2.6,2.6,0,0,0-.989.044,4.747,4.747,0,0,1-2.937-.745,23.593,23.593,0,0,1-2.49-1.861,2.187,2.187,0,0,0-1.9-.647,5.09,5.09,0,0,0-.672.342.767.767,0,0,1-.145.044,3.48,3.48,0,0,1-.7.058h-.065c-.2-.64-.414-1.272-.654-1.9a9.632,9.632,0,0,0-2.693-4.231,10.85,10.85,0,0,0-2.486-1.356c-2.664-1.163-5.594-2.344-8.359-1.512a12.457,12.457,0,0,0-3.376,1.817l-4.467,3.049-.334-.1c-.654-.189-1.33-.3-1.723-.432l-.069-.022c-1.258-.469-2.515-1.5-2.544-2.879a3.087,3.087,0,0,1,.062-.636,10.246,10.246,0,0,1,.411-1.29c.091-.247.167-.5.244-.749l.073-.269c.044-.16.084-.32.124-.48l.076-.363c.029-.131.051-.258.076-.389s.051-.276.069-.414a.452.452,0,0,1,.029-.193c.055-.4.095-.792.116-1.188h0a6.256,6.256,0,0,1,.022-.636v-.734h0a14.924,14.924,0,0,0-2.508-7.887,4.726,4.726,0,0,0-.491,1.937.725.725,0,0,1-.073.363.473.473,0,0,1-.68.029,6.669,6.669,0,0,1-.509-.589,1.25,1.25,0,0,0-1.516-.182,1.374,1.374,0,0,0-.556,1.472,5.717,5.717,0,0,0-5.71.363,2.115,2.115,0,0,0-.985,1.25h0a1.453,1.453,0,0,0,.171,1.014c.309.6.909,1.149,1.3,1.766a15.215,15.215,0,0,0-2.377,5.132l-.32.4a11.236,11.236,0,0,0-2.05,1.625,2.177,2.177,0,0,0-.683,1.817l-5.546,6.96s-5.935,8.094-6.542,9.926c-.124.363-2.544,3.176,1.123,6.6s4.39,3.787,4.925,4.95c.313.68,2.7,1.919,4.641,2.831l.676.316c-.156,2.014.781,4.361,3.613,7.065a4.873,4.873,0,0,1,.084.97,32.055,32.055,0,0,0,1.068,6.324s1.512,2.381-.443,3.94-2.4,2.457-1.192,3.722l.036.036-.178,3.576h-.523s-4.725,3.3-5.706,5.223-2.755,7.065-2.755,7.065-.363,4.947-.891,5.681,0,3.758,0,3.758-.091,4.674,1.065,5.775.8,3.849.8,3.849a13.031,13.031,0,0,0,.2,1.777c-1.239-.363-3.431-.6-3.809,2.257a30.537,30.537,0,0,0-.265,6.542s-1.069,4.808-1.868,6.179-2.493,13.535,5.027,11.456a3.231,3.231,0,0,0,1.817-1.868,8.518,8.518,0,0,0,.781-.974c-.029,2.373.625,4.38,2.94,3.889,0,0,1.33-.294,1.93-3.093a28.832,28.832,0,0,0,3.271-3.82l2.148-5.357h0l.164-.411,2-2.144a53.961,53.961,0,0,0,10.177,2.137,25.033,25.033,0,0,0,3.053.138,23.511,23.511,0,0,0,5.27-.5c3.242.451,8.9.821,13.651-1.014,7.116-2.748,2.224-8.8.978-10.082s-5.179-5.088-5.5-5.386v-.022s.727-22-.8-22.636-6.582-6.051-6.582-6.051l.534-3.482s2.49.276,2.58-1.926,0-5.5,0-5.5l3.271-5.866s3.962-2.352,5.761-3.147c.095.062.2.127.309.189,1.955,1.119,6.142,2.348,7.6,2.072,1.959-.363,5.873.491,8.359.727s3.634-2.257,3.38-2.544,1.01-3.093,1.01-3.093,2.373-11.489,1.839-13.32S596.459,253.643,596.459,253.643ZM532.55,327.358c.207.1.422.2.643.3a34.744,34.744,0,0,0,3.569,1.265l2.224.825s-3.351.08-5.023.164a4.936,4.936,0,0,1-2.159-1A3.706,3.706,0,0,1,532.55,327.358Zm33.608-64.185c-.04-.109-.076-.225-.109-.342.305-.076.6-.164.9-.262-.2.229-.443.5-.727.8C566.2,263.3,566.177,263.238,566.158,263.173Zm-37.435-9.086s1.588-3.914,2.809-6.6q.073.323.164.643c-.051,0-.044-.058.167.491v.029a8.043,8.043,0,0,0,3.344,4,7.407,7.407,0,0,0,1.585.727v-.055a.534.534,0,0,0,0-.105.418.418,0,0,0,0-.065.458.458,0,0,0,0-.1L536.77,253a.547.547,0,0,0-.055-.1l-.033-.036a.256.256,0,0,0-.051-.058c.247.156.5.305.749.458.055.029.105.065.16.1.258.149.516.291.778.433l.189.109c.309.164.625.323.941.476l.047.022.393.182.618.28a1.091,1.091,0,0,0,.647.127,1.032,1.032,0,0,0,.393-.211l.12-.091a11.5,11.5,0,0,1,2.57-1.065,2.365,2.365,0,0,0,1.657-2.072,2.2,2.2,0,0,0-.952-1.541c-.491-.363-1.058-.632-1.556-1a3.034,3.034,0,0,1-1.268-3,1.909,1.909,0,0,1,.08-.229l.022-.054q.044-.091.1-.185c0-.018.022-.04.036-.062a2.384,2.384,0,0,1,.414-.462,6.91,6.91,0,0,1,.647-.48l4.383-2.955c.331-.225.661-.447,1-.654h0a9.97,9.97,0,0,1,.9-.494c.091-.04.182-.084.276-.12l.182-.076c.164-.062.327-.12.5-.171.091-.022.214-.044.363-.065a23.75,23.75,0,0,1-1.872,4.212,3.281,3.281,0,0,0-.342.752.939.939,0,0,0-.04.225,2.246,2.246,0,0,0,.2.945,2.816,2.816,0,0,0,.941,1.6c.153.109.294.211.418.316a2.546,2.546,0,0,1-.047.327,14.1,14.1,0,0,0-.094,1.625,13.407,13.407,0,0,0,2.544,7.883l-.145.164a13.313,13.313,0,0,1-2.679,2.381c-.116.073-.233.142-.363.207a4.108,4.108,0,0,1-.425-.927,1.141,1.141,0,0,1-1.454-.64c-.516-1.01-2.119,0-2.119,0s-3.635-2.108-3.823-1.192a.913.913,0,0,1-.207.385l-.215-.2s-.836.276-2.01.814a2.253,2.253,0,0,1-1.308-.814c-.363-.472-.269.225-.04,1.483l-.029.018-.425-.156c-2.511-.923-8.487-3.322-8.766-5.343Zm41.041,9.144c-.164-.512-.956-.912-1.548-1.149a13.084,13.084,0,0,0,6.6-6.96c.055-.134.105-.273.156-.411.105-.025.211-.044.313-.076a1.538,1.538,0,0,0,1.039-.763,1.712,1.712,0,0,0,.105-.578c.029-.44.047-.879.058-1.319v-.062a32.715,32.715,0,0,0-.8-8.021l.392.323h0c.153.127.305.254.454.385a3.116,3.116,0,0,1,.363.363l.058.058c.116.116.229.236.334.363a.411.411,0,0,1,.036.047,4.332,4.332,0,0,1,.265.363l.091.142a3.22,3.22,0,0,1,.2.363l.036.073a3.625,3.625,0,0,1,.145.393l.033.091c.033.116.058.233.084.363a.842.842,0,0,0,.036.16c.022.124.036.251.051.382v.138c0,.12.018.244.025.363s0,.156,0,.233a16.325,16.325,0,0,1-1.49,7.1,27.732,27.732,0,0,1-3.863,6.124,8.145,8.145,0,0,0-1.276,1.875,3.768,3.768,0,0,0-.142.4c-.625-.084-1.592-.262-1.752-.785Z" transform="translate(-350.904 -145.986)" fill="url(#linear-gradient)"/>
      <path id="Path_489" data-name="Path 489" d="M693.119,306.977c.545,1.817-1.879,13.2-1.879,13.2s-1.272,2.8-1.029,3.067-.909,2.748-3.453,2.5-6.542-1.09-8.541-.727c-1.494.273-5.768-.945-7.767-2.053-.68-.363-1.09-.745-1.054-1.036.156-1.148,3.973-6.36,3.973-6.36a10.664,10.664,0,0,0,1.745.313c.16,0,.276-.018.316-.069.182-.243,4.423,1.272,5.088,1.7a6.128,6.128,0,0,0,2.482.345,15.332,15.332,0,0,1,2.486-4.042,6.131,6.131,0,0,0,1.4-3.075,23.918,23.918,0,0,1,.632-2.657c.363-1.214.694-2.788.269-3.355-.727-.97-7.876-11.75-1.7-11.569s7.331,8.723,7.331,8.723S692.573,305.16,693.119,306.977Z" transform="translate(-446.229 -193.418)" fill="#fbbebe"/>
      <path id="Path_490" data-name="Path 490" d="M620.093,334.677,615,336.858l-5.906,1.817s-13.539-10.994-10.086-11.812a5.91,5.91,0,0,0,1.7-.727,13.425,13.425,0,0,0,2.737-2.359,24.074,24.074,0,0,0,2.377-3.078s13.357-.636,11.267,2.544c-.814,1.239-.538,3.253.1,5.248.036.12.076.24.116.363a33.639,33.639,0,0,0,2.78,5.822Z" transform="translate(-401.069 -210.912)" fill="#fbbebe"/>
      <path id="Path_491" data-name="Path 491" d="M552.813,526.391s-2.344-2.181-3.2,1.178a34.542,34.542,0,0,0-1.01,5.506,39.638,39.638,0,0,1-1.977,5.045c-.683,1.087-3.311,11.194,1.708,10.177,0,0,1.846-.393,2.206-4.656s3.464-16.98,3.464-16.98Z" transform="translate(-367.256 -341.435)" fill="#3f3d56"/>
      <path id="Path_492" data-name="Path 492" d="M592.824,511.944c-5.088,1.9-11.172,1.414-14.389.945-1.388-.2-2.239-.4-2.239-.4l-15.9-1.636-.32.334-2.043,2.126-2.362,5.717s-6.36,8.723-7.087,3.544a21.285,21.285,0,0,1-.135-3.417,94.284,94.284,0,0,1,1.588-12.848l14.447-1.908,9.086-4.725.1-4.928.022-1.21.062-3.038,12.357,1.181,2.181,4.907.022.022c.32.3,4.39,4.118,5.612,5.339S600.093,509.218,592.824,511.944Z" transform="translate(-369.167 -319.032)" fill="#fbbebe"/>
      <path id="Path_493" data-name="Path 493" d="M558.675,552.831s-6.487.273-6.906-.891l-2.01,4.794s5.906,2.272,6.724,1.407Z" transform="translate(-370.076 -358.142)" fill="#fe9805"/>
      <path id="Path_494" data-name="Path 494" d="M529.5,512.794s-4.223-2.09-4.768,1.908a29.474,29.474,0,0,0-.273,6.5s-1.09,4.768-1.908,6.131S520,540.75,527.68,538.69c0,0,2.817-.771,2.362-5.724s1.4-20.081,1.4-20.081Z" transform="translate(-352.271 -332.876)" fill="#3f3d56"/>
      <path id="Path_495" data-name="Path 495" d="M556.326,487.75,569.5,499.38s7.632,4.089-1.454,11.085a22.88,22.88,0,0,1-10.358,1.09A55.6,55.6,0,0,1,546.24,509.1s-4.725-.727-6.36,1.817-5.27,8.087-5.27,8.087-4.452,8.814-7.36-2.09l3.725-10.631a34.24,34.24,0,0,0,0-4.361c-.182-.818,2.453-4.452,3.816-3.271s3.18,2.817,4.725,2.726,5.452-.182,5.452-.182l-2.272-.818s-6.542-1.817-6.088-3.18,3.634-8,3.634-8Z" transform="translate(-355.748 -317.282)" opacity="0.1"/>
      <path id="Path_496" data-name="Path 496" d="M566.047,510.466a14.41,14.41,0,0,1-2.3.672,25.508,25.508,0,0,1-8.054.418,56.722,56.722,0,0,1-10.406-2.119c-.669-.2-1.043-.334-1.043-.334s-4.725-.727-6.36,1.817c-1.09,1.676-3.02,4.649-4.223,6.488l-1.047,1.6s-4.452,8.814-7.36-2.09l3.725-10.631a34.228,34.228,0,0,0,0-4.361c-.124-.556,1.05-2.406,2.242-3.166.563-.363,1.134-.487,1.574-.105a17.88,17.88,0,0,0,2.908,2.213,3.481,3.481,0,0,0,1.817.512c1.545-.091,5.452-.182,5.452-.182l-2.272-.818a35.6,35.6,0,0,1-3.634-1.254c-1.414-.6-2.65-1.308-2.442-1.926.454-1.363,3.635-8,3.635-8l16.083-1.454,4.572,4.038,1.959,1.726,6.644,5.866S575.134,503.469,566.047,510.466Z" transform="translate(-354.475 -317.282)" fill="#fbbebe"/>
      <path id="Path_497" data-name="Path 497" d="M585.63,527.725s-3.453-4.634-11.63-3.362" transform="translate(-385.506 -340.447)" fill="none" stroke="#000" stroke-width="1" opacity="0.1"/>
      <path id="Path_498" data-name="Path 498" d="M529.885,536.63l-2.635,6.041s2.908,6.68,8.541,5.681l3.464-6.277S531.433,541.26,529.885,536.63Z" transform="translate(-355.748 -348.396)" opacity="0.1"/>
      <path id="Path_499" data-name="Path 499" d="M528.885,537.63l-2.635,6.041s2.908,6.68,8.541,5.681l3.464-6.277S530.433,542.26,528.885,537.63Z" transform="translate(-355.111 -349.033)" fill="#fe9805"/>
      <path id="Path_500" data-name="Path 500" d="M671.49,361.8a6.508,6.508,0,0,0-1.09.429c-.68-.363-1.09-.745-1.054-1.036.156-1.148,3.972-6.36,3.972-6.36a10.661,10.661,0,0,0,1.745.313A6.092,6.092,0,0,1,671.49,361.8Z" transform="translate(-446.198 -232.671)" opacity="0.1"/>
      <path id="Path_501" data-name="Path 501" d="M620.093,345.291,615,347.472l-5.906,1.817s-13.539-10.994-10.086-11.812a5.909,5.909,0,0,0,1.7-.727c2.035,2.675,6.84,5.452,6.84,5.452,4.02,1.454,7.672-1.2,9.642-3.111A32.878,32.878,0,0,0,620.093,345.291Z" transform="translate(-401.069 -221.163)" opacity="0.1"/>
      <path id="Path_502" data-name="Path 502" d="M601.818,344.8c-1.181.273-6.542,3.362-6.542,3.362l-3.362,5.815s.091,3.271,0,5.452-2.635,1.908-2.635,1.908l-.123.051c-.651.273-3.7,1.556-3.7,1.585s-6.259-.636-6.259-.636l-12.266-2s-3.907-.182-5.179-1.454l-.036-.036c-1.228-1.254-.763-2.159,1.217-3.689s.454-3.907.454-3.907a30.929,30.929,0,0,1-1.09-6.27c0-2.362-1.181-2.272-1.181-2.272s-.818,0,2.817-2.362-.454-13.357.818-11.812,3.634.727,3.816-.182,3.907,1.181,3.907,1.181,1.635-1,2.181,0a1.185,1.185,0,0,0,1.454.636c.909,3,7.633,6.906,7.633,6.906,6,2.181,11.176-4.816,11.176-4.816s2,.545,2.272,1.37,2.544.785,2.544.785,2.726.3,2.817,1.116,2.726,1.908,2.726,1.908A6.17,6.17,0,0,1,601.818,344.8Z" transform="translate(-377.252 -215.669)" fill="#fff"/>
      <path id="Path_503" data-name="Path 503" d="M590.468,412.567l-.124.778c-.65.273-3.7,1.556-3.7,1.585s-6.259-.636-6.259-.636l-12.266-2s-3.907-.182-5.179-1.454l-.036-.036.036-.691,2-.363s19.626,1.09,22.352,2.362Z" transform="translate(-378.441 -267.631)" opacity="0.1"/>
      <path id="Path_504" data-name="Path 504" d="M589.871,494.859c0,.451-.022.705-.022.705s-3.816-5.906-8.814-3a6.407,6.407,0,0,1-3.827.949,6.059,6.059,0,0,1-1.981-.516,7.821,7.821,0,0,1-2.733-2.068s-8.723,1.817-11.721,4.271-5.452-.727-5.452-.727-.854,3.733-1.919,4.652c-1.414-.6-2.65-1.308-2.442-1.926.454-1.363,3.635-8,3.635-8l16.083-1.454,4.572,4.038.062-3.038,12.357,1.181,2.181,4.907Z" transform="translate(-370.826 -317.282)" opacity="0.1"/>
      <path id="Path_505" data-name="Path 505" d="M546.589,411.75s19.626,1.09,22.352,2.362l3.18.454-.545,3.453s5.179,5.361,6.724,6,.818,22.443.818,22.443-3.816-5.906-8.814-3-8.541-1.635-8.541-1.635-8.723,1.817-11.721,4.27-5.452-.727-5.452-.727-1,4.361-2.181,4.816-1.454,3.362-1.454,3.362-3.271-.636-3.271-1.636a2.493,2.493,0,0,0-.727-2.09c-.636-.727-.727-3.089-.727-3.089s.363-2.726-.818-3.816-1.09-5.724-1.09-5.724-.549-3,0-3.725.909-5.633.909-5.633,1.817-5.088,2.817-7,5.815-5.179,5.815-5.179h.534l.182-3.544Z" transform="translate(-360.095 -268.904)" fill="#fe9805"/>
      <circle id="Ellipse_44" data-name="Ellipse 44" cx="0.574" cy="0.574" r="0.574" transform="translate(207.666 149.359)" fill="#3f3d56"/>
      <circle id="Ellipse_45" data-name="Ellipse 45" cx="0.574" cy="0.574" r="0.574" transform="translate(204.605 162.385)" fill="#3f3d56"/>
      <circle id="Ellipse_46" data-name="Ellipse 46" cx="0.574" cy="0.574" r="0.574" transform="translate(208.636 157.962)" fill="#3f3d56"/>
      <path id="Path_506" data-name="Path 506" d="M558.527,424h.727s-4.361,9.995-4.6,7.207S558.527,424,558.527,424Z" transform="translate(-373.184 -276.701)" opacity="0.1"/>
      <path id="Path_507" data-name="Path 507" d="M574.047,426s-4.968,7.632-2.544,8.723,4.6-8.359,4.6-8.359Z" transform="translate(-383.492 -277.975)" opacity="0.1"/>
      <path id="Path_508" data-name="Path 508" d="M597.83,438.12s1.879,11.587,4,13.829a2.339,2.339,0,0,1-.363,3.816s7.451.665,9.813,1.149,6-.545,4.543-1.512-.24-11.267-.12-11.754S611.038,452.582,597.83,438.12Z" transform="translate(-400.675 -285.69)" opacity="0.1"/>
      <path id="Path_509" data-name="Path 509" d="M575.67,384.928c.422-.182,7.207-9.711,8.843-8.944S575.67,384.928,575.67,384.928Z" transform="translate(-386.569 -246.108)" opacity="0.1"/>
      <path id="Path_510" data-name="Path 510" d="M574.356,377.5s-2.726,4.18-1.937,4.907S574.356,377.5,574.356,377.5Z" transform="translate(-384.409 -247.102)" opacity="0.1"/>
      <path id="Path_511" data-name="Path 511" d="M588.07,334s2.762,5.514,1.974,6.542S588.07,334,588.07,334Z" transform="translate(-394.463 -219.412)" opacity="0.1"/>
      <path id="Path_512" data-name="Path 512" d="M670.823,354.83s-.545,3.213-1.272,3.333S670.823,354.83,670.823,354.83Z" transform="translate(-446.228 -232.671)" opacity="0.1"/>
      <path id="Path_513" data-name="Path 513" d="M637.33,357.67s7.694,1.883,8.3,2.3S638.966,360.4,637.33,357.67Z" transform="translate(-425.819 -234.479)" opacity="0.1"/>
      <path id="Path_514" data-name="Path 514" d="M710.923,366.195s-.967-3.758-2.239-3.7S710.923,366.195,710.923,366.195Z" transform="translate(-471.063 -237.552)" opacity="0.1"/>
      <path id="Path_515" data-name="Path 515" d="M680.084,290.861c-.472.978-1.5,1.759-1.487,2.846a7.665,7.665,0,0,0,.363,1.5,3.031,3.031,0,0,1-.727,2.442,5.207,5.207,0,0,1-2.155,1.454,2.68,2.68,0,0,0-1.294.774c-.476.687-.062,1.6.135,2.417.313,1.312-.2,2.951-1.487,3.358-.687.218-1.508.069-2.075.509s-.625,1.319-.978,1.974a2.261,2.261,0,0,1-2.958.887,2.289,2.289,0,0,1,.127-.989,1.861,1.861,0,0,1-2.075-.847,2.479,2.479,0,0,1,.018-2.181,8.173,8.173,0,0,1,1.3-1.861,27.409,27.409,0,0,0,3.947-6.07,15.794,15.794,0,0,0,1.523-7.036,5.383,5.383,0,0,0-.411-2.1,5.212,5.212,0,0,0-1.432-1.737c-.3-.262-.622-.509-.934-.76-.218-.174-.436-.363-.643-.531-.284-.251-1.41-1.17-1.319-1.614.051-.254.814-.218,1.479-.225a3.611,3.611,0,0,0,.727-.058.728.728,0,0,0,.149-.044,5.714,5.714,0,0,1,.687-.338,2.28,2.28,0,0,1,1.937.643,24.049,24.049,0,0,0,2.544,1.843,4.971,4.971,0,0,0,3,.727,2.714,2.714,0,0,1,1.01-.044c.643.171.927.909,1.09,1.556A5.374,5.374,0,0,1,680.084,290.861Z" transform="translate(-443.578 -186.679)" fill="#3f3d56"/>
      <path id="Path_516" data-name="Path 516" d="M572.673,242.872a3.764,3.764,0,0,0-.414.073,6.7,6.7,0,0,0-1.119.425,16.385,16.385,0,0,0-1.817,1.09l-4.478,2.929a3.69,3.69,0,0,0-1.09.938c-.76,1.116-.047,2.711,1.054,3.5.509.363,1.09.618,1.588.989a2.181,2.181,0,0,1,.974,1.527c.055.949-.818,1.694-1.694,2.054a12.015,12.015,0,0,0-2.624,1.058,1.511,1.511,0,0,1-.523.3,1.149,1.149,0,0,1-.661-.127,27.465,27.465,0,0,1-3.954-2.039.534.534,0,0,1,.164.571,7.894,7.894,0,0,1-4.51-11.5,22.951,22.951,0,0,0,1.454-2.373,2.911,2.911,0,0,0,0-2.671c-.363-.542-1-.905-1.189-1.527a2.109,2.109,0,0,1,.68-1.872c1.05-1.09,2.5-1.745,3.66-2.74s2.035-2.646,1.378-4.023c-.523-1.09-1.93-1.9-1.694-3.089a2.1,2.1,0,0,1,1.007-1.254,5.986,5.986,0,0,1,5.815-.363,1.341,1.341,0,0,1,.571-1.454,1.3,1.3,0,0,1,1.548.178,6.666,6.666,0,0,0,.516.585.5.5,0,0,0,.694-.029.684.684,0,0,0,.076-.363,4.566,4.566,0,0,1,.5-1.923,14.614,14.614,0,0,1,1.719,13.2,5.208,5.208,0,0,0-.483,1.908c.04,1.37,1.323,2.388,2.61,2.853l.069.022c.4.131,1.09.244,1.759.429.88.244,1.726.614,1.817,1.308C576.272,242.577,573.822,242.716,572.673,242.872Z" transform="translate(-371.823 -147.946)" fill="#3f3d56"/>
      <path id="Path_517" data-name="Path 517" d="M533.061,257.567c-.665.727-4.118,8.9-4.118,8.9.287,2,6.389,4.383,8.974,5.3.7.251,1.141.392,1.141.392l2.482,2.181S539,288.4,538.793,284.95s-4.7-5.212-4.7-5.212-1.178-.48-2.588-1.13c-1.977-.905-4.42-2.133-4.725-2.806-.545-1.152-1.272-1.516-5.03-4.907s-1.272-6.179-1.148-6.542c.6-1.817,6.662-9.839,6.662-9.839l8.77-10.7s2.421-9.933,8.5-6.059-6.931,13.146-6.931,13.146S533.726,256.84,533.061,257.567Z" transform="translate(-350.928 -157.579)" fill="#fbbebe"/>
      <path id="Path_518" data-name="Path 518" d="M562.248,335.493s-2.544,14.055-2.748,10.6-4.7-5.212-4.7-5.212-1.178-.48-2.588-1.13c.454-3.22,3.805-5.514,6.415-6.833.7.251,1.141.393,1.141.393Z" transform="translate(-371.636 -218.725)" opacity="0.1"/>
      <path id="Path_519" data-name="Path 519" d="M566.358,331.678l-2.664-2.428s-17.235,5.452-5.6,15.781h4.9l4.492-5.968Z" transform="translate(-372.813 -216.388)" fill="#fff"/>
      <path id="Path_520" data-name="Path 520" d="M625.926,328.464c.036.12.076.24.116.363a13.1,13.1,0,0,1-13.862-5.07,24.089,24.089,0,0,0,2.377-3.078s13.357-.636,11.267,2.544C625.021,324.455,625.3,326.469,625.926,328.464Z" transform="translate(-409.81 -210.899)" opacity="0.1"/>
      <path id="Path_521" data-name="Path 521" d="M631.658,284.354a13.033,13.033,0,1,1-3.817-9.267A13.084,13.084,0,0,1,631.658,284.354Z" transform="translate(-405.551 -179.481)" fill="#fbbebe"/>
      <path id="Path_522" data-name="Path 522" d="M631.868,284.309a13.035,13.035,0,0,1-1.018,5.063,5.891,5.891,0,0,1-2.228.036,1.319,1.319,0,0,1-.789-.363,1.454,1.454,0,0,1-.265-.727q-.207-1.21-.407-2.413a4.351,4.351,0,0,1-3.635-.5c-1.09-.618-2.05-1.479-3.111-2.181a5.033,5.033,0,0,0-3.576-.974,6.048,6.048,0,0,0-1.912.8,13.365,13.365,0,0,0-3.271,2.446,6.088,6.088,0,0,1-2.155,1.93,2.282,2.282,0,0,1-2.846-1.454,12.825,12.825,0,0,1-.142-2.086,1.621,1.621,0,0,0-.694-1.207,13.084,13.084,0,0,1,26.07,1.61Z" transform="translate(-405.761 -179.436)" opacity="0.1"/>
      <path id="Path_523" data-name="Path 523" d="M603.723,275.547a12.818,12.818,0,0,0,.142,2.086,2.282,2.282,0,0,0,2.846,1.454,6.156,6.156,0,0,0,2.155-1.93,13.365,13.365,0,0,1,3.271-2.446,6.048,6.048,0,0,1,1.912-.8,5.109,5.109,0,0,1,3.576.974c1.065.687,2.006,1.552,3.111,2.181a4.32,4.32,0,0,0,3.635.5l.407,2.413a1.453,1.453,0,0,0,.265.727,1.319,1.319,0,0,0,.789.363,5.884,5.884,0,0,0,2.708-.156,1.555,1.555,0,0,0,1.061-.756,1.7,1.7,0,0,0,.109-.574,31.517,31.517,0,0,0-2.1-13.622,9.53,9.53,0,0,0-2.751-4.194,11.107,11.107,0,0,0-2.544-1.345c-2.719-1.152-5.713-2.326-8.552-1.5a12.864,12.864,0,0,0-3.449,1.817l-5.088,3.376a3.179,3.179,0,0,0-.727.6,3.469,3.469,0,0,0-.549,1.2,23.258,23.258,0,0,1-2.086,4.681,2.321,2.321,0,0,0-.393.97,2.218,2.218,0,0,0,.211.934c.262.68.364,1.185.96,1.585A1.874,1.874,0,0,1,603.723,275.547Z" transform="translate(-402.992 -171.441)" fill="#3f3d56"/>
      <g id="Group_68" data-name="Group 68" transform="translate(181.018 78.127)" opacity="0.1">
        <path id="Path_524" data-name="Path 524" d="M566.272,305.115a12.2,12.2,0,0,0-2.624,1.058,1.511,1.511,0,0,1-.523.3,1.148,1.148,0,0,1-.661-.127,27.177,27.177,0,0,1-4-2.075.527.527,0,0,1,.218.607,8.018,8.018,0,0,1-5.045-4.663c-.291-.745.055.8,0,0-.08,1.159-.422,0,0,1.09a8.017,8.017,0,0,0,5.03,4.663.527.527,0,0,0-.218-.607,27.182,27.182,0,0,0,4,2.075,1.148,1.148,0,0,0,.661.127,1.511,1.511,0,0,0,.523-.3,11.841,11.841,0,0,1,2.624-1.058c.876-.356,1.748-1.09,1.694-2.054a1.529,1.529,0,0,0-.105-.462A2.824,2.824,0,0,1,566.272,305.115Z" transform="translate(-553.432 -275.898)"/>
        <path id="Path_525" data-name="Path 525" d="M600.17,249.447a2.17,2.17,0,0,0,.065.462,9.375,9.375,0,0,1,.418-1.279,14.176,14.176,0,0,0,.84-5.379,14.063,14.063,0,0,1-.84,4.289A5.21,5.21,0,0,0,600.17,249.447Z" transform="translate(-583.183 -239.772)"/>
        <path id="Path_526" data-name="Path 526" d="M679.431,290.012a7.24,7.24,0,0,0-2.3-2.442c.1.432.193.869.276,1.308a6.478,6.478,0,0,1,2.024,2.224,5.263,5.263,0,0,1,.407,2v-.985A5.381,5.381,0,0,0,679.431,290.012Z" transform="translate(-632.172 -267.984)"/>
        <path id="Path_527" data-name="Path 527" d="M568.692,236.755c.109-.534.4-.3.16-.807-.4-.821-1.29-1.483-1.606-2.268a1.37,1.37,0,0,0-.087.269c-.236,1.188,1.01,1.712,1.534,2.806C568.769,236.911,568.369,235.977,568.692,236.755Z" transform="translate(-562.151 -233.68)"/>
        <path id="Path_528" data-name="Path 528" d="M591.758,276.92a2.668,2.668,0,0,0-.363.065,10.5,10.5,0,0,0-2.937,1.5l-4.478,2.929a3.689,3.689,0,0,0-1.09.938,1.981,1.981,0,0,0-.244,1.625,1.726,1.726,0,0,1,.244-.534,3.688,3.688,0,0,1,1.09-.938l4.478-2.929a10.73,10.73,0,0,1,2.857-1.479C591.471,277.709,591.62,277.313,591.758,276.92Z" transform="translate(-571.979 -261.205)"/>
        <path id="Path_529" data-name="Path 529" d="M695.28,317.11a3.321,3.321,0,0,1-.7,1.432A5.209,5.209,0,0,1,692.427,320a2.679,2.679,0,0,0-1.294.774,1.682,1.682,0,0,0-.142,1.37,1.126,1.126,0,0,1,.142-.28,2.6,2.6,0,0,1,1.294-.774,5.209,5.209,0,0,0,2.155-1.454,3.032,3.032,0,0,0,.727-2.442A.165.165,0,0,0,695.28,317.11Z" transform="translate(-640.942 -286.787)"/>
        <path id="Path_530" data-name="Path 530" d="M703.5,300.46c-.473.978-1.5,1.759-1.486,2.846a2.1,2.1,0,0,0,.084.538,19.227,19.227,0,0,1,1.4-2.293,4,4,0,0,0,.294-2.181A3.4,3.4,0,0,1,703.5,300.46Z" transform="translate(-648.009 -275.495)"/>
        <path id="Path_531" data-name="Path 531" d="M625.091,302.514a1.319,1.319,0,0,0,.789.363,5.884,5.884,0,0,0,2.708-.156,1.555,1.555,0,0,0,1.061-.756,1.7,1.7,0,0,0,.109-.574c.062-.894.08-1.788.062-2.682,0,.531-.025,1.061-.062,1.592a1.7,1.7,0,0,1-.109.574,1.556,1.556,0,0,1-1.061.756,5.884,5.884,0,0,1-2.708.156,1.32,1.32,0,0,1-.789-.363,1.455,1.455,0,0,1-.265-.727q-.207-1.21-.407-2.413a4.351,4.351,0,0,1-3.634-.5c-1.09-.618-2.05-1.479-3.111-2.181a5.033,5.033,0,0,0-3.576-.974,6.049,6.049,0,0,0-1.912.8,13.364,13.364,0,0,0-3.271,2.446,6.088,6.088,0,0,1-2.155,1.93,2.283,2.283,0,0,1-2.846-1.454,12.817,12.817,0,0,1-.142-2.086,1.874,1.874,0,0,0-1.09-1.483c-.6-.393-.7-.905-.96-1.585-.033-.087-.069-.182-.1-.273a1.361,1.361,0,0,0-.113.429,2.215,2.215,0,0,0,.211.934c.262.68.363,1.185.96,1.585a1.924,1.924,0,0,1,1.09,1.483,12.818,12.818,0,0,0,.142,2.086,2.283,2.283,0,0,0,2.846,1.454,6.156,6.156,0,0,0,2.155-1.93,13.365,13.365,0,0,1,3.271-2.446,6.052,6.052,0,0,1,1.912-.8,5.109,5.109,0,0,1,3.576.974c1.065.687,2.006,1.552,3.111,2.181a4.32,4.32,0,0,0,3.634.5l.407,2.413A1.455,1.455,0,0,0,625.091,302.514Z" transform="translate(-584.036 -271.396)"/>
        <path id="Path_532" data-name="Path 532" d="M673.43,339.5c-.687.218-1.508.069-2.075.509s-.625,1.319-.978,1.974a2.261,2.261,0,0,1-2.958.887,2.285,2.285,0,0,1,.127-.989,1.861,1.861,0,0,1-2.075-.847,1.9,1.9,0,0,1-.185-.476,2.235,2.235,0,0,0,.185,1.567,1.861,1.861,0,0,0,2.075.847,2.286,2.286,0,0,0-.127.989,2.261,2.261,0,0,0,2.958-.887c.363-.654.389-1.516.978-1.974s1.389-.291,2.075-.509a2.744,2.744,0,0,0,1.53-3.129A2.421,2.421,0,0,1,673.43,339.5Z" transform="translate(-624.59 -299.741)"/>
      </g>
      <path id="Path_533" data-name="Path 533" d="M606.906,271.639a13.054,13.054,0,0,1-1.592,2.729,3.747,3.747,0,0,0-.414.073,6.7,6.7,0,0,0-1.119.425,22.7,22.7,0,0,1,1.37-3.656C605.55,271.341,606.237,271.454,606.906,271.639Z" transform="translate(-404.463 -179.443)" fill="#fe9805"/>
      <path id="Path_534" data-name="Path 534" d="M677.038,286.927c-.3-.262-.622-.509-.934-.76-.182-.727-.363-1.6-.483-2.37a3.608,3.608,0,0,0,.727-.058A10.006,10.006,0,0,1,677.038,286.927Z" transform="translate(-450.193 -187.419)" fill="#fe9805"/>
      <path id="Path_535" data-name="Path 535" d="M907.7,356.968c.113-.055.222-.109.331-.171-.222-.044-.443-.095-.662-.149-.156.044-.316.076-.476.113a17.908,17.908,0,0,1-8-4.823,12.61,12.61,0,0,1-3.736-8.577c.025-2.319.876-4.579.85-6.906s-1.378-4.947-3.747-5.208a17.3,17.3,0,0,0-2.482.153,1.98,1.98,0,0,1-2.217-2.9c.632-1.777,2.053-3.213,2.664-5a6,6,0,0,0,.164-3.293,3.3,3.3,0,0,0-1.541-2.257c-1.4-.727-3.071.116-4.63.411-2.668.509-5.375-.651-7.672-2.068s-4.449-3.14-7.033-3.973a16.925,16.925,0,0,0-5.219-.676,4.576,4.576,0,0,0-3.075.8c-.04.036-.069.076-.109.113a2.811,2.811,0,0,1,.316-.636,2.257,2.257,0,0,0-.338.251c-1.668,1.472-.5,4.281-1.483,6.251a3.268,3.268,0,0,1-.4.611,4.8,4.8,0,0,0,.647-.6c-.036.087-.069.174-.112.262a5.9,5.9,0,0,1-2.908,2.377,9.625,9.625,0,0,0-3.238,2.035c-.022.022-.036.044-.058.069a3.555,3.555,0,0,1,.582-.96,4.768,4.768,0,0,0-.658.614c-.912,1.058-.981,1.937-.574,2.613a3.137,3.137,0,0,0,2.214,1.61c-.051.229-.1.458-.138.691a11.508,11.508,0,0,0-.138,1.745,11.352,11.352,0,0,0,9.028,10.991,6.584,6.584,0,0,1-.058.727c-.174,1.65-.683,3.438-2.017,3.874-1.247-.425-3.744,1.454-4.3,2s-2.544.058-4.361.12a3.66,3.66,0,0,1-2.432-.483,10.351,10.351,0,0,0-.065,2.966c.189,1.817-1.308,1.879-1.308,1.879a8.92,8.92,0,0,1-.363,3.936,4.417,4.417,0,0,0-.5,2.49s2.119-.182,1.93.545a.647.647,0,0,0,.123.483l-.022.694-.287,9.6-.56,5.724a.967.967,0,0,0-.625.574c-.505,1.149-1.319,2.679-1.959,3.849-2.6,1.574-6.5,4.492-5.4,7.3,1.621,4.122,3.929,3.576,5.3,3.089s3.82-4.3,3.82-4.3.81-1.516,1.432-1.516a8.063,8.063,0,0,0,.992-.105v.105s-1.308,5.15-.872,6.422a6.237,6.237,0,0,1,.062,2.908s-.363,3.754.124,4.968-.676,4.474-.676,4.474.334.1.912.243c-.044.207-.094.436-.149.691-.763,3.609-2.133,11.848-.574,18.63,0,0,.872,3.635,1,4.609s.872,1.817.363,4,1,6.182,1,6.182.749,3.816.313,5.572,4.55,21.444,4.55,21.444l.814-.116.182.7.81,3.126.087.342a2.69,2.69,0,0,0-1.454.916s-2.181,4.968-4.925,6.36c-.727.363-1.617.85-2.475,1.378-2.45,1.5-4.551,3.3-.981,3.347,3.911.051,10.336.258,12.641.334a5.5,5.5,0,0,0,2.6.393c6.419-.12,15.523-.789,15.712-1.392.091-.294-.291-.92-.7-1.483s-.92-1.123-.92-1.123l-.185-5.514s-.523-.473-1.334-1.123l-.029-.385-.407-5.317-.055-.727a2.1,2.1,0,0,0,.763-.331l.44-5.506s2.679-9.206-.749-18.234c0,0-2.991-6.237-2.181-8.479l.127-4.787s1.432-5.637,2.119-7.149a38.748,38.748,0,0,0,2.137-7.225c2.461-3.9,2.057-9.086,2.057-9.086l1.745-5.452,2.431-6.964s.687-4.241.938-5.088a39.025,39.025,0,0,0,0-5.452s2.108-16.791.345-23.352v-.251h.018v-.363c.029-.033,1.919-2,1.054-2.544-.727-.451-2.032-2.464-3.028-3.667-.134-.156-.258-.3-.364-.425a12.461,12.461,0,0,0,3-3.329c.305-.5.68-1.09,1.276-1.116a1.61,1.61,0,0,1,.89.294c4.569,2.737,5.3,9.581,10.119,11.881a7.189,7.189,0,0,0,6.429-.185ZM871.155,466.417l-.04.363a1.967,1.967,0,0,0-.454.225s-.625,3.209-1,3.453a3.007,3.007,0,0,0-.462.814l-.091-.164c-.029.065-.062.131-.091.2L868.85,471l-.047-.363-1.04-8.036a36.817,36.817,0,0,1,.029-7.105c.436-2.424.363-10.9-2.432-14.294,0,0-1.308-3.089-.123-5.088l.185-12.6.436-.425.062,11.63a11.73,11.73,0,0,0,2.806,6.666l.44,6.117a57.258,57.258,0,0,0,1.494,10.358v5.7s.3.051.785.12l-.076.727Z" transform="translate(-555.759 -205.18)" fill="url(#linear-gradient-2)"/>
      <path id="Path_536" data-name="Path 536" d="M910.808,377.1l-2.606,5.815-.963.563-6.488,3.8s-8.178-.789-8.417-.909-.625-7.065,1.49-8.527a1.4,1.4,0,0,1,.382-.193h0c1.3-.436,1.792-2.224,1.963-3.874.026-.244.044-.48.055-.727a17.273,17.273,0,0,0,0-2.319s1.984-1.984,4.361-4.038c4.212-3.634,9.66-7.469,7.571-.93a21.862,21.862,0,0,0-.85,3.613c-.044.287-.073.567-.095.832-.254,3.22.752,4.957,1.766,5.881.109.1.222.189.331.273A4,4,0,0,0,910.808,377.1Z" transform="translate(-588.019 -237.374)" fill="#cf6f80"/>
      <path id="Path_537" data-name="Path 537" d="M845.884,717.711l-.909.422-6.117-1.392-.545-2.166-.789-3.126-.545-2.159h7.847l1.01,8.043Z" transform="translate(-532.789 -451.503)" fill="#cf6f80"/>
      <path id="Path_538" data-name="Path 538" d="M902.662,745.811l-6.117-1.392L896,742.239c2.319-.694,5.7,1.257,5.7,1.257-.222.771,1.519,1.4,1.817,1.5l.047.363Z" transform="translate(-590.476 -479.181)" opacity="0.1"/>
      <path id="Path_539" data-name="Path 539" d="M909.462,754.746l-4.387,4.3-1.548,1.515-.839-.029c-1.581-.887.469-3.042,1.839-4.238.269-.236.513-.432.7-.578.981-.767,1.9-2.951,2.49-4.256Z" transform="translate(-594.368 -485.146)" opacity="0.1"/>
      <path id="Path_540" data-name="Path 540" d="M907.714,751.46l1.748,3.271-4.387,4.3-1.548,1.53-.839-.029c-1.581-.887.469-3.042,1.839-4.238.269-.236.513-.432.7-.578C906.205,754.949,907.125,752.765,907.714,751.46Z" transform="translate(-594.368 -485.146)" opacity="0.1"/>
      <path id="Path_541" data-name="Path 541" d="M930.388,743.31l-8.058-2.726.24-2.3c2.1-.727,5.753,1.915,7.705,3.518Z" transform="translate(-607.236 -476.68)" opacity="0.1"/>
      <path id="Path_542" data-name="Path 542" d="M885.733,749.806l-4.387,4.3-1.548,1.516s-8.421-.3-13.11-.363c-3.467-.047-1.428-1.85.952-3.347.836-.527,1.712-1.014,2.406-1.378,2.664-1.392,4.783-6.36,4.783-6.36,2-2.544,7.029.363,7.029.363-.244.847,1.875,1.516,1.875,1.516Z" transform="translate(-570.639 -479.843)" fill="#3f3d56"/>
      <path id="Path_543" data-name="Path 543" d="M881.346,769.485,879.8,771s-8.421-.3-13.11-.363c-3.467-.047-1.428-1.85.952-3.347a3.8,3.8,0,0,1,3.009,2.181Z" transform="translate(-570.639 -495.223)" opacity="0.1"/>
      <path id="Path_544" data-name="Path 544" d="M875.038,716.541l-8.058-2.726.24-2.3.207-2.01.28-2.715h6.6l.218,2.926.4,5.317Z" transform="translate(-551.886 -449.911)" fill="#cf6f80"/>
      <path id="Path_545" data-name="Path 545" d="M920.488,752.064c-.182.6-9.028,1.272-15.265,1.392-5.415.105-2.482-3.075-.7-4.63.269-.236.512-.432.7-.578,1.392-1.09,2.664-5.03,3.027-5.27s.971-3.453.971-3.453c2.726-1.941,9.508,4.419,9.508,4.419l.182,5.514s.465.527.894,1.123S920.575,751.769,920.488,752.064Z" transform="translate(-594.367 -477.315)" fill="#3f3d56"/>
      <path id="Path_546" data-name="Path 546" d="M920.488,769c-.182.6-9.028,1.272-15.265,1.392-5.415.105-2.482-3.075-.7-4.63a8.034,8.034,0,0,1,3.424,2.751h6.964a40.633,40.633,0,0,0,4.892-1C920.2,768.079,920.575,768.7,920.488,769Z" transform="translate(-594.367 -494.249)" opacity="0.1"/>
      <path id="Path_547" data-name="Path 547" d="M900.13,728c.04.665.076,1.09.076,1.09l-7.331,1.069L892.33,728Z" transform="translate(-588.14 -470.213)" opacity="0.1"/>
      <path id="Path_548" data-name="Path 548" d="M930.662,728.426c-1.792.5-5.553.018-7.1-.211l.28-2.715h6.6Z" transform="translate(-608.019 -468.621)" opacity="0.1"/>
      <path id="Path_549" data-name="Path 549" d="M896.911,593.21c3.329,9.028.727,18.234.727,18.234l-.425,5.514c-1.516,1.21-8.479,0-8.479,0v-5.7a59.74,59.74,0,0,1-1.454-10.358l-.425-6.117a11.92,11.92,0,0,1-2.726-6.666l-.062-11.63-.422.425-.182,12.6c-1.152,2,.12,5.088.12,5.088,2.726,3.391,2.788,11.87,2.362,14.294a41.021,41.021,0,0,0,0,7.451l-8.3,1.21s-4.848-19.684-4.423-21.444-.3-5.572-.3-5.572-1.454-4-.97-6.179-.244-3.028-.363-4-.97-4.6-.97-4.6c-1.512-6.782-.182-15.021.56-18.63.236-1.16.411-1.843.411-1.843s22.534-6.542,26.35-1.09a7.827,7.827,0,0,1,1.032,2.148c1.865,5.892-1.414,15.112-2,16.45-.665,1.512-2.057,7.145-2.057,7.145l-.124,4.787C894,586.973,896.911,593.21,896.911,593.21Z" transform="translate(-573.879 -358.2)" fill="#3f3d56"/>
      <circle id="Ellipse_47" data-name="Ellipse 47" cx="0.244" cy="0.244" r="0.244" transform="translate(316.969 243.794)" fill="#6c63ff"/>
      <circle id="Ellipse_48" data-name="Ellipse 48" cx="0.244" cy="0.244" r="0.244" transform="translate(304.91 249.871)" fill="#6c63ff"/>
      <circle id="Ellipse_49" data-name="Ellipse 49" cx="0.244" cy="0.244" r="0.244" transform="translate(304.067 246.037)" fill="#6c63ff"/>
      <circle id="Ellipse_50" data-name="Ellipse 50" cx="0.244" cy="0.244" r="0.244" transform="translate(305.732 246.339)" fill="#6c63ff"/>
      <circle id="Ellipse_51" data-name="Ellipse 51" cx="0.244" cy="0.244" r="0.244" transform="translate(305.019 248.392)" fill="#6c63ff"/>
      <circle id="Ellipse_52" data-name="Ellipse 52" cx="0.244" cy="0.244" r="0.244" transform="translate(315.941 247.792)" fill="#6c63ff"/>
      <circle id="Ellipse_53" data-name="Ellipse 53" cx="0.244" cy="0.244" r="0.244" transform="translate(321.029 249.184)" fill="#6c63ff"/>
      <circle id="Ellipse_54" data-name="Ellipse 54" cx="0.244" cy="0.244" r="0.244" transform="translate(322.665 247.549)" fill="#6c63ff"/>
      <circle id="Ellipse_55" data-name="Ellipse 55" cx="0.244" cy="0.244" r="0.244" transform="translate(317.456 246.582)" fill="#6c63ff"/>
      <circle id="Ellipse_56" data-name="Ellipse 56" cx="0.244" cy="0.244" r="0.244" transform="translate(307.574 244.921)" fill="#6c63ff"/>
      <circle id="Ellipse_57" data-name="Ellipse 57" cx="0.244" cy="0.244" r="0.244" transform="translate(309.595 246.339)" fill="#6c63ff"/>
      <circle id="Ellipse_58" data-name="Ellipse 58" cx="0.244" cy="0.244" r="0.244" transform="translate(306.12 252.488)" fill="#6c63ff"/>
      <circle id="Ellipse_59" data-name="Ellipse 59" cx="0.244" cy="0.244" r="0.244" transform="translate(306.956 255.425)" fill="#6c63ff"/>
      <circle id="Ellipse_60" data-name="Ellipse 60" cx="0.244" cy="0.244" r="0.244" transform="translate(309.7 256.45)" fill="#6c63ff"/>
      <circle id="Ellipse_61" data-name="Ellipse 61" cx="0.244" cy="0.244" r="0.244" transform="translate(308.058 256.635)" fill="#6c63ff"/>
      <circle id="Ellipse_62" data-name="Ellipse 62" cx="0.244" cy="0.244" r="0.244" transform="translate(306.604 258.02)" fill="#6c63ff"/>
      <circle id="Ellipse_63" data-name="Ellipse 63" cx="0.244" cy="0.244" r="0.244" transform="translate(307.818 248.149)" fill="#6c63ff"/>
      <circle id="Ellipse_64" data-name="Ellipse 64" cx="0.244" cy="0.244" r="0.244" transform="translate(307.818 251.125)" fill="#6c63ff"/>
      <circle id="Ellipse_65" data-name="Ellipse 65" cx="0.244" cy="0.244" r="0.244" transform="translate(309.355 253.084)" fill="#6c63ff"/>
      <circle id="Ellipse_66" data-name="Ellipse 66" cx="0.244" cy="0.244" r="0.244" transform="translate(307.959 253.967)" fill="#6c63ff"/>
      <circle id="Ellipse_67" data-name="Ellipse 67" cx="0.244" cy="0.244" r="0.244" transform="translate(305.15 258.02)" fill="#6c63ff"/>
      <circle id="Ellipse_68" data-name="Ellipse 68" cx="0.244" cy="0.244" r="0.244" transform="translate(309.461 254.48)" fill="#6c63ff"/>
      <circle id="Ellipse_69" data-name="Ellipse 69" cx="0.244" cy="0.244" r="0.244" transform="translate(321.029 245.793)" fill="#6c63ff"/>
      <circle id="Ellipse_70" data-name="Ellipse 70" cx="0.244" cy="0.244" r="0.244" transform="translate(318.638 249.184)" fill="#6c63ff"/>
      <circle id="Ellipse_71" data-name="Ellipse 71" cx="0.244" cy="0.244" r="0.244" transform="translate(316.969 254.211)" fill="#6c63ff"/>
      <circle id="Ellipse_72" data-name="Ellipse 72" cx="0.244" cy="0.244" r="0.244" transform="translate(316.424 257.544)" fill="#6c63ff"/>
      <circle id="Ellipse_73" data-name="Ellipse 73" cx="0.244" cy="0.244" r="0.244" transform="translate(319.274 247.065)" fill="#6c63ff"/>
      <circle id="Ellipse_74" data-name="Ellipse 74" cx="0.244" cy="0.244" r="0.244" transform="translate(318.394 250.638)" fill="#6c63ff"/>
      <circle id="Ellipse_75" data-name="Ellipse 75" cx="0.244" cy="0.244" r="0.244" transform="translate(319.121 253.328)" fill="#6c63ff"/>
      <circle id="Ellipse_76" data-name="Ellipse 76" cx="0.244" cy="0.244" r="0.244" transform="translate(315.305 256.064)" fill="#6c63ff"/>
      <circle id="Ellipse_77" data-name="Ellipse 77" cx="0.244" cy="0.244" r="0.244" transform="translate(317.456 255.181)" fill="#6c63ff"/>
      <circle id="Ellipse_78" data-name="Ellipse 78" cx="0.244" cy="0.244" r="0.244" transform="translate(316.73 255.908)" fill="#6c63ff"/>
      <circle id="Ellipse_79" data-name="Ellipse 79" cx="0.244" cy="0.244" r="0.244" transform="translate(321.029 254.851)" fill="#6c63ff"/>
      <circle id="Ellipse_80" data-name="Ellipse 80" cx="0.244" cy="0.244" r="0.244" transform="translate(321.029 255.668)" fill="#6c63ff"/>
      <circle id="Ellipse_81" data-name="Ellipse 81" cx="0.244" cy="0.244" r="0.244" transform="translate(318.638 257.544)" fill="#6c63ff"/>
      <circle id="Ellipse_82" data-name="Ellipse 82" cx="0.244" cy="0.244" r="0.244" transform="translate(317.94 258.263)" fill="#6c63ff"/>
      <circle id="Ellipse_83" data-name="Ellipse 83" cx="0.244" cy="0.244" r="0.244" transform="translate(319.604 256.064)" fill="#6c63ff"/>
      <circle id="Ellipse_84" data-name="Ellipse 84" cx="0.244" cy="0.244" r="0.244" transform="translate(317.696 257.304)" fill="#6c63ff"/>
      <circle id="Ellipse_85" data-name="Ellipse 85" cx="0.244" cy="0.244" r="0.244" transform="translate(321.93 254.211)" fill="#6c63ff"/>
      <circle id="Ellipse_86" data-name="Ellipse 86" cx="0.244" cy="0.244" r="0.244" transform="translate(322.421 255.668)" fill="#6c63ff"/>
      <circle id="Ellipse_87" data-name="Ellipse 87" cx="0.244" cy="0.244" r="0.244" transform="translate(318.878 255.181)" fill="#6c63ff"/>
      <circle id="Ellipse_88" data-name="Ellipse 88" cx="0.244" cy="0.244" r="0.244" transform="translate(319.604 257.656)" fill="#6c63ff"/>
      <circle id="Ellipse_89" data-name="Ellipse 89" cx="0.244" cy="0.244" r="0.244" transform="translate(321.029 257.304)" fill="#6c63ff"/>
      <circle id="Ellipse_90" data-name="Ellipse 90" cx="0.244" cy="0.244" r="0.244" transform="translate(320.786 258.263)" fill="#6c63ff"/>
      <circle id="Ellipse_91" data-name="Ellipse 91" cx="0.244" cy="0.244" r="0.244" transform="translate(319.604 258.507)" fill="#6c63ff"/>
      <circle id="Ellipse_92" data-name="Ellipse 92" cx="0.244" cy="0.244" r="0.244" transform="translate(320.786 252.343)" fill="#6c63ff"/>
      <circle id="Ellipse_93" data-name="Ellipse 93" cx="0.244" cy="0.244" r="0.244" transform="translate(304.092 254.236)" fill="#6c63ff"/>
      <circle id="Ellipse_94" data-name="Ellipse 94" cx="0.244" cy="0.244" r="0.244" transform="translate(304.092 255.054)" fill="#6c63ff"/>
      <circle id="Ellipse_95" data-name="Ellipse 95" cx="0.244" cy="0.244" r="0.244" transform="translate(304.994 253.6)" fill="#6c63ff"/>
      <circle id="Ellipse_96" data-name="Ellipse 96" cx="0.244" cy="0.244" r="0.244" transform="translate(305.728 256.45)" fill="#6c63ff"/>
      <circle id="Ellipse_97" data-name="Ellipse 97" cx="0.244" cy="0.244" r="0.244" transform="translate(305.484 255.054)" fill="#6c63ff"/>
      <circle id="Ellipse_98" data-name="Ellipse 98" cx="0.244" cy="0.244" r="0.244" transform="translate(304.092 256.69)" fill="#6c63ff"/>
      <circle id="Ellipse_99" data-name="Ellipse 99" cx="0.244" cy="0.244" r="0.244" transform="translate(303.849 251.732)" fill="#6c63ff"/>
      <path id="Path_550" data-name="Path 550" d="M850.48,541.822l.607,18.536.665-.487.487-19.081Z" transform="translate(-541.383 -344.244)" opacity="0.1"/>
      <path id="Path_551" data-name="Path 551" d="M863.768,489.388s-4.18-3.94-5.088-1.817-2.849,5.572-2.849,5.572l4.6,4.361s.789-1.516,1.392-1.516a19.924,19.924,0,0,0,2.363-.363Z" transform="translate(-564.905 -316.768)" fill="#cf6f80"/>
      <path id="Path_552" data-name="Path 552" d="M817.311,422.531l-2.788,20.957-1.047-1.6-3.5-5.361.545-5.757.28-9.6.084-2.875Z" transform="translate(-515.603 -266.267)" fill="#cf6f80"/>
      <path id="Path_553" data-name="Path 553" d="M915.215,365.794a20.123,20.123,0,0,0-.945,4.445,11.242,11.242,0,0,1-8.476,3.845,11.37,11.37,0,0,1-2.544-.291,17.518,17.518,0,0,0,.036-3.031S918.486,355.556,915.215,365.794Z" transform="translate(-595.091 -237.395)" opacity="0.1"/>
      <path id="Path_554" data-name="Path 554" d="M901.784,342.061a11.224,11.224,0,0,1-2.7,7.316,11.267,11.267,0,0,1-19.837-7.316,11.513,11.513,0,0,1,.135-1.745,11.267,11.267,0,0,1,22.4,1.745Z" transform="translate(-579.813 -217.365)" fill="#cf6f80"/>
      <path id="Path_555" data-name="Path 555" d="M870.835,442.753c-1.334-1.134-2.828-2.148-3.235-2.879l.084-2.875,6.422,4.241L871.318,462.2l-1.028-1.6a8.089,8.089,0,0,1,.443-2.635c.727-1.454.182-3.7.182-4.423s1.028-1.879.967-2.362a28.75,28.75,0,0,0-.363-3.027C871.26,446.995,872.47,444.149,870.835,442.753Z" transform="translate(-572.398 -284.977)" opacity="0.1"/>
      <path id="Path_556" data-name="Path 556" d="M901.163,556.349v.033s-7.938-1.272-14.116.909c-5.066,1.788-11.521.4-13.676-.156.236-1.159.411-1.843.411-1.843s22.534-6.542,26.35-1.09A7.826,7.826,0,0,1,901.163,556.349Z" transform="translate(-576.071 -358.2)" opacity="0.1"/>
      <path id="Path_557" data-name="Path 557" d="M910.808,401.413l-2.606,5.815-7.451,4.361s-8.178-.789-8.417-.909-.625-7.065,1.49-8.527c-.6,1.679-1.247,5.088,3.173,5.375a18.34,18.34,0,0,0,11.969-7.12,4.179,4.179,0,0,0,1.843,1Z" transform="translate(-588.019 -261.685)" opacity="0.1"/>
      <path id="Path_558" data-name="Path 558" d="M901.389,413.33l-.124,2.726L894,459.426s-7.934-1.272-14.113.909-14.418-.363-14.418-.363,1.152-3.271.669-4.481-.124-4.968-.124-4.968a6.433,6.433,0,0,0-.058-2.908c-.422-1.272.847-6.422.847-6.422s-.3-5.51.425-6.964.182-3.7.182-4.423,1.029-1.879.967-2.362a28.766,28.766,0,0,0-.363-3.028c-.24-1.152.97-4-.665-5.394s-3.514-2.6-3.333-3.329-1.875-.545-1.875-.545a4.5,4.5,0,0,1,.483-2.486,9.093,9.093,0,0,0,.363-3.936s1.454-.062,1.272-1.879a10.612,10.612,0,0,1,.062-2.966,3.5,3.5,0,0,0,2.362.483c1.759-.062,3.693.425,4.238-.12s2.969-2.424,4.18-2h0c-.094.185-2.991,5.939,2.791,6.295a18.336,18.336,0,0,0,12.3-7.574s.665-.727,2.846,1.639,4.056,1.454,4.056,1.454l2.424.182s-1.574,1.33-.607,2.239a6.27,6.27,0,0,1,.571.636c.971,1.2,2.246,3.216,2.944,3.667C903.264,411.331,901.389,413.33,901.389,413.33Z" transform="translate(-568.907 -261.972)" fill="#fe9805"/>
      <path id="Path_559" data-name="Path 559" d="M851,496s-8.9,4.362-7.331,8.479,3.816,3.576,5.15,3.089,3.754-4.3,3.754-4.3Z" transform="translate(-557.048 -322.533)" fill="#cf6f80"/>
      <path id="Path_560" data-name="Path 560" d="M931.482,428.93c0,.389-2.272,5.3,0,6.568S931.482,428.93,931.482,428.93Z" transform="translate(-612.419 -279.84)" opacity="0.1"/>
      <path id="Path_561" data-name="Path 561" d="M880.143,424.25s-3.209,3.453-1.879,3.816S880.143,424.25,880.143,424.25Z" transform="translate(-578.98 -276.861)" opacity="0.1"/>
      <path id="Path_562" data-name="Path 562" d="M933.976,433.976s1.392,8.6,1.454,11.147.425,6.662.425,6.662,1.029,9.813-.545,13.811a22.5,22.5,0,0,0-1.334,8.359s-4.6,8.966-5.27,9.875.545,9.511,5.39,5.877,4.242-11.572,4.242-11.572l1.7-5.452,2.362-6.964s.665-4.242.909-5.088a40.166,40.166,0,0,0,0-5.452s2.846-23.323-.97-25.747S933.976,433.976,933.976,433.976Z" transform="translate(-611.187 -279.834)" fill="#cf6f80"/>
      <path id="Path_563" data-name="Path 563" d="M941.4,428.489s5.7-6.24,7.451-5.7,2.242.305,2.242.305.24-3.453-2.362-4.725-5.452-5.15-7.632-.545S941.4,428.489,941.4,428.489Z" transform="translate(-618.613 -271.377)" opacity="0.1"/>
      <path id="Path_564" data-name="Path 564" d="M941.4,427.489s5.7-6.24,7.451-5.7,2.242.305,2.242.305.24-3.453-2.362-4.725-5.452-5.15-7.632-.545S941.4,427.489,941.4,427.489Z" transform="translate(-618.613 -270.741)" fill="#fe9805"/>
      <path id="Path_565" data-name="Path 565" d="M910.6,362.529a11.53,11.53,0,0,1-1.319.985,9.816,9.816,0,0,1-3.813,1.454,8.516,8.516,0,0,1-3.438-.193,8.325,8.325,0,0,1-2.777-1.29,7.058,7.058,0,0,1-2.1-2.337c-.073-.131-.138-.262-.2-.393-1.221-2.573-.894-5.637-1.432-8.476-.04-.2-.084-.4-.131-.6a9.881,9.881,0,0,0-2.8-4.968c-1.945-1.879-4.565-3.02-7.269-4.438a13.278,13.278,0,0,0-4.7-1.719,6.1,6.1,0,0,1-1.029-.222,11.267,11.267,0,1,1,19.7,9.061c-.044.287-.073.567-.095.832-.254,3.22.752,4.957,1.766,5.881.109.1.222.189.331.273,0,0,.665-.727,2.846,1.639s4.056,1.454,4.056,1.454l2.424.182s-1.574,1.33-.607,2.239a6.263,6.263,0,0,1,.582.64Z" transform="translate(-580.03 -217.382)" opacity="0.1"/>
      <path id="Path_566" data-name="Path 566" d="M874.6,324.162a9.181,9.181,0,0,1,3.148-2.035,5.726,5.726,0,0,0,2.835-2.377c.952-1.97-.182-4.779,1.454-6.255a4.351,4.351,0,0,1,2.984-.8,16.123,16.123,0,0,1,5.088.676c2.508.832,4.6,2.544,6.833,3.972s4.859,2.577,7.454,2.068c1.516-.294,3.133-1.134,4.5-.411a3.307,3.307,0,0,1,1.5,2.257,6.18,6.18,0,0,1-.16,3.293c-.593,1.785-1.977,3.22-2.588,5a2.418,2.418,0,0,0,.033,2.021,2.352,2.352,0,0,0,2.137.876,16.284,16.284,0,0,1,2.41-.153c2.3.262,3.635,2.889,3.635,5.208s-.8,4.579-.829,6.905a12.774,12.774,0,0,0,3.635,8.574,17.209,17.209,0,0,0,9.013,5.136,6.8,6.8,0,0,1-6.248.185c-4.678-2.3-5.394-9.141-9.813-11.877a1.506,1.506,0,0,0-.865-.294c-.578.036-.941.618-1.239,1.112a11.211,11.211,0,0,1-7.68,5.474,8.214,8.214,0,0,1-8.319-3.82c-1.566-2.849-1-6.328-1.763-9.472-1.319-5.452-5.586-7.051-10.057-9.406A13.278,13.278,0,0,0,877,328.3C874.72,328.008,872.6,326.532,874.6,324.162Z" transform="translate(-576.345 -205.849)" fill="#3f3d56"/>
      <g id="Group_69" data-name="Group 69" transform="translate(297.32 107.123)" opacity="0.1">
        <path id="Path_567" data-name="Path 567" d="M892.116,319.235c.858-1.774.029-4.227,1.039-5.775a2.4,2.4,0,0,0-.331.251c-1.617,1.472-.483,4.281-1.436,6.251a3.427,3.427,0,0,1-.389.6A3.86,3.86,0,0,0,892.116,319.235Z" transform="translate(-884.613 -313.46)"/>
        <path id="Path_568" data-name="Path 568" d="M985.814,414.1c-4.681-2.3-5.4-9.141-9.835-11.881a1.523,1.523,0,0,0-.865-.294,1.486,1.486,0,0,0-1.054.818.913.913,0,0,1,.327-.091,1.523,1.523,0,0,1,.865.294c4.438,2.74,5.154,9.581,9.835,11.881a6.8,6.8,0,0,0,6.244-.185c-.214-.047-.432-.1-.647-.153A6.819,6.819,0,0,1,985.814,414.1Z" transform="translate(-937.485 -369.769)"/>
        <path id="Path_569" data-name="Path 569" d="M902.137,370.24a8.214,8.214,0,0,1-8.316-3.82c-1.563-2.846-1-6.331-1.763-9.471-1.323-5.452-5.59-7.051-10.06-9.406a13.19,13.19,0,0,0-4.692-1.719c-2.181-.287-4.278-1.719-2.45-4.023a4.419,4.419,0,0,0-.636.614c-1.992,2.37.131,3.845,2.359,4.136a13.188,13.188,0,0,1,4.692,1.719c4.47,2.355,8.723,3.94,10.06,9.406.76,3.14.2,6.64,1.763,9.472a8.236,8.236,0,0,0,8.316,3.82,10.678,10.678,0,0,0,6.15-3.424A10.43,10.43,0,0,1,902.137,370.24Z" transform="translate(-873.427 -331.5)"/>
      </g>
      <path id="Path_570" data-name="Path 570" d="M161.822,462.385c-2.246-.258-5.419-2.464-7.407-4,.989-.578,1.643-.978,1.643-.978s-4.725-4.75-4.154-7.858-1.134-17.268-1.134-17.268-2.646-2.01-1.228-7.127,1.417-6.4,1.417-6.4-.85-6.488-.283-8.039a20.318,20.318,0,0,0,.571-4.954l1.13-11.736.611-4.391c1.029,3.366,2.751,5.59,5.452,3.7,6.237-4.387,1.606-18.732,1.606-18.732s-.8-3.086-1.367-5.666l.309-.821s-.189-3.195,1.417-4.292,0-24.762,0-24.762l-.534-14.349h0v-.425a13.3,13.3,0,0,0-6.88-11.176l-.385-.2c-.022-.131-.044-.262-.065-.4-.305-1.861-.647-4.1-.872-6.317-.025-.24-.047-.476-.069-.727a14.7,14.7,0,0,0,11.278-14.134,14.131,14.131,0,0,0-.531-3.842c-.025-.095-.055-.189-.084-.28.865-.865,1.574-1.116,1.639-.552.095.821.8-.229.85-1.05s.236-.229.727-.229.567-.869-.189-1.323.142-.96.363-1.05.236-.959,0-.959a.235.235,0,0,1-.084-.025h-.025a1.3,1.3,0,0,1-.12-.062h0l-.149-.095-.04-.025-.164-.116h0c-.432-.309-.93-.727-.93-.727l.236-.182c.236-.182-.283-.64-.727-.683h-.091c-.443-.069-1.152-.323-.7-.534.1-.047.145-.1.153-.16h0a.218.218,0,0,0-.08-.167h0a.959.959,0,0,0-.218-.153h0l-.134-.062h0l-.131-.044h0a.98.98,0,0,0-.142-.029h-.265a10.25,10.25,0,0,1-1.785-.632v-.96l-.8-.371h0l-.661-.291.236-.883h-2.079l.283-.778-.956-.185-.225-.044v-.363l-1.276-.5v-.549h-1.534l.589-.458h-1.181c-3.086-2.115-11.776-1.963-15.239-.807s-4.474,2.01-9.2,11.939c-3.02,6.346.836,12.5,4.223,15.934h0c.113.116.225.225.338.334l.047.047.3.287.029.026.323.294.036.029.283.247.04.033.305.251h0l.276.214.047.036a5.8,5.8,0,0,0,.527.363l.051.033.218.142h.018c.073.047.145.087.214.127l.044.025.164.087h.036l.171.076h.029l.12.044h.033a.876.876,0,0,0,.12.025h.127a.177.177,0,0,0,.065-.029,4.532,4.532,0,0,1,1.4-.451l.363.291c.174.142.363.276.538.407.044.265.08.534.113.814a14.629,14.629,0,0,1-.342,5.321c-.036.134-.076.269-.116.4a7.153,7.153,0,0,0-3.925,2.991,103.216,103.216,0,0,0-5.859,10.053s-.6,4.256-1.625,5.266,1.89,19.1,1.89,19.1-3.5,6.942-.363,8.178-.283,2.239-.283,2.239.945,2.1-.85,2.282-2.835,3.384-2.835,3.384l-5.572,6.03,1.4.48c-.12.189-.244.385-.363.607a22.954,22.954,0,0,0-2.824,17.082c2.646,10.965,3.4,13.339,3.307,15.265s3.02,9.5,2.264,11.238-1.178,7.767.12,9.322a1.515,1.515,0,0,1-.494,2.464s1.934,2.286.967,3.838,1.2,20.742,1.2,20.742,3.5,4.936,3.307,6.488-1.8,2.377-.363,3.017.85,1.552.85,1.552l.363.029c-.323.291-.632.6-.916.9a8.567,8.567,0,0,0-.774.974,4.529,4.529,0,0,0-.32.567c-1.272,2.8,2.115,4.936,2.115,4.936h1.156c3.289.131,12.586.363,16.969-.727l.08.051s16.628.894,19.932-1.392S165.318,462.785,161.822,462.385Zm-17.028.8-.12-.018-.189-.033h-.134l-.211-.033h-.087c-.156-.022-.313-.044-.465-.058a7.6,7.6,0,0,1-2.152-.661c-.48-.214-.967-.472-1.454-.749l.96-.022a6.725,6.725,0,0,0,.727-.025l.432-.022h0c1.09,0,2.653.145,3.064.883a3.791,3.791,0,0,0-.371.734Z" transform="translate(-94.32 -179.52)" fill="url(#linear-gradient-3)"/>
      <path id="Path_571" data-name="Path 571" d="M188.849,361.6c-.273,0-21.716,4.089-16.355-3.18a13.037,13.037,0,0,0,2.181-4.558,15.022,15.022,0,0,0,.327-5.292,18.662,18.662,0,0,0-1.781-6.142s17.718-3.907,14.9-.909c-1.228,1.308-1.2,5.3-.789,9.384.218,2.206.545,4.434.84,6.284C188.587,359.763,188.936,361.6,188.849,361.6Z" transform="translate(-129.38 -223.477)" fill="#ffccd0"/>
      <path id="Path_572" data-name="Path 572" d="M155.57,783.22s5.543,5.11,8.9,5.51,8.087,1.85,4.907,4.122-19.172,1.385-19.172,1.385-3.7-2.421-1.726-5.474S155.57,783.22,155.57,783.22Z" transform="translate(-114.273 -505.363)" fill="#3f3d56"/>
      <path id="Path_573" data-name="Path 573" d="M169.381,792.852a5.9,5.9,0,0,1-1.992.774c-5.325,1.268-17.18.611-17.18.611s-3.7-2.421-1.726-5.474,7.087-5.543,7.087-5.543,5.543,5.11,8.9,5.51l.476.062C168.258,789.264,172.412,790.685,169.381,792.852Z" transform="translate(-114.273 -505.363)" opacity="0.1"/>
      <path id="Path_574" data-name="Path 574" d="M198.836,802.61a5.9,5.9,0,0,1-1.992.774l-.363-.018s-3.187-2.079-2.068-4.816C197.713,799.023,201.867,800.444,198.836,802.61Z" transform="translate(-143.728 -515.121)" opacity="0.1"/>
      <path id="Path_575" data-name="Path 575" d="M203.82,781.5s5.543,5.088,8.9,5.506,8.087,1.854,4.907,4.125-19.172,1.381-19.172,1.381-3.7-2.417-1.726-5.452S203.82,781.5,203.82,781.5Z" transform="translate(-144.987 -504.268)" fill="#3f3d56"/>
      <path id="Path_576" data-name="Path 576" d="M203.82,781.5s5.543,5.088,8.9,5.506,8.087,1.854,4.907,4.125-19.172,1.381-19.172,1.381-3.7-2.417-1.726-5.452S203.82,781.5,203.82,781.5Z" transform="translate(-144.987 -504.268)" opacity="0.1"/>
      <path id="Path_577" data-name="Path 577" d="M151.1,630.544c-.727.534-2.471.814-4.583.938h-.033l-.4.022c-.233,0-.473.022-.727.026-5.317.171-12.176-.44-12.176-.44s.545-.909-.818-1.545.182-1.454.363-3-3.166-6.451-3.166-6.451-2.09-19.081-1.159-20.626-.93-3.816-.93-3.816a1.529,1.529,0,0,0,.476-2.453c-1.25-1.545-.84-7.542-.113-9.268s-2.272-9.268-2.181-11.176-.636-4.271-3.18-15.174a23.488,23.488,0,0,1,2.715-17,17.2,17.2,0,0,1,1.374-2.079h17.355l.44,4.085.022.225c.145,1.377.323,3.046.523,4.961C147.336,570.822,153.216,629.013,151.1,630.544Z" transform="translate(-97.723 -349.587)" fill="#3f3d56"/>
      <path id="Path_578" data-name="Path 578" d="M160.35,638.093c-.789.571-2.708.85-5.012.959a12.246,12.246,0,0,0-1.817.025s-.273-.622-3.544-2.908,0-7.451,0-7.451l-3.4-13.9s-.854-3.711-.127-5.892a2.067,2.067,0,0,0-1.566-2.726s2.293-1.454,0-3.362-2.613-8.9-2.613-8.9-3.271-4.361-1.817-5.815-.909-4.907-.909-4.907-3.453-5.452-3.089-7.269,5.27-1.181,3.816-7,7.505,2.181,7.505,2.181l5.859-20.767C155.534,568.329,162.636,636.436,160.35,638.093Z" transform="translate(-106.969 -357.136)" opacity="0.1"/>
      <path id="Path_579" data-name="Path 579" d="M168.145,629.751s-9.813,6.179-10.449,5c-.4-.727-1.883-.876-2.948-.88h-.033c-.632,0-1.109.047-1.109.047s-.273-.621-3.544-2.908,0-7.451,0-7.451l-3.4-13.9s-.869-3.711-.142-5.892a2.067,2.067,0,0,0-1.566-2.726s2.293-1.454,0-3.362-2.613-8.9-2.613-8.9-3.271-4.361-1.817-5.815-.909-4.907-.909-4.907-3.453-5.452-3.089-7.269,0-1.454-1.454-7.269c-1.09-4.383,1.73-14.236,3.191-18.823.476-1.5.807-2.439.807-2.439l13.524,2.722,13.553,2.729.363,4.816-.1.763-1.817,13.448L163.5,578.4a20.676,20.676,0,0,1-.545,4.907c-.545,1.545.273,8,.273,8s0,1.272-1.363,6.36,1.181,7.087,1.181,7.087,1.635,14.084,1.09,17.173S168.145,629.751,168.145,629.751Z" transform="translate(-105.95 -351.974)" fill="#3f3d56"/>
      <path id="Path_580" data-name="Path 580" d="M171.63,690c1.363.229,8.4.363,6.542,1.228S171.63,690,171.63,690Z" transform="translate(-129.378 -446.024)" opacity="0.1"/>
      <path id="Path_581" data-name="Path 581" d="M169.5,700.677c.545-.047,3.046-1.138,3.725-1.047a19.019,19.019,0,0,1,2.41,0c.818.193,2.348.727,1.49,1.05s-2.653.044-3.685.363S169.5,700.677,169.5,700.677Z" transform="translate(-128.022 -452.11)" opacity="0.1"/>
      <path id="Path_582" data-name="Path 582" d="M149,696.759c.363-.047,3.18-.774,2.955,0S149,696.759,149,696.759Z" transform="translate(-114.973 -450.1)" opacity="0.1"/>
      <path id="Path_583" data-name="Path 583" d="M136.63,634.63c.273.363,1.861,4,2.635,4S136.63,634.63,136.63,634.63Z" transform="translate(-107.098 -410.778)" opacity="0.1"/>
      <path id="Path_584" data-name="Path 584" d="M190.9,341.517c-1.228,1.308-1.2,5.3-.789,9.384a14.569,14.569,0,0,1-3.74.487c-3.224,0-3.478-4.067-5.888-5.837-.382-3.544-4.485-3.126-4.485-3.126S193.718,338.519,190.9,341.517Z" transform="translate(-132.159 -223.477)" opacity="0.1"/>
      <path id="Path_585" data-name="Path 585" d="M193.614,303.181a14.538,14.538,0,1,1-.509-3.82A14.538,14.538,0,0,1,193.614,303.181Z" transform="translate(-124.862 -190.534)" fill="#ffccd0"/>
      <path id="Path_586" data-name="Path 586" d="M188.849,384.423c-.273,0-21.716,4.089-16.355-3.18a13.037,13.037,0,0,0,2.181-4.558c4.336-1.385,9.65.923,9.65.923l2.453,1.817a8.432,8.432,0,0,1,1.414.585C188.587,382.588,188.936,384.423,188.849,384.423Z" transform="translate(-129.38 -246.302)" opacity="0.1"/>
      <path id="Path_587" data-name="Path 587" d="M164.055,550.156l-.1.763c-.578.2-3.235.934-9.588-1.672-1.021-.418-2.282-.912-3.682-1.454-4.51-1.727-10.5-3.9-14.876-5.452-2.1-.752-3.823-1.367-4.837-1.723a17.2,17.2,0,0,1,1.374-2.079H149.7l.44,4.085,13.553,2.715Z" transform="translate(-103.496 -349.612)" opacity="0.1"/>
      <path id="Path_588" data-name="Path 588" d="M156.69,378.61s-9.631-4.18-13.539,2.09a103.615,103.615,0,0,0-5.633,9.995s-.545,4.18-1.545,5.179,1.817,18.99,1.817,18.99-3.362,6.906-.363,8.13-.273,2.228-.273,2.228.909,2.09-.818,2.272-2.726,3.362-2.726,3.362l-5.361,6s17.507,6.179,24.384,9,9.417,1.726,9.69,1.635,4.452-11.539,4.452-11.539-.182-3.18,1.363-4.27,0-24.624,0-24.624l-.531-14.694a13.284,13.284,0,0,0-6.618-11.111,9.2,9.2,0,0,0-1.846-.818Z" transform="translate(-101.764 -246.94)" fill="#fe9805"/>
      <path id="Path_589" data-name="Path 589" d="M208.3,446.658l1.908,3.362s-15.265,4.361-15.865.182c-.091-.611,5.961-5.452,5.961-5.452Z" transform="translate(-143.838 -289.91)" fill="#fe9805"/>
      <path id="Path_590" data-name="Path 590" d="M208.3,446.658l1.908,3.362s-15.265,4.361-15.865.182c-.091-.611,5.961-5.452,5.961-5.452Z" transform="translate(-143.479 -288.09)" opacity="0.1"/>
      <path id="Path_591" data-name="Path 591" d="M161.25,497.9s7.269-2.362,5.724-.454S161.25,497.9,161.25,497.9Z" transform="translate(-122.77 -322.98)" opacity="0.1"/>
      <path id="Path_592" data-name="Path 592" d="M184.07,501.46s3.718,4.645,4.609,2.908S184.07,501.46,184.07,501.46Z" transform="translate(-137.296 -326.009)" opacity="0.1"/>
      <path id="Path_593" data-name="Path 593" d="M193.1,299.381a9.408,9.408,0,0,0-1.279,1.625c-1.272,2-2.224,2.046-2.224,2.046s0,4.325-.589,4.776-3.954-1.915-4-2.5-4.154-7-5.939,1.134l-.334,6.589s-5.888.727-8.9,1.385a14.538,14.538,0,1,1,23.261-15.05Z" transform="translate(-124.861 -190.554)" opacity="0.1"/>
      <path id="Path_594" data-name="Path 594" d="M174.473,275.516h1.138l-.571.454h1.479v.545l1.225.5v.363l1.138.229-.273.77h2l-.229.876,1.363.625v.952a8.033,8.033,0,0,0,1.817.636c.454,0,1.207.411.727.636s.363.5.76.545.909.5.68.683l-.225.182a7.971,7.971,0,0,0,1.454,1.043c.229,0,.225.865,0,.956s-1.09.589-.363,1.043.636,1.319.182,1.319-.636-.592-.683.225-.727,1.864-.818,1.047-1.5.091-2.769,2.09-2.228,2.043-2.228,2.043,0,4.325-.589,4.776-3.954-1.912-4-2.5-4.154-7-5.939,1.138l-.331,6.586s-9.813,1.228-10.587,1.908-12.419-8.723-7.876-18.6,5.514-10.722,8.846-11.87S171.5,273.408,174.473,275.516Z" transform="translate(-115.549 -181.143)" fill="#3f3d56"/>
      <path id="Path_595" data-name="Path 595" d="M195.129,448.2s-.091,7.36-.727,9.177,4.361,18.808,4.361,18.808,4,8.959,3.271,11.721.273,20.444,6.27,16.083,1.545-18.627,1.545-18.627-1.908-7.945-1.908-8.923-2-15.7-2-15.7-1.545-4.816-1.09-7.723.636-8.268.636-8.268Z" transform="translate(-143.838 -289.91)" fill="#ffccd0"/>
      <path id="Path_596" data-name="Path 596" d="M199.708,416.25s-7.291,2.362-7.6,8.814,0,7,0,7,10.867-5.452,15.865-.182l-.512-14.265Z" transform="translate(-142.329 -271.768)" opacity="0.1"/>
      <path id="Path_597" data-name="Path 597" d="M201.708,416.25s-7.291,2.362-7.6,8.814,0,7,0,7,10.867-5.452,15.865-.182l-.512-14.265Z" transform="translate(-143.602 -271.768)" fill="#fe9805"/>
      <g id="Group_70" data-name="Group 70" transform="translate(39.483 94.827)" opacity="0.1">
        <path id="Path_598" data-name="Path 598" d="M242.176,294.73c-.164.2.512.422.876.462a.594.594,0,0,1,.109.026c.025-.222-.52-.48-.883-.48Z" transform="translate(-213.751 -289.242)"/>
        <path id="Path_599" data-name="Path 599" d="M235.5,290.02s.334.156.727.313v-.538l-.727-.334Z" transform="translate(-209.517 -285.887)"/>
        <path id="Path_600" data-name="Path 600" d="M246.065,298l-.185.149s.418.363.814.654l.138-.109c.229-.182-.273-.636-.68-.683Z" transform="translate(-216.124 -291.323)"/>
        <path id="Path_601" data-name="Path 601" d="M176.4,267.693l.818.371.135-.523h-.912Z" transform="translate(-151.78 -265.134)"/>
        <path id="Path_602" data-name="Path 602" d="M178.014,327.472l-.331,6.586s-9.813,1.229-10.587,1.908c-.24.214-1.545-.56-3.086-2.024,1.839,1.93,3.533,3,3.813,2.751.774-.68,10.587-1.908,10.587-1.908l.331-6.586c1.043-4.768,2.908-4.539,4.245-3.416C181.648,323.209,179.271,321.792,178.014,327.472Z" transform="translate(-164.01 -307.483)"/>
        <path id="Path_603" data-name="Path 603" d="M231.943,304.67c-.727-.454.134-.952.363-1.043s.225-.956,0-.956a1.691,1.691,0,0,1-.56-.331c0,.24-.047.509-.167.56-.229.091-1.09.589-.363,1.043s.636,1.319.182,1.319-.636-.592-.683.225-.727,1.864-.818,1.047-1.5.091-2.769,2.09-2.228,2.043-2.228,2.043,0,4.325-.589,4.776c-.411.309-2.133-.727-3.18-1.577.534.792,3.366,2.715,3.907,2.3s.589-4.776.589-4.776.956-.044,2.228-2.043,2.679-2.908,2.77-2.09.774-.229.818-1.047.229-.225.683-.225S232.67,305.124,231.943,304.67Z" transform="translate(-200.37 -294.086)"/>
        <path id="Path_604" data-name="Path 604" d="M171.52,265.139h.985l.015-.044-.916-.185Z" transform="translate(-148.674 -263.46)"/>
        <path id="Path_605" data-name="Path 605" d="M167.28,261.033v-.113H167Z" transform="translate(-145.796 -260.92)"/>
      </g>
      <path id="Path_606" data-name="Path 606" d="M248.66,539.764s29.926-45.453,65.181-19.648,43.916,42.16,73.388,33.074,28.378-26.946,51.639-20.379,31.318-14.938,31.318-14.938" transform="translate(-178.411 -332.838)" fill="none" stroke="#fe9805" stroke-width="4"/>
      <rect id="Rectangle_87" data-name="Rectangle 87" width="6.422" height="14.353" rx="3.211" transform="translate(291.67 175.148) rotate(23.32)" fill="#fe9805"/>
    </g>
    <g id="stars" transform="translate(92.244 219.651)">
      <path id="Path_607" data-name="Path 607" d="M18.956,40.359l1.8,4.877a.467.467,0,0,0,.876,0l1.8-4.877a14.381,14.381,0,0,1,8.517-8.517l4.878-1.8a.467.467,0,0,0,0-.876l-4.878-1.8a14.381,14.381,0,0,1-8.517-8.517l-1.8-4.878a.467.467,0,0,0-.876,0l-1.8,4.878a14.381,14.381,0,0,1-8.517,8.517l-4.878,1.8a.467.467,0,0,0,0,.876l4.878,1.8A14.38,14.38,0,0,1,18.956,40.359Z" transform="translate(-22.806 58.325)" fill="#9d29b2"/>
      <path id="Path_608" data-name="Path 608" d="M126.945,150.353l-6.618-2.44a19.511,19.511,0,0,1-11.556-11.556l-2.441-6.618a.633.633,0,0,0-1.188,0l-2.441,6.617a19.513,19.513,0,0,1-11.556,11.556l-6.618,2.44a.633.633,0,0,0,0,1.188l6.618,2.441A19.513,19.513,0,0,1,102.7,165.538l2.441,6.618a.633.633,0,0,0,1.188,0l2.441-6.618a19.512,19.512,0,0,1,11.556-11.556l6.618-2.441a.633.633,0,0,0,0-1.188Z" transform="translate(184.555 124.911)" fill="#09a8f9"/>
      <path id="Path_609" data-name="Path 609" d="M241.843,85.786l-4.5-1.659a13.262,13.262,0,0,1-7.854-7.854l-1.659-4.5a.431.431,0,0,0-.808,0l-1.658,4.5a13.261,13.261,0,0,1-7.854,7.854l-4.5,1.659a.43.43,0,0,0,0,.808l4.5,1.658a13.264,13.264,0,0,1,7.854,7.854l1.658,4.5a.431.431,0,0,0,.808,0l1.659-4.5a13.26,13.26,0,0,1,7.854-7.854l4.5-1.659a.43.43,0,0,0,0-.808Z" transform="translate(20.686 -65.69)" fill="#9d29b2"/>
      <path id="Path_610" data-name="Path 610" d="M227.433,251.8l-3.138-1.157a9.25,9.25,0,0,1-5.478-5.478l-1.157-3.137a.3.3,0,0,0-.563,0l-1.157,3.137a9.248,9.248,0,0,1-5.478,5.478l-3.138,1.157a.3.3,0,0,0,0,.563l3.137,1.157a9.25,9.25,0,0,1,5.478,5.478l1.157,3.137a.3.3,0,0,0,.563,0l1.157-3.137a9.25,9.25,0,0,1,5.478-5.478l3.137-1.157a.3.3,0,0,0,0-.563Z" transform="translate(26.292 -164.147)" fill="#0b43ca"/>
      <path id="Path_611" data-name="Path 611" d="M165.4,9.968l-3.138-1.157a9.248,9.248,0,0,1-5.478-5.478L155.626.2a.3.3,0,0,0-.563,0l-1.157,3.136a9.251,9.251,0,0,1-5.478,5.478L145.29,9.968a.3.3,0,0,0,0,.563l3.137,1.157a9.25,9.25,0,0,1,5.479,5.479l1.157,3.137a.3.3,0,0,0,.563,0l1.157-3.137a9.247,9.247,0,0,1,5.478-5.478l3.137-1.157a.3.3,0,0,0,0-.563Z" transform="translate(-1.681 38.039)" fill="#ec3b95"/>
      <path id="Path_612" data-name="Path 612" d="M46.842,226.95l-2.929-1.08a8.638,8.638,0,0,1-5.115-5.115l-1.08-2.929a.28.28,0,0,0-.526,0l-1.08,2.929A8.637,8.637,0,0,1,31,225.87l-2.929,1.08a.28.28,0,0,0,0,.526L31,228.556a8.637,8.637,0,0,1,5.115,5.115l1.08,2.929a.28.28,0,0,0,.526,0l1.08-2.929a8.636,8.636,0,0,1,5.115-5.115l2.929-1.08a.28.28,0,0,0,0-.526Z" transform="translate(36.811 -159.103)" fill="#fe9805"/>
    </g>
  </g>
</svg>
