<svg xmlns="http://www.w3.org/2000/svg" xmlns:xlink="http://www.w3.org/1999/xlink" width="401.795" height="345.194" viewBox="0 0 401.795 345.194">
  <defs>
    <linearGradient id="linear-gradient" x1="0.5" y1="1.001" x2="0.5" gradientUnits="objectBoundingBox">
      <stop offset="0" stop-color="gray" stop-opacity="0.251"/>
      <stop offset="0.54" stop-color="gray" stop-opacity="0.122"/>
      <stop offset="1" stop-color="gray" stop-opacity="0.102"/>
    </linearGradient>
  </defs>
  <g id="Group_15417" data-name="Group 15417" transform="translate(-13.103 -225.456)">
    <g id="undraw_fatherhood_7i19" transform="translate(13.112 281.003)">
      <path id="Path_14" data-name="Path 14" d="M63.3,484.53c6.358,27.174,19.817,50.664,41.084,62.065,44.208,23.662,143.9,11.456,218.3-2.564a170.371,170.371,0,0,0,96.883-55.382Z" transform="translate(-58.966 -327.063)" fill="#fe9805" opacity="0.1"/>
      <path id="Path_15" data-name="Path 15" d="M471.248,84.117H430.424a3.527,3.527,0,0,1,0-7.054h7.057a3.53,3.53,0,0,1,0-7.057h-5.039a3.53,3.53,0,0,1,0-7.057H453.75a56.376,56.376,0,0,0-16.623-4.582c-58.1-7.46-78.842-2.523-86.16,2.564A81.363,81.363,0,0,1,321.1,74.02c-35.847,7.394-102.885,16.294-163.647-2.849-30.2-9.522-52.642,6.563-66.1,33.43H478.335a63.053,63.053,0,0,0-4.794-21.329A3.5,3.5,0,0,1,471.248,84.117Z" transform="translate(-76.75 -54.56)" fill="#fe9805" opacity="0.1"/>
      <path id="Path_16" data-name="Path 16" d="M52.319,329.66A179.859,179.859,0,0,0,53.9,377.069L412.325,390.18a168.411,168.411,0,0,0,24.9-37.982ZM194.08,363.478h-7.057a3.527,3.527,0,1,1,0,7.054H146.2a3.527,3.527,0,0,1,0-7.054h7.057a3.53,3.53,0,0,1,0-7.057h-5.039a3.53,3.53,0,0,1,0-7.057h40.824a3.53,3.53,0,0,1,0,7.057h5.039a3.53,3.53,0,0,1,0,7.057Z" transform="translate(-51.45 -228.911)" fill="#fe9805" opacity="0.1"/>
      <path id="Path_17" data-name="Path 17" d="M454.676,191.84,63.365,201.362A156.127,156.127,0,0,0,54,241.768H447.82a167.388,167.388,0,0,0,5.688-25.757A122.036,122.036,0,0,0,454.676,191.84ZM133.443,223.028h-7.057a3.527,3.527,0,1,1,0,7.054H85.562a3.527,3.527,0,0,1,0-7.054h7.057a3.53,3.53,0,0,1,0-7.057H87.58a3.53,3.53,0,0,1,0-7.057H128.4a3.53,3.53,0,0,1,0,7.057h5.039a3.53,3.53,0,0,1,0,7.057Z" transform="translate(-53.072 -141.565)" fill="#fe9805" opacity="0.1"/>
      <ellipse id="Ellipse_7" data-name="Ellipse 7" cx="127.753" cy="6.914" rx="127.753" ry="6.914" transform="translate(78.657 275.818)" fill="#fe9805" opacity="0.1"/>
      <path id="Path_18" data-name="Path 18" d="M895.069,687.74s2.011,2.633-.93,6.592-5.365,7.325-4.395,9.8c0,0,4.435-7.38,8.057-7.482S899.039,692.179,895.069,687.74Z" transform="translate(-582.602 -455.851)" fill="#8cc540"/>
      <path id="Path_19" data-name="Path 19" d="M895.28,687.74a3.4,3.4,0,0,1,.41.824c3.523,4.142,5.4,8.006,2.014,8.1-3.157.092-6.94,5.732-7.845,7.156a2.787,2.787,0,0,0,.106.326s4.435-7.38,8.057-7.482S899.25,692.179,895.28,687.74Z" transform="translate(-582.814 -455.851)" opacity="0.1"/>
      <path id="Path_20" data-name="Path 20" d="M914.065,695.874c0,.927-.1,1.677-.231,1.677s-.234-.751-.234-1.677.132-.491.26-.491S914.065,694.947,914.065,695.874Z" transform="translate(-597.86 -460.63)" fill="#ffd037"/>
      <path id="Path_21" data-name="Path 21" d="M915.625,698.818c-.813.443-1.52.71-1.582.6s.549-.564,1.362-1.007.491-.121.553,0S916.438,698.375,915.625,698.818Z" transform="translate(-598.137 -462.468)" fill="#ffd037"/>
      <path id="Path_22" data-name="Path 22" d="M867.823,687.74s-2.011,2.633.93,6.592,5.362,7.325,4.395,9.8c0,0-4.439-7.38-8.057-7.482S863.85,692.179,867.823,687.74Z" transform="translate(-565.985 -455.851)" fill="#8cc540"/>
      <path id="Path_23" data-name="Path 23" d="M867.81,687.74a3.244,3.244,0,0,0-.41.824c-3.523,4.142-5.4,8.006-2.014,8.1,3.153.092,6.958,5.732,7.845,7.156-.029.11-.066.216-.106.326,0,0-4.439-7.38-8.057-7.482S863.836,692.179,867.81,687.74Z" transform="translate(-565.971 -455.851)" opacity="0.1"/>
      <path id="Path_24" data-name="Path 24" d="M865.43,695.874c0,.927.1,1.677.231,1.677s.234-.751.234-1.677-.132-.491-.26-.491S865.43,694.947,865.43,695.874Z" transform="translate(-567.331 -460.63)" fill="#ffd037"/>
      <path id="Path_25" data-name="Path 25" d="M861.065,698.818c.813.443,1.524.71,1.586.6s-.549-.564-1.362-1.007-.491-.121-.553,0S860.252,698.375,861.065,698.818Z" transform="translate(-564.252 -462.468)" fill="#ffd037"/>
      <path id="Path_26" data-name="Path 26" d="M867.18,726.329s5.625-.176,7.325-1.381,8.654-2.652,9.075-.732,8.453,9.628,2.1,9.68-14.755-.989-16.447-2.018S867.18,726.329,867.18,726.329Z" transform="translate(-568.44 -478.377)" fill="#a8a8a8"/>
      <path id="Path_27" data-name="Path 27" d="M885.8,738.5c-6.35.051-14.755-.989-16.447-2.018-1.289-.787-1.8-3.6-1.974-4.9h-.187s.366,4.534,2.047,5.567,10.1,2.069,16.447,2.018c1.831,0,2.468-.667,2.432-1.633C887.86,738.125,887.161,738.487,885.8,738.5Z" transform="translate(-568.446 -483.636)" opacity="0.2"/>
      <path id="Path_28" data-name="Path 28" d="M297.114,725.474a4.3,4.3,0,0,0,1.406-2.121,1.9,1.9,0,0,0-.982-2.157c-.9-.344-1.864.282-2.6.912a3.461,3.461,0,0,1-2.52,1.216,3.834,3.834,0,0,0,1.187-3.593,1.508,1.508,0,0,0-.33-.732c-.5-.535-1.406-.308-2.007.114-1.9,1.34-2.435,3.93-2.446,6.255a11.759,11.759,0,0,1-.033-2.564,2.648,2.648,0,0,0-.967-2.282,2.931,2.931,0,0,0-1.465-.344,3.062,3.062,0,0,0-2.4.678,2.355,2.355,0,0,0,.1,2.93,9.5,9.5,0,0,0,2.476,1.985,5.493,5.493,0,0,1,1.773,1.688,2.1,2.1,0,0,1,.132.3h5.365A14.935,14.935,0,0,0,297.114,725.474Z" transform="translate(-198.519 -475.464)" fill="#8cc540"/>
      <path id="Path_29" data-name="Path 29" d="M200.741,656.483s-5.149-17.473.963-30.331a27.6,27.6,0,0,0,2.241-17.319,46.226,46.226,0,0,0-2.45-8.123" transform="translate(-144.787 -400.694)" fill="none" stroke="#535461" stroke-miterlimit="10" stroke-width="2"/>
      <path id="Path_30" data-name="Path 30" d="M203.243,572c0,2.142-3.875,8.354-3.875,8.354s-3.878-6.226-3.878-8.354a3.878,3.878,0,0,1,7.753,0Z" transform="translate(-142.744 -380.119)" fill="#6c63ff"/>
      <path id="Path_31" data-name="Path 31" d="M220.673,600.7c-1.161,1.8-7.793,4.9-7.793,4.9s.121-7.325,1.285-9.119a3.878,3.878,0,0,1,6.508,4.215Z" transform="translate(-153.765 -396.948)" fill="#6c63ff"/>
      <path id="Path_32" data-name="Path 32" d="M217.473,653.545c-1.912.963-9.2.3-9.2.3s3.8-6.259,5.713-7.222a3.878,3.878,0,1,1,3.491,6.926Z" transform="translate(-150.844 -429.527)" fill="#6c63ff"/>
      <path id="Path_33" data-name="Path 33" d="M207.78,695.66c-1.721,1.275-9.02,1.831-9.02,1.831s2.688-6.808,4.395-8.083a3.878,3.878,0,1,1,4.611,6.226Z" transform="translate(-144.816 -456.352)" fill="#6c63ff"/>
      <path id="Path_34" data-name="Path 34" d="M188.486,613.775c1.535,1.491,8.691,3.04,8.691,3.04s-1.754-7.109-3.3-8.6a3.878,3.878,0,1,0-5.4,5.563Z" transform="translate(-137.509 -404.71)" fill="#6c63ff"/>
      <path id="Path_35" data-name="Path 35" d="M175.877,661.685c1.912.963,9.2.3,9.2.3s-3.8-6.255-5.713-7.222a3.878,3.878,0,1,0-3.491,6.926Z" transform="translate(-128.961 -434.686)" fill="#6c63ff"/>
      <path id="Path_36" data-name="Path 36" d="M172.892,711.523c1.721,1.271,9.017,1.831,9.017,1.831s-2.684-6.808-4.395-8.083A3.878,3.878,0,0,0,172.9,711.5Z" transform="translate(-127.529 -466.548)" fill="#6c63ff"/>
      <path id="Path_37" data-name="Path 37" d="M203.243,572c0,2.142-3.875,8.354-3.875,8.354s-3.878-6.226-3.878-8.354a3.878,3.878,0,0,1,7.753,0Z" transform="translate(-142.744 -380.119)" fill="#8cc540"/>
      <path id="Path_38" data-name="Path 38" d="M220.673,600.7c-1.161,1.8-7.793,4.9-7.793,4.9s.121-7.325,1.285-9.119a3.878,3.878,0,0,1,6.508,4.215Z" transform="translate(-153.765 -396.948)" fill="#8cc540"/>
      <path id="Path_39" data-name="Path 39" d="M217.473,653.545c-1.912.963-9.2.3-9.2.3s3.8-6.259,5.713-7.222a3.878,3.878,0,1,1,3.491,6.926Z" transform="translate(-150.844 -429.527)" fill="#8cc540"/>
      <path id="Path_40" data-name="Path 40" d="M207.78,695.66c-1.721,1.275-9.02,1.831-9.02,1.831s2.688-6.808,4.395-8.083a3.878,3.878,0,1,1,4.611,6.226Z" transform="translate(-144.816 -456.352)" fill="#8cc540"/>
      <path id="Path_41" data-name="Path 41" d="M188.486,613.775c1.535,1.491,8.691,3.04,8.691,3.04s-1.754-7.109-3.3-8.6a3.878,3.878,0,1,0-5.4,5.563Z" transform="translate(-137.509 -404.71)" fill="#8cc540"/>
      <path id="Path_42" data-name="Path 42" d="M175.877,661.685c1.912.963,9.2.3,9.2.3s-3.8-6.255-5.713-7.222a3.878,3.878,0,1,0-3.491,6.926Z" transform="translate(-128.961 -434.686)" fill="#8cc540"/>
      <path id="Path_43" data-name="Path 43" d="M172.892,711.523c1.721,1.271,9.017,1.831,9.017,1.831s-2.684-6.808-4.395-8.083A3.878,3.878,0,0,0,172.9,711.5Z" transform="translate(-127.529 -466.548)" fill="#8cc540"/>
      <path id="Path_44" data-name="Path 44" d="M171,739.421s6.27-1.245,7.94-2.9,9.192-4.563,10.027-2.49,11.28,9.127,4.175,10.372-16.711,1.659-18.8.828S171,739.421,171,739.421Z" transform="translate(-127.223 -484.73)" fill="#a8a8a8"/>
      <path id="Path_45" data-name="Path 45" d="M193.153,754.118c-7.1,1.245-16.711,1.659-18.8.831-1.589-.634-2.7-3.662-3.131-5.08l-.223.047s1.256,4.977,3.344,5.8,11.7.414,18.8-.828c2.051-.366,2.637-1.2,2.417-2.271C195.395,753.316,194.681,753.851,193.153,754.118Z" transform="translate(-127.223 -495.227)" opacity="0.2"/>
      <path id="Path_46" data-name="Path 46" d="M509.239,196.442c1.967-2.2,1.2-5.622,1.2-5.622s-9.28-23.651-10.309-23.911-3.611-6.226-3.611-6.226S471.77,137.16,470.88,137.16s-9.925-6.5-11.082-6.625a15.156,15.156,0,0,1-4.9-1.831c-1.934-1.051-21.527.132-22.3,1.04s-4.395,1.56-4.395,1.56-7.347.388-8.379,1.688-8.632,1.989-8.632,1.989-3.739,1.392,1.337,5.087h0c-1.626.256-3.527.454-5.457.593-.483.033-.974.066-1.465.092h-.289a4.79,4.79,0,0,0-1.8-2.421,15.109,15.109,0,0,0-1.71-.795,13.654,13.654,0,0,1-2.534-1.74,83.057,83.057,0,0,0-11.983-7.94,5.739,5.739,0,0,0-2.135-.8c-1.571-.15-2.974.952-4.512,1.322-2.7.648-5.428-1-8.207-1.025-3.472-.033-6.632,2.67-7.691,6-.392,1.234-.568,2.608-1.414,3.585-1.1,1.278-2.956,1.465-4.461,2.223a6.731,6.731,0,0,0-3.618,5.966v.029a3.452,3.452,0,0,0,.033.582,20.35,20.35,0,0,0,1.428,4.5,18.614,18.614,0,0,1,1.025,4.724.244.244,0,0,1,0,.051c.022.267.04.535.051.806v.949c0,1.4-.048,2.809-.044,4.208v.861a4.935,4.935,0,0,0,.022.564v.2a4.971,4.971,0,0,0,.044.52.921.921,0,0,0,.018.223,3.767,3.767,0,0,0,.062.5l.033.234c.026.165.055.33.084.494l.044.227c.037.176.081.366.125.527.018.062.029.121.044.183q.1.366.22.7a10.32,10.32,0,0,0,6.834,6.442,6.347,6.347,0,0,0,1.813.227,3.767,3.767,0,0,0,2.8-1.117c.161.183.319.366.487.549a21.948,21.948,0,0,0,35.645-4.761c.385-.084.765-.161,1.15-.234.667-.124,1.337-.242,2.011-.366l.648-.1h0l.256-.044c3.3-.52,6.5-.868,8.79-1.1l-9.061,1.124s-2.2,10.551-2.831,11.719,2.2,3.117,2.2,3.117,2.45,2.988,2.45,3.9,2.835,3.508,3.607,4.937a2.2,2.2,0,0,0,.366.494,5.182,5.182,0,0,0-1.56.949c-1.791,1.7-1.194,4.669-2.014,7a11.871,11.871,0,0,1-2.619,3.805,5.192,5.192,0,0,0-.923,1.278,3.143,3.143,0,0,0-.245.981h0a4.813,4.813,0,0,0-.022.564v.066a2.127,2.127,0,0,0,.029.432v.187c.179,1.531.7,3.01.857,4.541a43.67,43.67,0,0,0,.282,4.563,6.8,6.8,0,0,0,.505,1.505l-5.244,5.86s-.033.289-.044.765c-4.373,3.629-11.133,10.478-8.72,16.517q.4.993.732,1.9c-1.776,1.132-2.362,2.476.3,3.816.421.212.828.4,1.227.56,1.366,4.01,1.9,5.127,4.19,2.172.245-.322.531-.732.842-1.176a8.913,8.913,0,0,0,5.087-1.556s9.02-.52,11.353.912c1.168.732,3.915.879,6.347.861a66.472,66.472,0,0,0,.366,7.845s-.388,11.046.645,13.386a30.766,30.766,0,0,1,1.6,6.369s-1.732,3.9-.7,5.977-.9,5.069-.9,5.069v7.665l.732-.051c-.055.516-.125,1.058-.216,1.575a4.592,4.592,0,0,1-1.022,2.619c-1.289.927-1.417,5.86-1.417,5.86s-2.062,5.981-1.677,7.021-2.446,3.117-1.8,4.677,1.963,11.434,3.109,14.283-2.337,2.08-2.337,2.08l1.029,7.405s1.033,7.537.26,8.057-5.219,4.289-2.161,6.5c.238.172.48.33.732.48a7.916,7.916,0,0,1-.026,1.025c-.059.582-.205,1.047-.531,1.1-.908.132-2.714,1.04-3.095.652s-2.564.981-4.761,1.428l-.3.048-2.853-.732a20.077,20.077,0,0,0-12.891-.476,4.935,4.935,0,0,0-3.073,1.868,4.041,4.041,0,0,0-.278,3.457c1.377,4.593,10.764,6.175,10.764,6.175s3.252.67,7.16,1.556h-.392a4.311,4.311,0,1,0,1.465.267,87.484,87.484,0,0,1,11.24,3.109,34.384,34.384,0,0,0,4.516,1.355,4.285,4.285,0,0,0,7.977,1.795c5.981,1.249,11.741,2.307,11.741,2.307l9.621.157h.066a4.287,4.287,0,1,0,.059,0l14.565.238a4.3,4.3,0,1,0,8.292.135l12.847.209,2.564-2.82a2.279,2.279,0,0,0,.253-.883c.077-.927-.4-2.333-3.684-2.93-.242-.044-6.936.062-12.851.161v-2.322s-.165-1.278-.267-2.783c-.029-.443-.055-.9-.066-1.359a3.525,3.525,0,0,0,1.1.5c2.45.392,5.8-6.757,5.8-6.757a37.228,37.228,0,0,1,.773-7.277c.773-3.248,2.2-14.166,2.2-14.166l3.1-13.122s1.282-26.772.637-27.812.776-2.86.776-2.86,1.029-5.717-.516-7.665.9-3.9.9-3.9.645-6.757-1.161-9.354.846-4.417.846-4.417l.645-10.525c2.706-2.728,5.153-18.971,5.285-22.479a14.436,14.436,0,0,1,1.289-5.721,15.132,15.132,0,0,0,2.062-4.549,26.961,26.961,0,0,1,2.2-5.585l3.351-12.478c1.351-5.032,1.007-8.753.11-11.4C509.521,197.109,509.382,196.768,509.239,196.442Zm-60.542.732c2.062,1.3,1.417,1.688,2.062,2.468s.128.648-.388,1.948-.128.912.128,2.34.132,1.428.132,1.428l.645.092-.9,6.032c-1.465.956-2.135,2.787-2.439,4.677-.864-1.128-1.736-2.3-2.516-3.391a5,5,0,0,0,.223-1.978c.029-2.2.85-4.3,1.227-6.46a16.322,16.322,0,0,0-.209-6.632,10.076,10.076,0,0,0-.861-2.355c.835.557,1.893,1.216,2.893,1.846Zm2.318,127.35s1.63-1.1,3.212-2.1c.531,3.856,1.033,7.867,1.388,11.492-.568-1.26-.963-2.117-.963-2.117a4.358,4.358,0,0,1-1-2.468c-.062-1.414-2.641-4.794-2.641-4.794Zm-9.665-133.572a3.121,3.121,0,0,1,1.377,1.073c-.454-.366-.912-.732-1.381-1.077Zm-23.589,48.079c-1.487.469-6.526.4-9.522.223,1.121-1.915,2.234-3.864,3.223-5.611a11.906,11.906,0,0,0,1.776.319l9.811-8.617a16.9,16.9,0,0,0,11.39-.073l.267.418c.114.183.234.366.366.571l-.245-.4s-3.787,2.256-3.4,3.3-.513,3.637-1.93,6.42c-.366.7-.685,1.384-.992,2.077C425.3,237.954,419.249,238.562,417.762,239.031ZM436.378,359.1l-.055-1.029c.623-.135,1.033-.26,1.033-.26a40.529,40.529,0,0,0-.645-4.549c-.388-1.56-.187-1.04,1.322-2.2s0-14.283,0-14.283.732-.912,1.893,1.428,2.326,3.769,2.714,3.9-1.549,2.732,0,5.2a14.943,14.943,0,0,1,1.93,5.2s-1.029,4.127.516,5.962a2.271,2.271,0,0,0,.732.5c0,.341,0,.7,0,1.044a12.789,12.789,0,0,1-.033,1.4.516.516,0,0,1-.824.322c-.4-.26-2.93.322-2.758,1.952a11.985,11.985,0,0,1-2.022,1.893l-3.512-.908Z" transform="translate(-243.995 -100.498)" fill="url(#linear-gradient)"/>
      <path id="Path_47" data-name="Path 47" d="M490.314,390.487s-1.227,10.053,8.5,11.082l1.465-6.958-3.065-4.124L492.826,389Z" transform="translate(-329.563 -266.519)" fill="#6c63ff"/>
      <path id="Path_48" data-name="Path 48" d="M492.826,389l-2.512,1.483s-1.227,10.053,8.5,11.082" transform="translate(-329.563 -266.519)" opacity="0.1"/>
      <path id="Path_49" data-name="Path 49" d="M490.6,192.177s-6.567.4-13.151,1.494q-1.011.172-2.011.366c-.388.073-.769.15-1.15.234-3.45.71-6.592,1.633-8.423,2.813-2.2,1.41-2.93-2.388-3-7.665-.029-1.857.033-3.893.132-5.951.128-2.381.315-4.79.513-6.958.436-4.8.938-8.541.938-8.541s2.3,0,5.373-.106l.989-.037c.963-.037,1.985-.088,3.014-.15.487-.026.978-.055,1.465-.092,1.948-.139,3.871-.337,5.493-.593a12,12,0,0,0,3.893-1.1C488.156,163.82,490.6,192.177,490.6,192.177Z" transform="translate(-312.195 -125.052)" fill="#f8bdc5"/>
      <path id="Path_50" data-name="Path 50" d="M612.023,335.192l-1.282,8.508s-2.794,3.479-2.428,5.413S611.9,436.5,611.9,436.5s6.318,36.089,4.124,40.729-.128,15.47-.128,15.47l13.148-2.062L633.44,332.87Z" transform="translate(-404.357 -230.946)" fill="#474463"/>
      <path id="Path_51" data-name="Path 51" d="M612.023,335.192l-1.282,8.508s-2.794,3.479-2.428,5.413S611.9,436.5,611.9,436.5s6.318,36.089,4.124,40.729-.128,15.47-.128,15.47l13.148-2.062L633.44,332.87Z" transform="translate(-404.357 -230.946)" opacity="0.1"/>
      <path id="Path_52" data-name="Path 52" d="M653.17,758.095c-.417.692-.384,2.728-.267,4.461.1,1.491.267,2.758.267,2.758v8.764s-14.049-4.9-21.783-10.053c-3.19-2.128-4.1-4.105-3.922-5.688a4.632,4.632,0,0,1,3.922-3.721c1.157,0,4.812-2.018,7.808-3.8,2.355-1.4,4.311-2.644,4.311-2.644S653.943,756.806,653.17,758.095Z" transform="translate(-416.502 -494.15)" fill="#575988"/>
      <path id="Path_53" data-name="Path 53" d="M673.505,758.095c-.417.692-.385,2.728-.267,4.461-3.124-1.465-12.8-10.848-13.708-11.741,2.355-1.4,4.311-2.644,4.311-2.644S674.278,756.806,673.505,758.095Z" transform="translate(-436.838 -494.15)" opacity="0.1"/>
      <path id="Path_54" data-name="Path 54" d="M669.547,326.424,666.2,338.8a26.848,26.848,0,0,0-2.2,5.541,15.049,15.049,0,0,1-2.062,4.512,14.284,14.284,0,0,0-1.289,5.669c-.128,3.483-2.564,19.593-5.285,22.3l-.645,10.441a3.1,3.1,0,0,0-.773,4.395c1.791,2.593,1.161,9.28,1.161,9.28s-2.45,1.934-.9,3.867.513,7.607.513,7.607-1.417,1.8-.773,2.835-.637,27.585-.637,27.585l-3.1,13.016s-1.421,10.829-2.2,14.052a36.306,36.306,0,0,0-.773,7.215s-3.351,7.09-5.8,6.706-14.3-11.99-14.3-11.99l1.674-39.187s1.417-16.627.516-19.85-1.545-19.333-1.545-19.333l-1.805-25.391-18.026-28.357s-1.307-8.251,2.428-10.7l.677-4.457.612-4.05,21.4-2.322,32.737-8.5a10.555,10.555,0,0,1,3.845,5.442C670.55,317.741,670.9,321.432,669.547,326.424Z" transform="translate(-404.005 -216.249)" fill="#474463"/>
      <path id="Path_55" data-name="Path 55" d="M587.068,367.2s-15.21,18.678-14.565,13.459c.4-3.278-1.677-7.281-3.3-9.811-.956-1.505-1.747-2.49-1.747-2.49s9.28-17.011,9.8-14.693A18.917,18.917,0,0,0,579.875,358C582.787,362.018,587.068,367.2,587.068,367.2Z" transform="translate(-378.487 -243.987)" fill="#ffc1c8"/>
      <path id="Path_56" data-name="Path 56" d="M653.17,789.859v1.831s-14.049-4.9-21.783-10.053c-3.19-2.128-4.1-4.106-3.922-5.688,4.27,2.161,12.214,6.281,14.62,8.138C644.128,785.662,649.409,788.156,653.17,789.859Z" transform="translate(-416.502 -511.756)" fill="#fff" opacity="0.3"/>
      <circle id="Ellipse_8" data-name="Ellipse 8" cx="4.296" cy="4.296" r="4.296" transform="translate(229.064 276.466)" fill="#474463"/>
      <circle id="Ellipse_9" data-name="Ellipse 9" cx="4.296" cy="4.296" r="4.296" transform="translate(185.183 270.435)" fill="#474463"/>
      <path id="Path_57" data-name="Path 57" d="M564.571,774.993a2.266,2.266,0,0,1-.253.875l-2.564,2.794-35.832-.575-9.636-.158s-20.282-3.692-24.234-5.413-19.487-4.871-19.487-4.871-9.383-1.575-10.76-6.127a3.938,3.938,0,0,1,.278-3.428,4.943,4.943,0,0,1,3.073-1.857,20.252,20.252,0,0,1,12.891.476l60.062,15.451.93.238s21.41-.4,21.842-.322C564.168,772.678,564.648,774.074,564.571,774.993Z" transform="translate(-311.368 -498.735)" fill="#fe9805"/>
      <path id="Path_58" data-name="Path 58" d="M564.571,779.642c-3.6-.469-9.888-1.161-11.507-.494,0,0-11.43-1.414-27.156,3.589l-9.621-.157s-20.282-3.692-24.234-5.413-19.487-4.871-19.487-4.871-9.383-1.575-10.76-6.127a3.938,3.938,0,0,1,.278-3.428c.641,1.868,1.875,4.574,3.845,5.332,3.095,1.19,15.814,3.615,15.814,3.615l25.175,6.164s14.536,3.153,20.194,1.1a64.98,64.98,0,0,1,10.987-2.161l.93.238s21.41-.4,21.842-.322C564.168,777.327,564.648,778.722,564.571,779.642Z" transform="translate(-311.368 -503.384)" fill="#fff" opacity="0.3"/>
      <path id="Path_59" data-name="Path 59" d="M602.727,771.775a11.9,11.9,0,0,1-.2,1.608s-14.239.509-21.652-.59c-2.047-.3-3.2-.96-3.78-1.743a2.677,2.677,0,0,1-.267-2.564,4.034,4.034,0,0,1,.311-.689c.553-.967,1.4-1.652,1.868-1.56,1.289.26,3.5-2.384,3.5-2.384-.176-1.615,2.362-2.2,2.758-1.934a.516.516,0,0,0,.824-.322c.026-.121.033-.7.033-1.384,0-1.135-.033-2.564-.033-2.564l14.312,1.74.568,2.736c.52,2.439,1.245,5.79,1.556,6.936a8.275,8.275,0,0,1,.2,2.714Z" transform="translate(-384.291 -500.158)" fill="#474463"/>
      <path id="Path_60" data-name="Path 60" d="M603.553,794.814a11.911,11.911,0,0,1-.2,1.608s-14.239.509-21.652-.59c-2.047-.3-3.2-.96-3.779-1.743a23.347,23.347,0,0,1,5.9.2C586.006,794.828,599.063,794.828,603.553,794.814Z" transform="translate(-385.116 -523.196)" opacity="0.1"/>
      <path id="Path_61" data-name="Path 61" d="M522.9,760.2a.732.732,0,0,1-.311.689c-1.8,1.392-10.449-.121-10.449-.121s-17.667-1.1-20.308-2.9a1.863,1.863,0,0,1-.582-.612c-1.1-1.985,2.879-5.318,3.223-5.318s5.094-.648,5.413-.711c2.2-.443,4.395-1.805,4.761-1.417s2.2-.516,3.091-.645c.326-.048.476-.509.531-1.1a12.209,12.209,0,0,0-.081-2.391l14.111,3.8.125,2.249.406,7.486.051.919A.336.336,0,0,1,522.9,760.2Z" transform="translate(-330.065 -492.572)" fill="#474463"/>
      <path id="Path_62" data-name="Path 62" d="M512.51,780.812s-17.667-1.1-20.307-2.9a1.864,1.864,0,0,1-.582-.612c3.578.293,9.544.787,10.621,1.062,1.549.366,10.254.9,10.254.9h10.7l.051.919C523.716,782.775,512.51,780.812,512.51,780.812Z" transform="translate(-330.422 -512.612)" opacity="0.1"/>
      <circle id="Ellipse_10" data-name="Ellipse 10" cx="4.296" cy="4.296" r="4.296" transform="translate(163.67 270.435)" fill="#474463"/>
      <circle id="Ellipse_11" data-name="Ellipse 11" cx="4.296" cy="4.296" r="4.296" transform="translate(210.328 279.352)" fill="#474463"/>
      <path id="Path_63" data-name="Path 63" d="M484.534,394.582s-.813,1.465-2.036,3.64c-2.93,5.171-8.2,14.338-10.467,17.238-3.223,4.124-2.963.26-6.446-8.376-2.586-6.424,5.373-13.774,9.628-17.114,1.465-1.161,2.49-1.831,2.49-1.831Z" transform="translate(-313.601 -265.974)" fill="#f8bdc5"/>
      <path id="Path_64" data-name="Path 64" d="M499.656,432.83s-10.7.9-12.759,1.546-10.954.256-11.719,0-15.986,3.223-9.024,6.7,11.353,0,11.353,0,9.024-.516,11.353.9,10.826.645,10.826.645Z" transform="translate(-313.13 -294.297)" fill="#ffc1c8"/>
      <path id="Path_65" data-name="Path 65" d="M476.482,188.192c1.318,3.373.494,6.31-1.058,9.324-3.889.732-7.548,1.74-9.584,3.047-5.8,3.739-1.417-29.13-1.417-29.13s2.805,0,6.361-.143C469.707,176.2,473.787,181.306,476.482,188.192Z" transform="translate(-312.179 -128.542)" opacity="0.1"/>
      <path id="Path_66" data-name="Path 66" d="M424.942,177.359a21.974,21.974,0,1,1-2.2-9.606,21.974,21.974,0,0,1,2.2,9.606Z" transform="translate(-260.309 -118.441)" fill="#f8bdc5"/>
      <path id="Path_67" data-name="Path 67" d="M675.442,315.092a5.032,5.032,0,0,1-2.93,2.033c-5.028,1.417-40.476,9.925-42.794,9.408-2.047-.454-10.833-1.718-12.858-2.007l.612-4.051,21.4-2.322,32.737-8.5A10.574,10.574,0,0,1,675.442,315.092Z" transform="translate(-409.795 -216.23)" opacity="0.1"/>
      <path id="Path_68" data-name="Path 68" d="M516.929,192.137a123.546,123.546,0,0,0-12.507,1.392.86.86,0,0,0-.022-.575l8.57-1.058s-1.253-20.143-5.86-24.97a12,12,0,0,0,3.893-1.1C514.482,163.78,516.929,192.137,516.929,192.137Z" transform="translate(-338.522 -125.012)" opacity="0.1"/>
      <path id="Path_69" data-name="Path 69" d="M500.69,143.773s7.607-.685,8.636-1.974,8.379-1.674,8.379-1.674,3.607-.645,4.395-1.549,20.362-2.062,22.3-1.029a15.487,15.487,0,0,0,4.9,1.806c1.161.132,10.181,6.57,11.082,6.57s25.636,23.333,25.636,23.333,2.564,5.929,3.611,6.186,10.313,23.717,10.313,23.717,1.289,5.669-3.736,7.09-40.476,9.925-42.794,9.409-13.276-2.062-13.276-2.062.128,0-.128-1.417-.645-1.033-.132-2.322,1.033-1.161.388-1.934,0-1.161-2.062-2.45-4.395-2.706-4.512-3.091-1.934-2.966-2.835-3.095-26.167-7.218-26.167-7.218l-5.929-1.934s-2.835-1.934-2.2-3.091,2.831-11.628,2.831-11.628l9.064-1.117s-1.351-21.827-6.427-25.49S500.69,143.773,500.69,143.773Z" transform="translate(-333.493 -106.899)" fill="#fe9805"/>
      <path id="Path_70" data-name="Path 70" d="M502.071,394.582s-.813,1.465-2.036,3.64c-.19-6.724-4.893-8.028-7.284-8.251,1.465-1.161,2.49-1.831,2.49-1.831Z" transform="translate(-331.138 -265.974)" opacity="0.1"/>
      <path id="Path_71" data-name="Path 71" d="M494.276,272.34l.623,3.479s2.45,2.966,2.45,3.867,2.835,3.479,3.611,4.9,3.479,1.677,2.446,4.127-6.958,21.139-6.958,21.139l-6.057,6.7s10.053-.9,8.5,11.082l13.02-11.353,10.2-18.55s-9.925-18.817-10.309-20.362S494.276,272.34,494.276,272.34Z" transform="translate(-329.642 -192.584)" fill="#fe9805"/>
      <path id="Path_72" data-name="Path 72" d="M583.31,278.714s8.248-5.8,8.248-6.446S583.31,278.714,583.31,278.714Z" transform="translate(-388.532 -192.512)" opacity="0.1"/>
      <path id="Path_73" data-name="Path 73" d="M621,302.887s4.395-1.033,4.761-3.351S621,302.887,621,302.887Z" transform="translate(-412.419 -209.467)" opacity="0.1"/>
      <path id="Path_74" data-name="Path 74" d="M630.82,319.535s6.189-3.065,5.929-3.6S630.82,319.535,630.82,319.535Z" transform="translate(-418.642 -220.185)" opacity="0.1"/>
      <path id="Path_75" data-name="Path 75" d="M717.907,272.23s-2.564,1.674-1.8,3.241S717.907,272.23,717.907,272.23Z" transform="translate(-472.604 -192.514)" opacity="0.1"/>
      <path id="Path_76" data-name="Path 76" d="M731.8,274.1s-7.3,6.958-5.651,7.09S731.8,274.1,731.8,274.1Z" transform="translate(-478.905 -193.699)" opacity="0.1"/>
      <path id="Path_77" data-name="Path 77" d="M696.64,568.68s9.409,1.805,9.665,2.45S696.64,568.68,696.64,568.68Z" transform="translate(-460.357 -380.395)" opacity="0.1"/>
      <path id="Path_78" data-name="Path 78" d="M705.79,585.57s5.025,3.095,5.153,4S705.79,585.57,705.79,585.57Z" transform="translate(-466.156 -391.099)" opacity="0.1"/>
      <path id="Path_79" data-name="Path 79" d="M702.62,604.58s.773,3.479,2.062,4S702.62,604.58,702.62,604.58Z" transform="translate(-464.147 -403.147)" opacity="0.1"/>
      <path id="Path_80" data-name="Path 80" d="M422.583,167.594a.248.248,0,0,1-.018.114c-.176,1.146-.645,2.388-1.721,2.769a2.739,2.739,0,0,1-1.952-.179c-1.831-.8-3.461-2.728-5.417-2.263a3.244,3.244,0,0,0-2.044,1.795,9.009,9.009,0,0,0-.732,1.967,7.033,7.033,0,0,0-.1,4.362,4.45,4.45,0,0,0,.33.645c.52.831,1.253,1.538,1.765,2.377.637,1.047.8,2.619-.19,3.336a2.011,2.011,0,0,1-1.707.238,10.154,10.154,0,0,1-2.084-.923c-1.3-.678-2.93-1.1-4.16-.315-.425.264-.765.645-1.172.923a4.226,4.226,0,0,1-2.831.59c-2.329-.238-3.2-1.714-4.981-2.857-1.3-.842-4.029-1.2-4.8.52-.5,1.1.242,2.483-.245,3.6s-2.036,1.465-2.754,2.505c-.945,1.37-.066,3.351-.758,4.871a2.484,2.484,0,0,1-.421.645,22.04,22.04,0,0,1,31.166-31.13l.989-.037c.963-.037,1.985-.088,3.014-.15a8.394,8.394,0,0,1,.568,1.608A13.4,13.4,0,0,1,422.583,167.594Z" transform="translate(-260.125 -118.397)" opacity="0.1"/>
      <path id="Path_81" data-name="Path 81" d="M374.137,166.568c-.5,1.1.238,2.483-.245,3.6s-2.044,1.465-2.754,2.505c-.949,1.373-.07,3.355-.758,4.871-.791,1.732-3.179,2-5.01,1.5a10.255,10.255,0,0,1-6.834-6.391c-1.242-3.534-.439-7.424-.762-11.155a18.506,18.506,0,0,0-1.025-4.684,19.877,19.877,0,0,1-1.428-4.464,6.636,6.636,0,0,1,3.582-6.523c1.509-.732,3.366-.941,4.464-2.2.842-.974,1.022-2.333,1.414-3.56,1.058-3.3,4.219-5.984,7.691-5.951,2.776.022,5.493,1.659,8.207,1.014,1.535-.366,2.93-1.465,4.512-1.307a5.724,5.724,0,0,1,2.135.795,83.208,83.208,0,0,1,11.979,7.874,13.486,13.486,0,0,0,2.538,1.725,15.746,15.746,0,0,1,1.71.787,5.515,5.515,0,0,1,2.139,3.483,13.3,13.3,0,0,1,.271,4.988c-.161,1.176-.623,2.494-1.74,2.886a2.736,2.736,0,0,1-1.956-.187c-1.831-.795-3.457-2.721-5.413-2.26-1.6.366-2.366,2.175-2.783,3.761a6.991,6.991,0,0,0-.1,4.365c.469,1.135,1.465,1.967,2.091,3.018s.806,2.622-.19,3.336c-1.1.795-2.589-.051-3.794-.681-1.289-.678-2.93-1.1-4.157-.319-.421.264-.762.645-1.172.927a4.263,4.263,0,0,1-2.827.586c-2.333-.238-3.2-1.714-4.981-2.857C377.635,165.2,374.917,164.843,374.137,166.568Z" transform="translate(-244.021 -104.787)" fill="#474463"/>
      <path id="Path_82" data-name="Path 82" d="M579.885,357.972c-.1.549-.853.612-1.007,1.146-1.465,5.168-4.688,9.815-9.661,11.719-.956-1.505-1.747-2.49-1.747-2.49s9.28-17.011,9.8-14.693A19.168,19.168,0,0,0,579.885,357.972Z" transform="translate(-378.493 -243.981)" opacity="0.1"/>
      <path id="Path_83" data-name="Path 83" d="M543.23,326.661a16.953,16.953,0,1,1-4.966-12.047A17.016,17.016,0,0,1,543.23,326.661Z" transform="translate(-341.564 -216.23)" fill="#ffc1c8"/>
      <path id="Path_84" data-name="Path 84" d="M552.021,749.508l.125,2.249c-1.491.33-4.325.762-5.977-.249-2.135-1.308-5.288-1.626-8.178-3.406a12.209,12.209,0,0,0-.081-2.392Z" transform="translate(-359.759 -492.591)" opacity="0.1"/>
      <path id="Path_85" data-name="Path 85" d="M617.373,762.12c-.1.5-.19.809-.19.809s-11.372-1.165-14.649-2.736c0-1.135-.033-2.564-.033-2.564l14.312,1.74Z" transform="translate(-400.694 -500.145)" opacity="0.1"/>
      <path id="Path_86" data-name="Path 86" d="M571.008,596c-.773,2.062-1.161,2.45-.385,3.479s.385,6.446-.846,6.958-5.86,3.607-5.86,3.607,2.564,3.351,2.641,4.761a4.314,4.314,0,0,0,1,2.45s3.97,8.508,4.761,11.214,1.516,6.958,1.516,6.958-1.388,3.867-.428,6.061,0,5.413,0,5.413-13.847-1.417-15.382-3.237-.513-5.915-.513-5.915a14.807,14.807,0,0,0-1.934-5.157c-1.549-2.45.366-5.025,0-5.156s-1.549-1.545-2.714-3.864-1.89-1.421-1.89-1.421,1.509,13.02,0,14.18-1.714.645-1.326,2.2a39.856,39.856,0,0,1,.645,4.512s-4.64,1.417-6.958,0-5.808-1.677-8.874-3.867,1.388-5.929,2.161-6.446-.256-7.991-.256-7.991L535.33,617.4s3.479.773,2.337-2.062-2.465-12.631-3.109-14.177,2.2-3.611,1.805-4.64,1.674-6.958,1.674-6.958.132-4.9,1.417-5.816a4.545,4.545,0,0,0,1.022-2.6,32.282,32.282,0,0,0,.4-4.219s29.515-2.062,34.283.773c2.146,1.275,2,3.622,1.1,6-1.1,2.9-3.355,5.86-3.922,6.933C571.268,592.609,571.781,593.942,571.008,596Z" transform="translate(-356.897 -385.162)" fill="#575988"/>
      <path id="Path_87" data-name="Path 87" d="M588.43,583.7c-3.662,1.029-8.541,2.542-9.335,3.41-1.289,1.421-5.673-7.991-5.673-7.991s.26,7.076-5.541,4.116c-5.021-2.564-13.126-2.227-15.221-2.088a32.262,32.262,0,0,0,.4-4.219s29.515-2.062,34.283.773C589.488,578.974,589.338,581.322,588.43,583.7Z" transform="translate(-369.107 -385.162)" opacity="0.1"/>
      <path id="Path_88" data-name="Path 88" d="M570.791,380.113s2.564-3.095,3.095-1.934,3.556,3.479,3.556,3.479.868,2.706,2.4,3.095,13,15.854,13,15.854l-4.127,8.376-3.351,20.366s.147,3.223-.765,4.395-4.395.9-2.78,2.318,3.933,2.706,5.222,9.156a59.914,59.914,0,0,0,2.835,10.181s-12.115,3.095-13.4,4.512-5.673-7.991-5.673-7.991.26,7.072-5.541,4.116-15.726-2.055-15.726-2.055v-7.618s1.934-2.966.9-5.028.7-5.929.7-5.929a30.36,30.36,0,0,0-1.608-6.314c-1.033-2.318-.645-13.276-.645-13.276s-.784-7.09-.07-10.7a32.008,32.008,0,0,1,3.175-8.965c1.417-2.761,2.315-5.34,1.93-6.372s3.4-3.267,3.4-3.267l2.1,3.395.535,2.029S571.051,383.98,570.791,380.113Z" transform="translate(-366.477 -259.496)" fill="#dce6f2"/>
      <path id="Path_89" data-name="Path 89" d="M608.713,432.83s7.218,7.087,7.991,8.248,3.362,7.2.011,9.028-16.48,4.655-17.784,3.681-9.156,1.1-9.156,1.1-13.133,3.223-10.3-2.062,9.54-4.395,9.54-4.395,10.833-.018,11.99-1.1,9.888-3.4,7.911-8.174S608.713,432.83,608.713,432.83Z" transform="translate(-385.849 -294.297)" fill="#ffc1c8"/>
      <path id="Path_90" data-name="Path 90" d="M575.717,519.41s-16.814,14.565-15.14,14.565S575.717,519.41,575.717,519.41Z" transform="translate(-374.051 -349.169)" opacity="0.1"/>
      <path id="Path_91" data-name="Path 91" d="M625.051,535.6s-5.343,1.286-4.311,2.062S625.051,535.6,625.051,535.6Z" transform="translate(-412.171 -359.43)" opacity="0.1"/>
      <path id="Path_92" data-name="Path 92" d="M581.29,439.16s6.669.6,5.493,2.684S581.29,439.16,581.29,439.16Z" transform="translate(-387.252 -298.309)" opacity="0.1"/>
      <path id="Path_93" data-name="Path 93" d="M569.244,610.09s-.9,2.622,0,4.029,0,4.761,0,4.761V630.6s-.125,8.508,2.963,11.47Z" transform="translate(-379.363 -406.639)" opacity="0.1"/>
      <path id="Path_94" data-name="Path 94" d="M545.83,709.81a22.01,22.01,0,0,1,2.062,3.607C548.152,714.384,545.83,709.81,545.83,709.81Z" transform="translate(-364.779 -469.839)" opacity="0.1"/>
      <path id="Path_95" data-name="Path 95" d="M547.06,694.578s4.19-.773,4.834-.322S547.06,694.578,547.06,694.578Z" transform="translate(-365.558 -459.891)" opacity="0.1"/>
      <path id="Path_96" data-name="Path 96" d="M543.188,738.49s-1.227.128,1.223,1.465,7.218,3.029,7.281,2.45S543.188,738.49,543.188,738.49Z" transform="translate(-362.91 -488.015)" opacity="0.1"/>
      <path id="Path_97" data-name="Path 97" d="M592.69,703.365c.432,0,5.827-.322,5.515.516S592.69,703.365,592.69,703.365Z" transform="translate(-394.477 -465.715)" opacity="0.1"/>
      <path id="Path_98" data-name="Path 98" d="M612.7,680.378s1.223-2.124,1.674-1.223S612.7,680.378,612.7,680.378Z" transform="translate(-407.159 -450.269)" opacity="0.1"/>
      <path id="Path_99" data-name="Path 99" d="M543.237,326.615a16.956,16.956,0,0,1-.652,4.677,2.549,2.549,0,0,1-2.813.172,7.576,7.576,0,0,1-2.362-2.564,5.837,5.837,0,0,0-2.516-2.366,4.576,4.576,0,0,0-4.157.864c-1.2.864-2.161,2.007-3.3,2.93a5.361,5.361,0,0,1-4.029,1.443,6.917,6.917,0,0,1-2.564-1.179,23.011,23.011,0,0,0-3.483-2.234c-1.2-.465-2.2.366-3.344.366-.912.33-1.9,1.08-1.721,2.029a3.145,3.145,0,0,0,.469.982,4.12,4.12,0,0,1-.538,4.538,17.015,17.015,0,1,1,31.009-9.68Z" transform="translate(-341.57 -216.184)" opacity="0.1"/>
      <path id="Path_100" data-name="Path 100" d="M508.245,316.619c-.912.33-1.9,1.08-1.725,2.033a3.262,3.262,0,0,0,.472.978,4.111,4.111,0,0,1-1.831,5.534,1.622,1.622,0,0,1-1.018.161,1.8,1.8,0,0,1-.732-.439,6.779,6.779,0,0,1-2.113-3.644,43.9,43.9,0,0,1-.282-4.523c-.161-1.505-.678-2.988-.857-4.5a4.178,4.178,0,0,1,.231-2.227,5.178,5.178,0,0,1,.923-1.267,11.893,11.893,0,0,0,2.619-3.772c.817-2.315.223-5.263,2.011-6.958a11.174,11.174,0,0,1,3.01-1.556,21.208,21.208,0,0,0,2.765-1.754c3.314-2.278,7.343-4.029,11.284-3.223a16.048,16.048,0,0,1,4.472,1.831,50.273,50.273,0,0,1,7.325,4.922,11.4,11.4,0,0,1,2.564,2.633,9.13,9.13,0,0,1,1.121,2.8,16.055,16.055,0,0,1,.213,6.592c-.366,2.146-1.2,4.23-1.231,6.409a4.141,4.141,0,0,1-.319,2.153,2.387,2.387,0,0,1-3.128.542,7.462,7.462,0,0,1-2.359-2.564,5.787,5.787,0,0,0-2.516-2.362,4.575,4.575,0,0,0-4.157.861c-1.2.861-2.157,2.007-3.3,2.93a5.341,5.341,0,0,1-4.029,1.443,6.909,6.909,0,0,1-2.564-1.176,22.6,22.6,0,0,0-3.479-2.234C510.416,315.777,509.387,316.619,508.245,316.619Z" transform="translate(-335.796 -204.572)" fill="#794f6a"/>
      <path id="Path_101" data-name="Path 101" d="M602.062,432.83s-18.945,17.528-15.081,26.292,20.875-6.7,20.875-6.7l6.065-14.034Z" transform="translate(-390.529 -294.297)" fill="#f8bdc5"/>
      <g id="Group_62" data-name="Group 62" transform="translate(164.315 102.323)" opacity="0.1">
        <path id="Path_102" data-name="Path 102" d="M505.173,358.191a1.612,1.612,0,0,1-1.014.161,1.75,1.75,0,0,1-.732-.443,6.79,6.79,0,0,1-2.117-3.64c-.311-1.483-.117-3.021-.278-4.527s-.681-2.985-.857-4.5a.967.967,0,0,0-.018-.227,5.8,5.8,0,0,0,.018,1.26c.176,1.516.7,2.981.857,4.5a44.894,44.894,0,0,0,.278,4.523,6.786,6.786,0,0,0,2.117,3.644,1.78,1.78,0,0,0,.732.44,1.612,1.612,0,0,0,1.014-.161,4.137,4.137,0,0,0,2.256-4.226,4.061,4.061,0,0,1-2.256,3.2Z" transform="translate(-500.13 -340.963)"/>
        <path id="Path_103" data-name="Path 103" d="M549.749,336.264c-.366,2.146-1.2,4.23-1.227,6.409a4.106,4.106,0,0,1-.322,2.153,2.381,2.381,0,0,1-3.124.542,7.476,7.476,0,0,1-2.362-2.564,5.767,5.767,0,0,0-2.516-2.362,4.571,4.571,0,0,0-4.153.864c-1.2.864-2.161,2-3.3,2.93a5.365,5.365,0,0,1-4.029,1.447,6.975,6.975,0,0,1-2.564-1.179,22.885,22.885,0,0,0-3.479-2.234c-1.2-.465-2.2.366-3.344.366-.912.333-1.9,1.08-1.729,2.036a1.519,1.519,0,0,0,.1.3,2.849,2.849,0,0,1,1.63-1.3c1.143,0,2.153-.82,3.344-.366a22.065,22.065,0,0,1,3.479,2.234,6.8,6.8,0,0,0,2.564,1.176,5.284,5.284,0,0,0,4.029-1.443c1.128-.934,2.1-2.087,3.3-2.93a4.62,4.62,0,0,1,4.153-.861,5.812,5.812,0,0,1,2.516,2.362,7.782,7.782,0,0,0,2.362,2.564,2.358,2.358,0,0,0,3.124-.542,4.372,4.372,0,0,0,.322-2.153c.029-2.179.85-4.263,1.227-6.409a16.209,16.209,0,0,0,.234-3.34A16.258,16.258,0,0,1,549.749,336.264Z" transform="translate(-511.192 -333.96)"/>
      </g>
      <path id="Path_104" data-name="Path 104" d="M562.875,176.615s-6.958,12.631,2.564,19.077,10.441,5.8,10.441,5.8a9.261,9.261,0,0,0,0,1.934c.132.388,2.564,1.285,2.564,1.285s2.963,4.761,7.215,6.834,5.028,6.958,5.028,6.958,0,1.677,2.2,3.223,3.889,6.057,3.889,6.057v4.127c0,.645.773,2.564-.9,2.769s-.26,4.062-.26,4.062-1.8,2.2-1.417,3.223-.773,3.091-.773,3.091-1.417,2.062-1.289,2.45-1.545,1.806-1.161,2.706-1.93,2.062-1.546,3.095-1.648,1.546-1.648,1.546l-5.57,12.891s11.719,2.564,14.744,9.02L611.726,249.7s8.248-20.234,8.508-21.523-1.806-5.929-1.806-5.929l-10.053-18.312-15.081-21.267S581.307,157.154,562.875,176.615Z" transform="translate(-374.026 -127.278)" opacity="0.1"/>
      <path id="Path_105" data-name="Path 105" d="M588.118,191.707s-18.106,6.354-8.57,12.8,10.441,5.8,10.441,5.8a9.533,9.533,0,0,0,0,1.934c.128.385,2.564,1.289,2.564,1.289s2.966,4.761,7.218,6.834,5.028,6.958,5.028,6.958,0,1.677,2.2,3.223,3.867,6.057,3.867,6.057v4.124c0,.645.773,2.564-.9,2.772s-.256,4.062-.256,4.062-1.805,2.2-1.417,3.219-.773,3.095-.773,3.095-1.417,2.062-1.289,2.45-1.549,1.806-1.161,2.706-1.934,2.062-1.546,3.095-1.652,1.546-1.652,1.546L596.3,276.556s9.654.5,12.7,6.958l16.814-24.988s8.251-20.234,8.508-21.523-1.8-5.944-1.8-5.944l-10.053-18.312-22.933-13.228S606.551,172.242,588.118,191.707Z" transform="translate(-384.39 -137.042)" opacity="0.1"/>
      <path id="Path_106" data-name="Path 106" d="M565.695,176.618s-6.958,12.631,2.564,19.077,10.441,5.8,10.441,5.8a9.529,9.529,0,0,0,0,1.934c.128.388,2.564,1.285,2.564,1.285s2.966,4.761,7.218,6.834,5.028,6.958,5.028,6.958,0,1.677,2.2,3.223,3.886,6.057,3.886,6.057v4.127c0,.645.773,2.564-.9,2.769s-.256,4.062-.256,4.062-1.806,2.2-1.417,3.223-.773,3.091-.773,3.091-1.417,2.062-1.289,2.45-1.549,1.806-1.161,2.706-1.934,2.062-1.545,3.095-1.652,1.545-1.652,1.545l-5.567,12.891s11.7,2.564,14.741,9.02L614.543,249.7s8.251-20.234,8.508-21.523-1.805-5.929-1.805-5.929l-10.053-18.312-15.078-21.26S584.124,157.156,565.695,176.618Z" transform="translate(-375.813 -127.281)" fill="#fe9805"/>
      <g id="Group_63" data-name="Group 63" transform="translate(111.27 46.389)" opacity="0.1">
        <path id="Path_107" data-name="Path 107" d="M357.774,190.521a18.376,18.376,0,0,0-1.025-4.688,19.876,19.876,0,0,1-1.428-4.464v-.139a5.967,5.967,0,0,0,0,1.172,20.055,20.055,0,0,0,1.428,4.464,18.349,18.349,0,0,1,1.025,4.684c.051.6.073,1.209.081,1.831C357.865,192.411,357.854,191.462,357.774,190.521Z" transform="translate(-355.291 -181.23)"/>
        <path id="Path_108" data-name="Path 108" d="M374.721,233.517c-.787,1.729-3.179,2-5.01,1.494a10.276,10.276,0,0,1-6.834-6.387,15.126,15.126,0,0,1-.732-4.875,16.758,16.758,0,0,0,.732,5.9,10.28,10.28,0,0,0,6.834,6.391c1.831.505,4.223.234,5.01-1.5a5.588,5.588,0,0,0,.286-2.417A3.776,3.776,0,0,1,374.721,233.517Z" transform="translate(-359.633 -208.178)"/>
        <path id="Path_109" data-name="Path 109" d="M472.378,182.551c-.157,1.172-.623,2.49-1.74,2.882a2.739,2.739,0,0,1-1.952-.183c-1.831-.8-3.461-2.725-5.417-2.26-1.6.366-2.362,2.172-2.783,3.761a9.261,9.261,0,0,0-.392,3.1,12.079,12.079,0,0,1,.392-2.073c.421-1.586,1.187-3.38,2.783-3.761,1.956-.461,3.571,1.465,5.417,2.26a2.725,2.725,0,0,0,1.952.187c1.117-.392,1.582-1.71,1.74-2.886a13.316,13.316,0,0,0,.11-2.26C472.469,181.73,472.433,182.144,472.378,182.551Z" transform="translate(-421.707 -181.287)"/>
        <path id="Path_110" data-name="Path 110" d="M428.154,220.148c-1.1.795-2.589-.051-3.794-.685-1.289-.678-2.93-1.1-4.157-.319-.421.264-.762.645-1.172.927a4.215,4.215,0,0,1-2.827.586c-2.333-.238-3.2-1.714-4.981-2.857-1.3-.839-4.029-1.2-4.8.524a3.124,3.124,0,0,0-.15,1.586,2.062,2.062,0,0,1,.15-.553c.78-1.725,3.5-1.366,4.8-.524,1.776,1.143,2.648,2.619,4.981,2.857a4.237,4.237,0,0,0,2.827-.59c.41-.278.751-.659,1.172-.923,1.238-.769,2.868-.366,4.157.319,1.2.63,2.688,1.465,3.794.681a2.03,2.03,0,0,0,.656-2.091A1.692,1.692,0,0,1,428.154,220.148Z" transform="translate(-387.572 -203.964)"/>
        <path id="Path_111" data-name="Path 111" d="M400.487,229.361c-.5,1.15-2.044,1.465-2.754,2.5a4.436,4.436,0,0,0-.469,2.692,3.047,3.047,0,0,1,.469-1.659c.71-1.036,2.252-1.355,2.754-2.505a3.186,3.186,0,0,0,.139-1.56A2.064,2.064,0,0,1,400.487,229.361Z" transform="translate(-381.886 -211.397)"/>
      </g>
    </g>
    <g id="stars" transform="translate(90.55 219.651)">
      <path id="Path_607" data-name="Path 607" d="M16.884,36.323l1.527,4.14a.4.4,0,0,0,.743,0l1.527-4.14a12.206,12.206,0,0,1,7.229-7.229l4.14-1.527a.4.4,0,0,0,0-.743L27.91,25.3a12.206,12.206,0,0,1-7.229-7.229l-1.527-4.14a.4.4,0,0,0-.743,0l-1.527,4.14A12.206,12.206,0,0,1,9.655,25.3l-4.14,1.527a.4.4,0,0,0,0,.743l4.14,1.527A12.205,12.205,0,0,1,16.884,36.323Z" transform="translate(12.194 240.567)" fill="#9d29b2"/>
      <path id="Path_608" data-name="Path 608" d="M126.945,150.353l-6.618-2.44a19.511,19.511,0,0,1-11.556-11.556l-2.441-6.618a.633.633,0,0,0-1.188,0l-2.441,6.617a19.513,19.513,0,0,1-11.556,11.556l-6.618,2.44a.633.633,0,0,0,0,1.188l6.618,2.441A19.513,19.513,0,0,1,102.7,165.538l2.441,6.618a.633.633,0,0,0,1.188,0l2.441-6.618a19.512,19.512,0,0,1,11.556-11.556l6.618-2.441a.633.633,0,0,0,0-1.188Z" transform="translate(184.555 124.911)" fill="#09a8f9"/>
      <path id="Path_609" data-name="Path 609" d="M241.843,85.786l-4.5-1.659a13.262,13.262,0,0,1-7.854-7.854l-1.659-4.5a.431.431,0,0,0-.808,0l-1.658,4.5a13.261,13.261,0,0,1-7.854,7.854l-4.5,1.659a.43.43,0,0,0,0,.808l4.5,1.658a13.264,13.264,0,0,1,7.854,7.854l1.658,4.5a.431.431,0,0,0,.808,0l1.659-4.5a13.26,13.26,0,0,1,7.854-7.854l4.5-1.659a.43.43,0,0,0,0-.808Z" transform="translate(20.686 -65.69)" fill="#9d29b2"/>
      <path id="Path_610" data-name="Path 610" d="M227.433,251.8l-3.138-1.157a9.25,9.25,0,0,1-5.478-5.478l-1.157-3.137a.3.3,0,0,0-.563,0l-1.157,3.137a9.248,9.248,0,0,1-5.478,5.478l-3.138,1.157a.3.3,0,0,0,0,.563l3.137,1.157a9.25,9.25,0,0,1,5.478,5.478l1.157,3.137a.3.3,0,0,0,.563,0l1.157-3.137a9.25,9.25,0,0,1,5.478-5.478l3.137-1.157a.3.3,0,0,0,0-.563Z" transform="translate(26.292 -164.147)" fill="#0b43ca"/>
      <path id="Path_611" data-name="Path 611" d="M165.4,9.968l-3.138-1.157a9.248,9.248,0,0,1-5.478-5.478L155.626.2a.3.3,0,0,0-.563,0l-1.157,3.136a9.251,9.251,0,0,1-5.478,5.478L145.29,9.968a.3.3,0,0,0,0,.563l3.137,1.157a9.25,9.25,0,0,1,5.479,5.479l1.157,3.137a.3.3,0,0,0,.563,0l1.157-3.137a9.247,9.247,0,0,1,5.478-5.478l3.137-1.157a.3.3,0,0,0,0-.563Z" transform="translate(-1.681 38.039)" fill="#ec3b95"/>
      <path id="Path_612" data-name="Path 612" d="M46.842,226.95l-2.929-1.08a8.638,8.638,0,0,1-5.115-5.115l-1.08-2.929a.28.28,0,0,0-.526,0l-1.08,2.929A8.637,8.637,0,0,1,31,225.87l-2.929,1.08a.28.28,0,0,0,0,.526L31,228.556a8.637,8.637,0,0,1,5.115,5.115l1.08,2.929a.28.28,0,0,0,.526,0l1.08-2.929a8.636,8.636,0,0,1,5.115-5.115l2.929-1.08a.28.28,0,0,0,0-.526Z" transform="translate(36.811 -159.103)" fill="#fe9805"/>
    </g>
  </g>
</svg>
