<svg xmlns="http://www.w3.org/2000/svg" width="61" height="61" viewBox="0 0 61 61">
  <g id="Group_16186" data-name="Group 16186" transform="translate(-93 -941)">
    <g id="crying-black" transform="translate(93 941)">
      <path id="Path_2951" data-name="Path 2951" d="M30.5,0A30.5,30.5,0,1,1,0,30.5,30.5,30.5,0,0,1,30.5,0Zm4.587,22.259a1.66,1.66,0,0,1,2.576-2.095,3.118,3.118,0,0,0,.427.417,6.331,6.331,0,0,0,3.579,1.251,5.632,5.632,0,0,0,3.867-1.117,4.564,4.564,0,0,0,.635-.64,1.662,1.662,0,0,1,2.571,2.1,7.848,7.848,0,0,1-1.117,1.107A8.9,8.9,0,0,1,41.5,25.144a9.733,9.733,0,0,1-5.515-1.991,5.85,5.85,0,0,1-.894-.894ZM15.707,44.683a1.659,1.659,0,0,1-2.914-1.589,19.415,19.415,0,0,1,9.462-8.509,22.217,22.217,0,0,1,9.422-1.792,20.347,20.347,0,0,1,9.129,2.4,16.751,16.751,0,0,1,7.466,8.126,1.654,1.654,0,1,1-3.038,1.311A13.464,13.464,0,0,0,39.227,38.1a17.02,17.02,0,0,0-7.635-2,18.918,18.918,0,0,0-8.017,1.519,16.16,16.16,0,0,0-7.868,7.059ZM12.262,22.259a1.66,1.66,0,0,1,2.576-2.095,3.118,3.118,0,0,0,.427.417,6.317,6.317,0,0,0,3.579,1.251,5.632,5.632,0,0,0,3.867-1.117,4.564,4.564,0,0,0,.635-.64,1.662,1.662,0,1,1,2.571,2.1A7.848,7.848,0,0,1,24.8,23.287a8.9,8.9,0,0,1-6.131,1.857,9.733,9.733,0,0,1-5.515-1.991,5.85,5.85,0,0,1-.894-.894Z" fill="#fe9805" fill-rule="evenodd"/>
    </g>
  </g>
</svg>
