<svg xmlns="http://www.w3.org/2000/svg" width="27.805" height="27.101" viewBox="0 0 27.805 27.101">
  <g id="Group_74" data-name="Group 74" transform="translate(-175.201 -824.968)">
    <path id="Icon_awesome-arrow-right" data-name="Icon awesome-arrow-right" d="M11.822,4.462,13.2,3.085a1.483,1.483,0,0,1,2.1,0L27.368,15.143a1.483,1.483,0,0,1,0,2.1L15.3,29.311a1.483,1.483,0,0,1-2.1,0l-1.378-1.378a1.491,1.491,0,0,1,.025-2.129l7.478-7.124H1.489A1.486,1.486,0,0,1,0,17.191V15.2a1.486,1.486,0,0,1,1.489-1.489H19.325L11.847,6.591A1.48,1.48,0,0,1,11.822,4.462Z" transform="translate(175.201 822.321)"/>
  </g>
</svg>
