<svg xmlns="http://www.w3.org/2000/svg" width="18.5" height="21.242" viewBox="0 0 18.5 21.242">
  <g id="child-care-svgrepo-com" transform="translate(-6.149 -3)">
    <path id="Path_4019" data-name="Path 4019" d="M16.969,26.236c-.023.412-.276,2.181-.325,2.517h-.729v2.532h5.7V28.753h-.73a8.549,8.549,0,0,1,1.209-1.43,8.555,8.555,0,0,0,1.329-1.607c.107-.174.215-.34.32-.5h0a4.311,4.311,0,0,0,.785-1.636,33.481,33.481,0,0,0,.016-5.408c-.2-.625-1.424-1-1.876.385a11.625,11.625,0,0,0-.381,2.36h0a5.742,5.742,0,0,1-.35,1.9c-.4.677-1.689,2.356-1.689,2.356l1.122-2.111a1.418,1.418,0,0,0,.095-.854c-.076-.562-.713-1.358-1.032-.741a5.565,5.565,0,0,1-.865,1.168l-1.938,2.332A3.546,3.546,0,0,0,16.969,26.236Zm-3.14,0c.023.412.276,2.181.325,2.517h.729v2.532h-5.7V28.753h.73a8.551,8.551,0,0,0-1.209-1.43,8.554,8.554,0,0,1-1.329-1.607c-.107-.174-.215-.34-.32-.5h0a4.311,4.311,0,0,1-.785-1.636,33.481,33.481,0,0,1-.016-5.408c.2-.625,1.424-1,1.876.385a11.63,11.63,0,0,1,.381,2.36h0a5.743,5.743,0,0,0,.35,1.9c.4.677,1.689,2.356,1.689,2.356L9.431,23.057a1.418,1.418,0,0,1-.095-.854c.076-.562.713-1.358,1.032-.741a5.565,5.565,0,0,0,.865,1.168l1.938,2.332A3.546,3.546,0,0,1,13.829,26.236Z" transform="translate(0 -7.043)"/>
    <path id="Path_4020" data-name="Path 4020" d="M29.8,7.144a2.072,2.072,0,1,0-2.072-2.072A2.072,2.072,0,0,0,29.8,7.144Z" transform="translate(-10.402)"/>
    <path id="Path_4021" data-name="Path 4021" d="M28.193,12.838H27.48L26.3,11.659a2.071,2.071,0,0,0-1.769-.975H22.272l.215,4.306h1.938a2.142,2.142,0,0,0,1.539-.655l.332.332a1.055,1.055,0,0,0,.784.319c.012,0,.023,0,.036,0h1.077a1.076,1.076,0,1,0,0-2.153Z" transform="translate(-7.772 -3.704)"/>
    <path id="Path_4022" data-name="Path 4022" d="M15.078,12.471,14,13.547H12.753a1.077,1.077,0,0,0,0,2.153h1.613a.14.14,0,0,0,.036,0,1.057,1.057,0,0,0,.784-.319l1.4-1.4a1.067,1.067,0,1,0-1.509-1.509Z" transform="translate(-2.664 -4.414)"/>
  </g>
</svg>
