<svg xmlns="http://www.w3.org/2000/svg" width="17.111" height="14" viewBox="0 0 17.111 14">
  <g id="Group_15360" data-name="Group 15360" transform="translate(-71 -242)">
    <path id="Subtraction_4" data-name="Subtraction 4" d="M8.555,14A6.921,6.921,0,0,1,3.92,12.227,7.03,7.03,0,0,1,2.232,9.979,3.123,3.123,0,0,1,.047,7.513a2.847,2.847,0,0,1,0-1.027A3.12,3.12,0,0,1,2.232,4.021,6.97,6.97,0,0,1,13.175,1.758a7.06,7.06,0,0,1,1.7,2.263,3.123,3.123,0,0,1,2.186,2.465,2.847,2.847,0,0,1,0,1.027,3.121,3.121,0,0,1-2.178,2.465A7.089,7.089,0,0,1,13.2,12.227,6.963,6.963,0,0,1,8.555,14ZM5.185,9.074a3.792,3.792,0,0,0,7,0h-7Zm5.38-4.018a.972.972,0,1,0,.972.973A.973.973,0,0,0,10.565,5.055Zm-3.889,0a.972.972,0,1,0,.972.973A.974.974,0,0,0,6.676,5.055Z" transform="translate(71 242)"/>
  </g>
</svg>
