<svg xmlns="http://www.w3.org/2000/svg" width="24.638" height="24.365" viewBox="0 0 24.638 24.365">
  <g id="money-svgrepo-com" transform="matrix(0.719, -0.695, 0.695, 0.719, -49.898, -35.794)">
    <g id="Group_16135" data-name="Group 16135" transform="translate(0 71.831)">
      <g id="Group_16134" data-name="Group 16134">
        <path id="Path_4305" data-name="Path 4305" d="M178.171,112.1h-5.354a4.745,4.745,0,0,1,0,5.6h5.354a1.777,1.777,0,0,1,1.042-1.042v-3.518A1.777,1.777,0,0,1,178.171,112.1Zm-.158,3.236a.617.617,0,1,1,.18-.436A.62.62,0,0,1,178.013,115.34Z" transform="translate(-159.518 -109.005)"/>
        <path id="Path_4306" data-name="Path 4306" d="M42.112,112.1a1.777,1.777,0,0,1-1.042,1.042v3.518a1.777,1.777,0,0,1,1.042,1.042h5.354a4.745,4.745,0,0,1,0-5.6Zm1.029,3.236a.617.617,0,1,1,.18-.436A.62.62,0,0,1,43.141,115.34Z" transform="translate(-37.909 -109.005)"/>
        <path id="Path_4307" data-name="Path 4307" d="M22.24,71.831H.616A.616.616,0,0,0,0,72.447V83.015a.616.616,0,0,0,.616.616H22.24a.616.616,0,0,0,.616-.616V72.447A.616.616,0,0,0,22.24,71.831ZM20.926,80a.616.616,0,0,1-.616.616.537.537,0,0,0-.537.537.616.616,0,0,1-.616.616H3.7a.616.616,0,0,1-.616-.616.537.537,0,0,0-.537-.537A.616.616,0,0,1,1.929,80V75.467a.616.616,0,0,1,.616-.616.537.537,0,0,0,.537-.537A.616.616,0,0,1,3.7,73.7H19.158a.616.616,0,0,1,.616.616.537.537,0,0,0,.537.537.616.616,0,0,1,.616.616Z" transform="translate(0 -71.831)"/>
        <path id="Path_4308" data-name="Path 4308" d="M129.851,115.76c-.843,0-1.555,1.154-1.555,2.52s.712,2.52,1.555,2.52,1.555-1.154,1.555-2.52S130.694,115.76,129.851,115.76Z" transform="translate(-118.423 -112.379)"/>
      </g>
    </g>
  </g>
</svg>
