<svg xmlns="http://www.w3.org/2000/svg" width="30" height="30" viewBox="0 0 30 30">
  <g id="Group_16177" data-name="Group 16177" transform="translate(-379 -62)">
    <path id="Path_4023" data-name="Path 4023" d="M15,0A15,15,0,1,1,0,15,15,15,0,0,1,15,0Z" transform="translate(379 62)" fill="#fe9805"/>
    <path id="Icon_awesome-history" data-name="Icon awesome-history" d="M16.562,8.547A8,8,0,0,1,3.542,14.791a.774.774,0,0,1-.059-1.149l.363-.363a.776.776,0,0,1,1.029-.064A5.936,5.936,0,1,0,4.5,4.238L6.133,5.875a.516.516,0,0,1-.365.881H1.079A.516.516,0,0,1,.563,6.24V1.55a.516.516,0,0,1,.881-.365L3.036,2.778A8,8,0,0,1,16.562,8.547Zm-5.836,2.541.317-.407a.774.774,0,0,0-.136-1.086L9.595,8.574V5.208a.774.774,0,0,0-.774-.774H8.3a.774.774,0,0,0-.774.774V9.583l2.11,1.641A.774.774,0,0,0,10.727,11.089Z" transform="translate(385.438 68.438)" fill="#fff"/>
  </g>
</svg>
