<svg xmlns="http://www.w3.org/2000/svg" width="16" height="20" viewBox="0 0 16 20">
  <path id="profile-2036059" d="M5.848,13.55a26.927,26.927,0,0,1,4.326,0,17.642,17.642,0,0,1,2.336.294c1.67.338,2.76.89,3.227,1.779a2.463,2.463,0,0,1,0,2.215c-.467.89-1.514,1.477-3.244,1.779a16.768,16.768,0,0,1-2.336.3A19.913,19.913,0,0,1,7.968,20H6.644a6.309,6.309,0,0,0-.8-.053A15.989,15.989,0,0,1,3.5,19.653c-1.67-.32-2.76-.89-3.227-1.779A2.44,2.44,0,0,1,0,16.753a2.413,2.413,0,0,1,.268-1.13c.459-.89,1.549-1.468,3.236-1.779A17.085,17.085,0,0,1,5.848,13.55ZM8,0a5.327,5.327,0,0,1,5.251,5.4A5.327,5.327,0,0,1,8,10.8,5.327,5.327,0,0,1,2.751,5.4,5.327,5.327,0,0,1,8,0Z"/>
</svg>
